<svg width="400" height="600" viewBox="0 0 680 1020" xmlns="http://www.w3.org/2000/svg">
<defs>
<linearGradient id="gac130spectre" x1="0.933" y1="0.25" x2="0.067" y2="0.75"><stop offset="0.0" stop-color="#7e8d97"/><stop offset="0.5" stop-color="#2b3843"/><stop offset="1.0" stop-color="#05080b"/></linearGradient>
<radialGradient id="gac130spectrev" cx="50%" cy="62%" r="58%">
<stop offset="0" stop-color="#ffffff" stop-opacity="0.10"/><stop offset="1" stop-color="#000000" stop-opacity="0.35"/>
</radialGradient>
</defs>
<rect width="680" height="1020" fill="url(#gac130spectre)"/>
<rect width="680" height="1020" fill="url(#gac130spectrev)"/>
<rect x="0" y="0" width="680" height="148" fill="rgba(0,0,0,0.34)"/>
<line x1="0" y1="148" x2="680" y2="148" stroke="#e8e8e4" stroke-width="1.2"/>
<rect x="48" y="100" width="182" height="1.5" fill="#e8e8e4" opacity="0.5"/><rect x="450" y="100" width="182" height="1.5" fill="#e8e8e4" opacity="0.5"/>
<text x="343" y="135" text-anchor="middle" font-family="'Arial Black','Impact',sans-serif"
      font-weight="900" font-size="68" fill="rgba(0,0,0,0.45)" letter-spacing="4">SPECTRE</text>
<text x="340" y="132" text-anchor="middle" font-family="'Arial Black','Impact',sans-serif"
      font-weight="900" font-size="68" fill="#e8e8e4" letter-spacing="4">SPECTRE</text>
<g transform="translate(340,662) rotate(-18) scale(1.07)"><g opacity="0.20" transform="translate(7,10)"><path d="M -150 -14 L 150 -14 L 150 4 L -150 4 Z" fill="#000"/><path d="M 0,-100 C 14,-96 16,-72 16,-42 L 16,60 C 16,78 9,90 0,96 C -9,90 -16,78 -16,60 L -16,-42 C -16,-72 -14,-96 0,-100 Z" fill="#000"/></g><rect x="-66" y="-32" width="16" height="32" rx="5" fill="#c8d0d5"/><rect x="-59.5" y="-45" width="3" height="14" fill="#eef2f4"/><path d="M -72 -45 L -44 -45" stroke="#f2f6f8" stroke-width="2.4" opacity="0.9"/><rect x="-38" y="-32" width="16" height="32" rx="5" fill="#c8d0d5"/><rect x="-31.5" y="-45" width="3" height="14" fill="#eef2f4"/><path d="M -44 -45 L -16 -45" stroke="#f2f6f8" stroke-width="2.4" opacity="0.9"/><rect x="22" y="-32" width="16" height="32" rx="5" fill="#c8d0d5"/><rect x="28.5" y="-45" width="3" height="14" fill="#eef2f4"/><path d="M 16 -45 L 44 -45" stroke="#f2f6f8" stroke-width="2.4" opacity="0.9"/><rect x="50" y="-32" width="16" height="32" rx="5" fill="#c8d0d5"/><rect x="56.5" y="-45" width="3" height="14" fill="#eef2f4"/><path d="M 44 -45 L 72 -45" stroke="#f2f6f8" stroke-width="2.4" opacity="0.9"/><polygon points="-15,66 15,66 13,86 -13,86" fill="#8d979e"/><rect x="-56" y="74" width="112" height="12" rx="5" fill="#9aa4ab"/><path d="M -150 -14 L -34 -24 L 34 -24 L 150 -14 L 150 2 L 34 -8 L -34 -8 L -150 2 Z" fill="#aeb8be"/><path d="M 0,-100 C 14,-96 16,-72 16,-42 L 16,60 C 16,78 9,90 0,96 C -9,90 -16,78 -16,60 L -16,-42 C -16,-72 -14,-96 0,-100 Z" fill="#dde3e7"/><path d="M 0,-100 C 7,-96 8,-72 8,-42 L 8,60 C 8,78 4,90 0,96 Z" fill="#f4f7f9" opacity="0.7"/><polygon points="-4,60 4,60 5,100 -5,100" fill="#f4f7f9"/><rect x="-20" y="10" width="6" height="8" fill="#ffffff"/><rect x="-20" y="26" width="6" height="8" fill="#ffffff"/><rect x="-20" y="42" width="6" height="8" fill="#ffffff"/></g>
<circle cx="340" cy="660" r="178" fill="none" stroke="#ff2a1e" stroke-width="3" opacity="0.9"/><circle cx="340" cy="660" r="194" fill="none" stroke="#ff2a1e" stroke-width="1.4" opacity="0.55" stroke-dasharray="22 26"/><path d="M 166 440 L 120 440 L 120 486" stroke="#ff2a1e" stroke-width="5" fill="none" stroke-linecap="square"/><path d="M 166 880 L 120 880 L 120 834" stroke="#ff2a1e" stroke-width="5" fill="none" stroke-linecap="square"/><path d="M 514 440 L 560 440 L 560 486" stroke="#ff2a1e" stroke-width="5" fill="none" stroke-linecap="square"/><path d="M 514 880 L 560 880 L 560 834" stroke="#ff2a1e" stroke-width="5" fill="none" stroke-linecap="square"/><line x1="340" y1="512" x2="340" y2="452" stroke="#ff2a1e" stroke-width="3" opacity="0.9"/><line x1="340" y1="808" x2="340" y2="868" stroke="#ff2a1e" stroke-width="3" opacity="0.9"/><line x1="192" y1="660" x2="132" y2="660" stroke="#ff2a1e" stroke-width="3" opacity="0.9"/><line x1="488" y1="660" x2="548" y2="660" stroke="#ff2a1e" stroke-width="3" opacity="0.9"/>
<rect x="0" y="988" width="680" height="32" fill="rgba(0,0,0,0.34)"/>
<line x1="0" y1="988" x2="680" y2="988" stroke="#e8e8e4" stroke-width="0.8" opacity="0.3"/>
</svg>