<svg viewBox="0 0 680 1020" width="400" height="600" xmlns="http://www.w3.org/2000/svg">
  <defs>
    <radialGradient id="bg" cx="50%" cy="42%" r="70%">
      <stop offset="0%" stop-color="#0a1e24"/>
      <stop offset="100%" stop-color="#050d0f"/>
    </radialGradient>
    <radialGradient id="radarBg" cx="50%" cy="50%" r="50%">
      <stop offset="0%" stop-color="#001508"/>
      <stop offset="65%" stop-color="#000d05"/>
      <stop offset="100%" stop-color="#050d0f"/>
    </radialGradient>
    <filter id="titleGlow" x="-20%" y="-25%" width="140%" height="150%">
      <feGaussianBlur stdDeviation="10" result="blur"/>
      <feMerge><feMergeNode in="blur"/><feMergeNode in="SourceGraphic"/></feMerge>
    </filter>
    <filter id="blipGlow" x="-100%" y="-100%" width="300%" height="300%">
      <feGaussianBlur stdDeviation="6" result="blur"/>
      <feMerge><feMergeNode in="blur"/><feMergeNode in="SourceGraphic"/></feMerge>
    </filter>
    <filter id="sweepGlow" x="-8%" y="-8%" width="116%" height="116%">
      <feGaussianBlur stdDeviation="10" result="blur"/>
      <feMerge><feMergeNode in="blur"/><feMergeNode in="SourceGraphic"/></feMerge>
    </filter>
    <filter id="rimGlow" x="-3%" y="-3%" width="106%" height="106%">
      <feGaussianBlur stdDeviation="3" result="blur"/>
      <feMerge><feMergeNode in="blur"/><feMergeNode in="SourceGraphic"/></feMerge>
    </filter>
    <clipPath id="radarClip">
      <circle cx="340" cy="460" r="258"/>
    </clipPath>
    <clipPath id="pageClip">
      <rect width="680" height="1020"/>
    </clipPath>
  </defs>

  <g clip-path="url(#pageClip)">

    <!-- BACKGROUND -->
    <rect width="680" height="1020" fill="url(#bg)"/>

    <!-- ═══════════ TITLE AREA (y 0–200) ═══════════ -->
    <rect x="0" y="0" width="680" height="200" fill="rgba(5,13,15,0.88)"/>

    <!-- Classified bar -->
    <rect x="0" y="0" width="680" height="22" fill="rgba(255,55,0,0.05)"/>
    <text x="340" y="15" text-anchor="middle" font-family="monospace" font-size="9"
          letter-spacing="7" fill="rgba(255,90,45,0.55)">◈ CLASSIFIED ◈ TOP SECRET ◈ CLASSIFIED ◈</text>

    <!-- Corner bracket marks -->
    <g stroke="rgba(0,255,136,0.42)" stroke-width="1.5" fill="none">
      <polyline points="28,55 28,30 55,30"/>
      <polyline points="28,172 28,194 55,194"/>
      <polyline points="652,55 652,30 625,30"/>
      <polyline points="652,172 652,194 625,194"/>
    </g>

    <!-- BATTLESHIP title — glow + shadow + solid -->
    <text x="340" y="118" text-anchor="middle"
          font-family="'Arial Black', Arial, sans-serif" font-size="72" font-weight="900"
          letter-spacing="4" fill="#00ff88" filter="url(#titleGlow)" opacity="0.45">BATTLESHIP</text>
    <text x="344" y="122" text-anchor="middle"
          font-family="'Arial Black', Arial, sans-serif" font-size="72" font-weight="900"
          letter-spacing="4" fill="rgba(0,0,0,0.45)">BATTLESHIP</text>
    <text x="340" y="118" text-anchor="middle"
          font-family="'Arial Black', Arial, sans-serif" font-size="72" font-weight="900"
          letter-spacing="4" fill="#00ff88">BATTLESHIP</text>

    <!-- Subtitle block -->
    <text x="340" y="152" text-anchor="middle" font-family="monospace" font-size="15"
          letter-spacing="9" fill="rgba(0,200,100,0.65)">NAVAL COMMAND</text>
    <line x1="190" y1="162" x2="490" y2="162" stroke="rgba(0,255,136,0.18)" stroke-width="0.8"/>
    <text x="340" y="183" text-anchor="middle" font-family="monospace" font-size="10"
          letter-spacing="5" fill="rgba(0,170,85,0.38)">SURFACE WARFARE DIVISION</text>

    <!-- Divider below title -->
    <line x1="0" y1="199" x2="680" y2="199" stroke="rgba(0,255,136,0.40)" stroke-width="1.5"/>
    <line x1="0" y1="201" x2="680" y2="201" stroke="rgba(0,255,136,0.08)" stroke-width="0.5"/>

    <!-- ═══════════ RADAR (center 340,460 r=258, spans y 202–718) ═══════════ -->

    <!-- Ambient outer glow -->
    <circle cx="340" cy="460" r="305" fill="rgba(0,255,136,0.022)"/>

    <!-- Bezel rings -->
    <circle cx="340" cy="460" r="272" fill="none" stroke="rgba(0,255,136,0.06)" stroke-width="10"/>
    <circle cx="340" cy="460" r="265" fill="none" stroke="rgba(0,255,136,0.28)" stroke-width="2" filter="url(#rimGlow)"/>
    <circle cx="340" cy="460" r="261" fill="none" stroke="rgba(0,255,136,0.08)" stroke-width="1.5"/>

    <!-- Radar face -->
    <circle cx="340" cy="460" r="258" fill="#000d05"/>
    <circle cx="340" cy="460" r="258" fill="url(#radarBg)"/>

    <!-- Range rings (clipped) -->
    <g fill="none" stroke-width="0.8" clip-path="url(#radarClip)">
      <circle cx="340" cy="460" r="64.5"  stroke="rgba(0,255,136,0.18)"/>
      <circle cx="340" cy="460" r="129"   stroke="rgba(0,255,136,0.15)"/>
      <circle cx="340" cy="460" r="193.5" stroke="rgba(0,255,136,0.12)"/>
    </g>

    <!-- Cross-hairs + diagonals (clipped) -->
    <g stroke="rgba(0,255,136,0.13)" stroke-width="0.75" clip-path="url(#radarClip)">
      <line x1="82"   y1="460" x2="598"  y2="460"/>
      <line x1="340"  y1="202" x2="340"  y2="718"/>
      <line x1="157.6" y1="277.6" x2="522.4" y2="642.4"/>
      <line x1="522.4" y1="277.6" x2="157.6" y2="642.4"/>
    </g>

    <!-- Range labels (clipped) -->
    <g font-family="monospace" font-size="9" fill="rgba(0,255,136,0.28)" clip-path="url(#radarClip)">
      <text x="350" y="400">25</text>
      <text x="350" y="336">50</text>
      <text x="350" y="271">75</text>
    </g>

    <!-- SWEEP TRAILING GLOW — wide wedge bearing 25°→65° -->
    <path d="M 340 460 L 449 226.2 A 258 258 0 0 1 573.8 351 Z"
          fill="rgba(0,255,136,0.065)" clip-path="url(#radarClip)"/>
    <!-- Brighter near-arm wedge bearing 45°→65° -->
    <path d="M 340 460 L 522.4 277.6 A 258 258 0 0 1 573.8 351 Z"
          fill="rgba(0,255,136,0.10)" clip-path="url(#radarClip)"/>

    <!-- Sweep arm — glowing line at bearing 65° -->
    <line x1="340" y1="460" x2="573.8" y2="351"
          stroke="#00ff88" stroke-width="3" opacity="0.9"
          filter="url(#sweepGlow)" clip-path="url(#radarClip)"/>
    <line x1="340" y1="460" x2="573.8" y2="351"
          stroke="#00ff88" stroke-width="1.5" opacity="1"
          clip-path="url(#radarClip)"/>

    <!-- Sweep origin dot -->
    <circle cx="340" cy="460" r="5" fill="#00ff88" opacity="0.9"/>
    <circle cx="340" cy="460" r="2.5" fill="#aaffcc"/>

    <!-- ─── SHIP CONTACT 1: CARRIER — bearing 32°, range 52% → (411, 346) ─── -->
    <circle cx="411" cy="346" r="16" fill="none" stroke="rgba(0,255,136,0.55)" stroke-width="1"
            stroke-dasharray="3 3" filter="url(#blipGlow)" clip-path="url(#radarClip)"/>
    <ellipse cx="411" cy="346" rx="22" ry="7" fill="rgba(0,255,136,0.18)"
             filter="url(#blipGlow)" transform="rotate(-58 411 346)" clip-path="url(#radarClip)"/>
    <ellipse cx="411" cy="346" rx="14" ry="4.5" fill="#00ff88" opacity="0.70"
             transform="rotate(-58 411 346)" clip-path="url(#radarClip)"/>
    <ellipse cx="411" cy="346" rx="6" ry="3" fill="#00ff88" opacity="0.85"
             transform="rotate(-58 411 346)" clip-path="url(#radarClip)"/>
    <circle cx="411" cy="346" r="3.5" fill="#ccffdd" filter="url(#blipGlow)" clip-path="url(#radarClip)"/>
    <text x="434" y="339" font-family="monospace" font-size="9" fill="rgba(0,255,136,0.80)"
          clip-path="url(#radarClip)">CARRIER</text>
    <text x="434" y="350" font-family="monospace" font-size="8" fill="rgba(0,255,136,0.45)"
          clip-path="url(#radarClip)">CTR-01</text>

    <!-- ─── SHIP CONTACT 2: BATTLESHIP — bearing 148°, range 47% → (404, 563) ─── -->
    <circle cx="404" cy="563" r="13" fill="none" stroke="rgba(0,255,136,0.45)" stroke-width="1"
            stroke-dasharray="3 3" clip-path="url(#radarClip)"/>
    <ellipse cx="404" cy="563" rx="16" ry="5" fill="rgba(0,255,136,0.15)"
             filter="url(#blipGlow)" transform="rotate(58 404 563)" clip-path="url(#radarClip)"/>
    <ellipse cx="404" cy="563" rx="10" ry="3.5" fill="#00ff88" opacity="0.65"
             transform="rotate(58 404 563)" clip-path="url(#radarClip)"/>
    <circle cx="404" cy="563" r="3" fill="#aaffcc" filter="url(#blipGlow)" clip-path="url(#radarClip)"/>
    <text x="422" y="558" font-family="monospace" font-size="9" fill="rgba(0,255,136,0.70)"
          clip-path="url(#radarClip)">BSHIP</text>
    <text x="422" y="569" font-family="monospace" font-size="8" fill="rgba(0,255,136,0.42)"
          clip-path="url(#radarClip)">CTR-02</text>

    <!-- ─── SHIP CONTACT 3: DESTROYER — bearing 218°, range 63% → (240, 588) ─── -->
    <circle cx="240" cy="588" r="10" fill="none" stroke="rgba(0,255,136,0.40)" stroke-width="1"
            stroke-dasharray="2 3" clip-path="url(#radarClip)"/>
    <ellipse cx="240" cy="588" rx="12" ry="3.5" fill="rgba(0,255,136,0.12)"
             filter="url(#blipGlow)" transform="rotate(128 240 588)" clip-path="url(#radarClip)"/>
    <ellipse cx="240" cy="588" rx="8" ry="2.8" fill="#00ff88" opacity="0.60"
             transform="rotate(128 240 588)" clip-path="url(#radarClip)"/>
    <circle cx="240" cy="588" r="2.5" fill="#aaffcc" filter="url(#blipGlow)" clip-path="url(#radarClip)"/>
    <text x="255" y="584" font-family="monospace" font-size="9" fill="rgba(0,255,136,0.62)"
          clip-path="url(#radarClip)">DEST.</text>
    <text x="255" y="595" font-family="monospace" font-size="8" fill="rgba(0,255,136,0.38)"
          clip-path="url(#radarClip)">CTR-03</text>

    <!-- Tick marks on rim -->
    <g stroke="rgba(0,255,136,0.52)" stroke-width="1.8" fill="none">
      <g transform="rotate(0   340 460)"><line x1="340" y1="202" x2="340" y2="222"/></g>
      <g transform="rotate(90  340 460)"><line x1="340" y1="202" x2="340" y2="222"/></g>
      <g transform="rotate(180 340 460)"><line x1="340" y1="202" x2="340" y2="222"/></g>
      <g transform="rotate(270 340 460)"><line x1="340" y1="202" x2="340" y2="222"/></g>
    </g>
    <g stroke="rgba(0,255,136,0.38)" stroke-width="1.2" fill="none">
      <g transform="rotate(45  340 460)"><line x1="340" y1="202" x2="340" y2="217"/></g>
      <g transform="rotate(135 340 460)"><line x1="340" y1="202" x2="340" y2="217"/></g>
      <g transform="rotate(225 340 460)"><line x1="340" y1="202" x2="340" y2="217"/></g>
      <g transform="rotate(315 340 460)"><line x1="340" y1="202" x2="340" y2="217"/></g>
    </g>
    <g stroke="rgba(0,255,136,0.22)" stroke-width="0.9" fill="none">
      <g transform="rotate(30  340 460)"><line x1="340" y1="202" x2="340" y2="213"/></g>
      <g transform="rotate(60  340 460)"><line x1="340" y1="202" x2="340" y2="213"/></g>
      <g transform="rotate(120 340 460)"><line x1="340" y1="202" x2="340" y2="213"/></g>
      <g transform="rotate(150 340 460)"><line x1="340" y1="202" x2="340" y2="213"/></g>
      <g transform="rotate(210 340 460)"><line x1="340" y1="202" x2="340" y2="213"/></g>
      <g transform="rotate(240 340 460)"><line x1="340" y1="202" x2="340" y2="213"/></g>
      <g transform="rotate(300 340 460)"><line x1="340" y1="202" x2="340" y2="213"/></g>
      <g transform="rotate(330 340 460)"><line x1="340" y1="202" x2="340" y2="213"/></g>
    </g>

    <!-- Cardinal labels -->
    <g font-family="monospace" font-size="10" font-weight="bold" fill="rgba(0,255,136,0.50)">
      <text x="340"  y="192" text-anchor="middle">N</text>
      <text x="606"  y="463" text-anchor="start">E</text>
      <text x="74"   y="463" text-anchor="end">W</text>
      <text x="340"  y="730" text-anchor="middle">S</text>
    </g>
    <!-- Intercardinal degree labels -->
    <g font-family="monospace" font-size="8" fill="rgba(0,255,136,0.26)">
      <text x="532" y="272" text-anchor="start">045°</text>
      <text x="532" y="654" text-anchor="start">135°</text>
      <text x="148" y="654" text-anchor="end">225°</text>
      <text x="148" y="272" text-anchor="end">315°</text>
    </g>

    <!-- Corner status readouts -->
    <g font-family="monospace" font-size="9" fill="rgba(0,170,85,0.48)">
      <text x="36"  y="222">RADAR: ACTIVE</text>
      <text x="36"  y="235">SONAR: ONLINE</text>
    </g>
    <g font-family="monospace" font-size="9" fill="rgba(0,170,85,0.48)" text-anchor="end">
      <text x="644" y="222">CONTACTS: 3</text>
      <text x="644" y="235">BRG: 065°</text>
    </g>
    <g font-family="monospace" font-size="9" fill="rgba(0,170,85,0.40)">
      <text x="36"  y="706">RANGE: 1400m</text>
      <text x="36"  y="717">FREQ: 9.5GHz</text>
    </g>
    <g font-family="monospace" font-size="9" fill="rgba(0,170,85,0.40)" text-anchor="end">
      <text x="644" y="706">PWR: NOMINAL</text>
      <text x="644" y="717">MODE: SCAN</text>
    </g>

    <!-- ═══════════ BOTTOM BAR (y 720–1020) ═══════════ -->
    <rect x="0" y="720" width="680" height="300" fill="rgba(5,13,15,0.96)"/>
    <line x1="0"   y1="720" x2="680" y2="720" stroke="rgba(0,255,136,0.42)" stroke-width="1.5"/>
    <line x1="0"   y1="722" x2="680" y2="722" stroke="rgba(0,255,136,0.08)" stroke-width="0.5"/>

    <!-- Tagline -->
    <text x="340" y="750" text-anchor="middle" font-family="monospace" font-size="13"
          letter-spacing="5" fill="rgba(0,200,100,0.68)">⚓  ENGAGE · SURVIVE · CONQUER  ⚓</text>
    <line x1="100" y1="758" x2="580" y2="758" stroke="rgba(0,255,136,0.10)" stroke-width="0.7"/>

    <!-- Difficulty Mode Badges -->
    <!-- ENSIGN -->
    <rect x="66"  y="770" width="160" height="64" rx="3"
          fill="rgba(8,22,16,0.85)" stroke="rgba(26,58,46,0.90)" stroke-width="1"/>
    <text x="146" y="791" text-anchor="middle" font-family="monospace" font-size="19"
          fill="rgba(0,200,100,0.52)">⚓</text>
    <text x="146" y="810" text-anchor="middle" font-family="monospace" font-size="11"
          letter-spacing="2" fill="rgba(0,200,100,0.68)">ENSIGN</text>
    <text x="146" y="826" text-anchor="middle" font-family="monospace" font-size="11"
          fill="rgba(0,200,100,0.42)">★ ☆ ☆</text>

    <!-- COMMANDER (featured) -->
    <rect x="255" y="766" width="170" height="72" rx="3"
          fill="rgba(0,28,16,0.92)" stroke="rgba(0,200,100,0.38)" stroke-width="1.5"/>
    <line x1="255" y1="770" x2="425" y2="770" stroke="rgba(0,255,136,0.28)" stroke-width="1"/>
    <text x="340" y="791" text-anchor="middle" font-family="monospace" font-size="19"
          fill="rgba(0,220,110,0.68)">◎</text>
    <text x="340" y="811" text-anchor="middle" font-family="monospace" font-size="11"
          letter-spacing="2" fill="rgba(0,230,115,0.85)">COMMANDER</text>
    <text x="340" y="828" text-anchor="middle" font-family="monospace" font-size="11"
          fill="rgba(0,210,105,0.65)">★ ★ ☆</text>

    <!-- ADMIRAL -->
    <rect x="454" y="770" width="160" height="64" rx="3"
          fill="rgba(8,22,16,0.85)" stroke="rgba(26,58,46,0.90)" stroke-width="1"/>
    <text x="534" y="791" text-anchor="middle" font-family="monospace" font-size="19"
          fill="rgba(0,200,100,0.60)">★</text>
    <text x="534" y="810" text-anchor="middle" font-family="monospace" font-size="11"
          letter-spacing="2" fill="rgba(0,200,100,0.75)">ADMIRAL</text>
    <text x="534" y="826" text-anchor="middle" font-family="monospace" font-size="11"
          fill="rgba(0,200,100,0.60)">★ ★ ★</text>

    <!-- Fleet Manifest -->
    <line x1="60" y1="851" x2="620" y2="851" stroke="rgba(26,58,46,0.70)" stroke-width="0.7"/>
    <text x="340" y="865" text-anchor="middle" font-family="monospace" font-size="9"
          letter-spacing="5" fill="rgba(0,170,85,0.45)">FLEET MANIFEST</text>

    <g font-family="monospace">
      <text x="58"  y="882" font-size="8" fill="rgba(0,170,85,0.50)">CVN</text>
      <text x="58"  y="895" font-size="9" fill="rgba(0,255,136,0.58)">▓▓▓▓▓</text>
      <text x="168" y="882" font-size="8" fill="rgba(0,170,85,0.50)">BB</text>
      <text x="168" y="895" font-size="9" fill="rgba(0,255,136,0.53)">▓▓▓▓</text>
      <text x="268" y="882" font-size="8" fill="rgba(0,170,85,0.50)">CG</text>
      <text x="268" y="895" font-size="9" fill="rgba(0,255,136,0.48)">▓▓▓</text>
      <text x="358" y="882" font-size="8" fill="rgba(0,170,85,0.50)">SS</text>
      <text x="358" y="895" font-size="9" fill="rgba(0,255,136,0.48)">▓▓▓</text>
      <text x="448" y="882" font-size="8" fill="rgba(0,170,85,0.50)">DD</text>
      <text x="448" y="895" font-size="9" fill="rgba(0,255,136,0.43)">▓▓</text>
      <text x="528" y="882" font-size="8" fill="rgba(0,170,85,0.50)">PT</text>
      <text x="528" y="895" font-size="9" fill="rgba(0,255,136,0.38)">▓</text>
    </g>

    <!-- Ship silhouettes row -->
    <g opacity="0.20" fill="#00ff88">
      <rect x="58"  y="907" width="100" height="13" rx="6"/>
      <rect x="88"  y="900" width="32"  height="7"  rx="2"/>
      <rect x="172" y="910" width="82"  height="10" rx="5"/>
      <rect x="196" y="904" width="20"  height="6"  rx="2"/>
      <rect x="268" y="912" width="58"  height="8"  rx="4"/>
      <rect x="340" y="913" width="52"  height="7"  rx="3.5"/>
      <rect x="406" y="914" width="38"  height="6"  rx="3"/>
      <rect x="458" y="915" width="22"  height="5"  rx="2.5"/>
    </g>

    <!-- Decorative divider band -->
    <line x1="58"  y1="930" x2="270" y2="930" stroke="rgba(0,255,136,0.12)" stroke-width="0.7"/>
    <line x1="410" y1="930" x2="622" y2="930" stroke="rgba(0,255,136,0.12)" stroke-width="0.7"/>
    <text x="340" y="934" text-anchor="middle" font-family="monospace" font-size="10"
          letter-spacing="4" fill="rgba(0,200,100,0.42)">◈ ── BATTLESHIP ── ◈</text>

    <!-- VS / Multiplayer badge -->
    <rect x="200" y="946" width="280" height="26" rx="3"
          fill="none" stroke="rgba(26,58,46,0.80)" stroke-width="1"/>
    <text x="340" y="964" text-anchor="middle" font-family="monospace" font-size="11"
          letter-spacing="3" fill="rgba(0,200,100,0.58)">VS AI  ·  LOCAL MULTIPLAYER</text>

    <!-- Diamond accents -->
    <g text-anchor="middle" font-family="monospace" font-size="10" fill="rgba(0,170,85,0.42)">
      <text x="180" y="990">◆</text>
      <text x="500" y="990">◆</text>
    </g>

    <!-- PICKLE GAME LIBRARY footer -->
    <text x="340" y="990" text-anchor="middle" font-family="monospace" font-size="11"
          letter-spacing="6" fill="rgba(0,255,136,0.25)">PICKLE GAME LIBRARY</text>
    <line x1="120" y1="998" x2="560" y2="998" stroke="rgba(0,255,136,0.10)" stroke-width="0.7"/>
    <text x="340" y="1012" text-anchor="middle" font-family="monospace" font-size="9"
          letter-spacing="3" fill="rgba(0,170,85,0.22)">CLASSIFICATION: TOP SECRET</text>

  </g>
</svg>
