<svg width="400" height="600" viewBox="0 0 680 1020" xmlns="http://www.w3.org/2000/svg">
<defs><clipPath id="cvclip"><rect width="680" height="1020"/></clipPath></defs>
<rect width="680" height="1020" fill="#080608"/>
<g clip-path="url(#cvclip)"><polygon points="-31.0,98.0 0.0,124.03999999999999 -31.0,150.07999999999998 -62.0,124.03999999999999" stroke="#7c1010" stroke-width="1" fill="none" opacity="0.22"/><polygon points="31.0,98.0 62.0,124.03999999999999 31.0,150.07999999999998 0.0,124.03999999999999" stroke="#7c1010" stroke-width="1" fill="none" opacity="0.22"/><polygon points="93.0,98.0 124.0,124.03999999999999 93.0,150.07999999999998 62.0,124.03999999999999" stroke="#7c1010" stroke-width="1" fill="none" opacity="0.22"/><polygon points="155.0,98.0 186.0,124.03999999999999 155.0,150.07999999999998 124.0,124.03999999999999" stroke="#7c1010" stroke-width="1" fill="none" opacity="0.22"/><polygon points="217.0,98.0 248.0,124.03999999999999 217.0,150.07999999999998 186.0,124.03999999999999" stroke="#7c1010" stroke-width="1" fill="none" opacity="0.22"/><polygon points="279.0,98.0 310.0,124.03999999999999 279.0,150.07999999999998 248.0,124.03999999999999" stroke="#7c1010" stroke-width="1" fill="none" opacity="0.22"/><polygon points="341.0,98.0 372.0,124.03999999999999 341.0,150.07999999999998 310.0,124.03999999999999" stroke="#7c1010" stroke-width="1" fill="none" opacity="0.22"/><polygon points="403.0,98.0 434.0,124.03999999999999 403.0,150.07999999999998 372.0,124.03999999999999" stroke="#7c1010" stroke-width="1" fill="none" opacity="0.22"/><polygon points="465.0,98.0 496.0,124.03999999999999 465.0,150.07999999999998 434.0,124.03999999999999" stroke="#7c1010" stroke-width="1" fill="none" opacity="0.22"/><polygon points="527.0,98.0 558.0,124.03999999999999 527.0,150.07999999999998 496.0,124.03999999999999" stroke="#7c1010" stroke-width="1" fill="none" opacity="0.22"/><polygon points="589.0,98.0 620.0,124.03999999999999 589.0,150.07999999999998 558.0,124.03999999999999" stroke="#7c1010" stroke-width="1" fill="none" opacity="0.22"/><polygon points="651.0,98.0 682.0,124.03999999999999 651.0,150.07999999999998 620.0,124.03999999999999" stroke="#7c1010" stroke-width="1" fill="none" opacity="0.22"/><polygon points="713.0,98.0 744.0,124.03999999999999 713.0,150.07999999999998 682.0,124.03999999999999" stroke="#7c1010" stroke-width="1" fill="none" opacity="0.22"/><polygon points="-62,133.96 -31.0,160.0 -62,186.04 -93.0,160.0" stroke="#7c1010" stroke-width="1" fill="none" opacity="0.22"/><polygon points="0,133.96 31.0,160.0 0,186.04 -31.0,160.0" stroke="#7c1010" stroke-width="1" fill="none" opacity="0.22"/><polygon points="62,133.96 93.0,160.0 62,186.04 31.0,160.0" stroke="#7c1010" stroke-width="1" fill="none" opacity="0.22"/><polygon points="124,133.96 155.0,160.0 124,186.04 93.0,160.0" stroke="#7c1010" stroke-width="1" fill="none" opacity="0.22"/><polygon points="186,133.96 217.0,160.0 186,186.04 155.0,160.0" stroke="#7c1010" stroke-width="1" fill="none" opacity="0.22"/><polygon points="248,133.96 279.0,160.0 248,186.04 217.0,160.0" stroke="#7c1010" stroke-width="1" fill="none" opacity="0.22"/><polygon points="310,133.96 341.0,160.0 310,186.04 279.0,160.0" stroke="#7c1010" stroke-width="1" fill="none" opacity="0.22"/><polygon points="372,133.96 403.0,160.0 372,186.04 341.0,160.0" stroke="#7c1010" stroke-width="1" fill="none" opacity="0.22"/><polygon points="434,133.96 465.0,160.0 434,186.04 403.0,160.0" stroke="#7c1010" stroke-width="1" fill="none" opacity="0.22"/><polygon points="496,133.96 527.0,160.0 496,186.04 465.0,160.0" stroke="#7c1010" stroke-width="1" fill="none" opacity="0.22"/><polygon points="558,133.96 589.0,160.0 558,186.04 527.0,160.0" stroke="#7c1010" stroke-width="1" fill="none" opacity="0.22"/><polygon points="620,133.96 651.0,160.0 620,186.04 589.0,160.0" stroke="#7c1010" stroke-width="1" fill="none" opacity="0.22"/><polygon points="682,133.96 713.0,160.0 682,186.04 651.0,160.0" stroke="#7c1010" stroke-width="1" fill="none" opacity="0.22"/><polygon points="-31.0,169.92000000000002 0.0,195.96 -31.0,222.0 -62.0,195.96" stroke="#7c1010" stroke-width="1" fill="none" opacity="0.22"/><polygon points="31.0,169.92000000000002 62.0,195.96 31.0,222.0 0.0,195.96" stroke="#7c1010" stroke-width="1" fill="none" opacity="0.22"/><polygon points="93.0,169.92000000000002 124.0,195.96 93.0,222.0 62.0,195.96" stroke="#7c1010" stroke-width="1" fill="none" opacity="0.22"/><polygon points="155.0,169.92000000000002 186.0,195.96 155.0,222.0 124.0,195.96" stroke="#7c1010" stroke-width="1" fill="none" opacity="0.22"/><polygon points="217.0,169.92000000000002 248.0,195.96 217.0,222.0 186.0,195.96" stroke="#7c1010" stroke-width="1" fill="none" opacity="0.22"/><polygon points="279.0,169.92000000000002 310.0,195.96 279.0,222.0 248.0,195.96" stroke="#7c1010" stroke-width="1" fill="none" opacity="0.22"/><polygon points="341.0,169.92000000000002 372.0,195.96 341.0,222.0 310.0,195.96" stroke="#7c1010" stroke-width="1" fill="none" opacity="0.22"/><polygon points="403.0,169.92000000000002 434.0,195.96 403.0,222.0 372.0,195.96" stroke="#7c1010" stroke-width="1" fill="none" opacity="0.22"/><polygon points="465.0,169.92000000000002 496.0,195.96 465.0,222.0 434.0,195.96" stroke="#7c1010" stroke-width="1" fill="none" opacity="0.22"/><polygon points="527.0,169.92000000000002 558.0,195.96 527.0,222.0 496.0,195.96" stroke="#7c1010" stroke-width="1" fill="none" opacity="0.22"/><polygon points="589.0,169.92000000000002 620.0,195.96 589.0,222.0 558.0,195.96" stroke="#7c1010" stroke-width="1" fill="none" opacity="0.22"/><polygon points="651.0,169.92000000000002 682.0,195.96 651.0,222.0 620.0,195.96" stroke="#7c1010" stroke-width="1" fill="none" opacity="0.22"/><polygon points="713.0,169.92000000000002 744.0,195.96 713.0,222.0 682.0,195.96" stroke="#7c1010" stroke-width="1" fill="none" opacity="0.22"/><polygon points="-62,205.88000000000002 -31.0,231.92000000000002 -62,257.96000000000004 -93.0,231.92000000000002" stroke="#7c1010" stroke-width="1" fill="none" opacity="0.22"/><polygon points="0,205.88000000000002 31.0,231.92000000000002 0,257.96000000000004 -31.0,231.92000000000002" stroke="#7c1010" stroke-width="1" fill="none" opacity="0.22"/><polygon points="62,205.88000000000002 93.0,231.92000000000002 62,257.96000000000004 31.0,231.92000000000002" stroke="#7c1010" stroke-width="1" fill="none" opacity="0.22"/><polygon points="124,205.88000000000002 155.0,231.92000000000002 124,257.96000000000004 93.0,231.92000000000002" stroke="#7c1010" stroke-width="1" fill="none" opacity="0.22"/><polygon points="186,205.88000000000002 217.0,231.92000000000002 186,257.96000000000004 155.0,231.92000000000002" stroke="#7c1010" stroke-width="1" fill="none" opacity="0.22"/><polygon points="248,205.88000000000002 279.0,231.92000000000002 248,257.96000000000004 217.0,231.92000000000002" stroke="#7c1010" stroke-width="1" fill="none" opacity="0.22"/><polygon points="310,205.88000000000002 341.0,231.92000000000002 310,257.96000000000004 279.0,231.92000000000002" stroke="#7c1010" stroke-width="1" fill="none" opacity="0.22"/><polygon points="372,205.88000000000002 403.0,231.92000000000002 372,257.96000000000004 341.0,231.92000000000002" stroke="#7c1010" stroke-width="1" fill="none" opacity="0.22"/><polygon points="434,205.88000000000002 465.0,231.92000000000002 434,257.96000000000004 403.0,231.92000000000002" stroke="#7c1010" stroke-width="1" fill="none" opacity="0.22"/><polygon points="496,205.88000000000002 527.0,231.92000000000002 496,257.96000000000004 465.0,231.92000000000002" stroke="#7c1010" stroke-width="1" fill="none" opacity="0.22"/><polygon points="558,205.88000000000002 589.0,231.92000000000002 558,257.96000000000004 527.0,231.92000000000002" stroke="#7c1010" stroke-width="1" fill="none" opacity="0.22"/><polygon points="620,205.88000000000002 651.0,231.92000000000002 620,257.96000000000004 589.0,231.92000000000002" stroke="#7c1010" stroke-width="1" fill="none" opacity="0.22"/><polygon points="682,205.88000000000002 713.0,231.92000000000002 682,257.96000000000004 651.0,231.92000000000002" stroke="#7c1010" stroke-width="1" fill="none" opacity="0.22"/><polygon points="-31.0,241.84 0.0,267.88 -31.0,293.92 -62.0,267.88" stroke="#7c1010" stroke-width="1" fill="none" opacity="0.22"/><polygon points="31.0,241.84 62.0,267.88 31.0,293.92 0.0,267.88" stroke="#7c1010" stroke-width="1" fill="none" opacity="0.22"/><polygon points="93.0,241.84 124.0,267.88 93.0,293.92 62.0,267.88" stroke="#7c1010" stroke-width="1" fill="none" opacity="0.22"/><polygon points="155.0,241.84 186.0,267.88 155.0,293.92 124.0,267.88" stroke="#7c1010" stroke-width="1" fill="none" opacity="0.22"/><polygon points="217.0,241.84 248.0,267.88 217.0,293.92 186.0,267.88" stroke="#7c1010" stroke-width="1" fill="none" opacity="0.22"/><polygon points="279.0,241.84 310.0,267.88 279.0,293.92 248.0,267.88" stroke="#7c1010" stroke-width="1" fill="none" opacity="0.22"/><polygon points="341.0,241.84 372.0,267.88 341.0,293.92 310.0,267.88" stroke="#7c1010" stroke-width="1" fill="none" opacity="0.22"/><polygon points="403.0,241.84 434.0,267.88 403.0,293.92 372.0,267.88" stroke="#7c1010" stroke-width="1" fill="none" opacity="0.22"/><polygon points="465.0,241.84 496.0,267.88 465.0,293.92 434.0,267.88" stroke="#7c1010" stroke-width="1" fill="none" opacity="0.22"/><polygon points="527.0,241.84 558.0,267.88 527.0,293.92 496.0,267.88" stroke="#7c1010" stroke-width="1" fill="none" opacity="0.22"/><polygon points="589.0,241.84 620.0,267.88 589.0,293.92 558.0,267.88" stroke="#7c1010" stroke-width="1" fill="none" opacity="0.22"/><polygon points="651.0,241.84 682.0,267.88 651.0,293.92 620.0,267.88" stroke="#7c1010" stroke-width="1" fill="none" opacity="0.22"/><polygon points="713.0,241.84 744.0,267.88 713.0,293.92 682.0,267.88" stroke="#7c1010" stroke-width="1" fill="none" opacity="0.22"/><polygon points="-62,277.8 -31.0,303.84000000000003 -62,329.88000000000005 -93.0,303.84000000000003" stroke="#7c1010" stroke-width="1" fill="none" opacity="0.22"/><polygon points="0,277.8 31.0,303.84000000000003 0,329.88000000000005 -31.0,303.84000000000003" stroke="#7c1010" stroke-width="1" fill="none" opacity="0.22"/><polygon points="62,277.8 93.0,303.84000000000003 62,329.88000000000005 31.0,303.84000000000003" stroke="#7c1010" stroke-width="1" fill="none" opacity="0.22"/><polygon points="124,277.8 155.0,303.84000000000003 124,329.88000000000005 93.0,303.84000000000003" stroke="#7c1010" stroke-width="1" fill="none" opacity="0.22"/><polygon points="186,277.8 217.0,303.84000000000003 186,329.88000000000005 155.0,303.84000000000003" stroke="#7c1010" stroke-width="1" fill="none" opacity="0.22"/><polygon points="248,277.8 279.0,303.84000000000003 248,329.88000000000005 217.0,303.84000000000003" stroke="#7c1010" stroke-width="1" fill="none" opacity="0.22"/><polygon points="310,277.8 341.0,303.84000000000003 310,329.88000000000005 279.0,303.84000000000003" stroke="#7c1010" stroke-width="1" fill="none" opacity="0.22"/><polygon points="372,277.8 403.0,303.84000000000003 372,329.88000000000005 341.0,303.84000000000003" stroke="#7c1010" stroke-width="1" fill="none" opacity="0.22"/><polygon points="434,277.8 465.0,303.84000000000003 434,329.88000000000005 403.0,303.84000000000003" stroke="#7c1010" stroke-width="1" fill="none" opacity="0.22"/><polygon points="496,277.8 527.0,303.84000000000003 496,329.88000000000005 465.0,303.84000000000003" stroke="#7c1010" stroke-width="1" fill="none" opacity="0.22"/><polygon points="558,277.8 589.0,303.84000000000003 558,329.88000000000005 527.0,303.84000000000003" stroke="#7c1010" stroke-width="1" fill="none" opacity="0.22"/><polygon points="620,277.8 651.0,303.84000000000003 620,329.88000000000005 589.0,303.84000000000003" stroke="#7c1010" stroke-width="1" fill="none" opacity="0.22"/><polygon points="682,277.8 713.0,303.84000000000003 682,329.88000000000005 651.0,303.84000000000003" stroke="#7c1010" stroke-width="1" fill="none" opacity="0.22"/><polygon points="-31.0,313.75999999999993 0.0,339.79999999999995 -31.0,365.84 -62.0,339.79999999999995" stroke="#7c1010" stroke-width="1" fill="none" opacity="0.22"/><polygon points="31.0,313.75999999999993 62.0,339.79999999999995 31.0,365.84 0.0,339.79999999999995" stroke="#7c1010" stroke-width="1" fill="none" opacity="0.22"/><polygon points="93.0,313.75999999999993 124.0,339.79999999999995 93.0,365.84 62.0,339.79999999999995" stroke="#7c1010" stroke-width="1" fill="none" opacity="0.22"/><polygon points="155.0,313.75999999999993 186.0,339.79999999999995 155.0,365.84 124.0,339.79999999999995" stroke="#7c1010" stroke-width="1" fill="none" opacity="0.22"/><polygon points="217.0,313.75999999999993 248.0,339.79999999999995 217.0,365.84 186.0,339.79999999999995" stroke="#7c1010" stroke-width="1" fill="none" opacity="0.22"/><polygon points="279.0,313.75999999999993 310.0,339.79999999999995 279.0,365.84 248.0,339.79999999999995" stroke="#7c1010" stroke-width="1" fill="none" opacity="0.22"/><polygon points="341.0,313.75999999999993 372.0,339.79999999999995 341.0,365.84 310.0,339.79999999999995" stroke="#7c1010" stroke-width="1" fill="none" opacity="0.22"/><polygon points="403.0,313.75999999999993 434.0,339.79999999999995 403.0,365.84 372.0,339.79999999999995" stroke="#7c1010" stroke-width="1" fill="none" opacity="0.22"/><polygon points="465.0,313.75999999999993 496.0,339.79999999999995 465.0,365.84 434.0,339.79999999999995" stroke="#7c1010" stroke-width="1" fill="none" opacity="0.22"/><polygon points="527.0,313.75999999999993 558.0,339.79999999999995 527.0,365.84 496.0,339.79999999999995" stroke="#7c1010" stroke-width="1" fill="none" opacity="0.22"/><polygon points="589.0,313.75999999999993 620.0,339.79999999999995 589.0,365.84 558.0,339.79999999999995" stroke="#7c1010" stroke-width="1" fill="none" opacity="0.22"/><polygon points="651.0,313.75999999999993 682.0,339.79999999999995 651.0,365.84 620.0,339.79999999999995" stroke="#7c1010" stroke-width="1" fill="none" opacity="0.22"/><polygon points="713.0,313.75999999999993 744.0,339.79999999999995 713.0,365.84 682.0,339.79999999999995" stroke="#7c1010" stroke-width="1" fill="none" opacity="0.22"/><polygon points="-62,349.71999999999997 -31.0,375.76 -62,401.8 -93.0,375.76" stroke="#7c1010" stroke-width="1" fill="none" opacity="0.22"/><polygon points="0,349.71999999999997 31.0,375.76 0,401.8 -31.0,375.76" stroke="#7c1010" stroke-width="1" fill="none" opacity="0.22"/><polygon points="62,349.71999999999997 93.0,375.76 62,401.8 31.0,375.76" stroke="#7c1010" stroke-width="1" fill="none" opacity="0.22"/><polygon points="124,349.71999999999997 155.0,375.76 124,401.8 93.0,375.76" stroke="#7c1010" stroke-width="1" fill="none" opacity="0.22"/><polygon points="186,349.71999999999997 217.0,375.76 186,401.8 155.0,375.76" stroke="#7c1010" stroke-width="1" fill="none" opacity="0.22"/><polygon points="248,349.71999999999997 279.0,375.76 248,401.8 217.0,375.76" stroke="#7c1010" stroke-width="1" fill="none" opacity="0.22"/><polygon points="310,349.71999999999997 341.0,375.76 310,401.8 279.0,375.76" stroke="#7c1010" stroke-width="1" fill="none" opacity="0.22"/><polygon points="372,349.71999999999997 403.0,375.76 372,401.8 341.0,375.76" stroke="#7c1010" stroke-width="1" fill="none" opacity="0.22"/><polygon points="434,349.71999999999997 465.0,375.76 434,401.8 403.0,375.76" stroke="#7c1010" stroke-width="1" fill="none" opacity="0.22"/><polygon points="496,349.71999999999997 527.0,375.76 496,401.8 465.0,375.76" stroke="#7c1010" stroke-width="1" fill="none" opacity="0.22"/><polygon points="558,349.71999999999997 589.0,375.76 558,401.8 527.0,375.76" stroke="#7c1010" stroke-width="1" fill="none" opacity="0.22"/><polygon points="620,349.71999999999997 651.0,375.76 620,401.8 589.0,375.76" stroke="#7c1010" stroke-width="1" fill="none" opacity="0.22"/><polygon points="682,349.71999999999997 713.0,375.76 682,401.8 651.0,375.76" stroke="#7c1010" stroke-width="1" fill="none" opacity="0.22"/><polygon points="-31.0,385.67999999999995 0.0,411.71999999999997 -31.0,437.76 -62.0,411.71999999999997" stroke="#7c1010" stroke-width="1" fill="none" opacity="0.22"/><polygon points="31.0,385.67999999999995 62.0,411.71999999999997 31.0,437.76 0.0,411.71999999999997" stroke="#7c1010" stroke-width="1" fill="none" opacity="0.22"/><polygon points="93.0,385.67999999999995 124.0,411.71999999999997 93.0,437.76 62.0,411.71999999999997" stroke="#7c1010" stroke-width="1" fill="none" opacity="0.22"/><polygon points="155.0,385.67999999999995 186.0,411.71999999999997 155.0,437.76 124.0,411.71999999999997" stroke="#7c1010" stroke-width="1" fill="none" opacity="0.22"/><polygon points="217.0,385.67999999999995 248.0,411.71999999999997 217.0,437.76 186.0,411.71999999999997" stroke="#7c1010" stroke-width="1" fill="none" opacity="0.22"/><polygon points="279.0,385.67999999999995 310.0,411.71999999999997 279.0,437.76 248.0,411.71999999999997" stroke="#7c1010" stroke-width="1" fill="none" opacity="0.22"/><polygon points="341.0,385.67999999999995 372.0,411.71999999999997 341.0,437.76 310.0,411.71999999999997" stroke="#7c1010" stroke-width="1" fill="none" opacity="0.22"/><polygon points="403.0,385.67999999999995 434.0,411.71999999999997 403.0,437.76 372.0,411.71999999999997" stroke="#7c1010" stroke-width="1" fill="none" opacity="0.22"/><polygon points="465.0,385.67999999999995 496.0,411.71999999999997 465.0,437.76 434.0,411.71999999999997" stroke="#7c1010" stroke-width="1" fill="none" opacity="0.22"/><polygon points="527.0,385.67999999999995 558.0,411.71999999999997 527.0,437.76 496.0,411.71999999999997" stroke="#7c1010" stroke-width="1" fill="none" opacity="0.22"/><polygon points="589.0,385.67999999999995 620.0,411.71999999999997 589.0,437.76 558.0,411.71999999999997" stroke="#7c1010" stroke-width="1" fill="none" opacity="0.22"/><polygon points="651.0,385.67999999999995 682.0,411.71999999999997 651.0,437.76 620.0,411.71999999999997" stroke="#7c1010" stroke-width="1" fill="none" opacity="0.22"/><polygon points="713.0,385.67999999999995 744.0,411.71999999999997 713.0,437.76 682.0,411.71999999999997" stroke="#7c1010" stroke-width="1" fill="none" opacity="0.22"/><polygon points="-62,421.64 -31.0,447.68 -62,473.72 -93.0,447.68" stroke="#7c1010" stroke-width="1" fill="none" opacity="0.22"/><polygon points="0,421.64 31.0,447.68 0,473.72 -31.0,447.68" stroke="#7c1010" stroke-width="1" fill="none" opacity="0.22"/><polygon points="62,421.64 93.0,447.68 62,473.72 31.0,447.68" stroke="#7c1010" stroke-width="1" fill="none" opacity="0.22"/><polygon points="124,421.64 155.0,447.68 124,473.72 93.0,447.68" stroke="#7c1010" stroke-width="1" fill="none" opacity="0.22"/><polygon points="186,421.64 217.0,447.68 186,473.72 155.0,447.68" stroke="#7c1010" stroke-width="1" fill="none" opacity="0.22"/><polygon points="248,421.64 279.0,447.68 248,473.72 217.0,447.68" stroke="#7c1010" stroke-width="1" fill="none" opacity="0.22"/><polygon points="310,421.64 341.0,447.68 310,473.72 279.0,447.68" stroke="#7c1010" stroke-width="1" fill="none" opacity="0.22"/><polygon points="372,421.64 403.0,447.68 372,473.72 341.0,447.68" stroke="#7c1010" stroke-width="1" fill="none" opacity="0.22"/><polygon points="434,421.64 465.0,447.68 434,473.72 403.0,447.68" stroke="#7c1010" stroke-width="1" fill="none" opacity="0.22"/><polygon points="496,421.64 527.0,447.68 496,473.72 465.0,447.68" stroke="#7c1010" stroke-width="1" fill="none" opacity="0.22"/><polygon points="558,421.64 589.0,447.68 558,473.72 527.0,447.68" stroke="#7c1010" stroke-width="1" fill="none" opacity="0.22"/><polygon points="620,421.64 651.0,447.68 620,473.72 589.0,447.68" stroke="#7c1010" stroke-width="1" fill="none" opacity="0.22"/><polygon points="682,421.64 713.0,447.68 682,473.72 651.0,447.68" stroke="#7c1010" stroke-width="1" fill="none" opacity="0.22"/><polygon points="-31.0,457.59999999999997 0.0,483.64 -31.0,509.68 -62.0,483.64" stroke="#7c1010" stroke-width="1" fill="none" opacity="0.22"/><polygon points="31.0,457.59999999999997 62.0,483.64 31.0,509.68 0.0,483.64" stroke="#7c1010" stroke-width="1" fill="none" opacity="0.22"/><polygon points="93.0,457.59999999999997 124.0,483.64 93.0,509.68 62.0,483.64" stroke="#7c1010" stroke-width="1" fill="none" opacity="0.22"/><polygon points="155.0,457.59999999999997 186.0,483.64 155.0,509.68 124.0,483.64" stroke="#7c1010" stroke-width="1" fill="none" opacity="0.22"/><polygon points="217.0,457.59999999999997 248.0,483.64 217.0,509.68 186.0,483.64" stroke="#7c1010" stroke-width="1" fill="none" opacity="0.22"/><polygon points="279.0,457.59999999999997 310.0,483.64 279.0,509.68 248.0,483.64" stroke="#7c1010" stroke-width="1" fill="none" opacity="0.22"/><polygon points="341.0,457.59999999999997 372.0,483.64 341.0,509.68 310.0,483.64" stroke="#7c1010" stroke-width="1" fill="none" opacity="0.22"/><polygon points="403.0,457.59999999999997 434.0,483.64 403.0,509.68 372.0,483.64" stroke="#7c1010" stroke-width="1" fill="none" opacity="0.22"/><polygon points="465.0,457.59999999999997 496.0,483.64 465.0,509.68 434.0,483.64" stroke="#7c1010" stroke-width="1" fill="none" opacity="0.22"/><polygon points="527.0,457.59999999999997 558.0,483.64 527.0,509.68 496.0,483.64" stroke="#7c1010" stroke-width="1" fill="none" opacity="0.22"/><polygon points="589.0,457.59999999999997 620.0,483.64 589.0,509.68 558.0,483.64" stroke="#7c1010" stroke-width="1" fill="none" opacity="0.22"/><polygon points="651.0,457.59999999999997 682.0,483.64 651.0,509.68 620.0,483.64" stroke="#7c1010" stroke-width="1" fill="none" opacity="0.22"/><polygon points="713.0,457.59999999999997 744.0,483.64 713.0,509.68 682.0,483.64" stroke="#7c1010" stroke-width="1" fill="none" opacity="0.22"/><polygon points="-62,493.5599999999999 -31.0,519.5999999999999 -62,545.6399999999999 -93.0,519.5999999999999" stroke="#7c1010" stroke-width="1" fill="none" opacity="0.22"/><polygon points="0,493.5599999999999 31.0,519.5999999999999 0,545.6399999999999 -31.0,519.5999999999999" stroke="#7c1010" stroke-width="1" fill="none" opacity="0.22"/><polygon points="62,493.5599999999999 93.0,519.5999999999999 62,545.6399999999999 31.0,519.5999999999999" stroke="#7c1010" stroke-width="1" fill="none" opacity="0.22"/><polygon points="124,493.5599999999999 155.0,519.5999999999999 124,545.6399999999999 93.0,519.5999999999999" stroke="#7c1010" stroke-width="1" fill="none" opacity="0.22"/><polygon points="186,493.5599999999999 217.0,519.5999999999999 186,545.6399999999999 155.0,519.5999999999999" stroke="#7c1010" stroke-width="1" fill="none" opacity="0.22"/><polygon points="248,493.5599999999999 279.0,519.5999999999999 248,545.6399999999999 217.0,519.5999999999999" stroke="#7c1010" stroke-width="1" fill="none" opacity="0.22"/><polygon points="310,493.5599999999999 341.0,519.5999999999999 310,545.6399999999999 279.0,519.5999999999999" stroke="#7c1010" stroke-width="1" fill="none" opacity="0.22"/><polygon points="372,493.5599999999999 403.0,519.5999999999999 372,545.6399999999999 341.0,519.5999999999999" stroke="#7c1010" stroke-width="1" fill="none" opacity="0.22"/><polygon points="434,493.5599999999999 465.0,519.5999999999999 434,545.6399999999999 403.0,519.5999999999999" stroke="#7c1010" stroke-width="1" fill="none" opacity="0.22"/><polygon points="496,493.5599999999999 527.0,519.5999999999999 496,545.6399999999999 465.0,519.5999999999999" stroke="#7c1010" stroke-width="1" fill="none" opacity="0.22"/><polygon points="558,493.5599999999999 589.0,519.5999999999999 558,545.6399999999999 527.0,519.5999999999999" stroke="#7c1010" stroke-width="1" fill="none" opacity="0.22"/><polygon points="620,493.5599999999999 651.0,519.5999999999999 620,545.6399999999999 589.0,519.5999999999999" stroke="#7c1010" stroke-width="1" fill="none" opacity="0.22"/><polygon points="682,493.5599999999999 713.0,519.5999999999999 682,545.6399999999999 651.0,519.5999999999999" stroke="#7c1010" stroke-width="1" fill="none" opacity="0.22"/><polygon points="-31.0,529.52 0.0,555.56 -31.0,581.5999999999999 -62.0,555.56" stroke="#7c1010" stroke-width="1" fill="none" opacity="0.22"/><polygon points="31.0,529.52 62.0,555.56 31.0,581.5999999999999 0.0,555.56" stroke="#7c1010" stroke-width="1" fill="none" opacity="0.22"/><polygon points="93.0,529.52 124.0,555.56 93.0,581.5999999999999 62.0,555.56" stroke="#7c1010" stroke-width="1" fill="none" opacity="0.22"/><polygon points="155.0,529.52 186.0,555.56 155.0,581.5999999999999 124.0,555.56" stroke="#7c1010" stroke-width="1" fill="none" opacity="0.22"/><polygon points="217.0,529.52 248.0,555.56 217.0,581.5999999999999 186.0,555.56" stroke="#7c1010" stroke-width="1" fill="none" opacity="0.22"/><polygon points="279.0,529.52 310.0,555.56 279.0,581.5999999999999 248.0,555.56" stroke="#7c1010" stroke-width="1" fill="none" opacity="0.22"/><polygon points="341.0,529.52 372.0,555.56 341.0,581.5999999999999 310.0,555.56" stroke="#7c1010" stroke-width="1" fill="none" opacity="0.22"/><polygon points="403.0,529.52 434.0,555.56 403.0,581.5999999999999 372.0,555.56" stroke="#7c1010" stroke-width="1" fill="none" opacity="0.22"/><polygon points="465.0,529.52 496.0,555.56 465.0,581.5999999999999 434.0,555.56" stroke="#7c1010" stroke-width="1" fill="none" opacity="0.22"/><polygon points="527.0,529.52 558.0,555.56 527.0,581.5999999999999 496.0,555.56" stroke="#7c1010" stroke-width="1" fill="none" opacity="0.22"/><polygon points="589.0,529.52 620.0,555.56 589.0,581.5999999999999 558.0,555.56" stroke="#7c1010" stroke-width="1" fill="none" opacity="0.22"/><polygon points="651.0,529.52 682.0,555.56 651.0,581.5999999999999 620.0,555.56" stroke="#7c1010" stroke-width="1" fill="none" opacity="0.22"/><polygon points="713.0,529.52 744.0,555.56 713.0,581.5999999999999 682.0,555.56" stroke="#7c1010" stroke-width="1" fill="none" opacity="0.22"/><polygon points="-62,565.48 -31.0,591.52 -62,617.56 -93.0,591.52" stroke="#7c1010" stroke-width="1" fill="none" opacity="0.22"/><polygon points="0,565.48 31.0,591.52 0,617.56 -31.0,591.52" stroke="#7c1010" stroke-width="1" fill="none" opacity="0.22"/><polygon points="62,565.48 93.0,591.52 62,617.56 31.0,591.52" stroke="#7c1010" stroke-width="1" fill="none" opacity="0.22"/><polygon points="124,565.48 155.0,591.52 124,617.56 93.0,591.52" stroke="#7c1010" stroke-width="1" fill="none" opacity="0.22"/><polygon points="186,565.48 217.0,591.52 186,617.56 155.0,591.52" stroke="#7c1010" stroke-width="1" fill="none" opacity="0.22"/><polygon points="248,565.48 279.0,591.52 248,617.56 217.0,591.52" stroke="#7c1010" stroke-width="1" fill="none" opacity="0.22"/><polygon points="310,565.48 341.0,591.52 310,617.56 279.0,591.52" stroke="#7c1010" stroke-width="1" fill="none" opacity="0.22"/><polygon points="372,565.48 403.0,591.52 372,617.56 341.0,591.52" stroke="#7c1010" stroke-width="1" fill="none" opacity="0.22"/><polygon points="434,565.48 465.0,591.52 434,617.56 403.0,591.52" stroke="#7c1010" stroke-width="1" fill="none" opacity="0.22"/><polygon points="496,565.48 527.0,591.52 496,617.56 465.0,591.52" stroke="#7c1010" stroke-width="1" fill="none" opacity="0.22"/><polygon points="558,565.48 589.0,591.52 558,617.56 527.0,591.52" stroke="#7c1010" stroke-width="1" fill="none" opacity="0.22"/><polygon points="620,565.48 651.0,591.52 620,617.56 589.0,591.52" stroke="#7c1010" stroke-width="1" fill="none" opacity="0.22"/><polygon points="682,565.48 713.0,591.52 682,617.56 651.0,591.52" stroke="#7c1010" stroke-width="1" fill="none" opacity="0.22"/><polygon points="-31.0,601.44 0.0,627.48 -31.0,653.52 -62.0,627.48" stroke="#7c1010" stroke-width="1" fill="none" opacity="0.22"/><polygon points="31.0,601.44 62.0,627.48 31.0,653.52 0.0,627.48" stroke="#7c1010" stroke-width="1" fill="none" opacity="0.22"/><polygon points="93.0,601.44 124.0,627.48 93.0,653.52 62.0,627.48" stroke="#7c1010" stroke-width="1" fill="none" opacity="0.22"/><polygon points="155.0,601.44 186.0,627.48 155.0,653.52 124.0,627.48" stroke="#7c1010" stroke-width="1" fill="none" opacity="0.22"/><polygon points="217.0,601.44 248.0,627.48 217.0,653.52 186.0,627.48" stroke="#7c1010" stroke-width="1" fill="none" opacity="0.22"/><polygon points="279.0,601.44 310.0,627.48 279.0,653.52 248.0,627.48" stroke="#7c1010" stroke-width="1" fill="none" opacity="0.22"/><polygon points="341.0,601.44 372.0,627.48 341.0,653.52 310.0,627.48" stroke="#7c1010" stroke-width="1" fill="none" opacity="0.22"/><polygon points="403.0,601.44 434.0,627.48 403.0,653.52 372.0,627.48" stroke="#7c1010" stroke-width="1" fill="none" opacity="0.22"/><polygon points="465.0,601.44 496.0,627.48 465.0,653.52 434.0,627.48" stroke="#7c1010" stroke-width="1" fill="none" opacity="0.22"/><polygon points="527.0,601.44 558.0,627.48 527.0,653.52 496.0,627.48" stroke="#7c1010" stroke-width="1" fill="none" opacity="0.22"/><polygon points="589.0,601.44 620.0,627.48 589.0,653.52 558.0,627.48" stroke="#7c1010" stroke-width="1" fill="none" opacity="0.22"/><polygon points="651.0,601.44 682.0,627.48 651.0,653.52 620.0,627.48" stroke="#7c1010" stroke-width="1" fill="none" opacity="0.22"/><polygon points="713.0,601.44 744.0,627.48 713.0,653.52 682.0,627.48" stroke="#7c1010" stroke-width="1" fill="none" opacity="0.22"/><polygon points="-62,637.4 -31.0,663.4399999999999 -62,689.4799999999999 -93.0,663.4399999999999" stroke="#7c1010" stroke-width="1" fill="none" opacity="0.22"/><polygon points="0,637.4 31.0,663.4399999999999 0,689.4799999999999 -31.0,663.4399999999999" stroke="#7c1010" stroke-width="1" fill="none" opacity="0.22"/><polygon points="62,637.4 93.0,663.4399999999999 62,689.4799999999999 31.0,663.4399999999999" stroke="#7c1010" stroke-width="1" fill="none" opacity="0.22"/><polygon points="124,637.4 155.0,663.4399999999999 124,689.4799999999999 93.0,663.4399999999999" stroke="#7c1010" stroke-width="1" fill="none" opacity="0.22"/><polygon points="186,637.4 217.0,663.4399999999999 186,689.4799999999999 155.0,663.4399999999999" stroke="#7c1010" stroke-width="1" fill="none" opacity="0.22"/><polygon points="248,637.4 279.0,663.4399999999999 248,689.4799999999999 217.0,663.4399999999999" stroke="#7c1010" stroke-width="1" fill="none" opacity="0.22"/><polygon points="310,637.4 341.0,663.4399999999999 310,689.4799999999999 279.0,663.4399999999999" stroke="#7c1010" stroke-width="1" fill="none" opacity="0.22"/><polygon points="372,637.4 403.0,663.4399999999999 372,689.4799999999999 341.0,663.4399999999999" stroke="#7c1010" stroke-width="1" fill="none" opacity="0.22"/><polygon points="434,637.4 465.0,663.4399999999999 434,689.4799999999999 403.0,663.4399999999999" stroke="#7c1010" stroke-width="1" fill="none" opacity="0.22"/><polygon points="496,637.4 527.0,663.4399999999999 496,689.4799999999999 465.0,663.4399999999999" stroke="#7c1010" stroke-width="1" fill="none" opacity="0.22"/><polygon points="558,637.4 589.0,663.4399999999999 558,689.4799999999999 527.0,663.4399999999999" stroke="#7c1010" stroke-width="1" fill="none" opacity="0.22"/><polygon points="620,637.4 651.0,663.4399999999999 620,689.4799999999999 589.0,663.4399999999999" stroke="#7c1010" stroke-width="1" fill="none" opacity="0.22"/><polygon points="682,637.4 713.0,663.4399999999999 682,689.4799999999999 651.0,663.4399999999999" stroke="#7c1010" stroke-width="1" fill="none" opacity="0.22"/><polygon points="-31.0,673.36 0.0,699.4 -31.0,725.4399999999999 -62.0,699.4" stroke="#7c1010" stroke-width="1" fill="none" opacity="0.22"/><polygon points="31.0,673.36 62.0,699.4 31.0,725.4399999999999 0.0,699.4" stroke="#7c1010" stroke-width="1" fill="none" opacity="0.22"/><polygon points="93.0,673.36 124.0,699.4 93.0,725.4399999999999 62.0,699.4" stroke="#7c1010" stroke-width="1" fill="none" opacity="0.22"/><polygon points="155.0,673.36 186.0,699.4 155.0,725.4399999999999 124.0,699.4" stroke="#7c1010" stroke-width="1" fill="none" opacity="0.22"/><polygon points="217.0,673.36 248.0,699.4 217.0,725.4399999999999 186.0,699.4" stroke="#7c1010" stroke-width="1" fill="none" opacity="0.22"/><polygon points="279.0,673.36 310.0,699.4 279.0,725.4399999999999 248.0,699.4" stroke="#7c1010" stroke-width="1" fill="none" opacity="0.22"/><polygon points="341.0,673.36 372.0,699.4 341.0,725.4399999999999 310.0,699.4" stroke="#7c1010" stroke-width="1" fill="none" opacity="0.22"/><polygon points="403.0,673.36 434.0,699.4 403.0,725.4399999999999 372.0,699.4" stroke="#7c1010" stroke-width="1" fill="none" opacity="0.22"/><polygon points="465.0,673.36 496.0,699.4 465.0,725.4399999999999 434.0,699.4" stroke="#7c1010" stroke-width="1" fill="none" opacity="0.22"/><polygon points="527.0,673.36 558.0,699.4 527.0,725.4399999999999 496.0,699.4" stroke="#7c1010" stroke-width="1" fill="none" opacity="0.22"/><polygon points="589.0,673.36 620.0,699.4 589.0,725.4399999999999 558.0,699.4" stroke="#7c1010" stroke-width="1" fill="none" opacity="0.22"/><polygon points="651.0,673.36 682.0,699.4 651.0,725.4399999999999 620.0,699.4" stroke="#7c1010" stroke-width="1" fill="none" opacity="0.22"/><polygon points="713.0,673.36 744.0,699.4 713.0,725.4399999999999 682.0,699.4" stroke="#7c1010" stroke-width="1" fill="none" opacity="0.22"/><polygon points="-62,709.32 -31.0,735.36 -62,761.4 -93.0,735.36" stroke="#7c1010" stroke-width="1" fill="none" opacity="0.22"/><polygon points="0,709.32 31.0,735.36 0,761.4 -31.0,735.36" stroke="#7c1010" stroke-width="1" fill="none" opacity="0.22"/><polygon points="62,709.32 93.0,735.36 62,761.4 31.0,735.36" stroke="#7c1010" stroke-width="1" fill="none" opacity="0.22"/><polygon points="124,709.32 155.0,735.36 124,761.4 93.0,735.36" stroke="#7c1010" stroke-width="1" fill="none" opacity="0.22"/><polygon points="186,709.32 217.0,735.36 186,761.4 155.0,735.36" stroke="#7c1010" stroke-width="1" fill="none" opacity="0.22"/><polygon points="248,709.32 279.0,735.36 248,761.4 217.0,735.36" stroke="#7c1010" stroke-width="1" fill="none" opacity="0.22"/><polygon points="310,709.32 341.0,735.36 310,761.4 279.0,735.36" stroke="#7c1010" stroke-width="1" fill="none" opacity="0.22"/><polygon points="372,709.32 403.0,735.36 372,761.4 341.0,735.36" stroke="#7c1010" stroke-width="1" fill="none" opacity="0.22"/><polygon points="434,709.32 465.0,735.36 434,761.4 403.0,735.36" stroke="#7c1010" stroke-width="1" fill="none" opacity="0.22"/><polygon points="496,709.32 527.0,735.36 496,761.4 465.0,735.36" stroke="#7c1010" stroke-width="1" fill="none" opacity="0.22"/><polygon points="558,709.32 589.0,735.36 558,761.4 527.0,735.36" stroke="#7c1010" stroke-width="1" fill="none" opacity="0.22"/><polygon points="620,709.32 651.0,735.36 620,761.4 589.0,735.36" stroke="#7c1010" stroke-width="1" fill="none" opacity="0.22"/><polygon points="682,709.32 713.0,735.36 682,761.4 651.0,735.36" stroke="#7c1010" stroke-width="1" fill="none" opacity="0.22"/><polygon points="-31.0,745.28 0.0,771.3199999999999 -31.0,797.3599999999999 -62.0,771.3199999999999" stroke="#7c1010" stroke-width="1" fill="none" opacity="0.22"/><polygon points="31.0,745.28 62.0,771.3199999999999 31.0,797.3599999999999 0.0,771.3199999999999" stroke="#7c1010" stroke-width="1" fill="none" opacity="0.22"/><polygon points="93.0,745.28 124.0,771.3199999999999 93.0,797.3599999999999 62.0,771.3199999999999" stroke="#7c1010" stroke-width="1" fill="none" opacity="0.22"/><polygon points="155.0,745.28 186.0,771.3199999999999 155.0,797.3599999999999 124.0,771.3199999999999" stroke="#7c1010" stroke-width="1" fill="none" opacity="0.22"/><polygon points="217.0,745.28 248.0,771.3199999999999 217.0,797.3599999999999 186.0,771.3199999999999" stroke="#7c1010" stroke-width="1" fill="none" opacity="0.22"/><polygon points="279.0,745.28 310.0,771.3199999999999 279.0,797.3599999999999 248.0,771.3199999999999" stroke="#7c1010" stroke-width="1" fill="none" opacity="0.22"/><polygon points="341.0,745.28 372.0,771.3199999999999 341.0,797.3599999999999 310.0,771.3199999999999" stroke="#7c1010" stroke-width="1" fill="none" opacity="0.22"/><polygon points="403.0,745.28 434.0,771.3199999999999 403.0,797.3599999999999 372.0,771.3199999999999" stroke="#7c1010" stroke-width="1" fill="none" opacity="0.22"/><polygon points="465.0,745.28 496.0,771.3199999999999 465.0,797.3599999999999 434.0,771.3199999999999" stroke="#7c1010" stroke-width="1" fill="none" opacity="0.22"/><polygon points="527.0,745.28 558.0,771.3199999999999 527.0,797.3599999999999 496.0,771.3199999999999" stroke="#7c1010" stroke-width="1" fill="none" opacity="0.22"/><polygon points="589.0,745.28 620.0,771.3199999999999 589.0,797.3599999999999 558.0,771.3199999999999" stroke="#7c1010" stroke-width="1" fill="none" opacity="0.22"/><polygon points="651.0,745.28 682.0,771.3199999999999 651.0,797.3599999999999 620.0,771.3199999999999" stroke="#7c1010" stroke-width="1" fill="none" opacity="0.22"/><polygon points="713.0,745.28 744.0,771.3199999999999 713.0,797.3599999999999 682.0,771.3199999999999" stroke="#7c1010" stroke-width="1" fill="none" opacity="0.22"/><polygon points="-62,781.24 -31.0,807.28 -62,833.3199999999999 -93.0,807.28" stroke="#7c1010" stroke-width="1" fill="none" opacity="0.22"/><polygon points="0,781.24 31.0,807.28 0,833.3199999999999 -31.0,807.28" stroke="#7c1010" stroke-width="1" fill="none" opacity="0.22"/><polygon points="62,781.24 93.0,807.28 62,833.3199999999999 31.0,807.28" stroke="#7c1010" stroke-width="1" fill="none" opacity="0.22"/><polygon points="124,781.24 155.0,807.28 124,833.3199999999999 93.0,807.28" stroke="#7c1010" stroke-width="1" fill="none" opacity="0.22"/><polygon points="186,781.24 217.0,807.28 186,833.3199999999999 155.0,807.28" stroke="#7c1010" stroke-width="1" fill="none" opacity="0.22"/><polygon points="248,781.24 279.0,807.28 248,833.3199999999999 217.0,807.28" stroke="#7c1010" stroke-width="1" fill="none" opacity="0.22"/><polygon points="310,781.24 341.0,807.28 310,833.3199999999999 279.0,807.28" stroke="#7c1010" stroke-width="1" fill="none" opacity="0.22"/><polygon points="372,781.24 403.0,807.28 372,833.3199999999999 341.0,807.28" stroke="#7c1010" stroke-width="1" fill="none" opacity="0.22"/><polygon points="434,781.24 465.0,807.28 434,833.3199999999999 403.0,807.28" stroke="#7c1010" stroke-width="1" fill="none" opacity="0.22"/><polygon points="496,781.24 527.0,807.28 496,833.3199999999999 465.0,807.28" stroke="#7c1010" stroke-width="1" fill="none" opacity="0.22"/><polygon points="558,781.24 589.0,807.28 558,833.3199999999999 527.0,807.28" stroke="#7c1010" stroke-width="1" fill="none" opacity="0.22"/><polygon points="620,781.24 651.0,807.28 620,833.3199999999999 589.0,807.28" stroke="#7c1010" stroke-width="1" fill="none" opacity="0.22"/><polygon points="682,781.24 713.0,807.28 682,833.3199999999999 651.0,807.28" stroke="#7c1010" stroke-width="1" fill="none" opacity="0.22"/><polygon points="-31.0,817.2 0.0,843.24 -31.0,869.28 -62.0,843.24" stroke="#7c1010" stroke-width="1" fill="none" opacity="0.22"/><polygon points="31.0,817.2 62.0,843.24 31.0,869.28 0.0,843.24" stroke="#7c1010" stroke-width="1" fill="none" opacity="0.22"/><polygon points="93.0,817.2 124.0,843.24 93.0,869.28 62.0,843.24" stroke="#7c1010" stroke-width="1" fill="none" opacity="0.22"/><polygon points="155.0,817.2 186.0,843.24 155.0,869.28 124.0,843.24" stroke="#7c1010" stroke-width="1" fill="none" opacity="0.22"/><polygon points="217.0,817.2 248.0,843.24 217.0,869.28 186.0,843.24" stroke="#7c1010" stroke-width="1" fill="none" opacity="0.22"/><polygon points="279.0,817.2 310.0,843.24 279.0,869.28 248.0,843.24" stroke="#7c1010" stroke-width="1" fill="none" opacity="0.22"/><polygon points="341.0,817.2 372.0,843.24 341.0,869.28 310.0,843.24" stroke="#7c1010" stroke-width="1" fill="none" opacity="0.22"/><polygon points="403.0,817.2 434.0,843.24 403.0,869.28 372.0,843.24" stroke="#7c1010" stroke-width="1" fill="none" opacity="0.22"/><polygon points="465.0,817.2 496.0,843.24 465.0,869.28 434.0,843.24" stroke="#7c1010" stroke-width="1" fill="none" opacity="0.22"/><polygon points="527.0,817.2 558.0,843.24 527.0,869.28 496.0,843.24" stroke="#7c1010" stroke-width="1" fill="none" opacity="0.22"/><polygon points="589.0,817.2 620.0,843.24 589.0,869.28 558.0,843.24" stroke="#7c1010" stroke-width="1" fill="none" opacity="0.22"/><polygon points="651.0,817.2 682.0,843.24 651.0,869.28 620.0,843.24" stroke="#7c1010" stroke-width="1" fill="none" opacity="0.22"/><polygon points="713.0,817.2 744.0,843.24 713.0,869.28 682.0,843.24" stroke="#7c1010" stroke-width="1" fill="none" opacity="0.22"/></g>
<rect x="0" y="0" width="680" height="148" fill="rgba(0,0,0,0.52)"/>
<line x1="0" y1="148" x2="680" y2="148" stroke="#e8c96a" stroke-width="1.2"/>
<rect x="48" y="100" width="202" height="1.5" fill="#e8c96a" opacity="0.5"/><rect x="430" y="100" width="202" height="1.5" fill="#e8c96a" opacity="0.5"/>
<text x="343" y="135" text-anchor="middle" font-family="'Arial Black','Impact',sans-serif" font-weight="900" font-size="54" fill="rgba(0,0,0,0.45)" letter-spacing="4">BLACK KNIGHT</text>
<text x="340" y="132" text-anchor="middle" font-family="'Arial Black','Impact',sans-serif" font-weight="900" font-size="54" fill="#e8c96a" letter-spacing="4">BLACK KNIGHT</text>
<text x="340" y="660" text-anchor="middle" dominant-baseline="central" font-size="300">⚔️</text>
<rect x="0" y="988" width="680" height="32" fill="rgba(0,0,0,0.52)"/>
<line x1="0" y1="988" x2="680" y2="988" stroke="#e8c96a" stroke-width="0.8" opacity="0.3"/>
</svg>