<svg width="400" height="600" viewBox="0 0 680 1020" xmlns="http://www.w3.org/2000/svg">
<defs>
<linearGradient id="gcatan" x1="0.75" y1="0.067" x2="0.25" y2="0.933"><stop offset="0.0" stop-color="#1f4a72"/><stop offset="0.5" stop-color="#143a5c"/><stop offset="1.0" stop-color="#0c2740"/></linearGradient>
</defs>
<rect width="680" height="1020" fill="url(#gcatan)"/>
<rect x="0" y="0" width="680" height="148" fill="rgba(0,0,0,0.34)"/>
<line x1="0" y1="148" x2="680" y2="148" stroke="#f4c430" stroke-width="1.2"/>
<rect x="48" y="100" width="240" height="1.5" fill="#f4c430" opacity="0.5"/><rect x="392" y="100" width="240" height="1.5" fill="#f4c430" opacity="0.5"/>
<text x="343" y="135" text-anchor="middle" font-family="'Arial Black','Impact',sans-serif" font-weight="900" font-size="76" fill="rgba(0,0,0,0.45)" letter-spacing="6">SETTLERS</text>
<text x="340" y="132" text-anchor="middle" font-family="'Arial Black','Impact',sans-serif" font-weight="900" font-size="76" fill="#f4c430" letter-spacing="6">SETTLERS</text>
<g transform="translate(340,640)">
<polygon points="0,196 170,98 170,-98 0,-196 -170,-98 -170,98" fill="#000" opacity="0.3" transform="translate(0,18)"/>
<polygon points="0,190 165,95 165,-95 0,-190 -165,-95 -165,95" fill="#e8a838"/>
<polygon points="0,190 165,95 165,-95 0,-190 -165,-95 -165,95" fill="none" stroke="#7a4a12" stroke-width="10"/>
<polygon points="0,150 130,75 130,-75 0,-150 -130,-75 -130,75" fill="#f4c430" opacity="0.55"/>
<g stroke="#b07a1e" stroke-width="6" stroke-linecap="round">
<line x1="-70" y1="-40" x2="-50" y2="-72"/>
<line x1="20" y1="-20" x2="44" y2="-48"/>
<line x1="-30" y1="60" x2="-8" y2="34"/>
<line x1="60" y1="50" x2="84" y2="22"/>
</g>
<circle cx="0" cy="20" r="64" fill="#f1e2c0"/>
<circle cx="0" cy="20" r="64" fill="none" stroke="#7a4a12" stroke-width="6"/>
<text x="0" y="20" text-anchor="middle" dominant-baseline="central" font-family="'Georgia','Times New Roman',serif" font-weight="700" font-size="78" fill="#b5121b">8</text>
<g fill="#b5121b">
<circle cx="-26" cy="78" r="5"/><circle cx="-13" cy="78" r="5"/><circle cx="0" cy="78" r="5"/><circle cx="13" cy="78" r="5"/><circle cx="26" cy="78" r="5"/>
</g>
</g>
<rect x="0" y="988" width="680" height="32" fill="rgba(0,0,0,0.34)"/>
<line x1="0" y1="988" x2="680" y2="988" stroke="#f4c430" stroke-width="0.8" opacity="0.3"/>
</svg>
