<svg width="400" height="600" viewBox="0 0 680 1020" xmlns="http://www.w3.org/2000/svg">
<defs><clipPath id="cvclip"><rect width="680" height="1020"/></clipPath></defs>
<rect width="680" height="1020" fill="#120a04"/>
<g><line x1="0" y1="148" x2="0" y2="988" stroke="#6d2b0a" stroke-width="1" opacity="0.25"/><line x1="55" y1="148" x2="55" y2="988" stroke="#6d2b0a" stroke-width="1" opacity="0.25"/><line x1="110" y1="148" x2="110" y2="988" stroke="#6d2b0a" stroke-width="1" opacity="0.25"/><line x1="165" y1="148" x2="165" y2="988" stroke="#6d2b0a" stroke-width="1" opacity="0.25"/><line x1="220" y1="148" x2="220" y2="988" stroke="#6d2b0a" stroke-width="1" opacity="0.25"/><line x1="275" y1="148" x2="275" y2="988" stroke="#6d2b0a" stroke-width="1" opacity="0.25"/><line x1="330" y1="148" x2="330" y2="988" stroke="#6d2b0a" stroke-width="1" opacity="0.25"/><line x1="385" y1="148" x2="385" y2="988" stroke="#6d2b0a" stroke-width="1" opacity="0.25"/><line x1="440" y1="148" x2="440" y2="988" stroke="#6d2b0a" stroke-width="1" opacity="0.25"/><line x1="495" y1="148" x2="495" y2="988" stroke="#6d2b0a" stroke-width="1" opacity="0.25"/><line x1="550" y1="148" x2="550" y2="988" stroke="#6d2b0a" stroke-width="1" opacity="0.25"/><line x1="605" y1="148" x2="605" y2="988" stroke="#6d2b0a" stroke-width="1" opacity="0.25"/><line x1="660" y1="148" x2="660" y2="988" stroke="#6d2b0a" stroke-width="1" opacity="0.25"/><line x1="0" y1="148" x2="680" y2="148" stroke="#6d2b0a" stroke-width="1" opacity="0.25"/><line x1="0" y1="203" x2="680" y2="203" stroke="#6d2b0a" stroke-width="1" opacity="0.25"/><line x1="0" y1="258" x2="680" y2="258" stroke="#6d2b0a" stroke-width="1" opacity="0.25"/><line x1="0" y1="313" x2="680" y2="313" stroke="#6d2b0a" stroke-width="1" opacity="0.25"/><line x1="0" y1="368" x2="680" y2="368" stroke="#6d2b0a" stroke-width="1" opacity="0.25"/><line x1="0" y1="423" x2="680" y2="423" stroke="#6d2b0a" stroke-width="1" opacity="0.25"/><line x1="0" y1="478" x2="680" y2="478" stroke="#6d2b0a" stroke-width="1" opacity="0.25"/><line x1="0" y1="533" x2="680" y2="533" stroke="#6d2b0a" stroke-width="1" opacity="0.25"/><line x1="0" y1="588" x2="680" y2="588" stroke="#6d2b0a" stroke-width="1" opacity="0.25"/><line x1="0" y1="643" x2="680" y2="643" stroke="#6d2b0a" stroke-width="1" opacity="0.25"/><line x1="0" y1="698" x2="680" y2="698" stroke="#6d2b0a" stroke-width="1" opacity="0.25"/><line x1="0" y1="753" x2="680" y2="753" stroke="#6d2b0a" stroke-width="1" opacity="0.25"/><line x1="0" y1="808" x2="680" y2="808" stroke="#6d2b0a" stroke-width="1" opacity="0.25"/><line x1="0" y1="863" x2="680" y2="863" stroke="#6d2b0a" stroke-width="1" opacity="0.25"/><line x1="0" y1="918" x2="680" y2="918" stroke="#6d2b0a" stroke-width="1" opacity="0.25"/><line x1="0" y1="973" x2="680" y2="973" stroke="#6d2b0a" stroke-width="1" opacity="0.25"/></g>
<rect x="0" y="0" width="680" height="148" fill="rgba(0,0,0,0.52)"/>
<line x1="0" y1="148" x2="680" y2="148" stroke="#f5f5f5" stroke-width="1.2"/>
<rect x="48" y="100" width="182" height="1.5" fill="#f5f5f5" opacity="0.5"/><rect x="450" y="100" width="182" height="1.5" fill="#f5f5f5" opacity="0.5"/>
<text x="343" y="135" text-anchor="middle" font-family="'Arial Black','Impact',sans-serif" font-weight="900" font-size="68" fill="rgba(0,0,0,0.45)" letter-spacing="4">CHECKERS</text>
<text x="340" y="132" text-anchor="middle" font-family="'Arial Black','Impact',sans-serif" font-weight="900" font-size="68" fill="#f5f5f5" letter-spacing="4">CHECKERS</text>
<text x="340" y="660" text-anchor="middle" dominant-baseline="central" font-size="300">🔴</text>
<rect x="0" y="988" width="680" height="32" fill="rgba(0,0,0,0.52)"/>
<line x1="0" y1="988" x2="680" y2="988" stroke="#f5f5f5" stroke-width="0.8" opacity="0.3"/>
</svg>