<svg width="400" height="600" viewBox="0 0 680 1020" xmlns="http://www.w3.org/2000/svg">
<defs>
<linearGradient id="gcheckers" x1="0.75" y1="0.067" x2="0.25" y2="0.933"><stop offset="0.0" stop-color="#5a1d1d"/><stop offset="0.5" stop-color="#2e0f12"/><stop offset="1.0" stop-color="#120607"/></linearGradient>
</defs>
<rect width="680" height="1020" fill="url(#gcheckers)"/>
<rect x="0" y="0" width="680" height="148" fill="rgba(0,0,0,0.34)"/>
<line x1="0" y1="148" x2="680" y2="148" stroke="#ffe6a3" stroke-width="1.2"/>
<rect x="48" y="100" width="182" height="1.5" fill="#ffe6a3" opacity="0.5"/><rect x="450" y="100" width="182" height="1.5" fill="#ffe6a3" opacity="0.5"/>
<text x="343" y="135" text-anchor="middle" font-family="'Arial Black','Impact',sans-serif" font-weight="900" font-size="68" fill="rgba(0,0,0,0.45)" letter-spacing="4">CHECKERS</text>
<text x="340" y="132" text-anchor="middle" font-family="'Arial Black','Impact',sans-serif" font-weight="900" font-size="68" fill="#ffe6a3" letter-spacing="4">CHECKERS</text>
<g transform="translate(340,610)">
<ellipse cx="0" cy="150" rx="150" ry="48" fill="#000" opacity="0.35"/>
<circle cx="0" cy="0" r="150" fill="#3a0d0d"/>
<circle cx="0" cy="-10" r="150" fill="#e8482f"/>
<circle cx="0" cy="-10" r="150" fill="none" stroke="#ffb09c" stroke-width="5" opacity="0.7"/>
<circle cx="0" cy="-10" r="108" fill="none" stroke="#7a1505" stroke-width="10"/>
<circle cx="0" cy="-10" r="70" fill="none" stroke="#7a1505" stroke-width="8"/>
<g fill="#ffe6a3">
<path d="M -52 8 L -36 -34 L -16 0 L 0 -42 L 16 0 L 36 -34 L 52 8 Z"/>
<rect x="-52" y="8" width="104" height="14" rx="3"/>
</g>
</g>
<rect x="0" y="988" width="680" height="32" fill="rgba(0,0,0,0.34)"/>
<line x1="0" y1="988" x2="680" y2="988" stroke="#ffe6a3" stroke-width="0.8" opacity="0.3"/>
</svg>