<svg xmlns="http://www.w3.org/2000/svg" viewBox="0 0 680 1020" width="400" height="600">
<defs>
  <linearGradient id="sky" x1="0" y1="0" x2="0" y2="560" gradientUnits="userSpaceOnUse">
    <stop offset="0%" stop-color="#020307"/>
    <stop offset="55%" stop-color="#060c1a"/>
    <stop offset="100%" stop-color="#0c1526"/>
  </linearGradient>
  <linearGradient id="facade" x1="0" y1="545" x2="0" y2="1020" gradientUnits="userSpaceOnUse">
    <stop offset="0%" stop-color="#11151f"/>
    <stop offset="45%" stop-color="#0a0d14"/>
    <stop offset="100%" stop-color="#040507"/>
  </linearGradient>
  <linearGradient id="gable" x1="0" y1="270" x2="0" y2="545" gradientUnits="userSpaceOnUse">
    <stop offset="0%" stop-color="#0b0e15"/>
    <stop offset="100%" stop-color="#070a10"/>
  </linearGradient>
  <radialGradient id="moonGlow" cx="520" cy="212" r="130" gradientUnits="userSpaceOnUse">
    <stop offset="0%" stop-color="#b4c3e1" stop-opacity="0.20"/>
    <stop offset="100%" stop-color="#b4c3e1" stop-opacity="0"/>
  </radialGradient>
  <radialGradient id="winGlow" cx="455" cy="655" r="190" gradientUnits="userSpaceOnUse">
    <stop offset="0%" stop-color="#a82818" stop-opacity="0.20"/>
    <stop offset="30%" stop-color="#7a1a10" stop-opacity="0.09"/>
    <stop offset="100%" stop-color="#7a1a10" stop-opacity="0"/>
  </radialGradient>
  <linearGradient id="winLit" x1="0" y1="575" x2="0" y2="735" gradientUnits="userSpaceOnUse">
    <stop offset="0%" stop-color="#8c2114"/>
    <stop offset="55%" stop-color="#6e160c"/>
    <stop offset="100%" stop-color="#3c0a05"/>
  </linearGradient>
  <radialGradient id="atticGlint" cx="340" cy="395" r="30" gradientUnits="userSpaceOnUse">
    <stop offset="0%" stop-color="#8c1e0a" stop-opacity="0.75"/>
    <stop offset="45%" stop-color="#4a0e04" stop-opacity="0.3"/>
    <stop offset="100%" stop-color="#000000" stop-opacity="0"/>
  </radialGradient>
  <radialGradient id="vig" cx="340" cy="480" r="560" gradientUnits="userSpaceOnUse">
    <stop offset="0%" stop-color="black" stop-opacity="0"/>
    <stop offset="55%" stop-color="black" stop-opacity="0.10"/>
    <stop offset="100%" stop-color="black" stop-opacity="0.88"/>
  </radialGradient>
  <linearGradient id="topFade" x1="0" y1="0" x2="0" y2="215" gradientUnits="userSpaceOnUse">
    <stop offset="0%" stop-color="black" stop-opacity="0.94"/>
    <stop offset="62%" stop-color="black" stop-opacity="0.62"/>
    <stop offset="100%" stop-color="black" stop-opacity="0"/>
  </linearGradient>
  <linearGradient id="botFade" x1="0" y1="1020" x2="0" y2="880" gradientUnits="userSpaceOnUse">
    <stop offset="0%" stop-color="black" stop-opacity="0.66"/>
    <stop offset="60%" stop-color="black" stop-opacity="0.26"/>
    <stop offset="100%" stop-color="black" stop-opacity="0"/>
  </linearGradient>
  <linearGradient id="moonWash" x1="656" y1="0" x2="360" y2="0" gradientUnits="userSpaceOnUse">
    <stop offset="0%" stop-color="#3d4c6e" stop-opacity="0.22"/>
    <stop offset="100%" stop-color="#3d4c6e" stop-opacity="0"/>
  </linearGradient>
  <linearGradient id="doorwood" x1="0" y1="0" x2="1" y2="0">
    <stop offset="0%" stop-color="#0e0a06"/>
    <stop offset="50%" stop-color="#150e08"/>
    <stop offset="100%" stop-color="#0a0704"/>
  </linearGradient>
  <filter id="tg" x="-40%" y="-120%" width="180%" height="340%">
    <feGaussianBlur in="SourceGraphic" stdDeviation="8" result="b"/>
    <feMerge><feMergeNode in="b"/><feMergeNode in="b"/><feMergeNode in="SourceGraphic"/></feMerge>
  </filter>
  <filter id="soft" x="-80%" y="-80%" width="260%" height="260%">
    <feGaussianBlur in="SourceGraphic" stdDeviation="10"/>
  </filter>
  <filter id="soft4" x="-80%" y="-80%" width="260%" height="260%">
    <feGaussianBlur in="SourceGraphic" stdDeviation="4"/>
  </filter>
  <filter id="wg" x="-250%" y="-250%" width="600%" height="600%">
    <feGaussianBlur in="SourceGraphic" stdDeviation="9" result="b"/>
    <feMerge><feMergeNode in="b"/><feMergeNode in="b"/><feMergeNode in="SourceGraphic"/></feMerge>
  </filter>
</defs>
<rect width="680" height="620" fill="url(#sky)"/>
<rect y="560" width="680" height="460" fill="#0c1526"/>
<g>
<rect x="71.2" y="272.0" width="1.6" height="1.6" fill="#becde6" opacity="0.49"/>
<rect x="529.4" y="321.1" width="1.6" height="1.6" fill="#becde6" opacity="0.27"/>
<rect x="624.1" y="65.2" width="1.6" height="1.6" fill="#becde6" opacity="0.21"/>
<rect x="509.8" y="288.8" width="1.6" height="1.6" fill="#becde6" opacity="0.33"/>
<rect x="636.3" y="104.0" width="1.6" height="1.6" fill="#becde6" opacity="0.28"/>
<rect x="117.9" y="24.9" width="1.6" height="1.6" fill="#becde6" opacity="0.25"/>
<rect x="135.4" y="164.4" width="1.6" height="1.6" fill="#becde6" opacity="0.64"/>
<rect x="267.6" y="161.3" width="1.6" height="1.6" fill="#becde6" opacity="0.66"/>
<rect x="362.3" y="148.8" width="1.6" height="1.6" fill="#becde6" opacity="0.34"/>
<rect x="36.8" y="239.7" width="1.6" height="1.6" fill="#becde6" opacity="0.57"/>
<rect x="430.8" y="302.6" width="1.6" height="1.6" fill="#becde6" opacity="0.26"/>
<rect x="506.5" y="296.3" width="1.6" height="1.6" fill="#becde6" opacity="0.19"/>
<rect x="34.9" y="256.2" width="1.6" height="1.6" fill="#becde6" opacity="0.19"/>
<rect x="88.1" y="255.8" width="1.6" height="1.6" fill="#becde6" opacity="0.32"/>
<rect x="377.5" y="307.3" width="1.6" height="1.6" fill="#becde6" opacity="0.57"/>
<rect x="434.5" y="113.6" width="1.6" height="1.6" fill="#becde6" opacity="0.27"/>
<rect x="409.5" y="57.4" width="1.6" height="1.6" fill="#becde6" opacity="0.3"/>
<rect x="11.9" y="20.1" width="1.6" height="1.6" fill="#becde6" opacity="0.21"/>
<rect x="134.2" y="278.7" width="1.6" height="1.6" fill="#becde6" opacity="0.35"/>
<rect x="290.0" y="308.1" width="1.6" height="1.6" fill="#becde6" opacity="0.54"/>
<rect x="490.5" y="116.4" width="1.6" height="1.6" fill="#becde6" opacity="0.43"/>
<rect x="439.6" y="108.5" width="1.6" height="1.6" fill="#becde6" opacity="0.47"/>
<rect x="448.7" y="113.2" width="1.6" height="1.6" fill="#becde6" opacity="0.56"/>
<rect x="610.3" y="216.5" width="1.6" height="1.6" fill="#becde6" opacity="0.46"/>
<rect x="10.1" y="243.9" width="1.6" height="1.6" fill="#becde6" opacity="0.25"/>
<rect x="180.8" y="309.6" width="1.6" height="1.6" fill="#becde6" opacity="0.46"/>
<rect x="594.0" y="120.5" width="1.6" height="1.6" fill="#becde6" opacity="0.2"/>
<rect x="606.8" y="205.6" width="1.6" height="1.6" fill="#becde6" opacity="0.26"/>
<rect x="30.9" y="68.2" width="1.6" height="1.6" fill="#becde6" opacity="0.61"/>
<rect x="469.3" y="116.1" width="1.6" height="1.6" fill="#becde6" opacity="0.52"/>
<rect x="334.6" y="31.7" width="1.6" height="1.6" fill="#becde6" opacity="0.47"/>
<rect x="652.4" y="94.0" width="1.6" height="1.6" fill="#becde6" opacity="0.47"/>
<rect x="556.8" y="297.6" width="1.6" height="1.6" fill="#becde6" opacity="0.29"/>
<rect x="616.7" y="162.5" width="1.6" height="1.6" fill="#becde6" opacity="0.45"/>
<rect x="59.9" y="256.3" width="1.6" height="1.6" fill="#becde6" opacity="0.42"/>
<rect x="224.6" y="271.4" width="1.6" height="1.6" fill="#becde6" opacity="0.31"/>
<rect x="376.6" y="30.0" width="1.6" height="1.6" fill="#becde6" opacity="0.6"/>
<rect x="72.2" y="59.4" width="1.6" height="1.6" fill="#becde6" opacity="0.24"/>
<rect x="364.2" y="168.4" width="1.6" height="1.6" fill="#becde6" opacity="0.6"/>
<rect x="183.0" y="336.2" width="1.6" height="1.6" fill="#becde6" opacity="0.27"/>
<rect x="25.0" y="37.1" width="1.6" height="1.6" fill="#becde6" opacity="0.67"/>
<rect x="253.5" y="259.1" width="1.6" height="1.6" fill="#becde6" opacity="0.45"/>
<rect x="586.1" y="151.0" width="1.6" height="1.6" fill="#becde6" opacity="0.33"/>
<rect x="557.7" y="84.8" width="1.6" height="1.6" fill="#becde6" opacity="0.27"/>
<rect x="114.6" y="27.2" width="1.6" height="1.6" fill="#becde6" opacity="0.19"/>
<rect x="208.8" y="317.4" width="1.6" height="1.6" fill="#becde6" opacity="0.22"/>
<rect x="8.9" y="122.1" width="1.6" height="1.6" fill="#becde6" opacity="0.18"/>
<rect x="223.3" y="242.9" width="1.6" height="1.6" fill="#becde6" opacity="0.31"/>
<rect x="602.2" y="240.6" width="1.6" height="1.6" fill="#becde6" opacity="0.4"/>
<rect x="323.3" y="321.0" width="1.6" height="1.6" fill="#becde6" opacity="0.49"/>
</g>
<circle cx="520" cy="212" r="130" fill="url(#moonGlow)"/>
<circle cx="520" cy="212" r="30" fill="#ccd6ea" opacity="0.92"/>
<circle cx="511" cy="219" r="6.5" fill="#a3adc4" opacity="0.55"/>
<circle cx="530" cy="203" r="4.2" fill="#a3adc4" opacity="0.5"/>
<circle cx="523" cy="225" r="2.8" fill="#a3adc4" opacity="0.4"/>
<g fill="#04070d" filter="url(#soft4)"><ellipse cx="470" cy="196" rx="120" ry="16" opacity="0.85"/><ellipse cx="590" cy="232" rx="140" ry="14" opacity="0.8"/><ellipse cx="360" cy="252" rx="150" ry="17" opacity="0.7"/><ellipse cx="150" cy="180" rx="130" ry="15" opacity="0.6"/></g>
<g><rect x="536" y="330" width="50" height="190" fill="#070a10"/><rect x="533" y="322" width="56" height="12" fill="#0a0e16"/><rect x="542" y="300" width="12" height="24" fill="#05070c"/><rect x="566" y="300" width="12" height="24" fill="#05070c"/><rect x="534" y="318" width="54" height="4" rx="2" fill="#9caac4" opacity="0.4"/></g>
<g><rect x="112" y="368" width="38" height="150" fill="#060910"/><rect x="118" y="350" width="9" height="20" fill="#04060b"/><rect x="135" y="350" width="9" height="20" fill="#04060b"/><rect x="110" y="364" width="42" height="3.5" rx="1.7" fill="#9caac4" opacity="0.32"/></g>
<polygon points="-60,545 340,270 740,545" fill="url(#gable)"/>
<g stroke-linecap="round"><path d="M-50,540 L340,272 L730,540" fill="none" stroke="#8fa0be" stroke-width="7" opacity="0.34"/><path d="M-50,538 L340,270 L730,538" fill="none" stroke="#c6d2e8" stroke-width="2.4" opacity="0.5"/></g>
<g stroke="#04060a" fill="#04060a"><line x1="340" y1="274" x2="340" y2="212" stroke-width="4"/><line x1="330" y1="234" x2="350" y2="234" stroke-width="3"/><polygon points="340,200 346,214 340,228 334,214"/></g>
<rect x="0" y="500" width="680" height="520" fill="url(#facade)"/>
<rect x="360" y="500" width="320" height="520" fill="url(#moonWash)"/>
<path d="M340,272 L730,540 L680,545 L620,545 Z" fill="#3d4c6e" opacity="0.12"/>
<rect x="0" y="545" width="680" height="16" fill="black" opacity="0.5"/>
<g stroke="#1b2233" opacity="0.16">
<line x1="0" y1="580" x2="680" y2="580" stroke-width="1.3"/>
<line x1="0" y1="618" x2="680" y2="618" stroke-width="1.3"/>
<line x1="0" y1="656" x2="680" y2="656" stroke-width="1.3"/>
<line x1="0" y1="694" x2="680" y2="694" stroke-width="1.3"/>
<line x1="0" y1="732" x2="680" y2="732" stroke-width="1.3"/>
<line x1="0" y1="770" x2="680" y2="770" stroke-width="1.3"/>
<line x1="0" y1="808" x2="680" y2="808" stroke-width="1.3"/>
<line x1="0" y1="846" x2="680" y2="846" stroke-width="1.3"/>
<line x1="0" y1="884" x2="680" y2="884" stroke-width="1.3"/>
<line x1="0" y1="922" x2="680" y2="922" stroke-width="1.3"/>
<line x1="0" y1="960" x2="680" y2="960" stroke-width="1.3"/>
<line x1="0" y1="998" x2="680" y2="998" stroke-width="1.3"/>
</g>
<g stroke="#1b2233" opacity="0.10">
<line x1="382" y1="941" x2="382" y2="979" stroke-width="1.2"/>
<line x1="268" y1="577" x2="268" y2="615" stroke-width="1.2"/>
<line x1="602" y1="640" x2="602" y2="678" stroke-width="1.2"/>
<line x1="48" y1="923" x2="48" y2="961" stroke-width="1.2"/>
<line x1="10" y1="613" x2="10" y2="651" stroke-width="1.2"/>
<line x1="510" y1="710" x2="510" y2="748" stroke-width="1.2"/>
<line x1="218" y1="779" x2="218" y2="817" stroke-width="1.2"/>
<line x1="254" y1="847" x2="254" y2="885" stroke-width="1.2"/>
<line x1="533" y1="875" x2="533" y2="913" stroke-width="1.2"/>
<line x1="287" y1="635" x2="287" y2="673" stroke-width="1.2"/>
<line x1="240" y1="756" x2="240" y2="794" stroke-width="1.2"/>
<line x1="393" y1="674" x2="393" y2="712" stroke-width="1.2"/>
<line x1="546" y1="701" x2="546" y2="739" stroke-width="1.2"/>
<line x1="597" y1="629" x2="597" y2="667" stroke-width="1.2"/>
</g>
<rect x="0" y="762" width="680" height="9" fill="#151b29" opacity="0.85"/>
<rect x="0" y="760" width="680" height="3.5" rx="1.7" fill="#7f8fac" opacity="0.22"/>
<circle cx="340" cy="398" r="34" fill="#151b29"/>
<circle cx="340" cy="398" r="28" fill="#020305"/>
<circle cx="340" cy="398" r="28" fill="url(#atticGlint)"/>
<g stroke="#1c2334" stroke-width="1.6" opacity="0.6"><line x1="340" y1="370" x2="340" y2="426"/><line x1="312" y1="398" x2="368" y2="398"/></g>
<path d="M310,392 A30,30 0 0 1 370,392" fill="none" stroke="#2a3348" stroke-width="1.4" opacity="0.35"/>
<rect x="306" y="428" width="68" height="5" rx="2.5" fill="#8b9cba" opacity="0.3"/>
<rect x="-43" y="567" width="86" height="172" fill="#141a28" opacity="0.6000000000000001"/><rect x="-37" y="575" width="74" height="160" fill="#030408"/><rect x="-31" y="583" width="21" height="80" fill="#1a2438" opacity="0.22400000000000003"/><g stroke="#10151f" stroke-width="3" opacity="0.7200000000000001"><line x1="0.0" y1="575" x2="0.0" y2="735"/><line x1="-37" y1="655.0" x2="37" y2="655.0"/></g><rect x="-45" y="735" width="90" height="7" fill="#10141e"/><rect x="-45" y="733" width="90" height="4.5" rx="2" fill="#93a3c0" opacity="0.32000000000000006"/>
<rect x="77" y="567" width="86" height="172" fill="#141a28" opacity="0.75"/><rect x="83" y="575" width="74" height="160" fill="#030408"/><rect x="89" y="583" width="21" height="80" fill="#1a2438" opacity="0.28"/><g stroke="#10151f" stroke-width="3" opacity="0.9"><line x1="120.0" y1="575" x2="120.0" y2="735"/><line x1="83" y1="655.0" x2="157" y2="655.0"/></g><rect x="75" y="735" width="90" height="7" fill="#10141e"/><rect x="75" y="733" width="90" height="4.5" rx="2" fill="#93a3c0" opacity="0.4"/>
<rect x="182" y="567" width="86" height="172" fill="#141a28" opacity="0.75"/><rect x="188" y="575" width="74" height="160" fill="#030408"/><rect x="194" y="583" width="21" height="80" fill="#1a2438" opacity="0.28"/><g stroke="#10151f" stroke-width="3" opacity="0.9"><line x1="225.0" y1="575" x2="225.0" y2="735"/><line x1="188" y1="655.0" x2="262" y2="655.0"/></g><rect x="180" y="735" width="90" height="7" fill="#10141e"/><rect x="180" y="733" width="90" height="4.5" rx="2" fill="#93a3c0" opacity="0.4"/>
<rect x="517" y="567" width="86" height="172" fill="#141a28" opacity="0.75"/><rect x="523" y="575" width="74" height="160" fill="#030408"/><rect x="529" y="583" width="21" height="80" fill="#1a2438" opacity="0.28"/><g stroke="#10151f" stroke-width="3" opacity="0.9"><line x1="560.0" y1="575" x2="560.0" y2="735"/><line x1="523" y1="655.0" x2="597" y2="655.0"/></g><rect x="515" y="735" width="90" height="7" fill="#10141e"/><rect x="515" y="733" width="90" height="4.5" rx="2" fill="#93a3c0" opacity="0.4"/>
<rect x="637" y="567" width="86" height="172" fill="#141a28" opacity="0.6000000000000001"/><rect x="643" y="575" width="74" height="160" fill="#030408"/><rect x="649" y="583" width="21" height="80" fill="#1a2438" opacity="0.22400000000000003"/><g stroke="#10151f" stroke-width="3" opacity="0.7200000000000001"><line x1="680.0" y1="575" x2="680.0" y2="735"/><line x1="643" y1="655.0" x2="717" y2="655.0"/></g><rect x="635" y="735" width="90" height="7" fill="#10141e"/><rect x="635" y="733" width="90" height="4.5" rx="2" fill="#93a3c0" opacity="0.32000000000000006"/>
<rect x="418" y="575" width="74" height="160" fill="url(#winLit)" filter="url(#wg)"/>
<rect x="412" y="567" width="86" height="172" fill="none" stroke="#141a28" stroke-width="10" opacity="0.9"/>
<g fill="#060202"><circle cx="449.08" cy="629.4" r="15.54"/><path d="M427.62,735 L427.62,680 Q429,667 435,661 Q441,656 441,650 L441,635 Q449.08,631 457.16,635 L457.16,650 Q457.16,656 463.16,661 Q469.16,667 471.28,680 L471.28,735 Z"/></g>
<g stroke="#050403" stroke-width="4"><line x1="455.0" y1="575" x2="455.0" y2="735"/><line x1="418" y1="655.0" x2="492" y2="655.0"/></g>
<rect x="410" y="735" width="90" height="7" fill="#10141e"/>
<rect x="410" y="733" width="90" height="4.5" rx="2" fill="#a58a86" opacity="0.4"/>
<rect x="0" y="500" width="680" height="520" fill="url(#winGlow)"/>
<path d="M282,633 L282,743 L398,743 L398,633 A58,58 0 0 0 282,633 Z" fill="#161d2c"/>
<path d="M289,637 L289,735 L391,735 L391,637 A51,51 0 0 0 289,637 Z" fill="#010102"/>
<g stroke="#1d2537" stroke-width="1.8" opacity="0.4"><line x1="340" y1="588" x2="340" y2="735"/><line x1="312" y1="608" x2="312" y2="735"/><line x1="368" y1="608" x2="368" y2="735"/><line x1="289" y1="680" x2="391" y2="680"/><path d="M289,637 A51,51 0 0 1 391,637" fill="none"/></g>
<rect x="274" y="735" width="132" height="7" fill="#10141e"/>
<rect x="274" y="733" width="132" height="4.5" rx="2" fill="#8b9cba" opacity="0.4"/>
<rect x="-43" y="797" width="86" height="152" fill="#141a28" opacity="0.44999999999999996"/><rect x="-37" y="805" width="74" height="140" fill="#030408"/><rect x="-31" y="813" width="21" height="70" fill="#1a2438" opacity="0.168"/><g stroke="#10151f" stroke-width="3" opacity="0.54"><line x1="0.0" y1="805" x2="0.0" y2="945"/><line x1="-37" y1="875.0" x2="37" y2="875.0"/></g><rect x="-45" y="945" width="90" height="7" fill="#10141e"/><rect x="-45" y="943" width="90" height="4.5" rx="2" fill="#93a3c0" opacity="0.24"/>
<rect x="77" y="797" width="86" height="152" fill="#141a28" opacity="0.6375"/><rect x="83" y="805" width="74" height="140" fill="#030408"/><rect x="89" y="813" width="21" height="70" fill="#1a2438" opacity="0.23800000000000002"/><g stroke="#10151f" stroke-width="3" opacity="0.765"><line x1="120.0" y1="805" x2="120.0" y2="945"/><line x1="83" y1="875.0" x2="157" y2="875.0"/></g><rect x="75" y="945" width="90" height="7" fill="#10141e"/><rect x="75" y="943" width="90" height="4.5" rx="2" fill="#93a3c0" opacity="0.34"/>
<rect x="182" y="797" width="86" height="152" fill="#141a28" opacity="0.6375"/><rect x="188" y="805" width="74" height="140" fill="#030408"/><rect x="194" y="813" width="21" height="70" fill="#1a2438" opacity="0.23800000000000002"/><g stroke="#10151f" stroke-width="3" opacity="0.765"><line x1="225.0" y1="805" x2="225.0" y2="945"/><line x1="188" y1="875.0" x2="262" y2="875.0"/></g><rect x="180" y="945" width="90" height="7" fill="#10141e"/><rect x="180" y="943" width="90" height="4.5" rx="2" fill="#93a3c0" opacity="0.34"/>
<rect x="418" y="797" width="86" height="152" fill="#141a28" opacity="0.6375"/><rect x="424" y="805" width="74" height="140" fill="#030408"/><rect x="430" y="813" width="21" height="70" fill="#1a2438" opacity="0.23800000000000002"/><g stroke="#10151f" stroke-width="3" opacity="0.765"><line x1="461.0" y1="805" x2="461.0" y2="945"/><line x1="424" y1="875.0" x2="498" y2="875.0"/></g><rect x="416" y="945" width="90" height="7" fill="#10141e"/><rect x="416" y="943" width="90" height="4.5" rx="2" fill="#93a3c0" opacity="0.34"/>
<rect x="523" y="797" width="86" height="152" fill="#141a28" opacity="0.6375"/><rect x="529" y="805" width="74" height="140" fill="#030408"/><rect x="535" y="813" width="21" height="70" fill="#1a2438" opacity="0.23800000000000002"/><g stroke="#10151f" stroke-width="3" opacity="0.765"><line x1="566.0" y1="805" x2="566.0" y2="945"/><line x1="529" y1="875.0" x2="603" y2="875.0"/></g><rect x="521" y="945" width="90" height="7" fill="#10141e"/><rect x="521" y="943" width="90" height="4.5" rx="2" fill="#93a3c0" opacity="0.34"/>
<rect x="637" y="797" width="86" height="152" fill="#141a28" opacity="0.44999999999999996"/><rect x="643" y="805" width="74" height="140" fill="#030408"/><rect x="649" y="813" width="21" height="70" fill="#1a2438" opacity="0.168"/><g stroke="#10151f" stroke-width="3" opacity="0.54"><line x1="680.0" y1="805" x2="680.0" y2="945"/><line x1="643" y1="875.0" x2="717" y2="875.0"/></g><rect x="635" y="945" width="90" height="7" fill="#10141e"/><rect x="635" y="943" width="90" height="4.5" rx="2" fill="#93a3c0" opacity="0.24"/>
<rect x="258" y="778" width="164" height="212" fill="#1e2637"/>
<rect x="274" y="792" width="132" height="198" fill="#0b0e15"/>
<rect x="250" y="766" width="180" height="14" fill="#232d42"/>
<rect x="250" y="763" width="180" height="5" rx="2.5" fill="#93a3c0" opacity="0.5"/>
<line x1="264" y1="780" x2="264" y2="988" stroke="#3a486a" stroke-width="2" opacity="0.45"/>
<line x1="416" y1="780" x2="416" y2="988" stroke="#3a486a" stroke-width="2" opacity="0.55"/>
<path d="M282,822 L282,820 A58,58 0 0 1 398,820 L398,822 Z" fill="#020305"/>
<g stroke="#1d2537" stroke-width="1.6" opacity="0.5"><path d="M287,820 A53,53 0 0 1 393,820" fill="none"/><line x1="340" y1="820" x2="340" y2="770"/><line x1="340" y1="820" x2="305" y2="783"/><line x1="340" y1="820" x2="375" y2="783"/></g>
<rect x="284" y="822" width="112" height="156" fill="url(#doorwood)"/>
<g stroke="#050302" stroke-width="2" opacity="0.8"><line x1="340" y1="822" x2="340" y2="978"/><line x1="312" y1="822" x2="312" y2="978"/><line x1="368" y1="822" x2="368" y2="978"/></g>
<g stroke="#1c1208" stroke-width="2.4" opacity="0.55"><line x1="284" y1="858" x2="396" y2="858"/><line x1="284" y1="934" x2="396" y2="934"/></g>
<line x1="284" y1="822" x2="284" y2="978" stroke="#33405e" stroke-width="1.6" opacity="0.55"/>
<line x1="396" y1="822" x2="396" y2="978" stroke="#33405e" stroke-width="1.6" opacity="0.65"/>
<g fill="none" stroke="#0a0805" stroke-width="5"><circle cx="324" cy="905" r="10"/><circle cx="356" cy="905" r="10"/></g>
<path d="M348,899 A10,10 0 0 1 361,897" fill="none" stroke="#77694b" stroke-width="2" opacity="0.7"/>
<g><rect x="252" y="978" width="176" height="12" fill="#161d2e"/><rect x="252" y="976" width="176" height="4" rx="2" fill="#9aa9c6" opacity="0.5"/><rect x="236" y="990" width="208" height="12" fill="#121826"/><rect x="236" y="988" width="208" height="4" rx="2" fill="#8b9bba" opacity="0.42"/><rect x="220" y="1002" width="240" height="11" fill="#0e131e"/><rect x="220" y="1000" width="240" height="4" rx="2" fill="#7d8dab" opacity="0.34"/><rect x="206" y="1013" width="268" height="7" fill="#0b0f18"/><rect x="206" y="1011" width="268" height="3.5" rx="1.7" fill="#71809c" opacity="0.26"/></g>
<path d="M24,1020 L24,984 Q120,966 220,982 Q340,998 470,980 Q580,968 656,986 L656,1020 Z" fill="#2c3854" opacity="0.55" filter="url(#soft4)"/>
<g stroke="#020408" fill="none" stroke-linecap="round"><path d="M-14,150 Q70,168 128,220 Q162,252 158,300" stroke-width="12"/><path d="M76,172 Q128,178 162,158" stroke-width="6"/><path d="M126,218 Q178,232 204,272 Q216,292 210,318" stroke-width="6"/><path d="M152,252 Q132,292 92,314" stroke-width="4.5"/><path d="M204,270 Q232,286 238,314" stroke-width="3.5"/><path d="M158,296 Q176,330 168,362" stroke-width="4"/><path d="M162,158 Q186,146 196,124" stroke-width="3.5"/><path d="M92,312 Q76,332 74,354" stroke-width="3"/></g>
<ellipse cx="458" cy="992" rx="80" ry="18" fill="#8c2014" opacity="0.07" filter="url(#soft)"/>
<g fill="#28374f" filter="url(#soft)"><ellipse cx="110" cy="1008" rx="210" ry="38" opacity="0.46"/><ellipse cx="560" cy="1012" rx="220" ry="40" opacity="0.42"/><ellipse cx="330" cy="966" rx="300" ry="26" opacity="0.22"/><ellipse cx="600" cy="926" rx="180" ry="24" opacity="0.18"/><ellipse cx="80" cy="896" rx="160" ry="22" opacity="0.16"/></g>
<g fill="#dbe4f4">
<circle cx="616.7" cy="925.0" r="0.8" opacity="0.31"/>
<circle cx="128.7" cy="614.6" r="0.8" opacity="0.22"/>
<circle cx="253.5" cy="330.6" r="0.8" opacity="0.26"/>
<circle cx="353.6" cy="575.9" r="0.8" opacity="0.22"/>
<circle cx="130.3" cy="890.8" r="0.8" opacity="0.21"/>
<circle cx="243.5" cy="929.1" r="0.8" opacity="0.23"/>
<circle cx="65.5" cy="506.8" r="0.8" opacity="0.25"/>
<circle cx="325.4" cy="367.4" r="0.8" opacity="0.24"/>
<circle cx="117.1" cy="856.2" r="0.8" opacity="0.27"/>
<circle cx="500.9" cy="259.4" r="0.8" opacity="0.23"/>
<circle cx="671.4" cy="505.7" r="0.8" opacity="0.25"/>
<circle cx="480.5" cy="93.0" r="0.8" opacity="0.29"/>
<circle cx="559.8" cy="408.1" r="0.8" opacity="0.24"/>
<circle cx="47.8" cy="809.1" r="0.8" opacity="0.28"/>
<circle cx="256.3" cy="567.3" r="0.8" opacity="0.21"/>
<circle cx="341.4" cy="515.8" r="0.8" opacity="0.22"/>
<circle cx="313.8" cy="866.1" r="0.8" opacity="0.3"/>
<circle cx="62.1" cy="35.7" r="0.8" opacity="0.26"/>
<circle cx="19.4" cy="150.2" r="0.8" opacity="0.24"/>
<circle cx="10.3" cy="351.6" r="0.8" opacity="0.3"/>
<circle cx="160.1" cy="244.9" r="0.8" opacity="0.23"/>
<circle cx="66.5" cy="919.9" r="0.8" opacity="0.24"/>
<circle cx="521.5" cy="49.6" r="0.8" opacity="0.27"/>
<circle cx="610.6" cy="814.3" r="0.8" opacity="0.3"/>
<circle cx="215.4" cy="349.8" r="0.8" opacity="0.23"/>
<circle cx="414.1" cy="834.9" r="0.8" opacity="0.3"/>
<circle cx="562.5" cy="257.7" r="0.8" opacity="0.28"/>
<circle cx="579.4" cy="38.1" r="0.8" opacity="0.27"/>
<circle cx="39.0" cy="614.8" r="0.8" opacity="0.2"/>
<circle cx="204.7" cy="65.6" r="0.8" opacity="0.23"/>
<circle cx="533.1" cy="551.3" r="0.8" opacity="0.2"/>
<circle cx="585.7" cy="450.8" r="0.8" opacity="0.22"/>
<circle cx="250.8" cy="627.9" r="0.8" opacity="0.31"/>
<circle cx="640.8" cy="401.0" r="0.8" opacity="0.21"/>
<circle cx="521.5" cy="479.8" r="0.8" opacity="0.31"/>
<circle cx="247.1" cy="216.0" r="0.8" opacity="0.26"/>
<circle cx="98.1" cy="119.9" r="0.8" opacity="0.21"/>
<circle cx="676.8" cy="936.0" r="0.8" opacity="0.25"/>
<circle cx="292.2" cy="85.6" r="0.8" opacity="0.23"/>
<circle cx="668.0" cy="217.3" r="0.8" opacity="0.26"/>
<circle cx="41.5" cy="111.7" r="0.8" opacity="0.21"/>
<circle cx="678.8" cy="399.3" r="0.8" opacity="0.32"/>
<circle cx="260.6" cy="156.1" r="0.8" opacity="0.23"/>
<circle cx="273.1" cy="478.2" r="0.8" opacity="0.2"/>
<circle cx="238.4" cy="229.8" r="0.8" opacity="0.19"/>
<circle cx="313.7" cy="388.3" r="0.8" opacity="0.29"/>
<circle cx="620.3" cy="527.0" r="0.8" opacity="0.27"/>
<circle cx="304.1" cy="622.4" r="0.8" opacity="0.27"/>
<circle cx="220.6" cy="311.7" r="0.8" opacity="0.19"/>
<circle cx="616.4" cy="890.7" r="0.8" opacity="0.31"/>
<circle cx="292.5" cy="518.4" r="0.8" opacity="0.2"/>
<circle cx="287.2" cy="305.7" r="0.8" opacity="0.21"/>
<circle cx="262.5" cy="263.0" r="0.8" opacity="0.26"/>
<circle cx="325.9" cy="837.8" r="0.8" opacity="0.2"/>
<circle cx="367.7" cy="708.1" r="0.8" opacity="0.28"/>
<circle cx="470.5" cy="499.5" r="0.8" opacity="0.22"/>
<circle cx="191.2" cy="403.1" r="0.8" opacity="0.25"/>
<circle cx="246.7" cy="791.2" r="0.8" opacity="0.3"/>
<circle cx="469.2" cy="498.1" r="0.8" opacity="0.31"/>
<circle cx="506.2" cy="22.3" r="0.8" opacity="0.27"/>
<circle cx="506.5" cy="798.6" r="0.8" opacity="0.28"/>
<circle cx="602.0" cy="278.9" r="0.8" opacity="0.31"/>
<circle cx="15.9" cy="452.4" r="0.8" opacity="0.22"/>
<circle cx="349.1" cy="921.1" r="0.8" opacity="0.25"/>
</g>
<g fill="#dbe4f4">
<circle cx="481.8" cy="722.7" r="1.2" opacity="0.44"/>
<circle cx="549.4" cy="728.7" r="1.2" opacity="0.31"/>
<circle cx="485.2" cy="141.8" r="1.2" opacity="0.46"/>
<circle cx="228.3" cy="710.5" r="1.2" opacity="0.38"/>
<circle cx="95.1" cy="719.3" r="1.2" opacity="0.41"/>
<circle cx="287.5" cy="337.5" r="1.2" opacity="0.32"/>
<circle cx="58.9" cy="697.2" r="1.2" opacity="0.44"/>
<circle cx="387.2" cy="339.8" r="1.2" opacity="0.41"/>
<circle cx="255.3" cy="29.2" r="1.2" opacity="0.43"/>
<circle cx="71.6" cy="825.6" r="1.2" opacity="0.43"/>
<circle cx="484.1" cy="916.8" r="1.2" opacity="0.41"/>
<circle cx="13.2" cy="768.0" r="1.2" opacity="0.32"/>
<circle cx="370.9" cy="315.9" r="1.2" opacity="0.37"/>
<circle cx="78.3" cy="641.6" r="1.2" opacity="0.37"/>
<circle cx="531.7" cy="1.9" r="1.2" opacity="0.42"/>
<circle cx="292.2" cy="526.4" r="1.2" opacity="0.5"/>
<circle cx="310.7" cy="692.4" r="1.2" opacity="0.32"/>
<circle cx="623.2" cy="251.8" r="1.2" opacity="0.36"/>
<circle cx="358.3" cy="874.7" r="1.2" opacity="0.41"/>
<circle cx="485.5" cy="137.5" r="1.2" opacity="0.31"/>
<circle cx="480.5" cy="947.9" r="1.2" opacity="0.44"/>
<circle cx="582.1" cy="878.5" r="1.2" opacity="0.3"/>
<circle cx="593.5" cy="18.3" r="1.2" opacity="0.44"/>
<circle cx="371.5" cy="465.6" r="1.2" opacity="0.3"/>
<circle cx="380.9" cy="156.5" r="1.2" opacity="0.48"/>
<circle cx="520.6" cy="292.0" r="1.2" opacity="0.49"/>
<circle cx="182.9" cy="201.9" r="1.2" opacity="0.39"/>
<circle cx="357.1" cy="468.9" r="1.2" opacity="0.44"/>
<circle cx="228.6" cy="855.3" r="1.2" opacity="0.35"/>
<circle cx="597.9" cy="492.0" r="1.2" opacity="0.31"/>
<circle cx="394.4" cy="617.4" r="1.2" opacity="0.49"/>
<circle cx="83.4" cy="527.0" r="1.2" opacity="0.4"/>
<circle cx="131.7" cy="605.1" r="1.2" opacity="0.48"/>
<circle cx="558.2" cy="526.3" r="1.2" opacity="0.41"/>
<circle cx="412.5" cy="111.9" r="1.2" opacity="0.33"/>
<circle cx="25.0" cy="781.7" r="1.2" opacity="0.49"/>
<circle cx="112.7" cy="221.9" r="1.2" opacity="0.37"/>
<circle cx="669.8" cy="363.9" r="1.2" opacity="0.44"/>
<circle cx="489.1" cy="189.4" r="1.2" opacity="0.35"/>
<circle cx="392.6" cy="852.9" r="1.2" opacity="0.34"/>
</g>
<g fill="#dbe4f4">
<path d="M140.3,210.5 l-5.8,8.8" stroke="#dbe4f4" stroke-width="3.1" stroke-linecap="round" opacity="0.53"/>
<path d="M45.7,213.0 l-5.8,8.8" stroke="#dbe4f4" stroke-width="3.1" stroke-linecap="round" opacity="0.62"/>
<path d="M321.2,417.7 l-5.8,8.8" stroke="#dbe4f4" stroke-width="3.1" stroke-linecap="round" opacity="0.62"/>
<path d="M675.5,1009.2 l-5.8,8.8" stroke="#dbe4f4" stroke-width="3.1" stroke-linecap="round" opacity="0.67"/>
<path d="M367.4,399.5 l-5.8,8.8" stroke="#dbe4f4" stroke-width="3.1" stroke-linecap="round" opacity="0.56"/>
<path d="M227.8,477.9 l-5.8,8.8" stroke="#dbe4f4" stroke-width="3.1" stroke-linecap="round" opacity="0.53"/>
<path d="M520.6,778.7 l-5.8,8.8" stroke="#dbe4f4" stroke-width="3.1" stroke-linecap="round" opacity="0.49"/>
<path d="M271.1,551.4 l-5.8,8.8" stroke="#dbe4f4" stroke-width="3.1" stroke-linecap="round" opacity="0.54"/>
<path d="M226.3,297.2 l-5.8,8.8" stroke="#dbe4f4" stroke-width="3.1" stroke-linecap="round" opacity="0.59"/>
<path d="M223.9,320.6 l-5.8,8.8" stroke="#dbe4f4" stroke-width="3.1" stroke-linecap="round" opacity="0.66"/>
<path d="M126.9,905.7 l-5.8,8.8" stroke="#dbe4f4" stroke-width="3.1" stroke-linecap="round" opacity="0.53"/>
<path d="M98.5,928.2 l-5.8,8.8" stroke="#dbe4f4" stroke-width="3.1" stroke-linecap="round" opacity="0.57"/>
<path d="M52.0,385.6 l-5.8,8.8" stroke="#dbe4f4" stroke-width="3.1" stroke-linecap="round" opacity="0.5"/>
<path d="M514.9,626.8 l-5.8,8.8" stroke="#dbe4f4" stroke-width="3.1" stroke-linecap="round" opacity="0.78"/>
<path d="M568.0,465.9 l-5.8,8.8" stroke="#dbe4f4" stroke-width="3.1" stroke-linecap="round" opacity="0.56"/>
<path d="M477.4,657.6 l-5.8,8.8" stroke="#dbe4f4" stroke-width="3.1" stroke-linecap="round" opacity="0.55"/>
<path d="M376.0,862.9 l-5.8,8.8" stroke="#dbe4f4" stroke-width="3.1" stroke-linecap="round" opacity="0.52"/>
<path d="M464.8,167.1 l-5.8,8.8" stroke="#dbe4f4" stroke-width="3.1" stroke-linecap="round" opacity="0.64"/>
<path d="M519.0,776.9 l-5.8,8.8" stroke="#dbe4f4" stroke-width="3.1" stroke-linecap="round" opacity="0.71"/>
<path d="M291.1,662.8 l-5.8,8.8" stroke="#dbe4f4" stroke-width="3.1" stroke-linecap="round" opacity="0.64"/>
<path d="M124.3,370.4 l-5.8,8.8" stroke="#dbe4f4" stroke-width="3.1" stroke-linecap="round" opacity="0.6"/>
<path d="M418.8,343.7 l-5.8,8.8" stroke="#dbe4f4" stroke-width="3.1" stroke-linecap="round" opacity="0.58"/>
</g>
<rect width="680" height="1020" fill="url(#vig)"/>
<g>
<rect x="185.3" y="44.6" width="1" height="1" fill="#5a6478" opacity="0.029"/>
<rect x="318.4" y="211.1" width="1" height="1" fill="#5a6478" opacity="0.004"/>
<rect x="105.6" y="908.3" width="1" height="1" fill="#5a6478" opacity="0.034"/>
<rect x="189.8" y="371.9" width="1" height="1" fill="#5a6478" opacity="0.036"/>
<rect x="73.1" y="943.2" width="1" height="1" fill="#5a6478" opacity="0.009"/>
<rect x="197.8" y="543.2" width="1" height="1" fill="#5a6478" opacity="0.005"/>
<rect x="213.9" y="778.9" width="1" height="1" fill="#5a6478" opacity="0.014"/>
<rect x="364.1" y="977.7" width="1" height="1" fill="#5a6478" opacity="0.033"/>
<rect x="179.9" y="529.0" width="1" height="1" fill="#5a6478" opacity="0.007"/>
<rect x="385.8" y="170.4" width="1" height="1" fill="#5a6478" opacity="0.024"/>
<rect x="385.8" y="966.4" width="1" height="1" fill="#5a6478" opacity="0.012"/>
<rect x="258.3" y="355.1" width="1" height="1" fill="#5a6478" opacity="0.007"/>
<rect x="615.7" y="497.5" width="1" height="1" fill="#5a6478" opacity="0.015"/>
<rect x="138.2" y="376.2" width="1" height="1" fill="#5a6478" opacity="0.023"/>
<rect x="379.2" y="777.3" width="1" height="1" fill="#5a6478" opacity="0.011"/>
<rect x="123.3" y="614.1" width="1" height="1" fill="#5a6478" opacity="0.001"/>
<rect x="636.4" y="862.9" width="1" height="1" fill="#5a6478" opacity="0.042"/>
<rect x="272.9" y="255.3" width="1" height="1" fill="#5a6478" opacity="0.044"/>
<rect x="176.5" y="696.0" width="1" height="1" fill="#5a6478" opacity="0.013"/>
<rect x="43.9" y="390.2" width="1" height="1" fill="#5a6478" opacity="0.039"/>
<rect x="335.9" y="112.3" width="1" height="1" fill="#5a6478" opacity="0.031"/>
<rect x="206.3" y="265.7" width="1" height="1" fill="#5a6478" opacity="0.001"/>
<rect x="539.4" y="472.4" width="1" height="1" fill="#5a6478" opacity="0.043"/>
<rect x="447.9" y="17.5" width="1" height="1" fill="#5a6478" opacity="0.041"/>
<rect x="164.9" y="475.7" width="1" height="1" fill="#5a6478" opacity="0.025"/>
<rect x="625.9" y="650.3" width="1" height="1" fill="#5a6478" opacity="0.003"/>
<rect x="493.1" y="32.5" width="1" height="1" fill="#5a6478" opacity="0.018"/>
<rect x="663.7" y="914.7" width="1" height="1" fill="#5a6478" opacity="0.024"/>
<rect x="492.0" y="619.7" width="1" height="1" fill="#5a6478" opacity="0.037"/>
<rect x="206.9" y="101.1" width="1" height="1" fill="#5a6478" opacity="0.036"/>
<rect x="131.5" y="113.3" width="1" height="1" fill="#5a6478" opacity="0.024"/>
<rect x="416.7" y="511.7" width="1" height="1" fill="#5a6478" opacity="0.025"/>
<rect x="414.4" y="237.7" width="1" height="1" fill="#5a6478" opacity="0.0"/>
<rect x="570.2" y="799.3" width="1" height="1" fill="#5a6478" opacity="0.042"/>
<rect x="610.5" y="789.2" width="1" height="1" fill="#5a6478" opacity="0.021"/>
<rect x="350.5" y="461.6" width="1" height="1" fill="#5a6478" opacity="0.042"/>
<rect x="565.4" y="774.6" width="1" height="1" fill="#5a6478" opacity="0.031"/>
<rect x="592.1" y="358.7" width="1" height="1" fill="#5a6478" opacity="0.036"/>
<rect x="263.1" y="605.9" width="1" height="1" fill="#5a6478" opacity="0.031"/>
<rect x="578.5" y="365.4" width="1" height="1" fill="#5a6478" opacity="0.003"/>
<rect x="289.9" y="799.9" width="1" height="1" fill="#5a6478" opacity="0.029"/>
<rect x="310.6" y="141.4" width="1" height="1" fill="#5a6478" opacity="0.01"/>
<rect x="4.4" y="537.5" width="1" height="1" fill="#5a6478" opacity="0.038"/>
<rect x="547.0" y="662.4" width="1" height="1" fill="#5a6478" opacity="0.02"/>
<rect x="158.2" y="470.7" width="1" height="1" fill="#5a6478" opacity="0.007"/>
<rect x="1.0" y="363.6" width="1" height="1" fill="#5a6478" opacity="0.005"/>
<rect x="657.2" y="467.5" width="1" height="1" fill="#5a6478" opacity="0.026"/>
<rect x="379.3" y="223.4" width="1" height="1" fill="#5a6478" opacity="0.038"/>
<rect x="253.5" y="644.1" width="1" height="1" fill="#5a6478" opacity="0.032"/>
<rect x="312.9" y="622.1" width="1" height="1" fill="#5a6478" opacity="0.043"/>
<rect x="261.2" y="867.0" width="1" height="1" fill="#5a6478" opacity="0.015"/>
<rect x="332.3" y="321.8" width="1" height="1" fill="#5a6478" opacity="0.035"/>
<rect x="165.8" y="394.8" width="1" height="1" fill="#5a6478" opacity="0.039"/>
<rect x="403.2" y="814.8" width="1" height="1" fill="#5a6478" opacity="0.027"/>
<rect x="297.5" y="4.0" width="1" height="1" fill="#5a6478" opacity="0.027"/>
<rect x="80.2" y="821.8" width="1" height="1" fill="#5a6478" opacity="0.001"/>
<rect x="318.7" y="225.5" width="1" height="1" fill="#5a6478" opacity="0.037"/>
<rect x="312.9" y="89.5" width="1" height="1" fill="#5a6478" opacity="0.035"/>
<rect x="334.9" y="292.6" width="1" height="1" fill="#5a6478" opacity="0.038"/>
<rect x="559.9" y="671.4" width="1" height="1" fill="#5a6478" opacity="0.023"/>
<rect x="633.2" y="406.2" width="1" height="1" fill="#5a6478" opacity="0.034"/>
<rect x="246.0" y="124.8" width="1" height="1" fill="#5a6478" opacity="0.018"/>
<rect x="516.4" y="433.3" width="1" height="1" fill="#5a6478" opacity="0.03"/>
<rect x="621.4" y="762.9" width="1" height="1" fill="#5a6478" opacity="0.036"/>
<rect x="236.7" y="419.6" width="1" height="1" fill="#5a6478" opacity="0.033"/>
<rect x="49.7" y="912.1" width="1" height="1" fill="#5a6478" opacity="0.027"/>
<rect x="375.3" y="415.3" width="1" height="1" fill="#5a6478" opacity="0.031"/>
<rect x="618.1" y="642.5" width="1" height="1" fill="#5a6478" opacity="0.018"/>
<rect x="61.8" y="366.1" width="1" height="1" fill="#5a6478" opacity="0.016"/>
<rect x="3.4" y="516.2" width="1" height="1" fill="#5a6478" opacity="0.039"/>
<rect x="165.0" y="15.2" width="1" height="1" fill="#5a6478" opacity="0.041"/>
<rect x="613.5" y="109.6" width="1" height="1" fill="#5a6478" opacity="0.008"/>
<rect x="401.8" y="43.2" width="1" height="1" fill="#5a6478" opacity="0.034"/>
<rect x="421.7" y="879.3" width="1" height="1" fill="#5a6478" opacity="0.032"/>
<rect x="314.1" y="1005.4" width="1" height="1" fill="#5a6478" opacity="0.004"/>
<rect x="260.1" y="870.0" width="1" height="1" fill="#5a6478" opacity="0.04"/>
<rect x="659.5" y="795.1" width="1" height="1" fill="#5a6478" opacity="0.03"/>
<rect x="89.4" y="462.7" width="1" height="1" fill="#5a6478" opacity="0.015"/>
<rect x="558.1" y="385.6" width="1" height="1" fill="#5a6478" opacity="0.016"/>
<rect x="560.7" y="576.8" width="1" height="1" fill="#5a6478" opacity="0.003"/>
<rect x="245.9" y="302.4" width="1" height="1" fill="#5a6478" opacity="0.022"/>
<rect x="308.8" y="697.4" width="1" height="1" fill="#5a6478" opacity="0.017"/>
<rect x="616.4" y="687.5" width="1" height="1" fill="#5a6478" opacity="0.011"/>
<rect x="333.4" y="795.9" width="1" height="1" fill="#5a6478" opacity="0.007"/>
<rect x="258.3" y="239.6" width="1" height="1" fill="#5a6478" opacity="0.033"/>
<rect x="325.7" y="773.3" width="1" height="1" fill="#5a6478" opacity="0.014"/>
<rect x="169.0" y="742.3" width="1" height="1" fill="#5a6478" opacity="0.031"/>
<rect x="544.7" y="1014.1" width="1" height="1" fill="#5a6478" opacity="0.025"/>
<rect x="448.9" y="810.2" width="1" height="1" fill="#5a6478" opacity="0.003"/>
<rect x="181.2" y="328.3" width="1" height="1" fill="#5a6478" opacity="0.009"/>
<rect x="605.2" y="683.3" width="1" height="1" fill="#5a6478" opacity="0.003"/>
<rect x="17.0" y="807.7" width="1" height="1" fill="#5a6478" opacity="0.016"/>
<rect x="345.0" y="322.1" width="1" height="1" fill="#5a6478" opacity="0.043"/>
<rect x="490.3" y="502.9" width="1" height="1" fill="#5a6478" opacity="0.033"/>
<rect x="525.2" y="460.4" width="1" height="1" fill="#5a6478" opacity="0.041"/>
</g>
<rect width="680" height="230" fill="url(#topFade)"/>
<rect y="810" width="680" height="210" fill="url(#botFade)"/>
<text x="340" y="94" text-anchor="middle"
      font-family="Georgia,'Times New Roman',serif"
      font-size="72" font-weight="700" letter-spacing="4"
      fill="#c8a040" filter="url(#tg)">COLDMERE</text>
<text x="340" y="150" text-anchor="middle"
      font-family="Georgia,'Times New Roman',serif"
      font-size="48" font-weight="400" letter-spacing="12"
      fill="#9e7828" filter="url(#tg)">MANOR</text>
<line x1="84" y1="170" x2="596" y2="170" stroke="#c8a040" stroke-width="0.8" opacity="0.22"/>
<text x="340" y="1010" text-anchor="middle"
      font-family="Georgia,'Times New Roman',serif"
      font-size="14" letter-spacing="6"
      fill="#7a6018" opacity="0.78">NO ONE HAS WRITTEN SINCE</text>
</svg>