<svg width="400" height="600" viewBox="0 0 680 1020" xmlns="http://www.w3.org/2000/svg">
<defs><clipPath id="cvclip"><rect width="680" height="1020"/></clipPath></defs>
<rect width="680" height="1020" fill="#0a0f1e"/>
<line x1="0" y1="0" x2="0" y2="1020" stroke="#1a3a8f" stroke-width="0.7" opacity="0.35"/>
<line x1="40" y1="0" x2="40" y2="1020" stroke="#1a3a8f" stroke-width="0.7" opacity="0.35"/>
<line x1="80" y1="0" x2="80" y2="1020" stroke="#1a3a8f" stroke-width="0.7" opacity="0.35"/>
<line x1="120" y1="0" x2="120" y2="1020" stroke="#1a3a8f" stroke-width="0.7" opacity="0.35"/>
<line x1="160" y1="0" x2="160" y2="1020" stroke="#1a3a8f" stroke-width="0.7" opacity="0.35"/>
<line x1="200" y1="0" x2="200" y2="1020" stroke="#1a3a8f" stroke-width="0.7" opacity="0.35"/>
<line x1="240" y1="0" x2="240" y2="1020" stroke="#1a3a8f" stroke-width="0.7" opacity="0.35"/>
<line x1="280" y1="0" x2="280" y2="1020" stroke="#1a3a8f" stroke-width="0.7" opacity="0.35"/>
<line x1="320" y1="0" x2="320" y2="1020" stroke="#1a3a8f" stroke-width="0.7" opacity="0.35"/>
<line x1="360" y1="0" x2="360" y2="1020" stroke="#1a3a8f" stroke-width="0.7" opacity="0.35"/>
<line x1="400" y1="0" x2="400" y2="1020" stroke="#1a3a8f" stroke-width="0.7" opacity="0.35"/>
<line x1="440" y1="0" x2="440" y2="1020" stroke="#1a3a8f" stroke-width="0.7" opacity="0.35"/>
<line x1="480" y1="0" x2="480" y2="1020" stroke="#1a3a8f" stroke-width="0.7" opacity="0.35"/>
<line x1="520" y1="0" x2="520" y2="1020" stroke="#1a3a8f" stroke-width="0.7" opacity="0.35"/>
<line x1="560" y1="0" x2="560" y2="1020" stroke="#1a3a8f" stroke-width="0.7" opacity="0.35"/>
<line x1="600" y1="0" x2="600" y2="1020" stroke="#1a3a8f" stroke-width="0.7" opacity="0.35"/>
<line x1="640" y1="0" x2="640" y2="1020" stroke="#1a3a8f" stroke-width="0.7" opacity="0.35"/>
<line x1="0" y1="0" x2="680" y2="0" stroke="#1a3a8f" stroke-width="0.7" opacity="0.35"/>
<line x1="0" y1="40" x2="680" y2="40" stroke="#1a3a8f" stroke-width="0.7" opacity="0.35"/>
<line x1="0" y1="80" x2="680" y2="80" stroke="#1a3a8f" stroke-width="0.7" opacity="0.35"/>
<line x1="0" y1="120" x2="680" y2="120" stroke="#1a3a8f" stroke-width="0.7" opacity="0.35"/>
<line x1="0" y1="160" x2="680" y2="160" stroke="#1a3a8f" stroke-width="0.7" opacity="0.35"/>
<line x1="0" y1="200" x2="680" y2="200" stroke="#1a3a8f" stroke-width="0.7" opacity="0.35"/>
<line x1="0" y1="240" x2="680" y2="240" stroke="#1a3a8f" stroke-width="0.7" opacity="0.35"/>
<line x1="0" y1="280" x2="680" y2="280" stroke="#1a3a8f" stroke-width="0.7" opacity="0.35"/>
<line x1="0" y1="320" x2="680" y2="320" stroke="#1a3a8f" stroke-width="0.7" opacity="0.35"/>
<line x1="0" y1="360" x2="680" y2="360" stroke="#1a3a8f" stroke-width="0.7" opacity="0.35"/>
<line x1="0" y1="400" x2="680" y2="400" stroke="#1a3a8f" stroke-width="0.7" opacity="0.35"/>
<line x1="0" y1="440" x2="680" y2="440" stroke="#1a3a8f" stroke-width="0.7" opacity="0.35"/>
<line x1="0" y1="480" x2="680" y2="480" stroke="#1a3a8f" stroke-width="0.7" opacity="0.35"/>
<line x1="0" y1="520" x2="680" y2="520" stroke="#1a3a8f" stroke-width="0.7" opacity="0.35"/>
<line x1="0" y1="560" x2="680" y2="560" stroke="#1a3a8f" stroke-width="0.7" opacity="0.35"/>
<line x1="0" y1="600" x2="680" y2="600" stroke="#1a3a8f" stroke-width="0.7" opacity="0.35"/>
<line x1="0" y1="640" x2="680" y2="640" stroke="#1a3a8f" stroke-width="0.7" opacity="0.35"/>
<line x1="0" y1="680" x2="680" y2="680" stroke="#1a3a8f" stroke-width="0.7" opacity="0.35"/>
<line x1="0" y1="720" x2="680" y2="720" stroke="#1a3a8f" stroke-width="0.7" opacity="0.35"/>
<line x1="0" y1="760" x2="680" y2="760" stroke="#1a3a8f" stroke-width="0.7" opacity="0.35"/>
<line x1="0" y1="800" x2="680" y2="800" stroke="#1a3a8f" stroke-width="0.7" opacity="0.35"/>
<line x1="0" y1="840" x2="680" y2="840" stroke="#1a3a8f" stroke-width="0.7" opacity="0.35"/>
<line x1="0" y1="880" x2="680" y2="880" stroke="#1a3a8f" stroke-width="0.7" opacity="0.35"/>
<line x1="0" y1="920" x2="680" y2="920" stroke="#1a3a8f" stroke-width="0.7" opacity="0.35"/>
<line x1="0" y1="960" x2="680" y2="960" stroke="#1a3a8f" stroke-width="0.7" opacity="0.35"/>
<line x1="0" y1="1000" x2="680" y2="1000" stroke="#1a3a8f" stroke-width="0.7" opacity="0.35"/>
<rect x="0" y="0" width="680" height="148" fill="rgba(0,0,0,0.52)"/>
<line x1="0" y1="148" x2="680" y2="148" stroke="#ffd32a" stroke-width="1.2"/>
<rect x="48" y="100" width="192" height="1.5" fill="#ffd32a" opacity="0.5"/><rect x="440" y="100" width="192" height="1.5" fill="#ffd32a" opacity="0.5"/>
<text x="343" y="135" text-anchor="middle" font-family="'Arial Black','Impact',sans-serif"
      font-weight="900" font-size="60" fill="rgba(0,0,0,0.45)" letter-spacing="4">CONNECT 4</text>
<text x="340" y="132" text-anchor="middle" font-family="'Arial Black','Impact',sans-serif"
      font-weight="900" font-size="60" fill="#ffd32a" letter-spacing="4">CONNECT 4</text>
<text x="340" y="660" text-anchor="middle" dominant-baseline="central" font-size="300">🔴</text>
<rect x="0" y="988" width="680" height="32" fill="rgba(0,0,0,0.52)"/>
<line x1="0" y1="988" x2="680" y2="988" stroke="#ffd32a" stroke-width="0.8" opacity="0.3"/>
</svg>