<svg xmlns="http://www.w3.org/2000/svg" viewBox="0 0 680 1020" width="400" height="600">
<defs>
<linearGradient id="bg" x1="0" y1="0" x2="0" y2="1">
  <stop offset="0" stop-color="#243063"/><stop offset="0.34" stop-color="#141a3c"/>
  <stop offset="0.66" stop-color="#0a0d26"/><stop offset="1" stop-color="#04051a"/>
</linearGradient>
<radialGradient id="lamp" cx="50%" cy="8%" r="62%">
  <stop offset="0" stop-color="#ffd97a" stop-opacity="0.40"/>
  <stop offset="0.42" stop-color="#c98f3f" stop-opacity="0.14"/>
  <stop offset="1" stop-color="#c98f3f" stop-opacity="0"/>
</radialGradient>
<radialGradient id="felt" cx="46%" cy="34%" r="78%">
  <stop offset="0" stop-color="#1a6a52"/><stop offset="0.52" stop-color="#0e4436"/>
  <stop offset="1" stop-color="#052018"/>
</radialGradient>
<linearGradient id="wood" x1="0" y1="0" x2="0" y2="1">
  <stop offset="0" stop-color="#a86e3e"/><stop offset="0.45" stop-color="#7a4d28"/>
  <stop offset="1" stop-color="#43250f"/>
</linearGradient>
<linearGradient id="brassG" x1="0" y1="0" x2="0" y2="1">
  <stop offset="0" stop-color="#ffeaa6"/><stop offset="0.42" stop-color="#e8b23a"/>
  <stop offset="0.62" stop-color="#c99a3f"/><stop offset="1" stop-color="#8a6210"/>
</linearGradient>
<linearGradient id="ivT" x1="0" y1="0" x2="1" y2="1"><stop offset="0" stop-color="#fffaf0"/><stop offset="1" stop-color="#ece0c8"/></linearGradient>
<linearGradient id="ivL" x1="0" y1="0" x2="0" y2="1"><stop offset="0" stop-color="#cdbfa4"/><stop offset="1" stop-color="#a3947a"/></linearGradient>
<linearGradient id="ivR" x1="0" y1="0" x2="0" y2="1"><stop offset="0" stop-color="#e6d9bd"/><stop offset="1" stop-color="#bdae92"/></linearGradient>
<linearGradient id="blT" x1="0" y1="0" x2="1" y2="1"><stop offset="0" stop-color="#8fc0ff"/><stop offset="1" stop-color="#4f8df7"/></linearGradient>
<linearGradient id="blL" x1="0" y1="0" x2="0" y2="1"><stop offset="0" stop-color="#2f5fb8"/><stop offset="1" stop-color="#1c3a78"/></linearGradient>
<linearGradient id="blR" x1="0" y1="0" x2="0" y2="1"><stop offset="0" stop-color="#4479d8"/><stop offset="1" stop-color="#2a4f9c"/></linearGradient>
<linearGradient id="rdT" x1="0" y1="0" x2="1" y2="1"><stop offset="0" stop-color="#ffa2a2"/><stop offset="1" stop-color="#f75f5f"/></linearGradient>
<linearGradient id="rdL" x1="0" y1="0" x2="0" y2="1"><stop offset="0" stop-color="#b23434"/><stop offset="1" stop-color="#761d1d"/></linearGradient>
<linearGradient id="rdR" x1="0" y1="0" x2="0" y2="1"><stop offset="0" stop-color="#d24545"/><stop offset="1" stop-color="#962727"/></linearGradient>
<linearGradient id="puT" x1="0" y1="0" x2="1" y2="1"><stop offset="0" stop-color="#dcaeff"/><stop offset="1" stop-color="#b06df7"/></linearGradient>
<linearGradient id="puL" x1="0" y1="0" x2="0" y2="1"><stop offset="0" stop-color="#7b3fb8"/><stop offset="1" stop-color="#4d2378"/></linearGradient>
<linearGradient id="puR" x1="0" y1="0" x2="0" y2="1"><stop offset="0" stop-color="#9754d8"/><stop offset="1" stop-color="#65319c"/></linearGradient>
<linearGradient id="grT" x1="0" y1="0" x2="1" y2="1"><stop offset="0" stop-color="#a6efbc"/><stop offset="1" stop-color="#5fce7c"/></linearGradient>
<linearGradient id="grL" x1="0" y1="0" x2="0" y2="1"><stop offset="0" stop-color="#2f8e4c"/><stop offset="1" stop-color="#1a5c30"/></linearGradient>
<linearGradient id="grR" x1="0" y1="0" x2="0" y2="1"><stop offset="0" stop-color="#42ad62"/><stop offset="1" stop-color="#26773f"/></linearGradient>
<linearGradient id="cardL" x1="0" y1="0" x2="0" y2="1"><stop offset="0" stop-color="#1a2350"/><stop offset="1" stop-color="#0a0e26"/></linearGradient>
<filter id="soft" x="-60%" y="-60%" width="220%" height="220%"><feGaussianBlur stdDeviation="14"/></filter>
<filter id="soft2" x="-60%" y="-60%" width="220%" height="220%"><feGaussianBlur stdDeviation="7"/></filter>
<filter id="titleGlow" x="-40%" y="-90%" width="180%" height="300%">
  <feGaussianBlur in="SourceGraphic" stdDeviation="9" result="b"/>
  <feMerge><feMergeNode in="b"/><feMergeNode in="b"/><feMergeNode in="SourceGraphic"/></feMerge>
</filter>
<filter id="ringGlow" x="-40%" y="-90%" width="180%" height="300%">
  <feGaussianBlur in="SourceGraphic" stdDeviation="6" result="b"/>
  <feMerge><feMergeNode in="b"/><feMergeNode in="SourceGraphic"/></feMerge>
</filter>
</defs>
<rect width="680" height="1020" fill="url(#bg)"/>
<rect width="680" height="1020" fill="url(#lamp)"/>
<g opacity="0.9"><line x1="340" y1="0" x2="340" y2="34" stroke="#8a6210" stroke-width="4"/><path d="M282,86 L398,86 L372,40 L308,40 Z" fill="url(#brassG)"/><ellipse cx="340" cy="86" rx="58" ry="11" fill="#ffe6a8"/><ellipse cx="340" cy="86" rx="58" ry="11" fill="#fff" opacity="0.5" filter="url(#soft2)"/></g>
<path d="M296,94 L384,94 L600,660 L80,660 Z" fill="#ffd97a" opacity="0.085" filter="url(#soft)"/>
<path d="M306,96 L374,96 L500,560 L180,560 Z" fill="#fff0c8" opacity="0.05" filter="url(#soft)"/>
<ellipse cx="180" cy="300" rx="150" ry="60" fill="#9fb4ff" opacity="0.05" filter="url(#soft)"/>
<ellipse cx="500" cy="250" rx="130" ry="55" fill="#9fb4ff" opacity="0.045" filter="url(#soft)"/>
<ellipse cx="340" cy="420" rx="220" ry="70" fill="#9fb4ff" opacity="0.04" filter="url(#soft)"/>
<circle cx="230" cy="300" r="2.0" fill="#ffe6a8" opacity="0.3"/>
<circle cx="410" cy="268" r="1.6" fill="#ffe6a8" opacity="0.26"/>
<circle cx="300" cy="352" r="2.4" fill="#ffe6a8" opacity="0.34"/>
<circle cx="470" cy="330" r="1.8" fill="#ffe6a8" opacity="0.24"/>
<circle cx="190" cy="392" r="2.2" fill="#ffe6a8" opacity="0.28"/>
<circle cx="520" cy="392" r="2.0" fill="#ffe6a8" opacity="0.22"/>
<circle cx="360" cy="300" r="1.6" fill="#ffe6a8" opacity="0.26"/>
<circle cx="130" cy="330" r="1.8" fill="#ffe6a8" opacity="0.18"/>
<circle cx="590" cy="300" r="1.6" fill="#ffe6a8" opacity="0.16"/>
<circle cx="268" cy="238" r="1.4" fill="#ffe6a8" opacity="0.2"/>
<circle cx="430" cy="392" r="1.6" fill="#ffe6a8" opacity="0.22"/>
<circle cx="340" cy="410" r="2.0" fill="#ffe6a8" opacity="0.26"/>
<circle cx="90" cy="410" r="1.6" fill="#ffe6a8" opacity="0.16"/>
<circle cx="600" cy="412" r="1.8" fill="#ffe6a8" opacity="0.18"/>
<ellipse cx="340" cy="726" rx="418" ry="352" fill="url(#wood)"/>
<ellipse cx="340" cy="714" rx="418" ry="352" fill="none" stroke="#c99a3f" stroke-width="4" opacity="0.7"/>
<ellipse cx="340" cy="738" rx="358" ry="300" fill="url(#felt)"/>
<ellipse cx="340" cy="738" rx="358" ry="300" fill="none" stroke="#03150f" stroke-width="6" opacity="0.7"/>
<circle cx="730.0" cy="724.0" r="5.4" fill="url(#brassG)" opacity="0.95"/>
<circle cx="730.0" cy="722.5" r="2.1" fill="#fff3cf" opacity="0.7"/>
<circle cx="723.4" cy="783.9" r="5.4" fill="url(#brassG)" opacity="0.95"/>
<circle cx="723.4" cy="782.4" r="2.1" fill="#fff3cf" opacity="0.7"/>
<circle cx="703.7" cy="841.8" r="5.4" fill="url(#brassG)" opacity="0.95"/>
<circle cx="703.7" cy="840.3" r="2.1" fill="#fff3cf" opacity="0.7"/>
<circle cx="671.6" cy="895.6" r="5.4" fill="url(#brassG)" opacity="0.95"/>
<circle cx="671.6" cy="894.1" r="2.1" fill="#fff3cf" opacity="0.7"/>
<circle cx="628.2" cy="943.6" r="5.4" fill="url(#brassG)" opacity="0.95"/>
<circle cx="628.2" cy="942.1" r="2.1" fill="#fff3cf" opacity="0.7"/>
<circle cx="575.0" cy="984.2" r="5.4" fill="url(#brassG)" opacity="0.95"/>
<circle cx="575.0" cy="982.7" r="2.1" fill="#fff3cf" opacity="0.7"/>
<circle cx="513.8" cy="1015.8" r="5.4" fill="url(#brassG)" opacity="0.95"/>
<circle cx="513.8" cy="1014.3" r="2.1" fill="#fff3cf" opacity="0.7"/>
<circle cx="446.7" cy="1037.6" r="5.4" fill="url(#brassG)" opacity="0.95"/>
<circle cx="446.7" cy="1036.1" r="2.1" fill="#fff3cf" opacity="0.7"/>
<circle cx="376.0" cy="1048.6" r="5.4" fill="url(#brassG)" opacity="0.95"/>
<circle cx="376.0" cy="1047.1" r="2.1" fill="#fff3cf" opacity="0.7"/>
<circle cx="304.0" cy="1048.6" r="5.4" fill="url(#brassG)" opacity="0.95"/>
<circle cx="304.0" cy="1047.1" r="2.1" fill="#fff3cf" opacity="0.7"/>
<circle cx="233.3" cy="1037.6" r="5.4" fill="url(#brassG)" opacity="0.95"/>
<circle cx="233.3" cy="1036.1" r="2.1" fill="#fff3cf" opacity="0.7"/>
<circle cx="166.2" cy="1015.8" r="5.4" fill="url(#brassG)" opacity="0.95"/>
<circle cx="166.2" cy="1014.3" r="2.1" fill="#fff3cf" opacity="0.7"/>
<circle cx="105.0" cy="984.2" r="5.4" fill="url(#brassG)" opacity="0.95"/>
<circle cx="105.0" cy="982.7" r="2.1" fill="#fff3cf" opacity="0.7"/>
<circle cx="51.8" cy="943.6" r="5.4" fill="url(#brassG)" opacity="0.95"/>
<circle cx="51.8" cy="942.1" r="2.1" fill="#fff3cf" opacity="0.7"/>
<circle cx="8.4" cy="895.6" r="5.4" fill="url(#brassG)" opacity="0.95"/>
<circle cx="8.4" cy="894.1" r="2.1" fill="#fff3cf" opacity="0.7"/>
<circle cx="-23.7" cy="841.8" r="5.4" fill="url(#brassG)" opacity="0.95"/>
<circle cx="-23.7" cy="840.3" r="2.1" fill="#fff3cf" opacity="0.7"/>
<circle cx="-43.4" cy="783.9" r="5.4" fill="url(#brassG)" opacity="0.95"/>
<circle cx="-43.4" cy="782.4" r="2.1" fill="#fff3cf" opacity="0.7"/>
<circle cx="-50.0" cy="724.0" r="5.4" fill="url(#brassG)" opacity="0.95"/>
<circle cx="-50.0" cy="722.5" r="2.1" fill="#fff3cf" opacity="0.7"/>
<circle cx="-43.4" cy="664.1" r="5.4" fill="url(#brassG)" opacity="0.95"/>
<circle cx="-43.4" cy="662.6" r="2.1" fill="#fff3cf" opacity="0.7"/>
<circle cx="-23.7" cy="606.2" r="5.4" fill="url(#brassG)" opacity="0.95"/>
<circle cx="-23.7" cy="604.7" r="2.1" fill="#fff3cf" opacity="0.7"/>
<circle cx="8.4" cy="552.4" r="5.4" fill="url(#brassG)" opacity="0.95"/>
<circle cx="8.4" cy="550.9" r="2.1" fill="#fff3cf" opacity="0.7"/>
<circle cx="51.8" cy="504.4" r="5.4" fill="url(#brassG)" opacity="0.95"/>
<circle cx="51.8" cy="502.9" r="2.1" fill="#fff3cf" opacity="0.7"/>
<circle cx="105.0" cy="463.8" r="5.4" fill="url(#brassG)" opacity="0.95"/>
<circle cx="105.0" cy="462.3" r="2.1" fill="#fff3cf" opacity="0.7"/>
<circle cx="166.2" cy="432.2" r="5.4" fill="url(#brassG)" opacity="0.95"/>
<circle cx="166.2" cy="430.7" r="2.1" fill="#fff3cf" opacity="0.7"/>
<circle cx="513.8" cy="432.2" r="5.4" fill="url(#brassG)" opacity="0.95"/>
<circle cx="513.8" cy="430.7" r="2.1" fill="#fff3cf" opacity="0.7"/>
<circle cx="575.0" cy="463.8" r="5.4" fill="url(#brassG)" opacity="0.95"/>
<circle cx="575.0" cy="462.3" r="2.1" fill="#fff3cf" opacity="0.7"/>
<circle cx="628.2" cy="504.4" r="5.4" fill="url(#brassG)" opacity="0.95"/>
<circle cx="628.2" cy="502.9" r="2.1" fill="#fff3cf" opacity="0.7"/>
<circle cx="671.6" cy="552.4" r="5.4" fill="url(#brassG)" opacity="0.95"/>
<circle cx="671.6" cy="550.9" r="2.1" fill="#fff3cf" opacity="0.7"/>
<circle cx="703.7" cy="606.2" r="5.4" fill="url(#brassG)" opacity="0.95"/>
<circle cx="703.7" cy="604.7" r="2.1" fill="#fff3cf" opacity="0.7"/>
<circle cx="723.4" cy="664.1" r="5.4" fill="url(#brassG)" opacity="0.95"/>
<circle cx="723.4" cy="662.6" r="2.1" fill="#fff3cf" opacity="0.7"/>
<ellipse cx="340" cy="738" rx="210" ry="120" fill="none" stroke="#0a2f24" stroke-width="1.4" opacity="0.45"/>
<ellipse cx="340" cy="738" rx="270" ry="172" fill="none" stroke="#0a2f24" stroke-width="1.4" opacity="0.45"/>
<ellipse cx="340" cy="738" rx="332" ry="225" fill="none" stroke="#0a2f24" stroke-width="1.4" opacity="0.45"/>
<ellipse cx="340" cy="706" rx="268" ry="196" fill="#ffd97a" opacity="0.09" filter="url(#soft)"/>
<g filter="url(#ringGlow)" opacity="0.95"><ellipse cx="340" cy="754" rx="244" ry="158" fill="none" stroke="#ffd97a" stroke-width="3.6" opacity="0.85"/><ellipse cx="340" cy="754" rx="226" ry="146" fill="none" stroke="#c99a3f" stroke-width="1.6" stroke-dasharray="11 13" opacity="0.65"/></g>
<ellipse cx="340" cy="754" rx="244" ry="158" fill="#5fd0f0" opacity="0.05"/>
<g transform="translate(104,632) rotate(-14)"><ellipse cx="6" cy="85.28" rx="64.96000000000001" ry="14" fill="#000" opacity="0.45" filter="url(#soft2)"/><rect x="-58.0" y="-82.0" width="116" height="164" rx="14" fill="url(#cardL)"/><ellipse cx="-23.200000000000003" cy="-39.36" rx="60.32" ry="49.199999999999996" fill="#3f7ad0" opacity="0.75" filter="url(#soft2)"/><ellipse cx="27.84" cy="29.52" rx="55.68" ry="45.92" fill="#66b0f0" opacity="0.55" filter="url(#soft2)"/><rect x="-51.0" y="9.84" width="102" height="55.760000000000005" rx="8" fill="#080b20" opacity="0.85"/><rect x="-45.0" y="22.96" width="90" height="4" rx="2" fill="#ffffff" opacity="0.5"/><rect x="-45.0" y="39.36" width="82" height="4" rx="2" fill="#ffffff" opacity="0.32"/><rect x="-58.0" y="-82.0" width="116" height="164" rx="14" fill="none" stroke="#c99a3f" stroke-width="2.6"/><g transform="translate(0,-36.08)"><path d="M0,-19 L5.5,-6 L19,-4.8 L8.4,4.3 L11.8,18 L0,10.3 L-11.8,18 L-8.4,4.3 L-19,-4.8 L-5.5,-6 Z" fill="#ffe6a8"/></g></g>
<g transform="translate(578,648) rotate(13)"><ellipse cx="6" cy="85.28" rx="64.96000000000001" ry="14" fill="#000" opacity="0.45" filter="url(#soft2)"/><rect x="-58.0" y="-82.0" width="116" height="164" rx="14" fill="url(#cardL)"/><ellipse cx="-23.200000000000003" cy="-39.36" rx="60.32" ry="49.199999999999996" fill="#ff9d24" opacity="0.75" filter="url(#soft2)"/><ellipse cx="27.84" cy="29.52" rx="55.68" ry="45.92" fill="#ffd257" opacity="0.55" filter="url(#soft2)"/><rect x="-51.0" y="9.84" width="102" height="55.760000000000005" rx="8" fill="#080b20" opacity="0.85"/><rect x="-45.0" y="22.96" width="90" height="4" rx="2" fill="#ffffff" opacity="0.5"/><rect x="-45.0" y="39.36" width="82" height="4" rx="2" fill="#ffffff" opacity="0.32"/><rect x="-58.0" y="-82.0" width="116" height="164" rx="14" fill="none" stroke="#c99a3f" stroke-width="2.6"/><g transform="translate(0,-36.08)"><path d="M4,-20 L-11,3 L-1,3 L-5,20 L11,-4 L1,-4 Z" fill="#ffe0b0"/></g></g>
<ellipse cx="340" cy="830" rx="126" ry="32" fill="#000" opacity="0.55" filter="url(#soft)"/>
<ellipse cx="178" cy="830" rx="66" ry="18" fill="#000" opacity="0.45" filter="url(#soft)"/>
<ellipse cx="502" cy="838" rx="60" ry="17" fill="#000" opacity="0.45" filter="url(#soft)"/>
<circle cx="560" cy="352" r="7" fill="#b06df7" opacity="0.050"/><circle cx="551" cy="382" r="10" fill="#b06df7" opacity="0.087"/><circle cx="541" cy="410" r="14" fill="#b06df7" opacity="0.123"/><circle cx="530" cy="436" r="18" fill="#b06df7" opacity="0.160"/>
<circle cx="110" cy="396" r="6" fill="#5fce7c" opacity="0.050"/><circle cx="118" cy="424" r="9" fill="#5fce7c" opacity="0.087"/><circle cx="128" cy="450" r="13" fill="#5fce7c" opacity="0.123"/><circle cx="139" cy="476" r="17" fill="#5fce7c" opacity="0.160"/>
<g transform="translate(178,758) rotate(-8)"><path d="M0,-62 L53.69357479999999,-31.0 L53.69357479999999,31.0 L0,62 L-53.69357479999999,31.0 L-53.69357479999999,-31.0 Z" fill="none" stroke="#00000055" stroke-width="3.7199999999999998" stroke-linejoin="round"/><g transform="matrix(53.69357479999999,31.0,-53.69357479999999,31.0,0,-31.0)"><rect x="-0.5" y="-0.5" width="1" height="1" fill="url(#blT)"/><circle cx="-0.26" cy="-0.26" r="0.085" fill="#0d1b3a"/><circle cx="0.26" cy="-0.26" r="0.085" fill="#0d1b3a"/><circle cx="0" cy="0" r="0.085" fill="#0d1b3a"/><circle cx="-0.26" cy="0.26" r="0.085" fill="#0d1b3a"/><circle cx="0.26" cy="0.26" r="0.085" fill="#0d1b3a"/></g><g transform="matrix(53.69357479999999,31.0,0,62,-26.846,15.5)"><rect x="-0.5" y="-0.5" width="1" height="1" fill="url(#blL)"/><circle cx="-0.26" cy="-0.26" r="0.085" fill="#0d1b3a"/><circle cx="0" cy="0" r="0.085" fill="#0d1b3a"/><circle cx="0.26" cy="0.26" r="0.085" fill="#0d1b3a"/></g><g transform="matrix(53.69357479999999,-31.0,0,62,26.846,15.5)"><rect x="-0.5" y="-0.5" width="1" height="1" fill="url(#blR)"/><circle cx="-0.26" cy="-0.26" r="0.085" fill="#0d1b3a"/><circle cx="0.26" cy="0.26" r="0.085" fill="#0d1b3a"/></g><path d="M0,0 L0,62 M0,0 L-53.69357479999999,-31.0 M0,0 L53.69357479999999,-31.0" stroke="#0006" stroke-width="1.736" fill="none" stroke-linecap="round"/><path d="M-53.69357479999999,-31.0 L0,-62 L53.69357479999999,-31.0" fill="none" stroke="#ffffff55" stroke-width="1.8599999999999999" stroke-linejoin="round"/></g>
<g transform="translate(502,766) rotate(9)"><path d="M0,-58 L50.229473199999994,-29.0 L50.229473199999994,29.0 L0,58 L-50.229473199999994,29.0 L-50.229473199999994,-29.0 Z" fill="none" stroke="#00000055" stroke-width="3.48" stroke-linejoin="round"/><g transform="matrix(50.229473199999994,29.0,-50.229473199999994,29.0,0,-29.0)"><rect x="-0.5" y="-0.5" width="1" height="1" fill="url(#rdT)"/><circle cx="-0.26" cy="-0.26" r="0.085" fill="#3a0d0d"/><circle cx="0.26" cy="0.26" r="0.085" fill="#3a0d0d"/></g><g transform="matrix(50.229473199999994,29.0,0,58,-25.114,14.5)"><rect x="-0.5" y="-0.5" width="1" height="1" fill="url(#rdL)"/><circle cx="-0.26" cy="-0.28" r="0.085" fill="#3a0d0d"/><circle cx="0.26" cy="-0.28" r="0.085" fill="#3a0d0d"/><circle cx="-0.26" cy="0" r="0.085" fill="#3a0d0d"/><circle cx="0.26" cy="0" r="0.085" fill="#3a0d0d"/><circle cx="-0.26" cy="0.28" r="0.085" fill="#3a0d0d"/><circle cx="0.26" cy="0.28" r="0.085" fill="#3a0d0d"/></g><g transform="matrix(50.229473199999994,-29.0,0,58,25.114,14.5)"><rect x="-0.5" y="-0.5" width="1" height="1" fill="url(#rdR)"/><circle cx="-0.26" cy="-0.26" r="0.085" fill="#3a0d0d"/><circle cx="0.26" cy="-0.26" r="0.085" fill="#3a0d0d"/><circle cx="-0.26" cy="0.26" r="0.085" fill="#3a0d0d"/><circle cx="0.26" cy="0.26" r="0.085" fill="#3a0d0d"/></g><path d="M0,0 L0,58 M0,0 L-50.229473199999994,-29.0 M0,0 L50.229473199999994,-29.0" stroke="#0006" stroke-width="1.624" fill="none" stroke-linecap="round"/><path d="M-50.229473199999994,-29.0 L0,-58 L50.229473199999994,-29.0" fill="none" stroke="#ffffff55" stroke-width="1.74" stroke-linejoin="round"/></g>
<g transform="translate(340,704) rotate(0)"><path d="M0,-102 L88.3345908,-51.0 L88.3345908,51.0 L0,102 L-88.3345908,51.0 L-88.3345908,-51.0 Z" fill="none" stroke="#00000055" stroke-width="6.12" stroke-linejoin="round"/><g transform="matrix(88.3345908,51.0,-88.3345908,51.0,0,-51.0)"><rect x="-0.5" y="-0.5" width="1" height="1" fill="url(#ivT)"/><circle cx="-0.26" cy="-0.28" r="0.085" fill="#2a2114"/><circle cx="0.26" cy="-0.28" r="0.085" fill="#2a2114"/><circle cx="-0.26" cy="0" r="0.085" fill="#2a2114"/><circle cx="0.26" cy="0" r="0.085" fill="#2a2114"/><circle cx="-0.26" cy="0.28" r="0.085" fill="#2a2114"/><circle cx="0.26" cy="0.28" r="0.085" fill="#2a2114"/></g><g transform="matrix(88.3345908,51.0,0,102,-44.166,25.5)"><rect x="-0.5" y="-0.5" width="1" height="1" fill="url(#ivL)"/><circle cx="-0.26" cy="-0.26" r="0.085" fill="#2a2114"/><circle cx="0.26" cy="-0.26" r="0.085" fill="#2a2114"/><circle cx="0" cy="0" r="0.085" fill="#2a2114"/><circle cx="-0.26" cy="0.26" r="0.085" fill="#2a2114"/><circle cx="0.26" cy="0.26" r="0.085" fill="#2a2114"/></g><g transform="matrix(88.3345908,-51.0,0,102,44.166,25.5)"><rect x="-0.5" y="-0.5" width="1" height="1" fill="url(#ivR)"/><circle cx="-0.26" cy="-0.26" r="0.085" fill="#2a2114"/><circle cx="0" cy="0" r="0.085" fill="#2a2114"/><circle cx="0.26" cy="0.26" r="0.085" fill="#2a2114"/></g><path d="M0,0 L0,102 M0,0 L-88.3345908,-51.0 M0,0 L88.3345908,-51.0" stroke="#0006" stroke-width="2.856" fill="none" stroke-linecap="round"/><path d="M-88.3345908,-51.0 L0,-102 L88.3345908,-51.0" fill="none" stroke="#ffffff55" stroke-width="3.06" stroke-linejoin="round"/></g>
<g transform="translate(516,470) rotate(24)"><path d="M0,-46 L39.837168399999996,-23.0 L39.837168399999996,23.0 L0,46 L-39.837168399999996,23.0 L-39.837168399999996,-23.0 Z" fill="none" stroke="#00000055" stroke-width="2.76" stroke-linejoin="round"/><g transform="matrix(39.837168399999996,23.0,-39.837168399999996,23.0,0,-23.0)"><rect x="-0.5" y="-0.5" width="1" height="1" fill="url(#puT)"/><circle cx="-0.26" cy="-0.26" r="0.085" fill="#22083a"/><circle cx="0.26" cy="-0.26" r="0.085" fill="#22083a"/><circle cx="-0.26" cy="0.26" r="0.085" fill="#22083a"/><circle cx="0.26" cy="0.26" r="0.085" fill="#22083a"/></g><g transform="matrix(39.837168399999996,23.0,0,46,-19.918,11.5)"><rect x="-0.5" y="-0.5" width="1" height="1" fill="url(#puL)"/><circle cx="0" cy="0" r="0.085" fill="#22083a"/></g><g transform="matrix(39.837168399999996,-23.0,0,46,19.918,11.5)"><rect x="-0.5" y="-0.5" width="1" height="1" fill="url(#puR)"/><circle cx="-0.26" cy="-0.26" r="0.085" fill="#22083a"/><circle cx="0.26" cy="-0.26" r="0.085" fill="#22083a"/><circle cx="0" cy="0" r="0.085" fill="#22083a"/><circle cx="-0.26" cy="0.26" r="0.085" fill="#22083a"/><circle cx="0.26" cy="0.26" r="0.085" fill="#22083a"/></g><path d="M0,0 L0,46 M0,0 L-39.837168399999996,-23.0 M0,0 L39.837168399999996,-23.0" stroke="#0006" stroke-width="1.288" fill="none" stroke-linecap="round"/><path d="M-39.837168399999996,-23.0 L0,-46 L39.837168399999996,-23.0" fill="none" stroke="#ffffff55" stroke-width="1.38" stroke-linejoin="round"/></g>
<g transform="translate(152,512) rotate(-20)"><path d="M0,-40 L34.641016,-20.0 L34.641016,20.0 L0,40 L-34.641016,20.0 L-34.641016,-20.0 Z" fill="none" stroke="#00000055" stroke-width="2.4" stroke-linejoin="round"/><g transform="matrix(34.641016,20.0,-34.641016,20.0,0,-20.0)"><rect x="-0.5" y="-0.5" width="1" height="1" fill="url(#grT)"/><circle cx="-0.26" cy="-0.26" r="0.085" fill="#07331a"/><circle cx="0" cy="0" r="0.085" fill="#07331a"/><circle cx="0.26" cy="0.26" r="0.085" fill="#07331a"/></g><g transform="matrix(34.641016,20.0,0,40,-17.32,10.0)"><rect x="-0.5" y="-0.5" width="1" height="1" fill="url(#grL)"/><circle cx="-0.26" cy="-0.26" r="0.085" fill="#07331a"/><circle cx="0.26" cy="0.26" r="0.085" fill="#07331a"/></g><g transform="matrix(34.641016,-20.0,0,40,17.32,10.0)"><rect x="-0.5" y="-0.5" width="1" height="1" fill="url(#grR)"/><circle cx="-0.26" cy="-0.28" r="0.085" fill="#07331a"/><circle cx="0.26" cy="-0.28" r="0.085" fill="#07331a"/><circle cx="-0.26" cy="0" r="0.085" fill="#07331a"/><circle cx="0.26" cy="0" r="0.085" fill="#07331a"/><circle cx="-0.26" cy="0.28" r="0.085" fill="#07331a"/><circle cx="0.26" cy="0.28" r="0.085" fill="#07331a"/></g><path d="M0,0 L0,40 M0,0 L-34.641016,-20.0 M0,0 L34.641016,-20.0" stroke="#0006" stroke-width="1.2" fill="none" stroke-linecap="round"/><path d="M-34.641016,-20.0 L0,-40 L34.641016,-20.0" fill="none" stroke="#ffffff55" stroke-width="1.2" stroke-linejoin="round"/></g>
<circle cx="250" cy="680" r="3.4" fill="#ffe6a8" opacity="0.85"/>
<circle cx="250" cy="680" r="8.84" fill="#ffd97a" opacity="0.187" filter="url(#soft2)"/>
<circle cx="430" cy="690" r="2.6" fill="#ffe6a8" opacity="0.7"/>
<circle cx="430" cy="690" r="6.760000000000001" fill="#ffd97a" opacity="0.154" filter="url(#soft2)"/>
<circle cx="300" cy="862" r="3.0" fill="#ffe6a8" opacity="0.75"/>
<circle cx="300" cy="862" r="7.800000000000001" fill="#ffd97a" opacity="0.165" filter="url(#soft2)"/>
<circle cx="400" cy="850" r="2.2" fill="#ffe6a8" opacity="0.6"/>
<circle cx="400" cy="850" r="5.720000000000001" fill="#ffd97a" opacity="0.132" filter="url(#soft2)"/>
<circle cx="214" cy="742" r="2.0" fill="#ffe6a8" opacity="0.55"/>
<circle cx="214" cy="742" r="5.2" fill="#ffd97a" opacity="0.12100000000000001" filter="url(#soft2)"/>
<circle cx="466" cy="724" r="2.8" fill="#ffe6a8" opacity="0.7"/>
<circle cx="466" cy="724" r="7.279999999999999" fill="#ffd97a" opacity="0.154" filter="url(#soft2)"/>
<circle cx="576" cy="790" r="2.4" fill="#ffe6a8" opacity="0.6"/>
<circle cx="576" cy="790" r="6.24" fill="#ffd97a" opacity="0.132" filter="url(#soft2)"/>
<circle cx="118" cy="782" r="2.6" fill="#ffe6a8" opacity="0.6"/>
<circle cx="118" cy="782" r="6.760000000000001" fill="#ffd97a" opacity="0.132" filter="url(#soft2)"/>
<circle cx="360" cy="606" r="2.2" fill="#ffe6a8" opacity="0.6"/>
<circle cx="360" cy="606" r="5.720000000000001" fill="#ffd97a" opacity="0.132" filter="url(#soft2)"/>
<circle cx="272" cy="566" r="1.8" fill="#ffe6a8" opacity="0.5"/>
<circle cx="272" cy="566" r="4.680000000000001" fill="#ffd97a" opacity="0.11" filter="url(#soft2)"/>
<circle cx="612" cy="566" r="2.0" fill="#ffe6a8" opacity="0.45"/>
<circle cx="612" cy="566" r="5.2" fill="#ffd97a" opacity="0.099" filter="url(#soft2)"/>
<circle cx="74" cy="596" r="1.8" fill="#ffe6a8" opacity="0.45"/>
<circle cx="74" cy="596" r="4.680000000000001" fill="#ffd97a" opacity="0.099" filter="url(#soft2)"/>
<circle cx="438" cy="468" r="2.2" fill="#ffe6a8" opacity="0.5"/>
<circle cx="438" cy="468" r="5.720000000000001" fill="#ffd97a" opacity="0.11" filter="url(#soft2)"/>
<circle cx="228" cy="452" r="1.8" fill="#ffe6a8" opacity="0.45"/>
<circle cx="228" cy="452" r="4.680000000000001" fill="#ffd97a" opacity="0.099" filter="url(#soft2)"/>
<circle cx="340" cy="896" r="2.4" fill="#ffe6a8" opacity="0.55"/>
<circle cx="340" cy="896" r="6.24" fill="#ffd97a" opacity="0.12100000000000001" filter="url(#soft2)"/>
<g filter="url(#titleGlow)"><text x="343" y="180" text-anchor="middle" font-family="'Arial Black',Impact,sans-serif" font-weight="900" font-size="104" letter-spacing="7" fill="#000" opacity="0.55">DICERO</text><text x="340" y="175" text-anchor="middle" font-family="'Arial Black',Impact,sans-serif" font-weight="900" font-size="104" letter-spacing="7" fill="url(#brassG)">DICERO</text></g>
<text x="340" y="216" text-anchor="middle" font-family="'Trebuchet MS',Arial,sans-serif" font-weight="700" font-size="19" letter-spacing="10" fill="#e9cfa0" opacity="0.85">PUSH YOUR LUCK</text>
<line x1="150" y1="238" x2="530" y2="238" stroke="#c99a3f" stroke-width="1.6" opacity="0.55"/>
<circle cx="340" cy="238" r="4.6" fill="#ffd97a" opacity="0.9"/>
<rect x="0" y="972" width="680" height="48" fill="#000" opacity="0.42"/>
<line x1="0" y1="972" x2="680" y2="972" stroke="#c99a3f" stroke-width="1.2" opacity="0.45"/>
<text x="340" y="1002" text-anchor="middle" font-family="'Trebuchet MS',Arial,sans-serif" font-weight="700" font-size="15" letter-spacing="6" fill="#e9cfa0" opacity="0.8">A DICE ROGUELITE</text>
</svg>