<svg xmlns="http://www.w3.org/2000/svg" viewBox="0 0 680 1020" width="400" height="600">
<defs>
<linearGradient id="dtDesk" x1="0" y1="0" x2="0.3" y2="1"><stop offset="0" stop-color="#efe9dc"/><stop offset="0.6" stop-color="#ddd4c1"/><stop offset="1" stop-color="#c3b69c"/></linearGradient>
<radialGradient id="dtVig" cx="50%" cy="45%" r="75%"><stop offset="0.6" stop-color="#6e5530" stop-opacity="0"/><stop offset="1" stop-color="#6e5530" stop-opacity="0.28"/></radialGradient>
<filter id="dtShadow" x="-10%" y="-10%" width="120%" height="120%"><feGaussianBlur stdDeviation="10"/></filter>
<linearGradient id="dtGlow" x1="0" y1="0" x2="1" y2="0"><stop offset="0" stop-color="#2f6fed" stop-opacity="0"/><stop offset="0.5" stop-color="#2f6fed" stop-opacity="0.28"/><stop offset="1" stop-color="#2f6fed" stop-opacity="0"/></linearGradient>
<linearGradient id="dtTrail" x1="0" y1="0" x2="1" y2="0"><stop offset="0" stop-color="#2f6fed" stop-opacity="0"/><stop offset="1" stop-color="#2f6fed" stop-opacity="0.12"/></linearGradient>
<radialGradient id="dtDot_bass"><stop offset="0" stop-color="#8e4ec6" stop-opacity="0.75"/><stop offset="1" stop-color="#8e4ec6" stop-opacity="0"/></radialGradient><radialGradient id="dtDot_hum"><stop offset="0" stop-color="#f59f00" stop-opacity="0.75"/><stop offset="1" stop-color="#f59f00" stop-opacity="0"/></radialGradient>
<clipPath id="dtPage"><rect x="70" y="282" width="540" height="672"/></clipPath>
</defs>
<rect width="680" height="1020" fill="url(#dtDesk)"/>
<rect width="680" height="1020" fill="url(#dtVig)"/>
<text x="340" y="150" text-anchor="middle" transform="rotate(-3 340 150)" font-family="'Segoe Print','Bradley Hand','Chalkboard SE','Comic Sans MS',cursive" font-weight="700" font-size="82" fill="#232b36">Doodle Tunes</text>
<path d="M150 182 q95 -20 190 -8 t190 -14" fill="none" stroke="#2f6fed" stroke-width="7" stroke-linecap="round" transform="rotate(-3 340 150)"/>
<g transform="rotate(-2.5 340 601)">
<rect x="50" y="250" width="592" height="730" rx="6" fill="#46371e" opacity="0.35" filter="url(#dtShadow)"/>
<rect x="44" y="236" width="592" height="730" rx="6" fill="#fbfaf6"/>
<rect x="70" y="267" width="288.8" height="24" rx="12" fill="#2f6fed" opacity="0.22"/>
<line x1="70" x2="610" y1="910.7" y2="910.7" stroke="rgba(58,108,206,0.5)" stroke-width="2"/><line x1="70" x2="610" y1="852.2" y2="852.2" stroke="rgba(84,132,214,0.22)" stroke-width="1.4"/><line x1="70" x2="610" y1="793.6" y2="793.6" stroke="rgba(84,132,214,0.22)" stroke-width="1.4"/><line x1="70" x2="610" y1="735.1" y2="735.1" stroke="rgba(84,132,214,0.22)" stroke-width="1.4"/><line x1="70" x2="610" y1="676.5" y2="676.5" stroke="rgba(84,132,214,0.22)" stroke-width="1.4"/><line x1="70" x2="610" y1="618" y2="618" stroke="rgba(58,108,206,0.5)" stroke-width="2"/><line x1="70" x2="610" y1="559.5" y2="559.5" stroke="rgba(84,132,214,0.22)" stroke-width="1.4"/><line x1="70" x2="610" y1="500.9" y2="500.9" stroke="rgba(84,132,214,0.22)" stroke-width="1.4"/><line x1="70" x2="610" y1="442.4" y2="442.4" stroke="rgba(84,132,214,0.22)" stroke-width="1.4"/><line x1="70" x2="610" y1="383.8" y2="383.8" stroke="rgba(84,132,214,0.22)" stroke-width="1.4"/><line x1="70" x2="610" y1="325.3" y2="325.3" stroke="rgba(58,108,206,0.5)" stroke-width="2"/><line x1="123.4" x2="123.4" y1="296" y2="940" stroke="rgba(80,100,140,0.14)" stroke-width="1.2"/><line x1="201.9" x2="201.9" y1="296" y2="940" stroke="rgba(80,100,140,0.14)" stroke-width="1.2"/><line x1="280.3" x2="280.3" y1="296" y2="940" stroke="rgba(80,100,140,0.14)" stroke-width="1.2"/><line x1="358.8" x2="358.8" y1="296" y2="940" stroke="rgba(66,86,128,0.34)" stroke-width="2"/><line x1="437.3" x2="437.3" y1="296" y2="940" stroke="rgba(80,100,140,0.14)" stroke-width="1.2"/><line x1="515.8" x2="515.8" y1="296" y2="940" stroke="rgba(80,100,140,0.14)" stroke-width="1.2"/><line x1="594.3" x2="594.3" y1="296" y2="940" stroke="rgba(80,100,140,0.14)" stroke-width="1.2"/>
<g clip-path="url(#dtPage)">
<rect x="248.8" y="296" width="110" height="644" fill="url(#dtTrail)"/>
<rect x="328.8" y="296" width="60" height="644" fill="url(#dtGlow)"/>
</g>
<g clip-path="url(#dtPage)" fill="none" stroke-linecap="round" stroke-linejoin="round"><path d="M44.9 923.9 L672.8 923.9" stroke="#8e4ec6" stroke-width="14.4" opacity="0.14"/><path d="M44.9 923.9 L672.8 923.9" stroke="#8e4ec6" stroke-width="7.6"/><path d="M139.1 489.2 Q148.5 849.8 148.9 854.3 Q149.3 858.7 150.6 862.9 Q151.8 867.1 153.9 871 Q155.9 874.9 158.6 878.3 Q161.4 881.7 164.7 884.5 Q168 887.3 171.8 889.4 Q175.6 891.5 179.7 892.8 Q183.8 894.1 188.1 894.5 Q192.4 894.9 286.6 894.9 Q380.8 894.9 385.1 894.5 Q389.4 894.1 393.5 892.8 Q397.6 891.5 401.4 889.4 Q405.2 887.3 408.6 884.5 Q411.9 881.7 414.6 878.3 Q417.4 874.9 419.4 871 Q421.4 867.1 422.7 862.9 Q424 858.7 424.4 854.3 Q424.8 849.8 429.5 669.5 L434.2 489.2" stroke="#1f1f1f" stroke-width="14.4" opacity="0.14"/><path d="M139.1 489.2 Q148.5 849.8 148.9 854.3 Q149.3 858.7 150.6 862.9 Q151.8 867.1 153.9 871 Q155.9 874.9 158.6 878.3 Q161.4 881.7 164.7 884.5 Q168 887.3 171.8 889.4 Q175.6 891.5 179.7 892.8 Q183.8 894.1 188.1 894.5 Q192.4 894.9 286.6 894.9 Q380.8 894.9 385.1 894.5 Q389.4 894.1 393.5 892.8 Q397.6 891.5 401.4 889.4 Q405.2 887.3 408.6 884.5 Q411.9 881.7 414.6 878.3 Q417.4 874.9 419.4 871 Q421.4 867.1 422.7 862.9 Q424 858.7 424.4 854.3 Q424.8 849.8 429.5 669.5 L434.2 489.2" stroke="#1f1f1f" stroke-width="7.6"/><path d="M286.6 444.1 Q299.6 444.3 306.1 444.6 Q312.5 444.8 318.8 445.2 Q325.2 445.7 331.4 446.3 Q337.6 446.9 343.5 447.7 Q349.5 448.4 355.3 449.4 Q361.1 450.3 366.6 451.4 Q372 452.4 377.1 453.7 Q382.3 454.9 387 456.2 Q391.8 457.6 396.1 459.1 Q400.5 460.5 404.4 462.1 Q408.3 463.7 411.7 465.4 Q415.2 467 418.1 468.8 Q421.1 470.6 423.5 472.5 Q425.9 474.3 427.8 476.2 Q429.7 478.1 431 480.1 Q432.3 482 433.1 484 Q433.8 485.9 434 487.9 Q434.2 489.9 433.8 491.9 Q433.4 493.9 432.4 495.9 Q431.5 497.8 429.9 499.8 Q428.4 501.7 426.3 503.6 Q424.3 505.4 421.7 507.3 Q419.1 509.1 415.9 510.8 Q412.8 512.6 409.2 514.2 Q405.6 515.9 401.5 517.4 Q397.5 519 393 520.4 Q388.5 521.8 383.6 523.1 Q378.7 524.4 373.4 525.6 Q368.2 526.7 362.6 527.8 Q357 528.8 351.2 529.7 Q345.3 530.5 339.3 531.3 Q333.2 532 327 532.5 Q320.7 533.1 314.3 533.4 Q307.9 533.8 301.4 534 Q295 534.2 288.5 534.2 Q282 534.3 275.5 534.1 Q269 534 262.6 533.6 Q256.2 533.3 249.9 532.8 Q243.6 532.3 237.5 531.7 Q231.4 531 225.4 530.2 Q219.5 529.3 213.9 528.4 Q208.2 527.4 202.9 526.3 Q197.5 525.1 192.5 523.9 Q187.5 522.6 182.9 521.2 Q178.3 519.8 174.1 518.3 Q169.9 516.8 166.1 515.2 Q162.4 513.5 159.1 511.8 Q155.8 510.1 153.1 508.3 Q150.4 506.5 148.1 504.6 Q145.9 502.7 144.2 500.8 Q142.5 498.9 141.4 497 Q140.3 495 139.8 493 Q139.2 491.1 139.2 489.1 Q139.3 487.1 139.8 485.1 Q140.4 483.1 141.5 481.2 Q142.7 479.2 144.4 477.3 Q146.2 475.4 148.4 473.5 Q150.7 471.7 153.5 469.9 Q156.3 468.1 159.6 466.4 Q162.9 464.7 166.6 463.1 Q170.4 461.4 174.6 459.9 Q178.9 458.4 183.5 457 Q188.2 455.6 193.2 454.4 Q198.2 453.1 203.6 452 Q209 450.9 214.6 449.9 Q220.3 449 226.3 448.1 Q232.2 447.3 238.3 446.6 Q244.5 446 250.8 445.5 Q257.1 445 263.5 444.7 Q269.9 444.4 276.4 444.2 Q282.9 444.1 289.4 444.2 L295.9 444.2" stroke="#1f1f1f" stroke-width="14.4" opacity="0.14"/><path d="M286.6 444.1 Q299.6 444.3 306.1 444.6 Q312.5 444.8 318.8 445.2 Q325.2 445.7 331.4 446.3 Q337.6 446.9 343.5 447.7 Q349.5 448.4 355.3 449.4 Q361.1 450.3 366.6 451.4 Q372 452.4 377.1 453.7 Q382.3 454.9 387 456.2 Q391.8 457.6 396.1 459.1 Q400.5 460.5 404.4 462.1 Q408.3 463.7 411.7 465.4 Q415.2 467 418.1 468.8 Q421.1 470.6 423.5 472.5 Q425.9 474.3 427.8 476.2 Q429.7 478.1 431 480.1 Q432.3 482 433.1 484 Q433.8 485.9 434 487.9 Q434.2 489.9 433.8 491.9 Q433.4 493.9 432.4 495.9 Q431.5 497.8 429.9 499.8 Q428.4 501.7 426.3 503.6 Q424.3 505.4 421.7 507.3 Q419.1 509.1 415.9 510.8 Q412.8 512.6 409.2 514.2 Q405.6 515.9 401.5 517.4 Q397.5 519 393 520.4 Q388.5 521.8 383.6 523.1 Q378.7 524.4 373.4 525.6 Q368.2 526.7 362.6 527.8 Q357 528.8 351.2 529.7 Q345.3 530.5 339.3 531.3 Q333.2 532 327 532.5 Q320.7 533.1 314.3 533.4 Q307.9 533.8 301.4 534 Q295 534.2 288.5 534.2 Q282 534.3 275.5 534.1 Q269 534 262.6 533.6 Q256.2 533.3 249.9 532.8 Q243.6 532.3 237.5 531.7 Q231.4 531 225.4 530.2 Q219.5 529.3 213.9 528.4 Q208.2 527.4 202.9 526.3 Q197.5 525.1 192.5 523.9 Q187.5 522.6 182.9 521.2 Q178.3 519.8 174.1 518.3 Q169.9 516.8 166.1 515.2 Q162.4 513.5 159.1 511.8 Q155.8 510.1 153.1 508.3 Q150.4 506.5 148.1 504.6 Q145.9 502.7 144.2 500.8 Q142.5 498.9 141.4 497 Q140.3 495 139.8 493 Q139.2 491.1 139.2 489.1 Q139.3 487.1 139.8 485.1 Q140.4 483.1 141.5 481.2 Q142.7 479.2 144.4 477.3 Q146.2 475.4 148.4 473.5 Q150.7 471.7 153.5 469.9 Q156.3 468.1 159.6 466.4 Q162.9 464.7 166.6 463.1 Q170.4 461.4 174.6 459.9 Q178.9 458.4 183.5 457 Q188.2 455.6 193.2 454.4 Q198.2 453.1 203.6 452 Q209 450.9 214.6 449.9 Q220.3 449 226.3 448.1 Q232.2 447.3 238.3 446.6 Q244.5 446 250.8 445.5 Q257.1 445 263.5 444.7 Q269.9 444.4 276.4 444.2 Q282.9 444.1 289.4 444.2 L295.9 444.2" stroke="#1f1f1f" stroke-width="7.6"/><path d="M434.2 566.5 Q446.5 567.4 452.5 568.7 Q458.5 570 464.4 572.2 Q470.2 574.3 475.8 577.3 Q481.3 580.3 486.4 584 Q491.5 587.8 496.2 592.2 Q500.8 596.7 504.9 601.7 Q508.9 606.8 512.3 612.4 Q515.8 618 518.5 624.1 Q521.2 630.1 523.2 636.5 Q525.2 642.9 526.4 649.5 Q527.6 656.1 528 662.8 Q528.4 669.5 528 676.2 Q527.6 683 526.4 689.6 Q525.2 696.2 523.2 702.6 Q521.2 708.9 518.5 715 Q515.8 721 512.3 726.6 Q508.9 732.2 504.9 737.3 Q500.8 742.4 496.2 746.8 Q491.5 751.2 486.4 755 Q481.3 758.8 475.8 761.7 Q470.2 764.7 464.4 766.9 Q458.5 769 452.5 770.3 Q446.5 771.7 440.3 772.1 L434.2 772.6" stroke="#1f1f1f" stroke-width="14.4" opacity="0.14"/><path d="M434.2 566.5 Q446.5 567.4 452.5 568.7 Q458.5 570 464.4 572.2 Q470.2 574.3 475.8 577.3 Q481.3 580.3 486.4 584 Q491.5 587.8 496.2 592.2 Q500.8 596.7 504.9 601.7 Q508.9 606.8 512.3 612.4 Q515.8 618 518.5 624.1 Q521.2 630.1 523.2 636.5 Q525.2 642.9 526.4 649.5 Q527.6 656.1 528 662.8 Q528.4 669.5 528 676.2 Q527.6 683 526.4 689.6 Q525.2 696.2 523.2 702.6 Q521.2 708.9 518.5 715 Q515.8 721 512.3 726.6 Q508.9 732.2 504.9 737.3 Q500.8 742.4 496.2 746.8 Q491.5 751.2 486.4 755 Q481.3 758.8 475.8 761.7 Q470.2 764.7 464.4 766.9 Q458.5 769 452.5 770.3 Q446.5 771.7 440.3 772.1 L434.2 772.6" stroke="#1f1f1f" stroke-width="7.6"/><path d="M201.9 434.5 Q202.7 429 202.9 426.2 Q203 423.5 202.7 420.8 Q202.4 418 201.9 415.3 Q201.4 412.6 201 409.8 Q200.7 407.1 200.9 404.4 Q201 401.6 201.4 398.9 Q201.9 396.1 202.3 393.4 Q202.7 390.7 202.8 387.9 Q202.9 385.2 202.6 382.5 L202.3 379.7" stroke="#2f6fed" stroke-width="14.4" opacity="0.14"/><path d="M201.9 434.5 Q202.7 429 202.9 426.2 Q203 423.5 202.7 420.8 Q202.4 418 201.9 415.3 Q201.4 412.6 201 409.8 Q200.7 407.1 200.9 404.4 Q201 401.6 201.4 398.9 Q201.9 396.1 202.3 393.4 Q202.7 390.7 202.8 387.9 Q202.9 385.2 202.6 382.5 L202.3 379.7" stroke="#2f6fed" stroke-width="7.6"/><path d="M280.3 434.5 Q281.2 423.8 281.4 418.5 Q281.5 413.2 281.2 407.9 Q280.9 402.6 280.3 397.3 Q279.8 392 279.5 386.6 Q279.2 381.3 279.3 376 Q279.5 370.7 279.9 365.4 Q280.3 360.1 280.8 354.8 Q281.2 349.5 281.3 344.1 Q281.4 338.8 281.1 333.5 L280.8 328.2" stroke="#2f6fed" stroke-width="14.4" opacity="0.14"/><path d="M280.3 434.5 Q281.2 423.8 281.4 418.5 Q281.5 413.2 281.2 407.9 Q280.9 402.6 280.3 397.3 Q279.8 392 279.5 386.6 Q279.2 381.3 279.3 376 Q279.5 370.7 279.9 365.4 Q280.3 360.1 280.8 354.8 Q281.2 349.5 281.3 344.1 Q281.4 338.8 281.1 333.5 L280.8 328.2" stroke="#2f6fed" stroke-width="7.6"/><path d="M358.8 382.9 Q359.7 377.5 359.8 374.7 Q360 372 359.7 369.3 Q359.3 366.5 358.8 363.8 Q358.3 361 358 358.3 Q357.7 355.6 357.8 352.8 Q358 350.1 358.4 347.4 Q358.8 344.6 359.3 341.9 Q359.7 339.1 359.8 336.4 Q359.9 333.7 359.6 330.9 L359.3 328.2" stroke="#2f6fed" stroke-width="14.4" opacity="0.14"/><path d="M358.8 382.9 Q359.7 377.5 359.8 374.7 Q360 372 359.7 369.3 Q359.3 366.5 358.8 363.8 Q358.3 361 358 358.3 Q357.7 355.6 357.8 352.8 Q358 350.1 358.4 347.4 Q358.8 344.6 359.3 341.9 Q359.7 339.1 359.8 336.4 Q359.9 333.7 359.6 330.9 L359.3 328.2" stroke="#2f6fed" stroke-width="7.6"/></g>
<rect x="357.3" y="296" width="3" height="644" fill="#232b36"/>
<path d="M351.8 279 L365.8 279 L358.8 297 Z" fill="#232b36"/>
<circle cx="358.8" cy="279" r="10" fill="#232b36"/>
<circle cx="358.8" cy="923.9" r="22" fill="none" stroke="#8e4ec6" stroke-width="3.5" opacity="0.65"/><circle cx="358.8" cy="894.9" r="40" fill="none" stroke="#f59f00" stroke-width="2" opacity="0.35"/><circle cx="358.8" cy="450.3" r="22" fill="none" stroke="#f59f00" stroke-width="3.5" opacity="0.65"/><circle cx="358.8" cy="528.3" r="40" fill="none" stroke="#f59f00" stroke-width="2" opacity="0.35"/><circle cx="358.8" cy="923.9" r="28.9" fill="url(#dtDot_bass)"/><circle cx="358.8" cy="923.9" r="8.5" fill="#8e4ec6"/><circle cx="356.1" cy="921.2" r="2.9" fill="#fff" opacity="0.55"/><circle cx="358.8" cy="894.9" r="28.9" fill="url(#dtDot_hum)"/><circle cx="358.8" cy="894.9" r="8.5" fill="#1f1f1f"/><circle cx="356.1" cy="892.2" r="2.9" fill="#fff" opacity="0.55"/><circle cx="358.8" cy="450.3" r="28.9" fill="url(#dtDot_hum)"/><circle cx="358.8" cy="450.3" r="8.5" fill="#1f1f1f"/><circle cx="356.1" cy="447.6" r="2.9" fill="#fff" opacity="0.55"/><circle cx="358.8" cy="528.3" r="28.9" fill="url(#dtDot_hum)"/><circle cx="358.8" cy="528.3" r="8.5" fill="#1f1f1f"/><circle cx="356.1" cy="525.6" r="2.9" fill="#fff" opacity="0.55"/>
</g>
<g transform="translate(140 322) rotate(-10) scale(1.05)"><g opacity="0.16" stroke-width="16"><g stroke="#2b9a66" stroke-width="16" stroke-linecap="round" stroke-linejoin="round" fill="none"><ellipse cx="0" cy="0" rx="17" ry="12.5" transform="rotate(-24 0 0)" fill="#2b9a66"/><path d="M15 -4 V-78"/><path d="M15 -78 q4 22 26 30 q10 6 6 26" fill="none"/></g></g><g stroke="#2b9a66" stroke-width="7" stroke-linecap="round" stroke-linejoin="round" fill="none"><ellipse cx="0" cy="0" rx="17" ry="12.5" transform="rotate(-24 0 0)" fill="#2b9a66"/><path d="M15 -4 V-78"/><path d="M15 -78 q4 22 26 30 q10 6 6 26" fill="none"/></g></g><g transform="translate(410 304) rotate(8) scale(1.25)"><g opacity="0.16" stroke-width="16"><g stroke="#f08c00" stroke-width="16" stroke-linecap="round" stroke-linejoin="round" fill="none"><ellipse cx="0" cy="0" rx="17" ry="12.5" transform="rotate(-24 0 0)" fill="#f08c00"/><path d="M15 -4 V-78"/><ellipse cx="58" cy="-14" rx="17" ry="12.5" transform="rotate(-24 58 -14)" fill="#f08c00"/><path d="M73 -18 V-92"/><path d="M15 -78 L73 -92" stroke-width="15"/></g></g><g stroke="#f08c00" stroke-width="7" stroke-linecap="round" stroke-linejoin="round" fill="none"><ellipse cx="0" cy="0" rx="17" ry="12.5" transform="rotate(-24 0 0)" fill="#f08c00"/><path d="M15 -4 V-78"/><ellipse cx="58" cy="-14" rx="17" ry="12.5" transform="rotate(-24 58 -14)" fill="#f08c00"/><path d="M73 -18 V-92"/><path d="M15 -78 L73 -92" stroke-width="15"/></g></g><g transform="translate(572 262) rotate(14) scale(1.1)"><g opacity="0.16" stroke-width="16"><g stroke="#e5484d" stroke-width="16" stroke-linecap="round" stroke-linejoin="round" fill="none"><ellipse cx="0" cy="0" rx="17" ry="12.5" transform="rotate(-24 0 0)" fill="#e5484d"/><path d="M15 -4 V-78"/></g></g><g stroke="#e5484d" stroke-width="7" stroke-linecap="round" stroke-linejoin="round" fill="none"><ellipse cx="0" cy="0" rx="17" ry="12.5" transform="rotate(-24 0 0)" fill="#e5484d"/><path d="M15 -4 V-78"/></g></g><g transform="translate(580 440) rotate(16) scale(1)"><g opacity="0.16" stroke-width="16"><g stroke="#8e4ec6" stroke-width="16" stroke-linecap="round" stroke-linejoin="round" fill="none"><ellipse cx="0" cy="0" rx="17" ry="12.5" transform="rotate(-24 0 0)" fill="#8e4ec6"/><path d="M15 -4 V-78"/><path d="M15 -78 q4 22 26 30 q10 6 6 26" fill="none"/></g></g><g stroke="#8e4ec6" stroke-width="7" stroke-linecap="round" stroke-linejoin="round" fill="none"><ellipse cx="0" cy="0" rx="17" ry="12.5" transform="rotate(-24 0 0)" fill="#8e4ec6"/><path d="M15 -4 V-78"/><path d="M15 -78 q4 22 26 30 q10 6 6 26" fill="none"/></g></g><g transform="translate(560 760) rotate(-8) scale(1.15)"><g opacity="0.16" stroke-width="16"><g stroke="#2f6fed" stroke-width="16" stroke-linecap="round" stroke-linejoin="round" fill="none"><ellipse cx="0" cy="0" rx="17" ry="12.5" transform="rotate(-24 0 0)" fill="#2f6fed"/><path d="M15 -4 V-78"/><ellipse cx="58" cy="-14" rx="17" ry="12.5" transform="rotate(-24 58 -14)" fill="#2f6fed"/><path d="M73 -18 V-92"/><path d="M15 -78 L73 -92" stroke-width="15"/></g></g><g stroke="#2f6fed" stroke-width="7" stroke-linecap="round" stroke-linejoin="round" fill="none"><ellipse cx="0" cy="0" rx="17" ry="12.5" transform="rotate(-24 0 0)" fill="#2f6fed"/><path d="M15 -4 V-78"/><ellipse cx="58" cy="-14" rx="17" ry="12.5" transform="rotate(-24 58 -14)" fill="#2f6fed"/><path d="M73 -18 V-92"/><path d="M15 -78 L73 -92" stroke-width="15"/></g></g><g transform="translate(70 560) rotate(-16) scale(0.9)"><g opacity="0.16" stroke-width="16"><g stroke="#d6409f" stroke-width="16" stroke-linecap="round" stroke-linejoin="round" fill="none"><ellipse cx="0" cy="0" rx="17" ry="12.5" transform="rotate(-24 0 0)" fill="#d6409f"/><path d="M15 -4 V-78"/></g></g><g stroke="#d6409f" stroke-width="7" stroke-linecap="round" stroke-linejoin="round" fill="none"><ellipse cx="0" cy="0" rx="17" ry="12.5" transform="rotate(-24 0 0)" fill="#d6409f"/><path d="M15 -4 V-78"/></g></g>
</svg>
