<svg width="400" height="600" viewBox="0 0 680 1020" xmlns="http://www.w3.org/2000/svg">
<defs>
<linearGradient id="gfloefighters" x1="0.933" y1="0.25" x2="0.067" y2="0.75"><stop offset="0.0" stop-color="#bfe7ff"/><stop offset="0.5" stop-color="#1a6fa8"/><stop offset="1.0" stop-color="#06243f"/></linearGradient>
<linearGradient id="ffFish" x1="0" y1="0" x2="0.2" y2="1">
<stop offset="0" stop-color="#ffb08e"/><stop offset="0.5" stop-color="#ff7a59"/><stop offset="1" stop-color="#e04f2e"/>
</linearGradient>
</defs>
<rect width="680" height="1020" fill="url(#gfloefighters)"/>
<rect x="0" y="0" width="680" height="148" fill="rgba(0,0,0,0.34)"/>
<line x1="0" y1="148" x2="680" y2="148" stroke="#ff7a59" stroke-width="1.2"/>
<rect x="48" y="100" width="237" height="1.5" fill="#ff7a59" opacity="0.5"/><rect x="395" y="100" width="237" height="1.5" fill="#ff7a59" opacity="0.5"/>
<text x="343" y="135" text-anchor="middle" font-family="'Arial Black','Impact',sans-serif"
      font-weight="900" font-size="54" fill="rgba(0,0,0,0.45)" letter-spacing="4">FLOE FIGHTERS</text>
<text x="340" y="132" text-anchor="middle" font-family="'Arial Black','Impact',sans-serif"
      font-weight="900" font-size="54" fill="#ff7a59" letter-spacing="4">FLOE FIGHTERS</text>
<text x="340" y="660" text-anchor="middle" dominant-baseline="central" font-size="300">🐧</text>

<!-- fish-bomb, held by the tail in the penguin's flipper -->
<g transform="translate(176,672) scale(-1,1) rotate(-45) scale(0.9)">
  <path d="M -55,0 C -34,-34 36,-34 57,0 C 36,34 -34,34 -55,0 Z"
        fill="url(#ffFish)" stroke="#3a1408" stroke-width="3" stroke-linejoin="round"/>
  <path d="M -55,0 C -76,-26 -95,-31 -101,-27 C -92,-14 -92,14 -101,27 C -95,31 -76,26 -55,0 Z"
        fill="url(#ffFish)" stroke="#3a1408" stroke-width="3" stroke-linejoin="round"/>
  <path d="M -40,-6 C -22,-26 26,-26 44,-8 C 14,-17 -14,-17 -40,-6 Z" fill="#ffd2be" opacity="0.7"/>
  <circle cx="36" cy="-6" r="9.5" fill="#ffffff" stroke="#3a1408" stroke-width="2.4"/>
  <circle cx="38" cy="-6" r="4.5" fill="#3a1408"/>
</g>

<rect x="0" y="988" width="680" height="32" fill="rgba(0,0,0,0.34)"/>
<line x1="0" y1="988" x2="680" y2="988" stroke="#ff7a59" stroke-width="0.8" opacity="0.3"/>
</svg>
