<svg width="400" height="600" viewBox="0 0 680 1020" xmlns="http://www.w3.org/2000/svg">
<defs><clipPath id="cvclip"><rect width="680" height="1020"/></clipPath></defs>
<rect width="680" height="1020" fill="#08040f"/>
<g clip-path="url(#cvclip)"><polygon points="0.0,92.0 0.0,126.0 -29.4,143.0 -58.9,126.0 -58.9,92.0 -29.4,75.0" stroke="#6a1b9a" stroke-width="1" fill="none" opacity="0.21"/><polygon points="58.9,92.0 58.9,126.0 29.4,143.0 -0.0,126.0 0.0,92.0 29.4,75.0" stroke="#6a1b9a" stroke-width="1" fill="none" opacity="0.21"/><polygon points="117.8,92.0 117.8,126.0 88.3,143.0 58.9,126.0 58.9,92.0 88.3,75.0" stroke="#6a1b9a" stroke-width="1" fill="none" opacity="0.21"/><polygon points="176.7,92.0 176.7,126.0 147.2,143.0 117.8,126.0 117.8,92.0 147.2,75.0" stroke="#6a1b9a" stroke-width="1" fill="none" opacity="0.21"/><polygon points="235.6,92.0 235.6,126.0 206.1,143.0 176.7,126.0 176.7,92.0 206.1,75.0" stroke="#6a1b9a" stroke-width="1" fill="none" opacity="0.21"/><polygon points="294.4,92.0 294.4,126.0 265.0,143.0 235.6,126.0 235.6,92.0 265.0,75.0" stroke="#6a1b9a" stroke-width="1" fill="none" opacity="0.21"/><polygon points="353.3,92.0 353.3,126.0 323.9,143.0 294.4,126.0 294.4,92.0 323.9,75.0" stroke="#6a1b9a" stroke-width="1" fill="none" opacity="0.21"/><polygon points="412.2,92.0 412.2,126.0 382.8,143.0 353.3,126.0 353.3,92.0 382.8,75.0" stroke="#6a1b9a" stroke-width="1" fill="none" opacity="0.21"/><polygon points="471.1,92.0 471.1,126.0 441.7,143.0 412.2,126.0 412.2,92.0 441.7,75.0" stroke="#6a1b9a" stroke-width="1" fill="none" opacity="0.21"/><polygon points="530.0,92.0 530.0,126.0 500.6,143.0 471.1,126.0 471.1,92.0 500.6,75.0" stroke="#6a1b9a" stroke-width="1" fill="none" opacity="0.21"/><polygon points="-29.4,143.0 -29.4,177.0 -58.9,194.0 -88.3,177.0 -88.3,143.0 -58.9,126.0" stroke="#6a1b9a" stroke-width="1" fill="none" opacity="0.21"/><polygon points="29.4,143.0 29.4,177.0 0.0,194.0 -29.4,177.0 -29.4,143.0 -0.0,126.0" stroke="#6a1b9a" stroke-width="1" fill="none" opacity="0.21"/><polygon points="88.3,143.0 88.3,177.0 58.9,194.0 29.4,177.0 29.4,143.0 58.9,126.0" stroke="#6a1b9a" stroke-width="1" fill="none" opacity="0.21"/><polygon points="147.2,143.0 147.2,177.0 117.8,194.0 88.3,177.0 88.3,143.0 117.8,126.0" stroke="#6a1b9a" stroke-width="1" fill="none" opacity="0.21"/><polygon points="206.1,143.0 206.1,177.0 176.7,194.0 147.2,177.0 147.2,143.0 176.7,126.0" stroke="#6a1b9a" stroke-width="1" fill="none" opacity="0.21"/><polygon points="265.0,143.0 265.0,177.0 235.6,194.0 206.1,177.0 206.1,143.0 235.6,126.0" stroke="#6a1b9a" stroke-width="1" fill="none" opacity="0.21"/><polygon points="323.9,143.0 323.9,177.0 294.4,194.0 265.0,177.0 265.0,143.0 294.4,126.0" stroke="#6a1b9a" stroke-width="1" fill="none" opacity="0.21"/><polygon points="382.8,143.0 382.8,177.0 353.3,194.0 323.9,177.0 323.9,143.0 353.3,126.0" stroke="#6a1b9a" stroke-width="1" fill="none" opacity="0.21"/><polygon points="441.7,143.0 441.7,177.0 412.2,194.0 382.8,177.0 382.8,143.0 412.2,126.0" stroke="#6a1b9a" stroke-width="1" fill="none" opacity="0.21"/><polygon points="500.6,143.0 500.6,177.0 471.1,194.0 441.7,177.0 441.7,143.0 471.1,126.0" stroke="#6a1b9a" stroke-width="1" fill="none" opacity="0.21"/><polygon points="0.0,194.0 0.0,228.0 -29.4,245.0 -58.9,228.0 -58.9,194.0 -29.4,177.0" stroke="#6a1b9a" stroke-width="1" fill="none" opacity="0.21"/><polygon points="58.9,194.0 58.9,228.0 29.4,245.0 -0.0,228.0 0.0,194.0 29.4,177.0" stroke="#6a1b9a" stroke-width="1" fill="none" opacity="0.21"/><polygon points="117.8,194.0 117.8,228.0 88.3,245.0 58.9,228.0 58.9,194.0 88.3,177.0" stroke="#6a1b9a" stroke-width="1" fill="none" opacity="0.21"/><polygon points="176.7,194.0 176.7,228.0 147.2,245.0 117.8,228.0 117.8,194.0 147.2,177.0" stroke="#6a1b9a" stroke-width="1" fill="none" opacity="0.21"/><polygon points="235.6,194.0 235.6,228.0 206.1,245.0 176.7,228.0 176.7,194.0 206.1,177.0" stroke="#6a1b9a" stroke-width="1" fill="none" opacity="0.21"/><polygon points="294.4,194.0 294.4,228.0 265.0,245.0 235.6,228.0 235.6,194.0 265.0,177.0" stroke="#6a1b9a" stroke-width="1" fill="none" opacity="0.21"/><polygon points="353.3,194.0 353.3,228.0 323.9,245.0 294.4,228.0 294.4,194.0 323.9,177.0" stroke="#6a1b9a" stroke-width="1" fill="none" opacity="0.21"/><polygon points="412.2,194.0 412.2,228.0 382.8,245.0 353.3,228.0 353.3,194.0 382.8,177.0" stroke="#6a1b9a" stroke-width="1" fill="none" opacity="0.21"/><polygon points="471.1,194.0 471.1,228.0 441.7,245.0 412.2,228.0 412.2,194.0 441.7,177.0" stroke="#6a1b9a" stroke-width="1" fill="none" opacity="0.21"/><polygon points="530.0,194.0 530.0,228.0 500.6,245.0 471.1,228.0 471.1,194.0 500.6,177.0" stroke="#6a1b9a" stroke-width="1" fill="none" opacity="0.21"/><polygon points="-29.4,245.0 -29.4,279.0 -58.9,296.0 -88.3,279.0 -88.3,245.0 -58.9,228.0" stroke="#6a1b9a" stroke-width="1" fill="none" opacity="0.21"/><polygon points="29.4,245.0 29.4,279.0 0.0,296.0 -29.4,279.0 -29.4,245.0 -0.0,228.0" stroke="#6a1b9a" stroke-width="1" fill="none" opacity="0.21"/><polygon points="88.3,245.0 88.3,279.0 58.9,296.0 29.4,279.0 29.4,245.0 58.9,228.0" stroke="#6a1b9a" stroke-width="1" fill="none" opacity="0.21"/><polygon points="147.2,245.0 147.2,279.0 117.8,296.0 88.3,279.0 88.3,245.0 117.8,228.0" stroke="#6a1b9a" stroke-width="1" fill="none" opacity="0.21"/><polygon points="206.1,245.0 206.1,279.0 176.7,296.0 147.2,279.0 147.2,245.0 176.7,228.0" stroke="#6a1b9a" stroke-width="1" fill="none" opacity="0.21"/><polygon points="265.0,245.0 265.0,279.0 235.6,296.0 206.1,279.0 206.1,245.0 235.6,228.0" stroke="#6a1b9a" stroke-width="1" fill="none" opacity="0.21"/><polygon points="323.9,245.0 323.9,279.0 294.4,296.0 265.0,279.0 265.0,245.0 294.4,228.0" stroke="#6a1b9a" stroke-width="1" fill="none" opacity="0.21"/><polygon points="382.8,245.0 382.8,279.0 353.3,296.0 323.9,279.0 323.9,245.0 353.3,228.0" stroke="#6a1b9a" stroke-width="1" fill="none" opacity="0.21"/><polygon points="441.7,245.0 441.7,279.0 412.2,296.0 382.8,279.0 382.8,245.0 412.2,228.0" stroke="#6a1b9a" stroke-width="1" fill="none" opacity="0.21"/><polygon points="500.6,245.0 500.6,279.0 471.1,296.0 441.7,279.0 441.7,245.0 471.1,228.0" stroke="#6a1b9a" stroke-width="1" fill="none" opacity="0.21"/><polygon points="0.0,296.0 0.0,330.0 -29.4,347.0 -58.9,330.0 -58.9,296.0 -29.4,279.0" stroke="#6a1b9a" stroke-width="1" fill="none" opacity="0.21"/><polygon points="58.9,296.0 58.9,330.0 29.4,347.0 -0.0,330.0 0.0,296.0 29.4,279.0" stroke="#6a1b9a" stroke-width="1" fill="none" opacity="0.21"/><polygon points="117.8,296.0 117.8,330.0 88.3,347.0 58.9,330.0 58.9,296.0 88.3,279.0" stroke="#6a1b9a" stroke-width="1" fill="none" opacity="0.21"/><polygon points="176.7,296.0 176.7,330.0 147.2,347.0 117.8,330.0 117.8,296.0 147.2,279.0" stroke="#6a1b9a" stroke-width="1" fill="none" opacity="0.21"/><polygon points="235.6,296.0 235.6,330.0 206.1,347.0 176.7,330.0 176.7,296.0 206.1,279.0" stroke="#6a1b9a" stroke-width="1" fill="none" opacity="0.21"/><polygon points="294.4,296.0 294.4,330.0 265.0,347.0 235.6,330.0 235.6,296.0 265.0,279.0" stroke="#6a1b9a" stroke-width="1" fill="none" opacity="0.21"/><polygon points="353.3,296.0 353.3,330.0 323.9,347.0 294.4,330.0 294.4,296.0 323.9,279.0" stroke="#6a1b9a" stroke-width="1" fill="none" opacity="0.21"/><polygon points="412.2,296.0 412.2,330.0 382.8,347.0 353.3,330.0 353.3,296.0 382.8,279.0" stroke="#6a1b9a" stroke-width="1" fill="none" opacity="0.21"/><polygon points="471.1,296.0 471.1,330.0 441.7,347.0 412.2,330.0 412.2,296.0 441.7,279.0" stroke="#6a1b9a" stroke-width="1" fill="none" opacity="0.21"/><polygon points="530.0,296.0 530.0,330.0 500.6,347.0 471.1,330.0 471.1,296.0 500.6,279.0" stroke="#6a1b9a" stroke-width="1" fill="none" opacity="0.21"/><polygon points="-29.4,347.0 -29.4,381.0 -58.9,398.0 -88.3,381.0 -88.3,347.0 -58.9,330.0" stroke="#6a1b9a" stroke-width="1" fill="none" opacity="0.21"/><polygon points="29.4,347.0 29.4,381.0 0.0,398.0 -29.4,381.0 -29.4,347.0 -0.0,330.0" stroke="#6a1b9a" stroke-width="1" fill="none" opacity="0.21"/><polygon points="88.3,347.0 88.3,381.0 58.9,398.0 29.4,381.0 29.4,347.0 58.9,330.0" stroke="#6a1b9a" stroke-width="1" fill="none" opacity="0.21"/><polygon points="147.2,347.0 147.2,381.0 117.8,398.0 88.3,381.0 88.3,347.0 117.8,330.0" stroke="#6a1b9a" stroke-width="1" fill="none" opacity="0.21"/><polygon points="206.1,347.0 206.1,381.0 176.7,398.0 147.2,381.0 147.2,347.0 176.7,330.0" stroke="#6a1b9a" stroke-width="1" fill="none" opacity="0.21"/><polygon points="265.0,347.0 265.0,381.0 235.6,398.0 206.1,381.0 206.1,347.0 235.6,330.0" stroke="#6a1b9a" stroke-width="1" fill="none" opacity="0.21"/><polygon points="323.9,347.0 323.9,381.0 294.4,398.0 265.0,381.0 265.0,347.0 294.4,330.0" stroke="#6a1b9a" stroke-width="1" fill="none" opacity="0.21"/><polygon points="382.8,347.0 382.8,381.0 353.3,398.0 323.9,381.0 323.9,347.0 353.3,330.0" stroke="#6a1b9a" stroke-width="1" fill="none" opacity="0.21"/><polygon points="441.7,347.0 441.7,381.0 412.2,398.0 382.8,381.0 382.8,347.0 412.2,330.0" stroke="#6a1b9a" stroke-width="1" fill="none" opacity="0.21"/><polygon points="500.6,347.0 500.6,381.0 471.1,398.0 441.7,381.0 441.7,347.0 471.1,330.0" stroke="#6a1b9a" stroke-width="1" fill="none" opacity="0.21"/><polygon points="0.0,398.0 0.0,432.0 -29.4,449.0 -58.9,432.0 -58.9,398.0 -29.4,381.0" stroke="#6a1b9a" stroke-width="1" fill="none" opacity="0.21"/><polygon points="58.9,398.0 58.9,432.0 29.4,449.0 -0.0,432.0 0.0,398.0 29.4,381.0" stroke="#6a1b9a" stroke-width="1" fill="none" opacity="0.21"/><polygon points="117.8,398.0 117.8,432.0 88.3,449.0 58.9,432.0 58.9,398.0 88.3,381.0" stroke="#6a1b9a" stroke-width="1" fill="none" opacity="0.21"/><polygon points="176.7,398.0 176.7,432.0 147.2,449.0 117.8,432.0 117.8,398.0 147.2,381.0" stroke="#6a1b9a" stroke-width="1" fill="none" opacity="0.21"/><polygon points="235.6,398.0 235.6,432.0 206.1,449.0 176.7,432.0 176.7,398.0 206.1,381.0" stroke="#6a1b9a" stroke-width="1" fill="none" opacity="0.21"/><polygon points="294.4,398.0 294.4,432.0 265.0,449.0 235.6,432.0 235.6,398.0 265.0,381.0" stroke="#6a1b9a" stroke-width="1" fill="none" opacity="0.21"/><polygon points="353.3,398.0 353.3,432.0 323.9,449.0 294.4,432.0 294.4,398.0 323.9,381.0" stroke="#6a1b9a" stroke-width="1" fill="none" opacity="0.21"/><polygon points="412.2,398.0 412.2,432.0 382.8,449.0 353.3,432.0 353.3,398.0 382.8,381.0" stroke="#6a1b9a" stroke-width="1" fill="none" opacity="0.21"/><polygon points="471.1,398.0 471.1,432.0 441.7,449.0 412.2,432.0 412.2,398.0 441.7,381.0" stroke="#6a1b9a" stroke-width="1" fill="none" opacity="0.21"/><polygon points="530.0,398.0 530.0,432.0 500.6,449.0 471.1,432.0 471.1,398.0 500.6,381.0" stroke="#6a1b9a" stroke-width="1" fill="none" opacity="0.21"/><polygon points="-29.4,449.0 -29.4,483.0 -58.9,500.0 -88.3,483.0 -88.3,449.0 -58.9,432.0" stroke="#6a1b9a" stroke-width="1" fill="none" opacity="0.21"/><polygon points="29.4,449.0 29.4,483.0 0.0,500.0 -29.4,483.0 -29.4,449.0 -0.0,432.0" stroke="#6a1b9a" stroke-width="1" fill="none" opacity="0.21"/><polygon points="88.3,449.0 88.3,483.0 58.9,500.0 29.4,483.0 29.4,449.0 58.9,432.0" stroke="#6a1b9a" stroke-width="1" fill="none" opacity="0.21"/><polygon points="147.2,449.0 147.2,483.0 117.8,500.0 88.3,483.0 88.3,449.0 117.8,432.0" stroke="#6a1b9a" stroke-width="1" fill="none" opacity="0.21"/><polygon points="206.1,449.0 206.1,483.0 176.7,500.0 147.2,483.0 147.2,449.0 176.7,432.0" stroke="#6a1b9a" stroke-width="1" fill="none" opacity="0.21"/><polygon points="265.0,449.0 265.0,483.0 235.6,500.0 206.1,483.0 206.1,449.0 235.6,432.0" stroke="#6a1b9a" stroke-width="1" fill="none" opacity="0.21"/><polygon points="323.9,449.0 323.9,483.0 294.4,500.0 265.0,483.0 265.0,449.0 294.4,432.0" stroke="#6a1b9a" stroke-width="1" fill="none" opacity="0.21"/><polygon points="382.8,449.0 382.8,483.0 353.3,500.0 323.9,483.0 323.9,449.0 353.3,432.0" stroke="#6a1b9a" stroke-width="1" fill="none" opacity="0.21"/><polygon points="441.7,449.0 441.7,483.0 412.2,500.0 382.8,483.0 382.8,449.0 412.2,432.0" stroke="#6a1b9a" stroke-width="1" fill="none" opacity="0.21"/><polygon points="500.6,449.0 500.6,483.0 471.1,500.0 441.7,483.0 441.7,449.0 471.1,432.0" stroke="#6a1b9a" stroke-width="1" fill="none" opacity="0.21"/><polygon points="0.0,500.0 0.0,534.0 -29.4,551.0 -58.9,534.0 -58.9,500.0 -29.4,483.0" stroke="#6a1b9a" stroke-width="1" fill="none" opacity="0.21"/><polygon points="58.9,500.0 58.9,534.0 29.4,551.0 -0.0,534.0 0.0,500.0 29.4,483.0" stroke="#6a1b9a" stroke-width="1" fill="none" opacity="0.21"/><polygon points="117.8,500.0 117.8,534.0 88.3,551.0 58.9,534.0 58.9,500.0 88.3,483.0" stroke="#6a1b9a" stroke-width="1" fill="none" opacity="0.21"/><polygon points="176.7,500.0 176.7,534.0 147.2,551.0 117.8,534.0 117.8,500.0 147.2,483.0" stroke="#6a1b9a" stroke-width="1" fill="none" opacity="0.21"/><polygon points="235.6,500.0 235.6,534.0 206.1,551.0 176.7,534.0 176.7,500.0 206.1,483.0" stroke="#6a1b9a" stroke-width="1" fill="none" opacity="0.21"/><polygon points="294.4,500.0 294.4,534.0 265.0,551.0 235.6,534.0 235.6,500.0 265.0,483.0" stroke="#6a1b9a" stroke-width="1" fill="none" opacity="0.21"/><polygon points="353.3,500.0 353.3,534.0 323.9,551.0 294.4,534.0 294.4,500.0 323.9,483.0" stroke="#6a1b9a" stroke-width="1" fill="none" opacity="0.21"/><polygon points="412.2,500.0 412.2,534.0 382.8,551.0 353.3,534.0 353.3,500.0 382.8,483.0" stroke="#6a1b9a" stroke-width="1" fill="none" opacity="0.21"/><polygon points="471.1,500.0 471.1,534.0 441.7,551.0 412.2,534.0 412.2,500.0 441.7,483.0" stroke="#6a1b9a" stroke-width="1" fill="none" opacity="0.21"/><polygon points="530.0,500.0 530.0,534.0 500.6,551.0 471.1,534.0 471.1,500.0 500.6,483.0" stroke="#6a1b9a" stroke-width="1" fill="none" opacity="0.21"/><polygon points="-29.4,551.0 -29.4,585.0 -58.9,602.0 -88.3,585.0 -88.3,551.0 -58.9,534.0" stroke="#6a1b9a" stroke-width="1" fill="none" opacity="0.21"/><polygon points="29.4,551.0 29.4,585.0 0.0,602.0 -29.4,585.0 -29.4,551.0 -0.0,534.0" stroke="#6a1b9a" stroke-width="1" fill="none" opacity="0.21"/><polygon points="88.3,551.0 88.3,585.0 58.9,602.0 29.4,585.0 29.4,551.0 58.9,534.0" stroke="#6a1b9a" stroke-width="1" fill="none" opacity="0.21"/><polygon points="147.2,551.0 147.2,585.0 117.8,602.0 88.3,585.0 88.3,551.0 117.8,534.0" stroke="#6a1b9a" stroke-width="1" fill="none" opacity="0.21"/><polygon points="206.1,551.0 206.1,585.0 176.7,602.0 147.2,585.0 147.2,551.0 176.7,534.0" stroke="#6a1b9a" stroke-width="1" fill="none" opacity="0.21"/><polygon points="265.0,551.0 265.0,585.0 235.6,602.0 206.1,585.0 206.1,551.0 235.6,534.0" stroke="#6a1b9a" stroke-width="1" fill="none" opacity="0.21"/><polygon points="323.9,551.0 323.9,585.0 294.4,602.0 265.0,585.0 265.0,551.0 294.4,534.0" stroke="#6a1b9a" stroke-width="1" fill="none" opacity="0.21"/><polygon points="382.8,551.0 382.8,585.0 353.3,602.0 323.9,585.0 323.9,551.0 353.3,534.0" stroke="#6a1b9a" stroke-width="1" fill="none" opacity="0.21"/><polygon points="441.7,551.0 441.7,585.0 412.2,602.0 382.8,585.0 382.8,551.0 412.2,534.0" stroke="#6a1b9a" stroke-width="1" fill="none" opacity="0.21"/><polygon points="500.6,551.0 500.6,585.0 471.1,602.0 441.7,585.0 441.7,551.0 471.1,534.0" stroke="#6a1b9a" stroke-width="1" fill="none" opacity="0.21"/><polygon points="0.0,602.0 0.0,636.0 -29.4,653.0 -58.9,636.0 -58.9,602.0 -29.4,585.0" stroke="#6a1b9a" stroke-width="1" fill="none" opacity="0.21"/><polygon points="58.9,602.0 58.9,636.0 29.4,653.0 -0.0,636.0 0.0,602.0 29.4,585.0" stroke="#6a1b9a" stroke-width="1" fill="none" opacity="0.21"/><polygon points="117.8,602.0 117.8,636.0 88.3,653.0 58.9,636.0 58.9,602.0 88.3,585.0" stroke="#6a1b9a" stroke-width="1" fill="none" opacity="0.21"/><polygon points="176.7,602.0 176.7,636.0 147.2,653.0 117.8,636.0 117.8,602.0 147.2,585.0" stroke="#6a1b9a" stroke-width="1" fill="none" opacity="0.21"/><polygon points="235.6,602.0 235.6,636.0 206.1,653.0 176.7,636.0 176.7,602.0 206.1,585.0" stroke="#6a1b9a" stroke-width="1" fill="none" opacity="0.21"/><polygon points="294.4,602.0 294.4,636.0 265.0,653.0 235.6,636.0 235.6,602.0 265.0,585.0" stroke="#6a1b9a" stroke-width="1" fill="none" opacity="0.21"/><polygon points="353.3,602.0 353.3,636.0 323.9,653.0 294.4,636.0 294.4,602.0 323.9,585.0" stroke="#6a1b9a" stroke-width="1" fill="none" opacity="0.21"/><polygon points="412.2,602.0 412.2,636.0 382.8,653.0 353.3,636.0 353.3,602.0 382.8,585.0" stroke="#6a1b9a" stroke-width="1" fill="none" opacity="0.21"/><polygon points="471.1,602.0 471.1,636.0 441.7,653.0 412.2,636.0 412.2,602.0 441.7,585.0" stroke="#6a1b9a" stroke-width="1" fill="none" opacity="0.21"/><polygon points="530.0,602.0 530.0,636.0 500.6,653.0 471.1,636.0 471.1,602.0 500.6,585.0" stroke="#6a1b9a" stroke-width="1" fill="none" opacity="0.21"/><polygon points="-29.4,653.0 -29.4,687.0 -58.9,704.0 -88.3,687.0 -88.3,653.0 -58.9,636.0" stroke="#6a1b9a" stroke-width="1" fill="none" opacity="0.21"/><polygon points="29.4,653.0 29.4,687.0 0.0,704.0 -29.4,687.0 -29.4,653.0 -0.0,636.0" stroke="#6a1b9a" stroke-width="1" fill="none" opacity="0.21"/><polygon points="88.3,653.0 88.3,687.0 58.9,704.0 29.4,687.0 29.4,653.0 58.9,636.0" stroke="#6a1b9a" stroke-width="1" fill="none" opacity="0.21"/><polygon points="147.2,653.0 147.2,687.0 117.8,704.0 88.3,687.0 88.3,653.0 117.8,636.0" stroke="#6a1b9a" stroke-width="1" fill="none" opacity="0.21"/><polygon points="206.1,653.0 206.1,687.0 176.7,704.0 147.2,687.0 147.2,653.0 176.7,636.0" stroke="#6a1b9a" stroke-width="1" fill="none" opacity="0.21"/><polygon points="265.0,653.0 265.0,687.0 235.6,704.0 206.1,687.0 206.1,653.0 235.6,636.0" stroke="#6a1b9a" stroke-width="1" fill="none" opacity="0.21"/><polygon points="323.9,653.0 323.9,687.0 294.4,704.0 265.0,687.0 265.0,653.0 294.4,636.0" stroke="#6a1b9a" stroke-width="1" fill="none" opacity="0.21"/><polygon points="382.8,653.0 382.8,687.0 353.3,704.0 323.9,687.0 323.9,653.0 353.3,636.0" stroke="#6a1b9a" stroke-width="1" fill="none" opacity="0.21"/><polygon points="441.7,653.0 441.7,687.0 412.2,704.0 382.8,687.0 382.8,653.0 412.2,636.0" stroke="#6a1b9a" stroke-width="1" fill="none" opacity="0.21"/><polygon points="500.6,653.0 500.6,687.0 471.1,704.0 441.7,687.0 441.7,653.0 471.1,636.0" stroke="#6a1b9a" stroke-width="1" fill="none" opacity="0.21"/><polygon points="0.0,704.0 0.0,738.0 -29.4,755.0 -58.9,738.0 -58.9,704.0 -29.4,687.0" stroke="#6a1b9a" stroke-width="1" fill="none" opacity="0.21"/><polygon points="58.9,704.0 58.9,738.0 29.4,755.0 -0.0,738.0 0.0,704.0 29.4,687.0" stroke="#6a1b9a" stroke-width="1" fill="none" opacity="0.21"/><polygon points="117.8,704.0 117.8,738.0 88.3,755.0 58.9,738.0 58.9,704.0 88.3,687.0" stroke="#6a1b9a" stroke-width="1" fill="none" opacity="0.21"/><polygon points="176.7,704.0 176.7,738.0 147.2,755.0 117.8,738.0 117.8,704.0 147.2,687.0" stroke="#6a1b9a" stroke-width="1" fill="none" opacity="0.21"/><polygon points="235.6,704.0 235.6,738.0 206.1,755.0 176.7,738.0 176.7,704.0 206.1,687.0" stroke="#6a1b9a" stroke-width="1" fill="none" opacity="0.21"/><polygon points="294.4,704.0 294.4,738.0 265.0,755.0 235.6,738.0 235.6,704.0 265.0,687.0" stroke="#6a1b9a" stroke-width="1" fill="none" opacity="0.21"/><polygon points="353.3,704.0 353.3,738.0 323.9,755.0 294.4,738.0 294.4,704.0 323.9,687.0" stroke="#6a1b9a" stroke-width="1" fill="none" opacity="0.21"/><polygon points="412.2,704.0 412.2,738.0 382.8,755.0 353.3,738.0 353.3,704.0 382.8,687.0" stroke="#6a1b9a" stroke-width="1" fill="none" opacity="0.21"/><polygon points="471.1,704.0 471.1,738.0 441.7,755.0 412.2,738.0 412.2,704.0 441.7,687.0" stroke="#6a1b9a" stroke-width="1" fill="none" opacity="0.21"/><polygon points="530.0,704.0 530.0,738.0 500.6,755.0 471.1,738.0 471.1,704.0 500.6,687.0" stroke="#6a1b9a" stroke-width="1" fill="none" opacity="0.21"/><polygon points="-29.4,755.0 -29.4,789.0 -58.9,806.0 -88.3,789.0 -88.3,755.0 -58.9,738.0" stroke="#6a1b9a" stroke-width="1" fill="none" opacity="0.21"/><polygon points="29.4,755.0 29.4,789.0 0.0,806.0 -29.4,789.0 -29.4,755.0 -0.0,738.0" stroke="#6a1b9a" stroke-width="1" fill="none" opacity="0.21"/><polygon points="88.3,755.0 88.3,789.0 58.9,806.0 29.4,789.0 29.4,755.0 58.9,738.0" stroke="#6a1b9a" stroke-width="1" fill="none" opacity="0.21"/><polygon points="147.2,755.0 147.2,789.0 117.8,806.0 88.3,789.0 88.3,755.0 117.8,738.0" stroke="#6a1b9a" stroke-width="1" fill="none" opacity="0.21"/><polygon points="206.1,755.0 206.1,789.0 176.7,806.0 147.2,789.0 147.2,755.0 176.7,738.0" stroke="#6a1b9a" stroke-width="1" fill="none" opacity="0.21"/><polygon points="265.0,755.0 265.0,789.0 235.6,806.0 206.1,789.0 206.1,755.0 235.6,738.0" stroke="#6a1b9a" stroke-width="1" fill="none" opacity="0.21"/><polygon points="323.9,755.0 323.9,789.0 294.4,806.0 265.0,789.0 265.0,755.0 294.4,738.0" stroke="#6a1b9a" stroke-width="1" fill="none" opacity="0.21"/><polygon points="382.8,755.0 382.8,789.0 353.3,806.0 323.9,789.0 323.9,755.0 353.3,738.0" stroke="#6a1b9a" stroke-width="1" fill="none" opacity="0.21"/><polygon points="441.7,755.0 441.7,789.0 412.2,806.0 382.8,789.0 382.8,755.0 412.2,738.0" stroke="#6a1b9a" stroke-width="1" fill="none" opacity="0.21"/><polygon points="500.6,755.0 500.6,789.0 471.1,806.0 441.7,789.0 441.7,755.0 471.1,738.0" stroke="#6a1b9a" stroke-width="1" fill="none" opacity="0.21"/><polygon points="0.0,806.0 0.0,840.0 -29.4,857.0 -58.9,840.0 -58.9,806.0 -29.4,789.0" stroke="#6a1b9a" stroke-width="1" fill="none" opacity="0.21"/><polygon points="58.9,806.0 58.9,840.0 29.4,857.0 -0.0,840.0 0.0,806.0 29.4,789.0" stroke="#6a1b9a" stroke-width="1" fill="none" opacity="0.21"/><polygon points="117.8,806.0 117.8,840.0 88.3,857.0 58.9,840.0 58.9,806.0 88.3,789.0" stroke="#6a1b9a" stroke-width="1" fill="none" opacity="0.21"/><polygon points="176.7,806.0 176.7,840.0 147.2,857.0 117.8,840.0 117.8,806.0 147.2,789.0" stroke="#6a1b9a" stroke-width="1" fill="none" opacity="0.21"/><polygon points="235.6,806.0 235.6,840.0 206.1,857.0 176.7,840.0 176.7,806.0 206.1,789.0" stroke="#6a1b9a" stroke-width="1" fill="none" opacity="0.21"/><polygon points="294.4,806.0 294.4,840.0 265.0,857.0 235.6,840.0 235.6,806.0 265.0,789.0" stroke="#6a1b9a" stroke-width="1" fill="none" opacity="0.21"/><polygon points="353.3,806.0 353.3,840.0 323.9,857.0 294.4,840.0 294.4,806.0 323.9,789.0" stroke="#6a1b9a" stroke-width="1" fill="none" opacity="0.21"/><polygon points="412.2,806.0 412.2,840.0 382.8,857.0 353.3,840.0 353.3,806.0 382.8,789.0" stroke="#6a1b9a" stroke-width="1" fill="none" opacity="0.21"/><polygon points="471.1,806.0 471.1,840.0 441.7,857.0 412.2,840.0 412.2,806.0 441.7,789.0" stroke="#6a1b9a" stroke-width="1" fill="none" opacity="0.21"/><polygon points="530.0,806.0 530.0,840.0 500.6,857.0 471.1,840.0 471.1,806.0 500.6,789.0" stroke="#6a1b9a" stroke-width="1" fill="none" opacity="0.21"/><polygon points="-29.4,857.0 -29.4,891.0 -58.9,908.0 -88.3,891.0 -88.3,857.0 -58.9,840.0" stroke="#6a1b9a" stroke-width="1" fill="none" opacity="0.21"/><polygon points="29.4,857.0 29.4,891.0 0.0,908.0 -29.4,891.0 -29.4,857.0 -0.0,840.0" stroke="#6a1b9a" stroke-width="1" fill="none" opacity="0.21"/><polygon points="88.3,857.0 88.3,891.0 58.9,908.0 29.4,891.0 29.4,857.0 58.9,840.0" stroke="#6a1b9a" stroke-width="1" fill="none" opacity="0.21"/><polygon points="147.2,857.0 147.2,891.0 117.8,908.0 88.3,891.0 88.3,857.0 117.8,840.0" stroke="#6a1b9a" stroke-width="1" fill="none" opacity="0.21"/><polygon points="206.1,857.0 206.1,891.0 176.7,908.0 147.2,891.0 147.2,857.0 176.7,840.0" stroke="#6a1b9a" stroke-width="1" fill="none" opacity="0.21"/><polygon points="265.0,857.0 265.0,891.0 235.6,908.0 206.1,891.0 206.1,857.0 235.6,840.0" stroke="#6a1b9a" stroke-width="1" fill="none" opacity="0.21"/><polygon points="323.9,857.0 323.9,891.0 294.4,908.0 265.0,891.0 265.0,857.0 294.4,840.0" stroke="#6a1b9a" stroke-width="1" fill="none" opacity="0.21"/><polygon points="382.8,857.0 382.8,891.0 353.3,908.0 323.9,891.0 323.9,857.0 353.3,840.0" stroke="#6a1b9a" stroke-width="1" fill="none" opacity="0.21"/><polygon points="441.7,857.0 441.7,891.0 412.2,908.0 382.8,891.0 382.8,857.0 412.2,840.0" stroke="#6a1b9a" stroke-width="1" fill="none" opacity="0.21"/><polygon points="500.6,857.0 500.6,891.0 471.1,908.0 441.7,891.0 441.7,857.0 471.1,840.0" stroke="#6a1b9a" stroke-width="1" fill="none" opacity="0.21"/><polygon points="0.0,908.0 0.0,942.0 -29.4,959.0 -58.9,942.0 -58.9,908.0 -29.4,891.0" stroke="#6a1b9a" stroke-width="1" fill="none" opacity="0.21"/><polygon points="58.9,908.0 58.9,942.0 29.4,959.0 -0.0,942.0 0.0,908.0 29.4,891.0" stroke="#6a1b9a" stroke-width="1" fill="none" opacity="0.21"/><polygon points="117.8,908.0 117.8,942.0 88.3,959.0 58.9,942.0 58.9,908.0 88.3,891.0" stroke="#6a1b9a" stroke-width="1" fill="none" opacity="0.21"/><polygon points="176.7,908.0 176.7,942.0 147.2,959.0 117.8,942.0 117.8,908.0 147.2,891.0" stroke="#6a1b9a" stroke-width="1" fill="none" opacity="0.21"/><polygon points="235.6,908.0 235.6,942.0 206.1,959.0 176.7,942.0 176.7,908.0 206.1,891.0" stroke="#6a1b9a" stroke-width="1" fill="none" opacity="0.21"/><polygon points="294.4,908.0 294.4,942.0 265.0,959.0 235.6,942.0 235.6,908.0 265.0,891.0" stroke="#6a1b9a" stroke-width="1" fill="none" opacity="0.21"/><polygon points="353.3,908.0 353.3,942.0 323.9,959.0 294.4,942.0 294.4,908.0 323.9,891.0" stroke="#6a1b9a" stroke-width="1" fill="none" opacity="0.21"/><polygon points="412.2,908.0 412.2,942.0 382.8,959.0 353.3,942.0 353.3,908.0 382.8,891.0" stroke="#6a1b9a" stroke-width="1" fill="none" opacity="0.21"/><polygon points="471.1,908.0 471.1,942.0 441.7,959.0 412.2,942.0 412.2,908.0 441.7,891.0" stroke="#6a1b9a" stroke-width="1" fill="none" opacity="0.21"/><polygon points="530.0,908.0 530.0,942.0 500.6,959.0 471.1,942.0 471.1,908.0 500.6,891.0" stroke="#6a1b9a" stroke-width="1" fill="none" opacity="0.21"/></g>
<rect x="0" y="0" width="680" height="148" fill="rgba(0,0,0,0.52)"/>
<line x1="0" y1="148" x2="680" y2="148" stroke="#ce93d8" stroke-width="1.2"/>
<rect x="48" y="100" width="202" height="1.5" fill="#ce93d8" opacity="0.5"/><rect x="430" y="100" width="202" height="1.5" fill="#ce93d8" opacity="0.5"/>
<text x="343" y="135" text-anchor="middle" font-family="'Arial Black','Impact',sans-serif" font-weight="900" font-size="54" fill="rgba(0,0,0,0.45)" letter-spacing="4">HERO'S QUEST</text>
<text x="340" y="132" text-anchor="middle" font-family="'Arial Black','Impact',sans-serif" font-weight="900" font-size="54" fill="#ce93d8" letter-spacing="4">HERO'S QUEST</text>
<text x="340" y="660" text-anchor="middle" dominant-baseline="central" font-size="300">⚔️</text>
<rect x="0" y="988" width="680" height="32" fill="rgba(0,0,0,0.52)"/>
<line x1="0" y1="988" x2="680" y2="988" stroke="#ce93d8" stroke-width="0.8" opacity="0.3"/>
</svg>