<svg width="400" height="600" viewBox="0 0 680 1020" xmlns="http://www.w3.org/2000/svg">
<defs><clipPath id="cvclip"><rect width="680" height="1020"/></clipPath></defs>
<rect width="680" height="1020" fill="#080c14"/>
<rect x="0" y="0" width="680" height="2" fill="#00e5ff" opacity="0.12"/>
<rect x="0" y="4" width="680" height="2" fill="#00e5ff" opacity="0.12"/>
<rect x="0" y="8" width="680" height="2" fill="#00e5ff" opacity="0.12"/>
<rect x="0" y="12" width="680" height="2" fill="#00e5ff" opacity="0.12"/>
<rect x="0" y="16" width="680" height="2" fill="#00e5ff" opacity="0.12"/>
<rect x="0" y="20" width="680" height="2" fill="#00e5ff" opacity="0.12"/>
<rect x="0" y="24" width="680" height="2" fill="#00e5ff" opacity="0.12"/>
<rect x="0" y="28" width="680" height="2" fill="#00e5ff" opacity="0.12"/>
<rect x="0" y="32" width="680" height="2" fill="#00e5ff" opacity="0.12"/>
<rect x="0" y="36" width="680" height="2" fill="#00e5ff" opacity="0.12"/>
<rect x="0" y="40" width="680" height="2" fill="#00e5ff" opacity="0.12"/>
<rect x="0" y="44" width="680" height="2" fill="#00e5ff" opacity="0.12"/>
<rect x="0" y="48" width="680" height="2" fill="#00e5ff" opacity="0.12"/>
<rect x="0" y="52" width="680" height="2" fill="#00e5ff" opacity="0.12"/>
<rect x="0" y="56" width="680" height="2" fill="#00e5ff" opacity="0.12"/>
<rect x="0" y="60" width="680" height="2" fill="#00e5ff" opacity="0.12"/>
<rect x="0" y="64" width="680" height="2" fill="#00e5ff" opacity="0.12"/>
<rect x="0" y="68" width="680" height="2" fill="#00e5ff" opacity="0.12"/>
<rect x="0" y="72" width="680" height="2" fill="#00e5ff" opacity="0.12"/>
<rect x="0" y="76" width="680" height="2" fill="#00e5ff" opacity="0.12"/>
<rect x="0" y="80" width="680" height="2" fill="#00e5ff" opacity="0.12"/>
<rect x="0" y="84" width="680" height="2" fill="#00e5ff" opacity="0.12"/>
<rect x="0" y="88" width="680" height="2" fill="#00e5ff" opacity="0.12"/>
<rect x="0" y="92" width="680" height="2" fill="#00e5ff" opacity="0.12"/>
<rect x="0" y="96" width="680" height="2" fill="#00e5ff" opacity="0.12"/>
<rect x="0" y="100" width="680" height="2" fill="#00e5ff" opacity="0.12"/>
<rect x="0" y="104" width="680" height="2" fill="#00e5ff" opacity="0.12"/>
<rect x="0" y="108" width="680" height="2" fill="#00e5ff" opacity="0.12"/>
<rect x="0" y="112" width="680" height="2" fill="#00e5ff" opacity="0.12"/>
<rect x="0" y="116" width="680" height="2" fill="#00e5ff" opacity="0.12"/>
<rect x="0" y="120" width="680" height="2" fill="#00e5ff" opacity="0.12"/>
<rect x="0" y="124" width="680" height="2" fill="#00e5ff" opacity="0.12"/>
<rect x="0" y="128" width="680" height="2" fill="#00e5ff" opacity="0.12"/>
<rect x="0" y="132" width="680" height="2" fill="#00e5ff" opacity="0.12"/>
<rect x="0" y="136" width="680" height="2" fill="#00e5ff" opacity="0.12"/>
<rect x="0" y="140" width="680" height="2" fill="#00e5ff" opacity="0.12"/>
<rect x="0" y="144" width="680" height="2" fill="#00e5ff" opacity="0.12"/>
<rect x="0" y="148" width="680" height="2" fill="#00e5ff" opacity="0.12"/>
<rect x="0" y="152" width="680" height="2" fill="#00e5ff" opacity="0.12"/>
<rect x="0" y="156" width="680" height="2" fill="#00e5ff" opacity="0.12"/>
<rect x="0" y="160" width="680" height="2" fill="#00e5ff" opacity="0.12"/>
<rect x="0" y="164" width="680" height="2" fill="#00e5ff" opacity="0.12"/>
<rect x="0" y="168" width="680" height="2" fill="#00e5ff" opacity="0.12"/>
<rect x="0" y="172" width="680" height="2" fill="#00e5ff" opacity="0.12"/>
<rect x="0" y="176" width="680" height="2" fill="#00e5ff" opacity="0.12"/>
<rect x="0" y="180" width="680" height="2" fill="#00e5ff" opacity="0.12"/>
<rect x="0" y="184" width="680" height="2" fill="#00e5ff" opacity="0.12"/>
<rect x="0" y="188" width="680" height="2" fill="#00e5ff" opacity="0.12"/>
<rect x="0" y="192" width="680" height="2" fill="#00e5ff" opacity="0.12"/>
<rect x="0" y="196" width="680" height="2" fill="#00e5ff" opacity="0.12"/>
<rect x="0" y="200" width="680" height="2" fill="#00e5ff" opacity="0.12"/>
<rect x="0" y="204" width="680" height="2" fill="#00e5ff" opacity="0.12"/>
<rect x="0" y="208" width="680" height="2" fill="#00e5ff" opacity="0.12"/>
<rect x="0" y="212" width="680" height="2" fill="#00e5ff" opacity="0.12"/>
<rect x="0" y="216" width="680" height="2" fill="#00e5ff" opacity="0.12"/>
<rect x="0" y="220" width="680" height="2" fill="#00e5ff" opacity="0.12"/>
<rect x="0" y="224" width="680" height="2" fill="#00e5ff" opacity="0.12"/>
<rect x="0" y="228" width="680" height="2" fill="#00e5ff" opacity="0.12"/>
<rect x="0" y="232" width="680" height="2" fill="#00e5ff" opacity="0.12"/>
<rect x="0" y="236" width="680" height="2" fill="#00e5ff" opacity="0.12"/>
<rect x="0" y="240" width="680" height="2" fill="#00e5ff" opacity="0.12"/>
<rect x="0" y="244" width="680" height="2" fill="#00e5ff" opacity="0.12"/>
<rect x="0" y="248" width="680" height="2" fill="#00e5ff" opacity="0.12"/>
<rect x="0" y="252" width="680" height="2" fill="#00e5ff" opacity="0.12"/>
<rect x="0" y="256" width="680" height="2" fill="#00e5ff" opacity="0.12"/>
<rect x="0" y="260" width="680" height="2" fill="#00e5ff" opacity="0.12"/>
<rect x="0" y="264" width="680" height="2" fill="#00e5ff" opacity="0.12"/>
<rect x="0" y="268" width="680" height="2" fill="#00e5ff" opacity="0.12"/>
<rect x="0" y="272" width="680" height="2" fill="#00e5ff" opacity="0.12"/>
<rect x="0" y="276" width="680" height="2" fill="#00e5ff" opacity="0.12"/>
<rect x="0" y="280" width="680" height="2" fill="#00e5ff" opacity="0.12"/>
<rect x="0" y="284" width="680" height="2" fill="#00e5ff" opacity="0.12"/>
<rect x="0" y="288" width="680" height="2" fill="#00e5ff" opacity="0.12"/>
<rect x="0" y="292" width="680" height="2" fill="#00e5ff" opacity="0.12"/>
<rect x="0" y="296" width="680" height="2" fill="#00e5ff" opacity="0.12"/>
<rect x="0" y="300" width="680" height="2" fill="#00e5ff" opacity="0.12"/>
<rect x="0" y="304" width="680" height="2" fill="#00e5ff" opacity="0.12"/>
<rect x="0" y="308" width="680" height="2" fill="#00e5ff" opacity="0.12"/>
<rect x="0" y="312" width="680" height="2" fill="#00e5ff" opacity="0.12"/>
<rect x="0" y="316" width="680" height="2" fill="#00e5ff" opacity="0.12"/>
<rect x="0" y="320" width="680" height="2" fill="#00e5ff" opacity="0.12"/>
<rect x="0" y="324" width="680" height="2" fill="#00e5ff" opacity="0.12"/>
<rect x="0" y="328" width="680" height="2" fill="#00e5ff" opacity="0.12"/>
<rect x="0" y="332" width="680" height="2" fill="#00e5ff" opacity="0.12"/>
<rect x="0" y="336" width="680" height="2" fill="#00e5ff" opacity="0.12"/>
<rect x="0" y="340" width="680" height="2" fill="#00e5ff" opacity="0.12"/>
<rect x="0" y="344" width="680" height="2" fill="#00e5ff" opacity="0.12"/>
<rect x="0" y="348" width="680" height="2" fill="#00e5ff" opacity="0.12"/>
<rect x="0" y="352" width="680" height="2" fill="#00e5ff" opacity="0.12"/>
<rect x="0" y="356" width="680" height="2" fill="#00e5ff" opacity="0.12"/>
<rect x="0" y="360" width="680" height="2" fill="#00e5ff" opacity="0.12"/>
<rect x="0" y="364" width="680" height="2" fill="#00e5ff" opacity="0.12"/>
<rect x="0" y="368" width="680" height="2" fill="#00e5ff" opacity="0.12"/>
<rect x="0" y="372" width="680" height="2" fill="#00e5ff" opacity="0.12"/>
<rect x="0" y="376" width="680" height="2" fill="#00e5ff" opacity="0.12"/>
<rect x="0" y="380" width="680" height="2" fill="#00e5ff" opacity="0.12"/>
<rect x="0" y="384" width="680" height="2" fill="#00e5ff" opacity="0.12"/>
<rect x="0" y="388" width="680" height="2" fill="#00e5ff" opacity="0.12"/>
<rect x="0" y="392" width="680" height="2" fill="#00e5ff" opacity="0.12"/>
<rect x="0" y="396" width="680" height="2" fill="#00e5ff" opacity="0.12"/>
<rect x="0" y="400" width="680" height="2" fill="#00e5ff" opacity="0.12"/>
<rect x="0" y="404" width="680" height="2" fill="#00e5ff" opacity="0.12"/>
<rect x="0" y="408" width="680" height="2" fill="#00e5ff" opacity="0.12"/>
<rect x="0" y="412" width="680" height="2" fill="#00e5ff" opacity="0.12"/>
<rect x="0" y="416" width="680" height="2" fill="#00e5ff" opacity="0.12"/>
<rect x="0" y="420" width="680" height="2" fill="#00e5ff" opacity="0.12"/>
<rect x="0" y="424" width="680" height="2" fill="#00e5ff" opacity="0.12"/>
<rect x="0" y="428" width="680" height="2" fill="#00e5ff" opacity="0.12"/>
<rect x="0" y="432" width="680" height="2" fill="#00e5ff" opacity="0.12"/>
<rect x="0" y="436" width="680" height="2" fill="#00e5ff" opacity="0.12"/>
<rect x="0" y="440" width="680" height="2" fill="#00e5ff" opacity="0.12"/>
<rect x="0" y="444" width="680" height="2" fill="#00e5ff" opacity="0.12"/>
<rect x="0" y="448" width="680" height="2" fill="#00e5ff" opacity="0.12"/>
<rect x="0" y="452" width="680" height="2" fill="#00e5ff" opacity="0.12"/>
<rect x="0" y="456" width="680" height="2" fill="#00e5ff" opacity="0.12"/>
<rect x="0" y="460" width="680" height="2" fill="#00e5ff" opacity="0.12"/>
<rect x="0" y="464" width="680" height="2" fill="#00e5ff" opacity="0.12"/>
<rect x="0" y="468" width="680" height="2" fill="#00e5ff" opacity="0.12"/>
<rect x="0" y="472" width="680" height="2" fill="#00e5ff" opacity="0.12"/>
<rect x="0" y="476" width="680" height="2" fill="#00e5ff" opacity="0.12"/>
<rect x="0" y="480" width="680" height="2" fill="#00e5ff" opacity="0.12"/>
<rect x="0" y="484" width="680" height="2" fill="#00e5ff" opacity="0.12"/>
<rect x="0" y="488" width="680" height="2" fill="#00e5ff" opacity="0.12"/>
<rect x="0" y="492" width="680" height="2" fill="#00e5ff" opacity="0.12"/>
<rect x="0" y="496" width="680" height="2" fill="#00e5ff" opacity="0.12"/>
<rect x="0" y="500" width="680" height="2" fill="#00e5ff" opacity="0.12"/>
<rect x="0" y="504" width="680" height="2" fill="#00e5ff" opacity="0.12"/>
<rect x="0" y="508" width="680" height="2" fill="#00e5ff" opacity="0.12"/>
<rect x="0" y="512" width="680" height="2" fill="#00e5ff" opacity="0.12"/>
<rect x="0" y="516" width="680" height="2" fill="#00e5ff" opacity="0.12"/>
<rect x="0" y="520" width="680" height="2" fill="#00e5ff" opacity="0.12"/>
<rect x="0" y="524" width="680" height="2" fill="#00e5ff" opacity="0.12"/>
<rect x="0" y="528" width="680" height="2" fill="#00e5ff" opacity="0.12"/>
<rect x="0" y="532" width="680" height="2" fill="#00e5ff" opacity="0.12"/>
<rect x="0" y="536" width="680" height="2" fill="#00e5ff" opacity="0.12"/>
<rect x="0" y="540" width="680" height="2" fill="#00e5ff" opacity="0.12"/>
<rect x="0" y="544" width="680" height="2" fill="#00e5ff" opacity="0.12"/>
<rect x="0" y="548" width="680" height="2" fill="#00e5ff" opacity="0.12"/>
<rect x="0" y="552" width="680" height="2" fill="#00e5ff" opacity="0.12"/>
<rect x="0" y="556" width="680" height="2" fill="#00e5ff" opacity="0.12"/>
<rect x="0" y="560" width="680" height="2" fill="#00e5ff" opacity="0.12"/>
<rect x="0" y="564" width="680" height="2" fill="#00e5ff" opacity="0.12"/>
<rect x="0" y="568" width="680" height="2" fill="#00e5ff" opacity="0.12"/>
<rect x="0" y="572" width="680" height="2" fill="#00e5ff" opacity="0.12"/>
<rect x="0" y="576" width="680" height="2" fill="#00e5ff" opacity="0.12"/>
<rect x="0" y="580" width="680" height="2" fill="#00e5ff" opacity="0.12"/>
<rect x="0" y="584" width="680" height="2" fill="#00e5ff" opacity="0.12"/>
<rect x="0" y="588" width="680" height="2" fill="#00e5ff" opacity="0.12"/>
<rect x="0" y="592" width="680" height="2" fill="#00e5ff" opacity="0.12"/>
<rect x="0" y="596" width="680" height="2" fill="#00e5ff" opacity="0.12"/>
<rect x="0" y="600" width="680" height="2" fill="#00e5ff" opacity="0.12"/>
<rect x="0" y="604" width="680" height="2" fill="#00e5ff" opacity="0.12"/>
<rect x="0" y="608" width="680" height="2" fill="#00e5ff" opacity="0.12"/>
<rect x="0" y="612" width="680" height="2" fill="#00e5ff" opacity="0.12"/>
<rect x="0" y="616" width="680" height="2" fill="#00e5ff" opacity="0.12"/>
<rect x="0" y="620" width="680" height="2" fill="#00e5ff" opacity="0.12"/>
<rect x="0" y="624" width="680" height="2" fill="#00e5ff" opacity="0.12"/>
<rect x="0" y="628" width="680" height="2" fill="#00e5ff" opacity="0.12"/>
<rect x="0" y="632" width="680" height="2" fill="#00e5ff" opacity="0.12"/>
<rect x="0" y="636" width="680" height="2" fill="#00e5ff" opacity="0.12"/>
<rect x="0" y="640" width="680" height="2" fill="#00e5ff" opacity="0.12"/>
<rect x="0" y="644" width="680" height="2" fill="#00e5ff" opacity="0.12"/>
<rect x="0" y="648" width="680" height="2" fill="#00e5ff" opacity="0.12"/>
<rect x="0" y="652" width="680" height="2" fill="#00e5ff" opacity="0.12"/>
<rect x="0" y="656" width="680" height="2" fill="#00e5ff" opacity="0.12"/>
<rect x="0" y="660" width="680" height="2" fill="#00e5ff" opacity="0.12"/>
<rect x="0" y="664" width="680" height="2" fill="#00e5ff" opacity="0.12"/>
<rect x="0" y="668" width="680" height="2" fill="#00e5ff" opacity="0.12"/>
<rect x="0" y="672" width="680" height="2" fill="#00e5ff" opacity="0.12"/>
<rect x="0" y="676" width="680" height="2" fill="#00e5ff" opacity="0.12"/>
<rect x="0" y="680" width="680" height="2" fill="#00e5ff" opacity="0.12"/>
<rect x="0" y="684" width="680" height="2" fill="#00e5ff" opacity="0.12"/>
<rect x="0" y="688" width="680" height="2" fill="#00e5ff" opacity="0.12"/>
<rect x="0" y="692" width="680" height="2" fill="#00e5ff" opacity="0.12"/>
<rect x="0" y="696" width="680" height="2" fill="#00e5ff" opacity="0.12"/>
<rect x="0" y="700" width="680" height="2" fill="#00e5ff" opacity="0.12"/>
<rect x="0" y="704" width="680" height="2" fill="#00e5ff" opacity="0.12"/>
<rect x="0" y="708" width="680" height="2" fill="#00e5ff" opacity="0.12"/>
<rect x="0" y="712" width="680" height="2" fill="#00e5ff" opacity="0.12"/>
<rect x="0" y="716" width="680" height="2" fill="#00e5ff" opacity="0.12"/>
<rect x="0" y="720" width="680" height="2" fill="#00e5ff" opacity="0.12"/>
<rect x="0" y="724" width="680" height="2" fill="#00e5ff" opacity="0.12"/>
<rect x="0" y="728" width="680" height="2" fill="#00e5ff" opacity="0.12"/>
<rect x="0" y="732" width="680" height="2" fill="#00e5ff" opacity="0.12"/>
<rect x="0" y="736" width="680" height="2" fill="#00e5ff" opacity="0.12"/>
<rect x="0" y="740" width="680" height="2" fill="#00e5ff" opacity="0.12"/>
<rect x="0" y="744" width="680" height="2" fill="#00e5ff" opacity="0.12"/>
<rect x="0" y="748" width="680" height="2" fill="#00e5ff" opacity="0.12"/>
<rect x="0" y="752" width="680" height="2" fill="#00e5ff" opacity="0.12"/>
<rect x="0" y="756" width="680" height="2" fill="#00e5ff" opacity="0.12"/>
<rect x="0" y="760" width="680" height="2" fill="#00e5ff" opacity="0.12"/>
<rect x="0" y="764" width="680" height="2" fill="#00e5ff" opacity="0.12"/>
<rect x="0" y="768" width="680" height="2" fill="#00e5ff" opacity="0.12"/>
<rect x="0" y="772" width="680" height="2" fill="#00e5ff" opacity="0.12"/>
<rect x="0" y="776" width="680" height="2" fill="#00e5ff" opacity="0.12"/>
<rect x="0" y="780" width="680" height="2" fill="#00e5ff" opacity="0.12"/>
<rect x="0" y="784" width="680" height="2" fill="#00e5ff" opacity="0.12"/>
<rect x="0" y="788" width="680" height="2" fill="#00e5ff" opacity="0.12"/>
<rect x="0" y="792" width="680" height="2" fill="#00e5ff" opacity="0.12"/>
<rect x="0" y="796" width="680" height="2" fill="#00e5ff" opacity="0.12"/>
<rect x="0" y="800" width="680" height="2" fill="#00e5ff" opacity="0.12"/>
<rect x="0" y="804" width="680" height="2" fill="#00e5ff" opacity="0.12"/>
<rect x="0" y="808" width="680" height="2" fill="#00e5ff" opacity="0.12"/>
<rect x="0" y="812" width="680" height="2" fill="#00e5ff" opacity="0.12"/>
<rect x="0" y="816" width="680" height="2" fill="#00e5ff" opacity="0.12"/>
<rect x="0" y="820" width="680" height="2" fill="#00e5ff" opacity="0.12"/>
<rect x="0" y="824" width="680" height="2" fill="#00e5ff" opacity="0.12"/>
<rect x="0" y="828" width="680" height="2" fill="#00e5ff" opacity="0.12"/>
<rect x="0" y="832" width="680" height="2" fill="#00e5ff" opacity="0.12"/>
<rect x="0" y="836" width="680" height="2" fill="#00e5ff" opacity="0.12"/>
<rect x="0" y="840" width="680" height="2" fill="#00e5ff" opacity="0.12"/>
<rect x="0" y="844" width="680" height="2" fill="#00e5ff" opacity="0.12"/>
<rect x="0" y="848" width="680" height="2" fill="#00e5ff" opacity="0.12"/>
<rect x="0" y="852" width="680" height="2" fill="#00e5ff" opacity="0.12"/>
<rect x="0" y="856" width="680" height="2" fill="#00e5ff" opacity="0.12"/>
<rect x="0" y="860" width="680" height="2" fill="#00e5ff" opacity="0.12"/>
<rect x="0" y="864" width="680" height="2" fill="#00e5ff" opacity="0.12"/>
<rect x="0" y="868" width="680" height="2" fill="#00e5ff" opacity="0.12"/>
<rect x="0" y="872" width="680" height="2" fill="#00e5ff" opacity="0.12"/>
<rect x="0" y="876" width="680" height="2" fill="#00e5ff" opacity="0.12"/>
<rect x="0" y="880" width="680" height="2" fill="#00e5ff" opacity="0.12"/>
<rect x="0" y="884" width="680" height="2" fill="#00e5ff" opacity="0.12"/>
<rect x="0" y="888" width="680" height="2" fill="#00e5ff" opacity="0.12"/>
<rect x="0" y="892" width="680" height="2" fill="#00e5ff" opacity="0.12"/>
<rect x="0" y="896" width="680" height="2" fill="#00e5ff" opacity="0.12"/>
<rect x="0" y="900" width="680" height="2" fill="#00e5ff" opacity="0.12"/>
<rect x="0" y="904" width="680" height="2" fill="#00e5ff" opacity="0.12"/>
<rect x="0" y="908" width="680" height="2" fill="#00e5ff" opacity="0.12"/>
<rect x="0" y="912" width="680" height="2" fill="#00e5ff" opacity="0.12"/>
<rect x="0" y="916" width="680" height="2" fill="#00e5ff" opacity="0.12"/>
<rect x="0" y="920" width="680" height="2" fill="#00e5ff" opacity="0.12"/>
<rect x="0" y="924" width="680" height="2" fill="#00e5ff" opacity="0.12"/>
<rect x="0" y="928" width="680" height="2" fill="#00e5ff" opacity="0.12"/>
<rect x="0" y="932" width="680" height="2" fill="#00e5ff" opacity="0.12"/>
<rect x="0" y="936" width="680" height="2" fill="#00e5ff" opacity="0.12"/>
<rect x="0" y="940" width="680" height="2" fill="#00e5ff" opacity="0.12"/>
<rect x="0" y="944" width="680" height="2" fill="#00e5ff" opacity="0.12"/>
<rect x="0" y="948" width="680" height="2" fill="#00e5ff" opacity="0.12"/>
<rect x="0" y="952" width="680" height="2" fill="#00e5ff" opacity="0.12"/>
<rect x="0" y="956" width="680" height="2" fill="#00e5ff" opacity="0.12"/>
<rect x="0" y="960" width="680" height="2" fill="#00e5ff" opacity="0.12"/>
<rect x="0" y="964" width="680" height="2" fill="#00e5ff" opacity="0.12"/>
<rect x="0" y="968" width="680" height="2" fill="#00e5ff" opacity="0.12"/>
<rect x="0" y="972" width="680" height="2" fill="#00e5ff" opacity="0.12"/>
<rect x="0" y="976" width="680" height="2" fill="#00e5ff" opacity="0.12"/>
<rect x="0" y="980" width="680" height="2" fill="#00e5ff" opacity="0.12"/>
<rect x="0" y="984" width="680" height="2" fill="#00e5ff" opacity="0.12"/>
<rect x="0" y="988" width="680" height="2" fill="#00e5ff" opacity="0.12"/>
<rect x="0" y="992" width="680" height="2" fill="#00e5ff" opacity="0.12"/>
<rect x="0" y="996" width="680" height="2" fill="#00e5ff" opacity="0.12"/>
<rect x="0" y="1000" width="680" height="2" fill="#00e5ff" opacity="0.12"/>
<rect x="0" y="1004" width="680" height="2" fill="#00e5ff" opacity="0.12"/>
<rect x="0" y="1008" width="680" height="2" fill="#00e5ff" opacity="0.12"/>
<rect x="0" y="1012" width="680" height="2" fill="#00e5ff" opacity="0.12"/>
<rect x="0" y="1016" width="680" height="2" fill="#00e5ff" opacity="0.12"/>
<rect x="0" y="0" width="680" height="148" fill="rgba(0,0,0,0.52)"/>
<line x1="0" y1="148" x2="680" y2="148" stroke="#00e5ff" stroke-width="1.2"/>
<rect x="48" y="100" width="192" height="1.5" fill="#00e5ff" opacity="0.5"/><rect x="440" y="100" width="192" height="1.5" fill="#00e5ff" opacity="0.5"/>
<text x="343" y="135" text-anchor="middle" font-family="'Arial Black','Impact',sans-serif"
      font-weight="900" font-size="60" fill="rgba(0,0,0,0.45)" letter-spacing="4">MINEFIELD</text>
<text x="340" y="132" text-anchor="middle" font-family="'Arial Black','Impact',sans-serif"
      font-weight="900" font-size="60" fill="#00e5ff" letter-spacing="4">MINEFIELD</text>
<text x="340" y="660" text-anchor="middle" dominant-baseline="central" font-size="300">💣</text>
<rect x="0" y="988" width="680" height="32" fill="rgba(0,0,0,0.52)"/>
<line x1="0" y1="988" x2="680" y2="988" stroke="#00e5ff" stroke-width="0.8" opacity="0.3"/>
</svg>