<svg width="400" height="600" viewBox="0 0 680 1020" xmlns="http://www.w3.org/2000/svg">
<defs><clipPath id="cvclip"><rect width="680" height="1020"/></clipPath></defs>
<rect width="680" height="1020" fill="#071208"/>
<g clip-path="url(#cvclip)"><path d="M 0 165 L 0 165.0 L 12 169.4 L 24 173.4 L 36 176.8 L 48 179.3 L 60 180.7 L 72 180.9 L 84 179.9 L 96 177.8 L 108 174.6 L 120 170.8 L 132 166.5 L 144 162.1 L 156 157.9 L 168 154.2 L 180 151.4 L 192 149.6 L 204 149.0 L 216 149.6 L 228 151.4 L 240 154.2 L 252 157.9 L 264 162.1 L 276 166.5 L 288 170.8 L 300 174.6 L 312 177.8 L 324 179.9 L 336 180.9 L 348 180.7 L 360 179.3 L 372 176.8 L 384 173.4 L 396 169.4 L 408 165.0 L 420 160.6 L 432 156.6 L 444 153.2 L 456 150.7 L 468 149.3 L 480 149.1 L 492 150.1 L 504 152.2 L 516 155.4 L 528 159.2 L 540 163.5 L 552 167.9 L 564 172.1 L 576 175.8 L 588 178.6 L 600 180.4 L 612 181.0 L 624 180.4 L 636 178.6 L 648 175.8 L 660 172.1 L 672 167.9" stroke="#1b5e20" stroke-width="1" fill="none" opacity="0.16"/><path d="M 0 223 L 0 223.0 L 12 215.3 L 24 208.3 L 36 202.3 L 48 197.9 L 60 195.5 L 72 195.1 L 84 196.9 L 96 200.7 L 108 206.1 L 120 212.9 L 132 220.4 L 144 228.1 L 156 235.5 L 168 241.9 L 180 246.8 L 192 249.9 L 204 251.0 L 216 249.9 L 228 246.8 L 240 241.9 L 252 235.5 L 264 228.1 L 276 220.4 L 288 212.9 L 300 206.1 L 312 200.7 L 324 196.9 L 336 195.1 L 348 195.5 L 360 197.9 L 372 202.3 L 384 208.3 L 396 215.3 L 408 223.0 L 420 230.7 L 432 237.7 L 444 243.7 L 456 248.1 L 468 250.5 L 480 250.9 L 492 249.1 L 504 245.3 L 516 239.9 L 528 233.1 L 540 225.6 L 552 217.9 L 564 210.5 L 576 204.1 L 588 199.2 L 600 196.1 L 612 195.0 L 624 196.1 L 636 199.2 L 648 204.1 L 660 210.5 L 672 217.9" stroke="#1b5e20" stroke-width="1.5" fill="none" opacity="0.26"/><path d="M 0 281 L 0 281.0 L 12 291.9 L 24 302.1 L 36 310.6 L 48 316.8 L 60 320.3 L 72 320.8 L 84 318.3 L 96 312.9 L 108 305.1 L 120 295.4 L 132 284.7 L 144 273.7 L 156 263.2 L 168 254.1 L 180 247.0 L 192 242.5 L 204 241.0 L 216 242.5 L 228 247.0 L 240 254.1 L 252 263.2 L 264 273.7 L 276 284.7 L 288 295.4 L 300 305.1 L 312 312.9 L 324 318.3 L 336 320.8 L 348 320.3 L 360 316.8 L 372 310.6 L 384 302.1 L 396 291.9 L 408 281.0 L 420 270.1 L 432 259.9 L 444 251.4 L 456 245.2 L 468 241.7 L 480 241.2 L 492 243.7 L 504 249.1 L 516 256.9 L 528 266.6 L 540 277.3 L 552 288.3 L 564 298.8 L 576 307.9 L 588 315.0 L 600 319.5 L 612 321.0 L 624 319.5 L 636 315.0 L 648 307.9 L 660 298.8 L 672 288.3" stroke="#1b5e20" stroke-width="2" fill="none" opacity="0.32"/><path d="M 0 339 L 0 339.0 L 12 334.6 L 24 330.6 L 36 327.2 L 48 324.7 L 60 323.3 L 72 323.1 L 84 324.1 L 96 326.2 L 108 329.4 L 120 333.2 L 132 337.5 L 144 341.9 L 156 346.1 L 168 349.8 L 180 352.6 L 192 354.4 L 204 355.0 L 216 354.4 L 228 352.6 L 240 349.8 L 252 346.1 L 264 341.9 L 276 337.5 L 288 333.2 L 300 329.4 L 312 326.2 L 324 324.1 L 336 323.1 L 348 323.3 L 360 324.7 L 372 327.2 L 384 330.6 L 396 334.6 L 408 339.0 L 420 343.4 L 432 347.4 L 444 350.8 L 456 353.3 L 468 354.7 L 480 354.9 L 492 353.9 L 504 351.8 L 516 348.6 L 528 344.8 L 540 340.5 L 552 336.1 L 564 331.9 L 576 328.2 L 588 325.4 L 600 323.6 L 612 323.0 L 624 323.6 L 636 325.4 L 648 328.2 L 660 331.9 L 672 336.1" stroke="#1b5e20" stroke-width="1" fill="none" opacity="0.14"/><path d="M 0 397 L 0 397.0 L 12 404.7 L 24 411.7 L 36 417.7 L 48 422.1 L 60 424.5 L 72 424.9 L 84 423.1 L 96 419.3 L 108 413.9 L 120 407.1 L 132 399.6 L 144 391.9 L 156 384.5 L 168 378.1 L 180 373.2 L 192 370.1 L 204 369.0 L 216 370.1 L 228 373.2 L 240 378.1 L 252 384.5 L 264 391.9 L 276 399.6 L 288 407.1 L 300 413.9 L 312 419.3 L 324 423.1 L 336 424.9 L 348 424.5 L 360 422.1 L 372 417.7 L 384 411.7 L 396 404.7 L 408 397.0 L 420 389.3 L 432 382.3 L 444 376.3 L 456 371.9 L 468 369.5 L 480 369.1 L 492 370.9 L 504 374.7 L 516 380.1 L 528 386.9 L 540 394.4 L 552 402.1 L 564 409.5 L 576 415.9 L 588 420.8 L 600 423.9 L 612 425.0 L 624 423.9 L 636 420.8 L 648 415.9 L 660 409.5 L 672 402.1" stroke="#1b5e20" stroke-width="1" fill="none" opacity="0.16"/><path d="M 0 455 L 0 455.0 L 12 444.1 L 24 433.9 L 36 425.4 L 48 419.2 L 60 415.7 L 72 415.2 L 84 417.7 L 96 423.1 L 108 430.9 L 120 440.6 L 132 451.3 L 144 462.3 L 156 472.8 L 168 481.9 L 180 489.0 L 192 493.5 L 204 495.0 L 216 493.5 L 228 489.0 L 240 481.9 L 252 472.8 L 264 462.3 L 276 451.3 L 288 440.6 L 300 430.9 L 312 423.1 L 324 417.7 L 336 415.2 L 348 415.7 L 360 419.2 L 372 425.4 L 384 433.9 L 396 444.1 L 408 455.0 L 420 465.9 L 432 476.1 L 444 484.6 L 456 490.8 L 468 494.3 L 480 494.8 L 492 492.3 L 504 486.9 L 516 479.1 L 528 469.4 L 540 458.7 L 552 447.7 L 564 437.2 L 576 428.1 L 588 421.0 L 600 416.5 L 612 415.0 L 624 416.5 L 636 421.0 L 648 428.1 L 660 437.2 L 672 447.7" stroke="#1b5e20" stroke-width="1.5" fill="none" opacity="0.26"/><path d="M 0 513 L 0 513.0 L 12 517.4 L 24 521.4 L 36 524.8 L 48 527.3 L 60 528.7 L 72 528.9 L 84 527.9 L 96 525.8 L 108 522.6 L 120 518.8 L 132 514.5 L 144 510.1 L 156 505.9 L 168 502.2 L 180 499.4 L 192 497.6 L 204 497.0 L 216 497.6 L 228 499.4 L 240 502.2 L 252 505.9 L 264 510.1 L 276 514.5 L 288 518.8 L 300 522.6 L 312 525.8 L 324 527.9 L 336 528.9 L 348 528.7 L 360 527.3 L 372 524.8 L 384 521.4 L 396 517.4 L 408 513.0 L 420 508.6 L 432 504.6 L 444 501.2 L 456 498.7 L 468 497.3 L 480 497.1 L 492 498.1 L 504 500.2 L 516 503.4 L 528 507.2 L 540 511.5 L 552 515.9 L 564 520.1 L 576 523.8 L 588 526.6 L 600 528.4 L 612 529.0 L 624 528.4 L 636 526.6 L 648 523.8 L 660 520.1 L 672 515.9" stroke="#1b5e20" stroke-width="2" fill="none" opacity="0.32"/><path d="M 0 571 L 0 571.0 L 12 563.3 L 24 556.3 L 36 550.3 L 48 545.9 L 60 543.5 L 72 543.1 L 84 544.9 L 96 548.7 L 108 554.1 L 120 560.9 L 132 568.4 L 144 576.1 L 156 583.5 L 168 589.9 L 180 594.8 L 192 597.9 L 204 599.0 L 216 597.9 L 228 594.8 L 240 589.9 L 252 583.5 L 264 576.1 L 276 568.4 L 288 560.9 L 300 554.1 L 312 548.7 L 324 544.9 L 336 543.1 L 348 543.5 L 360 545.9 L 372 550.3 L 384 556.3 L 396 563.3 L 408 571.0 L 420 578.7 L 432 585.7 L 444 591.7 L 456 596.1 L 468 598.5 L 480 598.9 L 492 597.1 L 504 593.3 L 516 587.9 L 528 581.1 L 540 573.6 L 552 565.9 L 564 558.5 L 576 552.1 L 588 547.2 L 600 544.1 L 612 543.0 L 624 544.1 L 636 547.2 L 648 552.1 L 660 558.5 L 672 565.9" stroke="#1b5e20" stroke-width="1" fill="none" opacity="0.14"/><path d="M 0 629 L 0 629.0 L 12 639.9 L 24 650.1 L 36 658.6 L 48 664.8 L 60 668.3 L 72 668.8 L 84 666.3 L 96 660.9 L 108 653.1 L 120 643.4 L 132 632.7 L 144 621.7 L 156 611.2 L 168 602.1 L 180 595.0 L 192 590.5 L 204 589.0 L 216 590.5 L 228 595.0 L 240 602.1 L 252 611.2 L 264 621.7 L 276 632.7 L 288 643.4 L 300 653.1 L 312 660.9 L 324 666.3 L 336 668.8 L 348 668.3 L 360 664.8 L 372 658.6 L 384 650.1 L 396 639.9 L 408 629.0 L 420 618.1 L 432 607.9 L 444 599.4 L 456 593.2 L 468 589.7 L 480 589.2 L 492 591.7 L 504 597.1 L 516 604.9 L 528 614.6 L 540 625.3 L 552 636.3 L 564 646.8 L 576 655.9 L 588 663.0 L 600 667.5 L 612 669.0 L 624 667.5 L 636 663.0 L 648 655.9 L 660 646.8 L 672 636.3" stroke="#1b5e20" stroke-width="1" fill="none" opacity="0.16"/><path d="M 0 687 L 0 687.0 L 12 682.6 L 24 678.6 L 36 675.2 L 48 672.7 L 60 671.3 L 72 671.1 L 84 672.1 L 96 674.2 L 108 677.4 L 120 681.2 L 132 685.5 L 144 689.9 L 156 694.1 L 168 697.8 L 180 700.6 L 192 702.4 L 204 703.0 L 216 702.4 L 228 700.6 L 240 697.8 L 252 694.1 L 264 689.9 L 276 685.5 L 288 681.2 L 300 677.4 L 312 674.2 L 324 672.1 L 336 671.1 L 348 671.3 L 360 672.7 L 372 675.2 L 384 678.6 L 396 682.6 L 408 687.0 L 420 691.4 L 432 695.4 L 444 698.8 L 456 701.3 L 468 702.7 L 480 702.9 L 492 701.9 L 504 699.8 L 516 696.6 L 528 692.8 L 540 688.5 L 552 684.1 L 564 679.9 L 576 676.2 L 588 673.4 L 600 671.6 L 612 671.0 L 624 671.6 L 636 673.4 L 648 676.2 L 660 679.9 L 672 684.1" stroke="#1b5e20" stroke-width="1.5" fill="none" opacity="0.26"/><path d="M 0 745 L 0 745.0 L 12 752.7 L 24 759.7 L 36 765.7 L 48 770.1 L 60 772.5 L 72 772.9 L 84 771.1 L 96 767.3 L 108 761.9 L 120 755.1 L 132 747.6 L 144 739.9 L 156 732.5 L 168 726.1 L 180 721.2 L 192 718.1 L 204 717.0 L 216 718.1 L 228 721.2 L 240 726.1 L 252 732.5 L 264 739.9 L 276 747.6 L 288 755.1 L 300 761.9 L 312 767.3 L 324 771.1 L 336 772.9 L 348 772.5 L 360 770.1 L 372 765.7 L 384 759.7 L 396 752.7 L 408 745.0 L 420 737.3 L 432 730.3 L 444 724.3 L 456 719.9 L 468 717.5 L 480 717.1 L 492 718.9 L 504 722.7 L 516 728.1 L 528 734.9 L 540 742.4 L 552 750.1 L 564 757.5 L 576 763.9 L 588 768.8 L 600 771.9 L 612 773.0 L 624 771.9 L 636 768.8 L 648 763.9 L 660 757.5 L 672 750.1" stroke="#1b5e20" stroke-width="2" fill="none" opacity="0.32"/><path d="M 0 803 L 0 803.0 L 12 792.1 L 24 781.9 L 36 773.4 L 48 767.2 L 60 763.7 L 72 763.2 L 84 765.7 L 96 771.1 L 108 778.9 L 120 788.6 L 132 799.3 L 144 810.3 L 156 820.8 L 168 829.9 L 180 837.0 L 192 841.5 L 204 843.0 L 216 841.5 L 228 837.0 L 240 829.9 L 252 820.8 L 264 810.3 L 276 799.3 L 288 788.6 L 300 778.9 L 312 771.1 L 324 765.7 L 336 763.2 L 348 763.7 L 360 767.2 L 372 773.4 L 384 781.9 L 396 792.1 L 408 803.0 L 420 813.9 L 432 824.1 L 444 832.6 L 456 838.8 L 468 842.3 L 480 842.8 L 492 840.3 L 504 834.9 L 516 827.1 L 528 817.4 L 540 806.7 L 552 795.7 L 564 785.2 L 576 776.1 L 588 769.0 L 600 764.5 L 612 763.0 L 624 764.5 L 636 769.0 L 648 776.1 L 660 785.2 L 672 795.7" stroke="#1b5e20" stroke-width="1" fill="none" opacity="0.14"/><path d="M 0 861 L 0 861.0 L 12 865.4 L 24 869.4 L 36 872.8 L 48 875.3 L 60 876.7 L 72 876.9 L 84 875.9 L 96 873.8 L 108 870.6 L 120 866.8 L 132 862.5 L 144 858.1 L 156 853.9 L 168 850.2 L 180 847.4 L 192 845.6 L 204 845.0 L 216 845.6 L 228 847.4 L 240 850.2 L 252 853.9 L 264 858.1 L 276 862.5 L 288 866.8 L 300 870.6 L 312 873.8 L 324 875.9 L 336 876.9 L 348 876.7 L 360 875.3 L 372 872.8 L 384 869.4 L 396 865.4 L 408 861.0 L 420 856.6 L 432 852.6 L 444 849.2 L 456 846.7 L 468 845.3 L 480 845.1 L 492 846.1 L 504 848.2 L 516 851.4 L 528 855.2 L 540 859.5 L 552 863.9 L 564 868.1 L 576 871.8 L 588 874.6 L 600 876.4 L 612 877.0 L 624 876.4 L 636 874.6 L 648 871.8 L 660 868.1 L 672 863.9" stroke="#1b5e20" stroke-width="1" fill="none" opacity="0.16"/><path d="M 0 919 L 0 919.0 L 12 911.3 L 24 904.3 L 36 898.3 L 48 893.9 L 60 891.5 L 72 891.1 L 84 892.9 L 96 896.7 L 108 902.1 L 120 908.9 L 132 916.4 L 144 924.1 L 156 931.5 L 168 937.9 L 180 942.8 L 192 945.9 L 204 947.0 L 216 945.9 L 228 942.8 L 240 937.9 L 252 931.5 L 264 924.1 L 276 916.4 L 288 908.9 L 300 902.1 L 312 896.7 L 324 892.9 L 336 891.1 L 348 891.5 L 360 893.9 L 372 898.3 L 384 904.3 L 396 911.3 L 408 919.0 L 420 926.7 L 432 933.7 L 444 939.7 L 456 944.1 L 468 946.5 L 480 946.9 L 492 945.1 L 504 941.3 L 516 935.9 L 528 929.1 L 540 921.6 L 552 913.9 L 564 906.5 L 576 900.1 L 588 895.2 L 600 892.1 L 612 891.0 L 624 892.1 L 636 895.2 L 648 900.1 L 660 906.5 L 672 913.9" stroke="#1b5e20" stroke-width="1.5" fill="none" opacity="0.26"/><path d="M 0 977 L 0 977.0 L 12 987.9 L 24 998.1 L 36 1006.6 L 48 1012.8 L 60 1016.3 L 72 1016.8 L 84 1014.3 L 96 1008.9 L 108 1001.1 L 120 991.4 L 132 980.7 L 144 969.7 L 156 959.2 L 168 950.1 L 180 943.0 L 192 938.5 L 204 937.0 L 216 938.5 L 228 943.0 L 240 950.1 L 252 959.2 L 264 969.7 L 276 980.7 L 288 991.4 L 300 1001.1 L 312 1008.9 L 324 1014.3 L 336 1016.8 L 348 1016.3 L 360 1012.8 L 372 1006.6 L 384 998.1 L 396 987.9 L 408 977.0 L 420 966.1 L 432 955.9 L 444 947.4 L 456 941.2 L 468 937.7 L 480 937.2 L 492 939.7 L 504 945.1 L 516 952.9 L 528 962.6 L 540 973.3 L 552 984.3 L 564 994.8 L 576 1003.9 L 588 1011.0 L 600 1015.5 L 612 1017.0 L 624 1015.5 L 636 1011.0 L 648 1003.9 L 660 994.8 L 672 984.3" stroke="#1b5e20" stroke-width="2" fill="none" opacity="0.32"/></g>
<rect x="0" y="0" width="680" height="148" fill="rgba(0,0,0,0.52)"/>
<line x1="0" y1="148" x2="680" y2="148" stroke="#69f0ae" stroke-width="1.2"/>
<rect x="48" y="100" width="252" height="1.5" fill="#69f0ae" opacity="0.5"/><rect x="380" y="100" width="252" height="1.5" fill="#69f0ae" opacity="0.5"/>
<text x="343" y="135" text-anchor="middle" font-family="'Arial Black','Impact',sans-serif" font-weight="900" font-size="36" fill="rgba(0,0,0,0.45)" letter-spacing="4">MOUNTAIN GOAT CLIMBER</text>
<text x="340" y="132" text-anchor="middle" font-family="'Arial Black','Impact',sans-serif" font-weight="900" font-size="36" fill="#69f0ae" letter-spacing="4">MOUNTAIN GOAT CLIMBER</text>
<text x="340" y="660" text-anchor="middle" dominant-baseline="central" font-size="300">🐐</text>
<rect x="0" y="988" width="680" height="32" fill="rgba(0,0,0,0.52)"/>
<line x1="0" y1="988" x2="680" y2="988" stroke="#69f0ae" stroke-width="0.8" opacity="0.3"/>
</svg>