<svg width="400" height="600" viewBox="0 0 680 1020" xmlns="http://www.w3.org/2000/svg">
<defs>
<linearGradient id="gpokeclashv7" x1="0.854" y1="0.146" x2="0.146" y2="0.854"><stop offset="0.0" stop-color="#3a2c6e"/><stop offset="0.5" stop-color="#241a4d"/><stop offset="1.0" stop-color="#0c0820"/></linearGradient>
</defs>
<rect width="680" height="1020" fill="url(#gpokeclashv7)"/>
<rect x="0" y="0" width="680" height="148" fill="rgba(0,0,0,0.34)"/>
<line x1="0" y1="148" x2="680" y2="148" stroke="#ffd84d" stroke-width="1.2"/>
<rect x="48" y="100" width="192" height="1.5" fill="#ffd84d" opacity="0.5"/><rect x="440" y="100" width="192" height="1.5" fill="#ffd84d" opacity="0.5"/>
<text x="343" y="135" text-anchor="middle" font-family="'Arial Black','Impact',sans-serif" font-weight="900" font-size="60" fill="rgba(0,0,0,0.45)" letter-spacing="4">POKE CLASH</text>
<text x="340" y="132" text-anchor="middle" font-family="'Arial Black','Impact',sans-serif" font-weight="900" font-size="60" fill="#ffd84d" letter-spacing="4">POKE CLASH</text>
<g transform="translate(340,660)">
<ellipse cx="0" cy="168" rx="150" ry="42" fill="#000" opacity="0.3"/>
<circle cx="0" cy="0" r="152" fill="#1a1a1a"/>
<path d="M -150 0 A 150 150 0 0 1 150 0 Z" fill="#ee3b3b"/>
<path d="M -150 0 A 150 150 0 0 0 150 0 Z" fill="#f5f5f5"/>
<ellipse cx="-54" cy="-78" rx="40" ry="22" fill="#ff7a6e" opacity="0.55" transform="rotate(-32 -54 -78)"/>
<rect x="-150" y="-22" width="300" height="44" fill="#1a1a1a"/>
<circle cx="0" cy="0" r="150" fill="none" stroke="#1a1a1a" stroke-width="8"/>
<circle cx="0" cy="0" r="52" fill="#1a1a1a"/>
<circle cx="0" cy="0" r="40" fill="#f5f5f5"/>
<circle cx="0" cy="0" r="24" fill="#fff" stroke="#cfcfcf" stroke-width="3"/>
<circle cx="-8" cy="-8" r="7" fill="#fff" opacity="0.9"/>
</g>
<rect x="0" y="988" width="680" height="32" fill="rgba(0,0,0,0.34)"/>
<line x1="0" y1="988" x2="680" y2="988" stroke="#ffd84d" stroke-width="0.8" opacity="0.3"/>
</svg>