<svg width="400" height="600" viewBox="0 0 680 1020" xmlns="http://www.w3.org/2000/svg">
<defs><clipPath id="cvclip"><rect width="680" height="1020"/></clipPath></defs>
<rect width="680" height="1020" fill="#16243d"/>
<g clip-path="url(#cvclip)" stroke="#3b6ea5" stroke-width="3" fill="none" opacity="0.5">
  <path d="M0,250 Q85,210 170,250 T340,250 T510,250 T680,250"/>
  <path d="M0,360 Q85,320 170,360 T340,360 T510,360 T680,360"/>
  <path d="M0,470 Q85,430 170,470 T340,470 T510,470 T680,470"/>
  <path d="M0,580 Q85,540 170,580 T340,580 T510,580 T680,580"/>
  <path d="M0,690 Q85,650 170,690 T340,690 T510,690 T680,690"/>
  <path d="M0,800 Q85,760 170,800 T340,800 T510,800 T680,800"/>
  <path d="M0,910 Q85,870 170,910 T340,910 T510,910 T680,910"/>
</g>
<rect x="0" y="0" width="680" height="148" fill="rgba(0,0,0,0.52)"/>
<line x1="0" y1="148" x2="680" y2="148" stroke="#fbbf24" stroke-width="1.2"/>
<rect x="48" y="100" width="148" height="1.5" fill="#fbbf24" opacity="0.5"/>
<rect x="484" y="100" width="148" height="1.5" fill="#fbbf24" opacity="0.5"/>
<text x="343" y="135" text-anchor="middle" font-family="'Arial Black','Impact',sans-serif"
      font-weight="900" font-size="54" fill="rgba(0,0,0,0.45)" letter-spacing="4">RHINO PILE-UP</text>
<text x="340" y="132" text-anchor="middle" font-family="'Arial Black','Impact',sans-serif"
      font-weight="900" font-size="54" fill="#fbbf24" letter-spacing="4">RHINO PILE-UP</text>
<text x="340" y="660" text-anchor="middle" dominant-baseline="central" font-size="300">🦏</text>
<rect x="0" y="988" width="680" height="32" fill="rgba(0,0,0,0.52)"/>
<line x1="0" y1="988" x2="680" y2="988" stroke="#fbbf24" stroke-width="0.8" opacity="0.3"/>
</svg>
