<svg xmlns="http://www.w3.org/2000/svg" viewBox="0 0 680 1020" width="400" height="600" role="img">
<title>Rhino Pile-Up cover</title>
<desc>Large rhino head facing left in lower right, with colorful stick-figure climbers scaling it</desc>
<defs>
  <linearGradient id="rpBg" x1="0" y1="0" x2="0" y2="1">
    <stop offset="0" stop-color="#040c1c"/>
    <stop offset="0.55" stop-color="#0f2240"/>
    <stop offset="1" stop-color="#1e3a5f"/>
  </linearGradient>
  <radialGradient id="rpHead" cx="62%" cy="28%" r="65%">
    <stop offset="0" stop-color="#b8bbc0"/>
    <stop offset="0.5" stop-color="#8a8d92"/>
    <stop offset="1" stop-color="#5a5d62"/>
  </radialGradient>
  <radialGradient id="rpMoon" cx="50%" cy="40%" r="60%">
    <stop offset="0" stop-color="#f0f4fa"/>
    <stop offset="0.7" stop-color="#c8d8ee"/>
    <stop offset="1" stop-color="#98aec4"/>
  </radialGradient>
</defs>

<rect width="680" height="1020" fill="url(#rpBg)"/>
<circle cx="5" cy="5" r="115" fill="#cfe0f2" opacity="0.06"/>
<circle cx="5" cy="5" r="90" fill="url(#rpMoon)" opacity="0.88"/>
<g fill="#dbe9ff" opacity="0.72">
  <circle cx="218" cy="68" r="2"/><circle cx="348" cy="108" r="1.6"/>
  <circle cx="476" cy="82" r="2.2"/><circle cx="576" cy="138" r="1.5"/>
  <circle cx="638" cy="72" r="1.8"/><circle cx="298" cy="48" r="1.5"/>
  <circle cx="418" cy="166" r="1.7"/><circle cx="528" cy="58" r="1.9"/>
  <circle cx="252" cy="128" r="1.4"/><circle cx="88" cy="330" r="1.3"/>
</g>

<!-- RHINO HEAD -->
<g transform="translate(1168, 1429) scale(-4.85, 4.85)">
  <path d="M-110,-60 Q-150,-112 -118,-150 C-88,-190 -45,-210 -8,-210 C26,-210 50,-192 66,-170 Q84,-158 110,-158 C138,-156 164,-146 178,-120 Q185,-108 176,-95 Q168,-86 146,-86 Q120,-86 104,-94 Q24,-76 -58,-80 Q-92,-82 -110,-60 Z" fill="url(#rpHead)" stroke="#4a4e54" stroke-width="0.6"/>
  <path d="M-58,-80 Q24,-76 104,-94 Q20,-68 -58,-72 Z" fill="#5f6268" opacity="0.3"/>
  <path d="M158,-118 L180,-116 Q184,-146 172,-174 Q164,-146 158,-118 Z" fill="#d8d3c6" stroke="#bab5a5" stroke-width="0.5"/>
  <path d="M140,-150 L156,-148 Q157,-168 151,-180 Q144,-164 140,-150 Z" fill="#d8d3c6" stroke="#bab5a5" stroke-width="0.5"/>
  <path d="M100,-160 Q95,-186 112,-183 Q117,-168 110,-157 Z" fill="#8a8d92"/>
  <circle cx="146" cy="-138" r="3.4" fill="#2a2d33"/>
  <circle cx="147" cy="-139" r="1.1" fill="rgba(255,255,255,0.88)"/>
  <circle cx="172" cy="-103" r="2.6" fill="#5f6268"/>
  <path d="M178,-92 Q162,-88 150,-90" stroke="#5f6268" stroke-width="1.5" fill="none" stroke-linecap="round"/>
</g>

<!-- GOLD — pelvis(170,920) chest(170,818) head(170,734) -->
<g stroke-linecap="round">
  <line x1="170" y1="818" x2="110" y2="780" stroke="#231b2e" stroke-width="75"/>
  <line x1="110" y1="780" x2="70" y2="800" stroke="#231b2e" stroke-width="63"/>
  <line x1="170" y1="920" x2="200" y2="1007" stroke="#231b2e" stroke-width="75"/>
  <line x1="170" y1="818" x2="110" y2="780" stroke="#a57e17" stroke-width="60"/>
  <line x1="110" y1="780" x2="70" y2="800" stroke="#a57e17" stroke-width="48"/>
  <line x1="170" y1="920" x2="200" y2="1007" stroke="#a57e17" stroke-width="60"/>
  <circle cx="110" cy="780" r="24" fill="#a57e17" stroke="#231b2e" stroke-width="5"/>
  <line x1="170" y1="818" x2="252" y2="739" stroke="#231b2e" stroke-width="75"/>
  <line x1="252" y1="739" x2="334" y2="660" stroke="#231b2e" stroke-width="63"/>
  <line x1="170" y1="920" x2="140" y2="1007" stroke="#231b2e" stroke-width="75"/>
  <line x1="170" y1="818" x2="170" y2="920" stroke="#231b2e" stroke-width="120"/>
  <line x1="170" y1="734" x2="170" y2="818" stroke="#231b2e" stroke-width="63"/>
  <line x1="170" y1="818" x2="252" y2="739" stroke="#fbbf24" stroke-width="60"/>
  <line x1="252" y1="739" x2="334" y2="660" stroke="#fbbf24" stroke-width="48"/>
  <line x1="170" y1="920" x2="140" y2="1007" stroke="#fbbf24" stroke-width="60"/>
  <line x1="170" y1="818" x2="170" y2="920" stroke="#fbbf24" stroke-width="102"/>
  <line x1="170" y1="734" x2="170" y2="818" stroke="#fbbf24" stroke-width="48"/>
  <circle cx="252" cy="739" r="24" fill="#fbbf24" stroke="#231b2e" stroke-width="5"/>
  <circle cx="170" cy="818" r="63" fill="#fbbf24" stroke="#231b2e" stroke-width="6"/>
  <circle cx="170" cy="920" r="48" fill="#fbbf24" stroke="#231b2e" stroke-width="6"/>
  <circle cx="170" cy="734" r="51" fill="#fbbf24" stroke="#231b2e" stroke-width="6"/>
  <ellipse cx="170" cy="869" rx="27" ry="57" fill="#f0f4f8" opacity="0.82"/>
  <circle cx="155" cy="731" r="7" fill="#231b2e"/>
  <circle cx="185" cy="731" r="7" fill="#231b2e"/>
</g>

<!-- PINK BODY (behind blue) — rotate(45,280,570) -->
<g transform="rotate(45, 280, 570)" stroke-linecap="round">
  <line x1="280" y1="570" x2="393" y2="542" stroke="#231b2e" stroke-width="75"/>
  <line x1="393" y1="542" x2="485" y2="591" stroke="#231b2e" stroke-width="63"/>
  <line x1="280" y1="468" x2="315" y2="385" stroke="#231b2e" stroke-width="63"/>
  <line x1="315" y1="385" x2="330" y2="290" stroke="#231b2e" stroke-width="51"/>
  <line x1="280" y1="570" x2="393" y2="542" stroke="#a14b77" stroke-width="60"/>
  <line x1="393" y1="542" x2="485" y2="591" stroke="#a14b77" stroke-width="48"/>
  <line x1="280" y1="468" x2="315" y2="385" stroke="#a14b77" stroke-width="48"/>
  <line x1="315" y1="385" x2="330" y2="290" stroke="#a14b77" stroke-width="39"/>
  <circle cx="393" cy="542" r="27" fill="#a14b77" stroke="#231b2e" stroke-width="5"/>
  <circle cx="315" cy="385" r="24" fill="#a14b77" stroke="#231b2e" stroke-width="5"/>
  <line x1="280" y1="570" x2="250" y2="657" stroke="#231b2e" stroke-width="75"/>
  <line x1="250" y1="657" x2="241" y2="750" stroke="#231b2e" stroke-width="63"/>
  <line x1="280" y1="468" x2="280" y2="570" stroke="#231b2e" stroke-width="120"/>
  <line x1="280" y1="384" x2="280" y2="468" stroke="#231b2e" stroke-width="63"/>
  <line x1="280" y1="468" x2="245" y2="385" stroke="#231b2e" stroke-width="63"/>
  <line x1="245" y1="385" x2="230" y2="290" stroke="#231b2e" stroke-width="51"/>
  <line x1="280" y1="570" x2="250" y2="657" stroke="#f472b6" stroke-width="60"/>
  <line x1="250" y1="657" x2="241" y2="750" stroke="#f472b6" stroke-width="48"/>
  <line x1="280" y1="468" x2="280" y2="570" stroke="#f472b6" stroke-width="102"/>
  <line x1="280" y1="384" x2="280" y2="468" stroke="#f472b6" stroke-width="48"/>
  <line x1="280" y1="468" x2="245" y2="385" stroke="#f472b6" stroke-width="48"/>
  <line x1="245" y1="385" x2="230" y2="290" stroke="#f472b6" stroke-width="39"/>
  <circle cx="250" cy="657" r="27" fill="#f472b6" stroke="#231b2e" stroke-width="5"/>
  <circle cx="245" cy="385" r="24" fill="#f472b6" stroke="#231b2e" stroke-width="5"/>
  <circle cx="280" cy="468" r="63" fill="#f472b6" stroke="#231b2e" stroke-width="6"/>
  <circle cx="280" cy="570" r="48" fill="#f472b6" stroke="#231b2e" stroke-width="6"/>
  <ellipse cx="280" cy="519" rx="27" ry="57" fill="#f0f4f8" opacity="0.82"/>
</g>

<!-- BLUE — rotate(15,515,405) -->
<g transform="rotate(15, 515, 405)" stroke-linecap="round">
  <line x1="515" y1="405" x2="600" y2="450" stroke="#231b2e" stroke-width="75"/>
  <line x1="600" y1="450" x2="580" y2="560" stroke="#231b2e" stroke-width="63"/>
  <line x1="515" y1="303" x2="578" y2="312" stroke="#231b2e" stroke-width="63"/>
  <line x1="578" y1="312" x2="644" y2="267" stroke="#231b2e" stroke-width="51"/>
  <line x1="515" y1="405" x2="600" y2="450" stroke="#3f6da5" stroke-width="60"/>
  <line x1="600" y1="450" x2="580" y2="560" stroke="#3f6da5" stroke-width="48"/>
  <line x1="515" y1="303" x2="578" y2="312" stroke="#3f6da5" stroke-width="48"/>
  <line x1="578" y1="312" x2="644" y2="267" stroke="#3f6da5" stroke-width="39"/>
  <circle cx="600" cy="450" r="27" fill="#3f6da5" stroke="#231b2e" stroke-width="5"/>
  <circle cx="578" cy="312" r="24" fill="#3f6da5" stroke="#231b2e" stroke-width="5"/>
  <line x1="515" y1="405" x2="485" y2="492" stroke="#231b2e" stroke-width="75"/>
  <line x1="485" y1="492" x2="476" y2="585" stroke="#231b2e" stroke-width="63"/>
  <line x1="515" y1="303" x2="515" y2="405" stroke="#231b2e" stroke-width="120"/>
  <line x1="515" y1="219" x2="515" y2="303" stroke="#231b2e" stroke-width="63"/>
  <line x1="515" y1="303" x2="452" y2="312" stroke="#231b2e" stroke-width="63"/>
  <line x1="452" y1="312" x2="398" y2="351" stroke="#231b2e" stroke-width="51"/>
  <line x1="515" y1="405" x2="485" y2="492" stroke="#60a5fa" stroke-width="60"/>
  <line x1="485" y1="492" x2="476" y2="585" stroke="#60a5fa" stroke-width="48"/>
  <line x1="515" y1="303" x2="515" y2="405" stroke="#60a5fa" stroke-width="102"/>
  <line x1="515" y1="219" x2="515" y2="303" stroke="#60a5fa" stroke-width="48"/>
  <line x1="515" y1="303" x2="452" y2="312" stroke="#60a5fa" stroke-width="48"/>
  <line x1="452" y1="312" x2="398" y2="351" stroke="#60a5fa" stroke-width="39"/>
  <circle cx="485" cy="492" r="27" fill="#60a5fa" stroke="#231b2e" stroke-width="5"/>
  <circle cx="452" cy="312" r="24" fill="#60a5fa" stroke="#231b2e" stroke-width="5"/>
  <circle cx="515" cy="303" r="63" fill="#60a5fa" stroke="#231b2e" stroke-width="6"/>
  <circle cx="515" cy="405" r="48" fill="#60a5fa" stroke="#231b2e" stroke-width="6"/>
  <circle cx="515" cy="219" r="51" fill="#60a5fa" stroke="#231b2e" stroke-width="6"/>
  <ellipse cx="515" cy="354" rx="27" ry="57" fill="#f0f4f8" opacity="0.82"/>
  <circle cx="500" cy="216" r="7" fill="#231b2e"/>
  <circle cx="530" cy="216" r="7" fill="#231b2e"/>
</g>

<!-- PINK HEAD — on top of blue -->
<circle cx="411.5" cy="438.5" r="51" fill="#f472b6" stroke="#231b2e" stroke-width="6"/>
<circle cx="403" cy="426" r="7" fill="#231b2e"/>
<circle cx="424" cy="447" r="7" fill="#231b2e"/>

<!-- TITLE -->
<text x="344" y="107" text-anchor="middle" font-family="'Trebuchet MS','Segoe UI',sans-serif" font-weight="bold" font-size="100" letter-spacing="3" fill="#c2410c">RHINO</text>
<text x="344" y="207" text-anchor="middle" font-family="'Trebuchet MS','Segoe UI',sans-serif" font-weight="bold" font-size="100" letter-spacing="3" fill="#c2410c">PILE-UP</text>
<text x="340" y="103" text-anchor="middle" font-family="'Trebuchet MS','Segoe UI',sans-serif" font-weight="bold" font-size="100" letter-spacing="3" fill="#ffffff">RHINO</text>
<text x="340" y="203" text-anchor="middle" font-family="'Trebuchet MS','Segoe UI',sans-serif" font-weight="bold" font-size="100" letter-spacing="3" fill="#ffffff">PILE-UP</text>
<text x="340" y="238" text-anchor="middle" font-family="'Trebuchet MS','Segoe UI',sans-serif" font-size="20" letter-spacing="5" fill="#fbbf24">STACK · CLIMB · CONQUER</text>
</svg>
