<svg width="400" height="600" viewBox="0 0 680 1020" xmlns="http://www.w3.org/2000/svg">
<defs><clipPath id="cvclip"><rect width="680" height="1020"/></clipPath></defs>
<rect width="680" height="1020" fill="#0a1f12"/>
<polygon points="-16,-48 8,-24 -16,0 -40,-24" fill="none" stroke="#c9a24b" stroke-width="0.7" opacity="0.18"/><polygon points="-16,0 8,24 -16,48 -40,24" fill="none" stroke="#c9a24b" stroke-width="0.7" opacity="0.18"/><polygon points="-16,48 8,72 -16,96 -40,72" fill="none" stroke="#c9a24b" stroke-width="0.7" opacity="0.18"/><polygon points="-16,96 8,120 -16,144 -40,120" fill="none" stroke="#c9a24b" stroke-width="0.7" opacity="0.18"/><polygon points="-16,144 8,168 -16,192 -40,168" fill="none" stroke="#c9a24b" stroke-width="0.7" opacity="0.18"/><polygon points="-16,192 8,216 -16,240 -40,216" fill="none" stroke="#c9a24b" stroke-width="0.7" opacity="0.18"/><polygon points="-16,240 8,264 -16,288 -40,264" fill="none" stroke="#c9a24b" stroke-width="0.7" opacity="0.18"/><polygon points="-16,288 8,312 -16,336 -40,312" fill="none" stroke="#c9a24b" stroke-width="0.7" opacity="0.18"/><polygon points="-16,336 8,360 -16,384 -40,360" fill="none" stroke="#c9a24b" stroke-width="0.7" opacity="0.18"/><polygon points="-16,384 8,408 -16,432 -40,408" fill="none" stroke="#c9a24b" stroke-width="0.7" opacity="0.18"/><polygon points="-16,432 8,456 -16,480 -40,456" fill="none" stroke="#c9a24b" stroke-width="0.7" opacity="0.18"/><polygon points="-16,480 8,504 -16,528 -40,504" fill="none" stroke="#c9a24b" stroke-width="0.7" opacity="0.18"/><polygon points="-16,528 8,552 -16,576 -40,552" fill="none" stroke="#c9a24b" stroke-width="0.7" opacity="0.18"/><polygon points="-16,576 8,600 -16,624 -40,600" fill="none" stroke="#c9a24b" stroke-width="0.7" opacity="0.18"/><polygon points="-16,624 8,648 -16,672 -40,648" fill="none" stroke="#c9a24b" stroke-width="0.7" opacity="0.18"/><polygon points="-16,672 8,696 -16,720 -40,696" fill="none" stroke="#c9a24b" stroke-width="0.7" opacity="0.18"/><polygon points="-16,720 8,744 -16,768 -40,744" fill="none" stroke="#c9a24b" stroke-width="0.7" opacity="0.18"/><polygon points="-16,768 8,792 -16,816 -40,792" fill="none" stroke="#c9a24b" stroke-width="0.7" opacity="0.18"/><polygon points="-16,816 8,840 -16,864 -40,840" fill="none" stroke="#c9a24b" stroke-width="0.7" opacity="0.18"/><polygon points="-16,864 8,888 -16,912 -40,888" fill="none" stroke="#c9a24b" stroke-width="0.7" opacity="0.18"/><polygon points="-16,912 8,936 -16,960 -40,936" fill="none" stroke="#c9a24b" stroke-width="0.7" opacity="0.18"/><polygon points="-16,960 8,984 -16,1008 -40,984" fill="none" stroke="#c9a24b" stroke-width="0.7" opacity="0.18"/><polygon points="-16,1008 8,1032 -16,1056 -40,1032" fill="none" stroke="#c9a24b" stroke-width="0.7" opacity="0.18"/><polygon points="-16,1056 8,1080 -16,1104 -40,1080" fill="none" stroke="#c9a24b" stroke-width="0.7" opacity="0.18"/><polygon points="32,-48 56,-24 32,0 8,-24" fill="none" stroke="#c9a24b" stroke-width="0.7" opacity="0.18"/><polygon points="32,0 56,24 32,48 8,24" fill="none" stroke="#c9a24b" stroke-width="0.7" opacity="0.18"/><polygon points="32,48 56,72 32,96 8,72" fill="none" stroke="#c9a24b" stroke-width="0.7" opacity="0.18"/><polygon points="32,96 56,120 32,144 8,120" fill="none" stroke="#c9a24b" stroke-width="0.7" opacity="0.18"/><polygon points="32,144 56,168 32,192 8,168" fill="none" stroke="#c9a24b" stroke-width="0.7" opacity="0.18"/><polygon points="32,192 56,216 32,240 8,216" fill="none" stroke="#c9a24b" stroke-width="0.7" opacity="0.18"/><polygon points="32,240 56,264 32,288 8,264" fill="none" stroke="#c9a24b" stroke-width="0.7" opacity="0.18"/><polygon points="32,288 56,312 32,336 8,312" fill="none" stroke="#c9a24b" stroke-width="0.7" opacity="0.18"/><polygon points="32,336 56,360 32,384 8,360" fill="none" stroke="#c9a24b" stroke-width="0.7" opacity="0.18"/><polygon points="32,384 56,408 32,432 8,408" fill="none" stroke="#c9a24b" stroke-width="0.7" opacity="0.18"/><polygon points="32,432 56,456 32,480 8,456" fill="none" stroke="#c9a24b" stroke-width="0.7" opacity="0.18"/><polygon points="32,480 56,504 32,528 8,504" fill="none" stroke="#c9a24b" stroke-width="0.7" opacity="0.18"/><polygon points="32,528 56,552 32,576 8,552" fill="none" stroke="#c9a24b" stroke-width="0.7" opacity="0.18"/><polygon points="32,576 56,600 32,624 8,600" fill="none" stroke="#c9a24b" stroke-width="0.7" opacity="0.18"/><polygon points="32,624 56,648 32,672 8,648" fill="none" stroke="#c9a24b" stroke-width="0.7" opacity="0.18"/><polygon points="32,672 56,696 32,720 8,696" fill="none" stroke="#c9a24b" stroke-width="0.7" opacity="0.18"/><polygon points="32,720 56,744 32,768 8,744" fill="none" stroke="#c9a24b" stroke-width="0.7" opacity="0.18"/><polygon points="32,768 56,792 32,816 8,792" fill="none" stroke="#c9a24b" stroke-width="0.7" opacity="0.18"/><polygon points="32,816 56,840 32,864 8,840" fill="none" stroke="#c9a24b" stroke-width="0.7" opacity="0.18"/><polygon points="32,864 56,888 32,912 8,888" fill="none" stroke="#c9a24b" stroke-width="0.7" opacity="0.18"/><polygon points="32,912 56,936 32,960 8,936" fill="none" stroke="#c9a24b" stroke-width="0.7" opacity="0.18"/><polygon points="32,960 56,984 32,1008 8,984" fill="none" stroke="#c9a24b" stroke-width="0.7" opacity="0.18"/><polygon points="32,1008 56,1032 32,1056 8,1032" fill="none" stroke="#c9a24b" stroke-width="0.7" opacity="0.18"/><polygon points="32,1056 56,1080 32,1104 8,1080" fill="none" stroke="#c9a24b" stroke-width="0.7" opacity="0.18"/><polygon points="80,-48 104,-24 80,0 56,-24" fill="none" stroke="#c9a24b" stroke-width="0.7" opacity="0.18"/><polygon points="80,0 104,24 80,48 56,24" fill="none" stroke="#c9a24b" stroke-width="0.7" opacity="0.18"/><polygon points="80,48 104,72 80,96 56,72" fill="none" stroke="#c9a24b" stroke-width="0.7" opacity="0.18"/><polygon points="80,96 104,120 80,144 56,120" fill="none" stroke="#c9a24b" stroke-width="0.7" opacity="0.18"/><polygon points="80,144 104,168 80,192 56,168" fill="none" stroke="#c9a24b" stroke-width="0.7" opacity="0.18"/><polygon points="80,192 104,216 80,240 56,216" fill="none" stroke="#c9a24b" stroke-width="0.7" opacity="0.18"/><polygon points="80,240 104,264 80,288 56,264" fill="none" stroke="#c9a24b" stroke-width="0.7" opacity="0.18"/><polygon points="80,288 104,312 80,336 56,312" fill="none" stroke="#c9a24b" stroke-width="0.7" opacity="0.18"/><polygon points="80,336 104,360 80,384 56,360" fill="none" stroke="#c9a24b" stroke-width="0.7" opacity="0.18"/><polygon points="80,384 104,408 80,432 56,408" fill="none" stroke="#c9a24b" stroke-width="0.7" opacity="0.18"/><polygon points="80,432 104,456 80,480 56,456" fill="none" stroke="#c9a24b" stroke-width="0.7" opacity="0.18"/><polygon points="80,480 104,504 80,528 56,504" fill="none" stroke="#c9a24b" stroke-width="0.7" opacity="0.18"/><polygon points="80,528 104,552 80,576 56,552" fill="none" stroke="#c9a24b" stroke-width="0.7" opacity="0.18"/><polygon points="80,576 104,600 80,624 56,600" fill="none" stroke="#c9a24b" stroke-width="0.7" opacity="0.18"/><polygon points="80,624 104,648 80,672 56,648" fill="none" stroke="#c9a24b" stroke-width="0.7" opacity="0.18"/><polygon points="80,672 104,696 80,720 56,696" fill="none" stroke="#c9a24b" stroke-width="0.7" opacity="0.18"/><polygon points="80,720 104,744 80,768 56,744" fill="none" stroke="#c9a24b" stroke-width="0.7" opacity="0.18"/><polygon points="80,768 104,792 80,816 56,792" fill="none" stroke="#c9a24b" stroke-width="0.7" opacity="0.18"/><polygon points="80,816 104,840 80,864 56,840" fill="none" stroke="#c9a24b" stroke-width="0.7" opacity="0.18"/><polygon points="80,864 104,888 80,912 56,888" fill="none" stroke="#c9a24b" stroke-width="0.7" opacity="0.18"/><polygon points="80,912 104,936 80,960 56,936" fill="none" stroke="#c9a24b" stroke-width="0.7" opacity="0.18"/><polygon points="80,960 104,984 80,1008 56,984" fill="none" stroke="#c9a24b" stroke-width="0.7" opacity="0.18"/><polygon points="80,1008 104,1032 80,1056 56,1032" fill="none" stroke="#c9a24b" stroke-width="0.7" opacity="0.18"/><polygon points="80,1056 104,1080 80,1104 56,1080" fill="none" stroke="#c9a24b" stroke-width="0.7" opacity="0.18"/><polygon points="128,-48 152,-24 128,0 104,-24" fill="none" stroke="#c9a24b" stroke-width="0.7" opacity="0.18"/><polygon points="128,0 152,24 128,48 104,24" fill="none" stroke="#c9a24b" stroke-width="0.7" opacity="0.18"/><polygon points="128,48 152,72 128,96 104,72" fill="none" stroke="#c9a24b" stroke-width="0.7" opacity="0.18"/><polygon points="128,96 152,120 128,144 104,120" fill="none" stroke="#c9a24b" stroke-width="0.7" opacity="0.18"/><polygon points="128,144 152,168 128,192 104,168" fill="none" stroke="#c9a24b" stroke-width="0.7" opacity="0.18"/><polygon points="128,192 152,216 128,240 104,216" fill="none" stroke="#c9a24b" stroke-width="0.7" opacity="0.18"/><polygon points="128,240 152,264 128,288 104,264" fill="none" stroke="#c9a24b" stroke-width="0.7" opacity="0.18"/><polygon points="128,288 152,312 128,336 104,312" fill="none" stroke="#c9a24b" stroke-width="0.7" opacity="0.18"/><polygon points="128,336 152,360 128,384 104,360" fill="none" stroke="#c9a24b" stroke-width="0.7" opacity="0.18"/><polygon points="128,384 152,408 128,432 104,408" fill="none" stroke="#c9a24b" stroke-width="0.7" opacity="0.18"/><polygon points="128,432 152,456 128,480 104,456" fill="none" stroke="#c9a24b" stroke-width="0.7" opacity="0.18"/><polygon points="128,480 152,504 128,528 104,504" fill="none" stroke="#c9a24b" stroke-width="0.7" opacity="0.18"/><polygon points="128,528 152,552 128,576 104,552" fill="none" stroke="#c9a24b" stroke-width="0.7" opacity="0.18"/><polygon points="128,576 152,600 128,624 104,600" fill="none" stroke="#c9a24b" stroke-width="0.7" opacity="0.18"/><polygon points="128,624 152,648 128,672 104,648" fill="none" stroke="#c9a24b" stroke-width="0.7" opacity="0.18"/><polygon points="128,672 152,696 128,720 104,696" fill="none" stroke="#c9a24b" stroke-width="0.7" opacity="0.18"/><polygon points="128,720 152,744 128,768 104,744" fill="none" stroke="#c9a24b" stroke-width="0.7" opacity="0.18"/><polygon points="128,768 152,792 128,816 104,792" fill="none" stroke="#c9a24b" stroke-width="0.7" opacity="0.18"/><polygon points="128,816 152,840 128,864 104,840" fill="none" stroke="#c9a24b" stroke-width="0.7" opacity="0.18"/><polygon points="128,864 152,888 128,912 104,888" fill="none" stroke="#c9a24b" stroke-width="0.7" opacity="0.18"/><polygon points="128,912 152,936 128,960 104,936" fill="none" stroke="#c9a24b" stroke-width="0.7" opacity="0.18"/><polygon points="128,960 152,984 128,1008 104,984" fill="none" stroke="#c9a24b" stroke-width="0.7" opacity="0.18"/><polygon points="128,1008 152,1032 128,1056 104,1032" fill="none" stroke="#c9a24b" stroke-width="0.7" opacity="0.18"/><polygon points="128,1056 152,1080 128,1104 104,1080" fill="none" stroke="#c9a24b" stroke-width="0.7" opacity="0.18"/><polygon points="176,-48 200,-24 176,0 152,-24" fill="none" stroke="#c9a24b" stroke-width="0.7" opacity="0.18"/><polygon points="176,0 200,24 176,48 152,24" fill="none" stroke="#c9a24b" stroke-width="0.7" opacity="0.18"/><polygon points="176,48 200,72 176,96 152,72" fill="none" stroke="#c9a24b" stroke-width="0.7" opacity="0.18"/><polygon points="176,96 200,120 176,144 152,120" fill="none" stroke="#c9a24b" stroke-width="0.7" opacity="0.18"/><polygon points="176,144 200,168 176,192 152,168" fill="none" stroke="#c9a24b" stroke-width="0.7" opacity="0.18"/><polygon points="176,192 200,216 176,240 152,216" fill="none" stroke="#c9a24b" stroke-width="0.7" opacity="0.18"/><polygon points="176,240 200,264 176,288 152,264" fill="none" stroke="#c9a24b" stroke-width="0.7" opacity="0.18"/><polygon points="176,288 200,312 176,336 152,312" fill="none" stroke="#c9a24b" stroke-width="0.7" opacity="0.18"/><polygon points="176,336 200,360 176,384 152,360" fill="none" stroke="#c9a24b" stroke-width="0.7" opacity="0.18"/><polygon points="176,384 200,408 176,432 152,408" fill="none" stroke="#c9a24b" stroke-width="0.7" opacity="0.18"/><polygon points="176,432 200,456 176,480 152,456" fill="none" stroke="#c9a24b" stroke-width="0.7" opacity="0.18"/><polygon points="176,480 200,504 176,528 152,504" fill="none" stroke="#c9a24b" stroke-width="0.7" opacity="0.18"/><polygon points="176,528 200,552 176,576 152,552" fill="none" stroke="#c9a24b" stroke-width="0.7" opacity="0.18"/><polygon points="176,576 200,600 176,624 152,600" fill="none" stroke="#c9a24b" stroke-width="0.7" opacity="0.18"/><polygon points="176,624 200,648 176,672 152,648" fill="none" stroke="#c9a24b" stroke-width="0.7" opacity="0.18"/><polygon points="176,672 200,696 176,720 152,696" fill="none" stroke="#c9a24b" stroke-width="0.7" opacity="0.18"/><polygon points="176,720 200,744 176,768 152,744" fill="none" stroke="#c9a24b" stroke-width="0.7" opacity="0.18"/><polygon points="176,768 200,792 176,816 152,792" fill="none" stroke="#c9a24b" stroke-width="0.7" opacity="0.18"/><polygon points="176,816 200,840 176,864 152,840" fill="none" stroke="#c9a24b" stroke-width="0.7" opacity="0.18"/><polygon points="176,864 200,888 176,912 152,888" fill="none" stroke="#c9a24b" stroke-width="0.7" opacity="0.18"/><polygon points="176,912 200,936 176,960 152,936" fill="none" stroke="#c9a24b" stroke-width="0.7" opacity="0.18"/><polygon points="176,960 200,984 176,1008 152,984" fill="none" stroke="#c9a24b" stroke-width="0.7" opacity="0.18"/><polygon points="176,1008 200,1032 176,1056 152,1032" fill="none" stroke="#c9a24b" stroke-width="0.7" opacity="0.18"/><polygon points="176,1056 200,1080 176,1104 152,1080" fill="none" stroke="#c9a24b" stroke-width="0.7" opacity="0.18"/><polygon points="224,-48 248,-24 224,0 200,-24" fill="none" stroke="#c9a24b" stroke-width="0.7" opacity="0.18"/><polygon points="224,0 248,24 224,48 200,24" fill="none" stroke="#c9a24b" stroke-width="0.7" opacity="0.18"/><polygon points="224,48 248,72 224,96 200,72" fill="none" stroke="#c9a24b" stroke-width="0.7" opacity="0.18"/><polygon points="224,96 248,120 224,144 200,120" fill="none" stroke="#c9a24b" stroke-width="0.7" opacity="0.18"/><polygon points="224,144 248,168 224,192 200,168" fill="none" stroke="#c9a24b" stroke-width="0.7" opacity="0.18"/><polygon points="224,192 248,216 224,240 200,216" fill="none" stroke="#c9a24b" stroke-width="0.7" opacity="0.18"/><polygon points="224,240 248,264 224,288 200,264" fill="none" stroke="#c9a24b" stroke-width="0.7" opacity="0.18"/><polygon points="224,288 248,312 224,336 200,312" fill="none" stroke="#c9a24b" stroke-width="0.7" opacity="0.18"/><polygon points="224,336 248,360 224,384 200,360" fill="none" stroke="#c9a24b" stroke-width="0.7" opacity="0.18"/><polygon points="224,384 248,408 224,432 200,408" fill="none" stroke="#c9a24b" stroke-width="0.7" opacity="0.18"/><polygon points="224,432 248,456 224,480 200,456" fill="none" stroke="#c9a24b" stroke-width="0.7" opacity="0.18"/><polygon points="224,480 248,504 224,528 200,504" fill="none" stroke="#c9a24b" stroke-width="0.7" opacity="0.18"/><polygon points="224,528 248,552 224,576 200,552" fill="none" stroke="#c9a24b" stroke-width="0.7" opacity="0.18"/><polygon points="224,576 248,600 224,624 200,600" fill="none" stroke="#c9a24b" stroke-width="0.7" opacity="0.18"/><polygon points="224,624 248,648 224,672 200,648" fill="none" stroke="#c9a24b" stroke-width="0.7" opacity="0.18"/><polygon points="224,672 248,696 224,720 200,696" fill="none" stroke="#c9a24b" stroke-width="0.7" opacity="0.18"/><polygon points="224,720 248,744 224,768 200,744" fill="none" stroke="#c9a24b" stroke-width="0.7" opacity="0.18"/><polygon points="224,768 248,792 224,816 200,792" fill="none" stroke="#c9a24b" stroke-width="0.7" opacity="0.18"/><polygon points="224,816 248,840 224,864 200,840" fill="none" stroke="#c9a24b" stroke-width="0.7" opacity="0.18"/><polygon points="224,864 248,888 224,912 200,888" fill="none" stroke="#c9a24b" stroke-width="0.7" opacity="0.18"/><polygon points="224,912 248,936 224,960 200,936" fill="none" stroke="#c9a24b" stroke-width="0.7" opacity="0.18"/><polygon points="224,960 248,984 224,1008 200,984" fill="none" stroke="#c9a24b" stroke-width="0.7" opacity="0.18"/><polygon points="224,1008 248,1032 224,1056 200,1032" fill="none" stroke="#c9a24b" stroke-width="0.7" opacity="0.18"/><polygon points="224,1056 248,1080 224,1104 200,1080" fill="none" stroke="#c9a24b" stroke-width="0.7" opacity="0.18"/><polygon points="272,-48 296,-24 272,0 248,-24" fill="none" stroke="#c9a24b" stroke-width="0.7" opacity="0.18"/><polygon points="272,0 296,24 272,48 248,24" fill="none" stroke="#c9a24b" stroke-width="0.7" opacity="0.18"/><polygon points="272,48 296,72 272,96 248,72" fill="none" stroke="#c9a24b" stroke-width="0.7" opacity="0.18"/><polygon points="272,96 296,120 272,144 248,120" fill="none" stroke="#c9a24b" stroke-width="0.7" opacity="0.18"/><polygon points="272,144 296,168 272,192 248,168" fill="none" stroke="#c9a24b" stroke-width="0.7" opacity="0.18"/><polygon points="272,192 296,216 272,240 248,216" fill="none" stroke="#c9a24b" stroke-width="0.7" opacity="0.18"/><polygon points="272,240 296,264 272,288 248,264" fill="none" stroke="#c9a24b" stroke-width="0.7" opacity="0.18"/><polygon points="272,288 296,312 272,336 248,312" fill="none" stroke="#c9a24b" stroke-width="0.7" opacity="0.18"/><polygon points="272,336 296,360 272,384 248,360" fill="none" stroke="#c9a24b" stroke-width="0.7" opacity="0.18"/><polygon points="272,384 296,408 272,432 248,408" fill="none" stroke="#c9a24b" stroke-width="0.7" opacity="0.18"/><polygon points="272,432 296,456 272,480 248,456" fill="none" stroke="#c9a24b" stroke-width="0.7" opacity="0.18"/><polygon points="272,480 296,504 272,528 248,504" fill="none" stroke="#c9a24b" stroke-width="0.7" opacity="0.18"/><polygon points="272,528 296,552 272,576 248,552" fill="none" stroke="#c9a24b" stroke-width="0.7" opacity="0.18"/><polygon points="272,576 296,600 272,624 248,600" fill="none" stroke="#c9a24b" stroke-width="0.7" opacity="0.18"/><polygon points="272,624 296,648 272,672 248,648" fill="none" stroke="#c9a24b" stroke-width="0.7" opacity="0.18"/><polygon points="272,672 296,696 272,720 248,696" fill="none" stroke="#c9a24b" stroke-width="0.7" opacity="0.18"/><polygon points="272,720 296,744 272,768 248,744" fill="none" stroke="#c9a24b" stroke-width="0.7" opacity="0.18"/><polygon points="272,768 296,792 272,816 248,792" fill="none" stroke="#c9a24b" stroke-width="0.7" opacity="0.18"/><polygon points="272,816 296,840 272,864 248,840" fill="none" stroke="#c9a24b" stroke-width="0.7" opacity="0.18"/><polygon points="272,864 296,888 272,912 248,888" fill="none" stroke="#c9a24b" stroke-width="0.7" opacity="0.18"/><polygon points="272,912 296,936 272,960 248,936" fill="none" stroke="#c9a24b" stroke-width="0.7" opacity="0.18"/><polygon points="272,960 296,984 272,1008 248,984" fill="none" stroke="#c9a24b" stroke-width="0.7" opacity="0.18"/><polygon points="272,1008 296,1032 272,1056 248,1032" fill="none" stroke="#c9a24b" stroke-width="0.7" opacity="0.18"/><polygon points="272,1056 296,1080 272,1104 248,1080" fill="none" stroke="#c9a24b" stroke-width="0.7" opacity="0.18"/><polygon points="320,-48 344,-24 320,0 296,-24" fill="none" stroke="#c9a24b" stroke-width="0.7" opacity="0.18"/><polygon points="320,0 344,24 320,48 296,24" fill="none" stroke="#c9a24b" stroke-width="0.7" opacity="0.18"/><polygon points="320,48 344,72 320,96 296,72" fill="none" stroke="#c9a24b" stroke-width="0.7" opacity="0.18"/><polygon points="320,96 344,120 320,144 296,120" fill="none" stroke="#c9a24b" stroke-width="0.7" opacity="0.18"/><polygon points="320,144 344,168 320,192 296,168" fill="none" stroke="#c9a24b" stroke-width="0.7" opacity="0.18"/><polygon points="320,192 344,216 320,240 296,216" fill="none" stroke="#c9a24b" stroke-width="0.7" opacity="0.18"/><polygon points="320,240 344,264 320,288 296,264" fill="none" stroke="#c9a24b" stroke-width="0.7" opacity="0.18"/><polygon points="320,288 344,312 320,336 296,312" fill="none" stroke="#c9a24b" stroke-width="0.7" opacity="0.18"/><polygon points="320,336 344,360 320,384 296,360" fill="none" stroke="#c9a24b" stroke-width="0.7" opacity="0.18"/><polygon points="320,384 344,408 320,432 296,408" fill="none" stroke="#c9a24b" stroke-width="0.7" opacity="0.18"/><polygon points="320,432 344,456 320,480 296,456" fill="none" stroke="#c9a24b" stroke-width="0.7" opacity="0.18"/><polygon points="320,480 344,504 320,528 296,504" fill="none" stroke="#c9a24b" stroke-width="0.7" opacity="0.18"/><polygon points="320,528 344,552 320,576 296,552" fill="none" stroke="#c9a24b" stroke-width="0.7" opacity="0.18"/><polygon points="320,576 344,600 320,624 296,600" fill="none" stroke="#c9a24b" stroke-width="0.7" opacity="0.18"/><polygon points="320,624 344,648 320,672 296,648" fill="none" stroke="#c9a24b" stroke-width="0.7" opacity="0.18"/><polygon points="320,672 344,696 320,720 296,696" fill="none" stroke="#c9a24b" stroke-width="0.7" opacity="0.18"/><polygon points="320,720 344,744 320,768 296,744" fill="none" stroke="#c9a24b" stroke-width="0.7" opacity="0.18"/><polygon points="320,768 344,792 320,816 296,792" fill="none" stroke="#c9a24b" stroke-width="0.7" opacity="0.18"/><polygon points="320,816 344,840 320,864 296,840" fill="none" stroke="#c9a24b" stroke-width="0.7" opacity="0.18"/><polygon points="320,864 344,888 320,912 296,888" fill="none" stroke="#c9a24b" stroke-width="0.7" opacity="0.18"/><polygon points="320,912 344,936 320,960 296,936" fill="none" stroke="#c9a24b" stroke-width="0.7" opacity="0.18"/><polygon points="320,960 344,984 320,1008 296,984" fill="none" stroke="#c9a24b" stroke-width="0.7" opacity="0.18"/><polygon points="320,1008 344,1032 320,1056 296,1032" fill="none" stroke="#c9a24b" stroke-width="0.7" opacity="0.18"/><polygon points="320,1056 344,1080 320,1104 296,1080" fill="none" stroke="#c9a24b" stroke-width="0.7" opacity="0.18"/><polygon points="368,-48 392,-24 368,0 344,-24" fill="none" stroke="#c9a24b" stroke-width="0.7" opacity="0.18"/><polygon points="368,0 392,24 368,48 344,24" fill="none" stroke="#c9a24b" stroke-width="0.7" opacity="0.18"/><polygon points="368,48 392,72 368,96 344,72" fill="none" stroke="#c9a24b" stroke-width="0.7" opacity="0.18"/><polygon points="368,96 392,120 368,144 344,120" fill="none" stroke="#c9a24b" stroke-width="0.7" opacity="0.18"/><polygon points="368,144 392,168 368,192 344,168" fill="none" stroke="#c9a24b" stroke-width="0.7" opacity="0.18"/><polygon points="368,192 392,216 368,240 344,216" fill="none" stroke="#c9a24b" stroke-width="0.7" opacity="0.18"/><polygon points="368,240 392,264 368,288 344,264" fill="none" stroke="#c9a24b" stroke-width="0.7" opacity="0.18"/><polygon points="368,288 392,312 368,336 344,312" fill="none" stroke="#c9a24b" stroke-width="0.7" opacity="0.18"/><polygon points="368,336 392,360 368,384 344,360" fill="none" stroke="#c9a24b" stroke-width="0.7" opacity="0.18"/><polygon points="368,384 392,408 368,432 344,408" fill="none" stroke="#c9a24b" stroke-width="0.7" opacity="0.18"/><polygon points="368,432 392,456 368,480 344,456" fill="none" stroke="#c9a24b" stroke-width="0.7" opacity="0.18"/><polygon points="368,480 392,504 368,528 344,504" fill="none" stroke="#c9a24b" stroke-width="0.7" opacity="0.18"/><polygon points="368,528 392,552 368,576 344,552" fill="none" stroke="#c9a24b" stroke-width="0.7" opacity="0.18"/><polygon points="368,576 392,600 368,624 344,600" fill="none" stroke="#c9a24b" stroke-width="0.7" opacity="0.18"/><polygon points="368,624 392,648 368,672 344,648" fill="none" stroke="#c9a24b" stroke-width="0.7" opacity="0.18"/><polygon points="368,672 392,696 368,720 344,696" fill="none" stroke="#c9a24b" stroke-width="0.7" opacity="0.18"/><polygon points="368,720 392,744 368,768 344,744" fill="none" stroke="#c9a24b" stroke-width="0.7" opacity="0.18"/><polygon points="368,768 392,792 368,816 344,792" fill="none" stroke="#c9a24b" stroke-width="0.7" opacity="0.18"/><polygon points="368,816 392,840 368,864 344,840" fill="none" stroke="#c9a24b" stroke-width="0.7" opacity="0.18"/><polygon points="368,864 392,888 368,912 344,888" fill="none" stroke="#c9a24b" stroke-width="0.7" opacity="0.18"/><polygon points="368,912 392,936 368,960 344,936" fill="none" stroke="#c9a24b" stroke-width="0.7" opacity="0.18"/><polygon points="368,960 392,984 368,1008 344,984" fill="none" stroke="#c9a24b" stroke-width="0.7" opacity="0.18"/><polygon points="368,1008 392,1032 368,1056 344,1032" fill="none" stroke="#c9a24b" stroke-width="0.7" opacity="0.18"/><polygon points="368,1056 392,1080 368,1104 344,1080" fill="none" stroke="#c9a24b" stroke-width="0.7" opacity="0.18"/><polygon points="416,-48 440,-24 416,0 392,-24" fill="none" stroke="#c9a24b" stroke-width="0.7" opacity="0.18"/><polygon points="416,0 440,24 416,48 392,24" fill="none" stroke="#c9a24b" stroke-width="0.7" opacity="0.18"/><polygon points="416,48 440,72 416,96 392,72" fill="none" stroke="#c9a24b" stroke-width="0.7" opacity="0.18"/><polygon points="416,96 440,120 416,144 392,120" fill="none" stroke="#c9a24b" stroke-width="0.7" opacity="0.18"/><polygon points="416,144 440,168 416,192 392,168" fill="none" stroke="#c9a24b" stroke-width="0.7" opacity="0.18"/><polygon points="416,192 440,216 416,240 392,216" fill="none" stroke="#c9a24b" stroke-width="0.7" opacity="0.18"/><polygon points="416,240 440,264 416,288 392,264" fill="none" stroke="#c9a24b" stroke-width="0.7" opacity="0.18"/><polygon points="416,288 440,312 416,336 392,312" fill="none" stroke="#c9a24b" stroke-width="0.7" opacity="0.18"/><polygon points="416,336 440,360 416,384 392,360" fill="none" stroke="#c9a24b" stroke-width="0.7" opacity="0.18"/><polygon points="416,384 440,408 416,432 392,408" fill="none" stroke="#c9a24b" stroke-width="0.7" opacity="0.18"/><polygon points="416,432 440,456 416,480 392,456" fill="none" stroke="#c9a24b" stroke-width="0.7" opacity="0.18"/><polygon points="416,480 440,504 416,528 392,504" fill="none" stroke="#c9a24b" stroke-width="0.7" opacity="0.18"/><polygon points="416,528 440,552 416,576 392,552" fill="none" stroke="#c9a24b" stroke-width="0.7" opacity="0.18"/><polygon points="416,576 440,600 416,624 392,600" fill="none" stroke="#c9a24b" stroke-width="0.7" opacity="0.18"/><polygon points="416,624 440,648 416,672 392,648" fill="none" stroke="#c9a24b" stroke-width="0.7" opacity="0.18"/><polygon points="416,672 440,696 416,720 392,696" fill="none" stroke="#c9a24b" stroke-width="0.7" opacity="0.18"/><polygon points="416,720 440,744 416,768 392,744" fill="none" stroke="#c9a24b" stroke-width="0.7" opacity="0.18"/><polygon points="416,768 440,792 416,816 392,792" fill="none" stroke="#c9a24b" stroke-width="0.7" opacity="0.18"/><polygon points="416,816 440,840 416,864 392,840" fill="none" stroke="#c9a24b" stroke-width="0.7" opacity="0.18"/><polygon points="416,864 440,888 416,912 392,888" fill="none" stroke="#c9a24b" stroke-width="0.7" opacity="0.18"/><polygon points="416,912 440,936 416,960 392,936" fill="none" stroke="#c9a24b" stroke-width="0.7" opacity="0.18"/><polygon points="416,960 440,984 416,1008 392,984" fill="none" stroke="#c9a24b" stroke-width="0.7" opacity="0.18"/><polygon points="416,1008 440,1032 416,1056 392,1032" fill="none" stroke="#c9a24b" stroke-width="0.7" opacity="0.18"/><polygon points="416,1056 440,1080 416,1104 392,1080" fill="none" stroke="#c9a24b" stroke-width="0.7" opacity="0.18"/><polygon points="464,-48 488,-24 464,0 440,-24" fill="none" stroke="#c9a24b" stroke-width="0.7" opacity="0.18"/><polygon points="464,0 488,24 464,48 440,24" fill="none" stroke="#c9a24b" stroke-width="0.7" opacity="0.18"/><polygon points="464,48 488,72 464,96 440,72" fill="none" stroke="#c9a24b" stroke-width="0.7" opacity="0.18"/><polygon points="464,96 488,120 464,144 440,120" fill="none" stroke="#c9a24b" stroke-width="0.7" opacity="0.18"/><polygon points="464,144 488,168 464,192 440,168" fill="none" stroke="#c9a24b" stroke-width="0.7" opacity="0.18"/><polygon points="464,192 488,216 464,240 440,216" fill="none" stroke="#c9a24b" stroke-width="0.7" opacity="0.18"/><polygon points="464,240 488,264 464,288 440,264" fill="none" stroke="#c9a24b" stroke-width="0.7" opacity="0.18"/><polygon points="464,288 488,312 464,336 440,312" fill="none" stroke="#c9a24b" stroke-width="0.7" opacity="0.18"/><polygon points="464,336 488,360 464,384 440,360" fill="none" stroke="#c9a24b" stroke-width="0.7" opacity="0.18"/><polygon points="464,384 488,408 464,432 440,408" fill="none" stroke="#c9a24b" stroke-width="0.7" opacity="0.18"/><polygon points="464,432 488,456 464,480 440,456" fill="none" stroke="#c9a24b" stroke-width="0.7" opacity="0.18"/><polygon points="464,480 488,504 464,528 440,504" fill="none" stroke="#c9a24b" stroke-width="0.7" opacity="0.18"/><polygon points="464,528 488,552 464,576 440,552" fill="none" stroke="#c9a24b" stroke-width="0.7" opacity="0.18"/><polygon points="464,576 488,600 464,624 440,600" fill="none" stroke="#c9a24b" stroke-width="0.7" opacity="0.18"/><polygon points="464,624 488,648 464,672 440,648" fill="none" stroke="#c9a24b" stroke-width="0.7" opacity="0.18"/><polygon points="464,672 488,696 464,720 440,696" fill="none" stroke="#c9a24b" stroke-width="0.7" opacity="0.18"/><polygon points="464,720 488,744 464,768 440,744" fill="none" stroke="#c9a24b" stroke-width="0.7" opacity="0.18"/><polygon points="464,768 488,792 464,816 440,792" fill="none" stroke="#c9a24b" stroke-width="0.7" opacity="0.18"/><polygon points="464,816 488,840 464,864 440,840" fill="none" stroke="#c9a24b" stroke-width="0.7" opacity="0.18"/><polygon points="464,864 488,888 464,912 440,888" fill="none" stroke="#c9a24b" stroke-width="0.7" opacity="0.18"/><polygon points="464,912 488,936 464,960 440,936" fill="none" stroke="#c9a24b" stroke-width="0.7" opacity="0.18"/><polygon points="464,960 488,984 464,1008 440,984" fill="none" stroke="#c9a24b" stroke-width="0.7" opacity="0.18"/><polygon points="464,1008 488,1032 464,1056 440,1032" fill="none" stroke="#c9a24b" stroke-width="0.7" opacity="0.18"/><polygon points="464,1056 488,1080 464,1104 440,1080" fill="none" stroke="#c9a24b" stroke-width="0.7" opacity="0.18"/><polygon points="512,-48 536,-24 512,0 488,-24" fill="none" stroke="#c9a24b" stroke-width="0.7" opacity="0.18"/><polygon points="512,0 536,24 512,48 488,24" fill="none" stroke="#c9a24b" stroke-width="0.7" opacity="0.18"/><polygon points="512,48 536,72 512,96 488,72" fill="none" stroke="#c9a24b" stroke-width="0.7" opacity="0.18"/><polygon points="512,96 536,120 512,144 488,120" fill="none" stroke="#c9a24b" stroke-width="0.7" opacity="0.18"/><polygon points="512,144 536,168 512,192 488,168" fill="none" stroke="#c9a24b" stroke-width="0.7" opacity="0.18"/><polygon points="512,192 536,216 512,240 488,216" fill="none" stroke="#c9a24b" stroke-width="0.7" opacity="0.18"/><polygon points="512,240 536,264 512,288 488,264" fill="none" stroke="#c9a24b" stroke-width="0.7" opacity="0.18"/><polygon points="512,288 536,312 512,336 488,312" fill="none" stroke="#c9a24b" stroke-width="0.7" opacity="0.18"/><polygon points="512,336 536,360 512,384 488,360" fill="none" stroke="#c9a24b" stroke-width="0.7" opacity="0.18"/><polygon points="512,384 536,408 512,432 488,408" fill="none" stroke="#c9a24b" stroke-width="0.7" opacity="0.18"/><polygon points="512,432 536,456 512,480 488,456" fill="none" stroke="#c9a24b" stroke-width="0.7" opacity="0.18"/><polygon points="512,480 536,504 512,528 488,504" fill="none" stroke="#c9a24b" stroke-width="0.7" opacity="0.18"/><polygon points="512,528 536,552 512,576 488,552" fill="none" stroke="#c9a24b" stroke-width="0.7" opacity="0.18"/><polygon points="512,576 536,600 512,624 488,600" fill="none" stroke="#c9a24b" stroke-width="0.7" opacity="0.18"/><polygon points="512,624 536,648 512,672 488,648" fill="none" stroke="#c9a24b" stroke-width="0.7" opacity="0.18"/><polygon points="512,672 536,696 512,720 488,696" fill="none" stroke="#c9a24b" stroke-width="0.7" opacity="0.18"/><polygon points="512,720 536,744 512,768 488,744" fill="none" stroke="#c9a24b" stroke-width="0.7" opacity="0.18"/><polygon points="512,768 536,792 512,816 488,792" fill="none" stroke="#c9a24b" stroke-width="0.7" opacity="0.18"/><polygon points="512,816 536,840 512,864 488,840" fill="none" stroke="#c9a24b" stroke-width="0.7" opacity="0.18"/><polygon points="512,864 536,888 512,912 488,888" fill="none" stroke="#c9a24b" stroke-width="0.7" opacity="0.18"/><polygon points="512,912 536,936 512,960 488,936" fill="none" stroke="#c9a24b" stroke-width="0.7" opacity="0.18"/><polygon points="512,960 536,984 512,1008 488,984" fill="none" stroke="#c9a24b" stroke-width="0.7" opacity="0.18"/><polygon points="512,1008 536,1032 512,1056 488,1032" fill="none" stroke="#c9a24b" stroke-width="0.7" opacity="0.18"/><polygon points="512,1056 536,1080 512,1104 488,1080" fill="none" stroke="#c9a24b" stroke-width="0.7" opacity="0.18"/><polygon points="560,-48 584,-24 560,0 536,-24" fill="none" stroke="#c9a24b" stroke-width="0.7" opacity="0.18"/><polygon points="560,0 584,24 560,48 536,24" fill="none" stroke="#c9a24b" stroke-width="0.7" opacity="0.18"/><polygon points="560,48 584,72 560,96 536,72" fill="none" stroke="#c9a24b" stroke-width="0.7" opacity="0.18"/><polygon points="560,96 584,120 560,144 536,120" fill="none" stroke="#c9a24b" stroke-width="0.7" opacity="0.18"/><polygon points="560,144 584,168 560,192 536,168" fill="none" stroke="#c9a24b" stroke-width="0.7" opacity="0.18"/><polygon points="560,192 584,216 560,240 536,216" fill="none" stroke="#c9a24b" stroke-width="0.7" opacity="0.18"/><polygon points="560,240 584,264 560,288 536,264" fill="none" stroke="#c9a24b" stroke-width="0.7" opacity="0.18"/><polygon points="560,288 584,312 560,336 536,312" fill="none" stroke="#c9a24b" stroke-width="0.7" opacity="0.18"/><polygon points="560,336 584,360 560,384 536,360" fill="none" stroke="#c9a24b" stroke-width="0.7" opacity="0.18"/><polygon points="560,384 584,408 560,432 536,408" fill="none" stroke="#c9a24b" stroke-width="0.7" opacity="0.18"/><polygon points="560,432 584,456 560,480 536,456" fill="none" stroke="#c9a24b" stroke-width="0.7" opacity="0.18"/><polygon points="560,480 584,504 560,528 536,504" fill="none" stroke="#c9a24b" stroke-width="0.7" opacity="0.18"/><polygon points="560,528 584,552 560,576 536,552" fill="none" stroke="#c9a24b" stroke-width="0.7" opacity="0.18"/><polygon points="560,576 584,600 560,624 536,600" fill="none" stroke="#c9a24b" stroke-width="0.7" opacity="0.18"/><polygon points="560,624 584,648 560,672 536,648" fill="none" stroke="#c9a24b" stroke-width="0.7" opacity="0.18"/><polygon points="560,672 584,696 560,720 536,696" fill="none" stroke="#c9a24b" stroke-width="0.7" opacity="0.18"/><polygon points="560,720 584,744 560,768 536,744" fill="none" stroke="#c9a24b" stroke-width="0.7" opacity="0.18"/><polygon points="560,768 584,792 560,816 536,792" fill="none" stroke="#c9a24b" stroke-width="0.7" opacity="0.18"/><polygon points="560,816 584,840 560,864 536,840" fill="none" stroke="#c9a24b" stroke-width="0.7" opacity="0.18"/><polygon points="560,864 584,888 560,912 536,888" fill="none" stroke="#c9a24b" stroke-width="0.7" opacity="0.18"/><polygon points="560,912 584,936 560,960 536,936" fill="none" stroke="#c9a24b" stroke-width="0.7" opacity="0.18"/><polygon points="560,960 584,984 560,1008 536,984" fill="none" stroke="#c9a24b" stroke-width="0.7" opacity="0.18"/><polygon points="560,1008 584,1032 560,1056 536,1032" fill="none" stroke="#c9a24b" stroke-width="0.7" opacity="0.18"/><polygon points="560,1056 584,1080 560,1104 536,1080" fill="none" stroke="#c9a24b" stroke-width="0.7" opacity="0.18"/><polygon points="608,-48 632,-24 608,0 584,-24" fill="none" stroke="#c9a24b" stroke-width="0.7" opacity="0.18"/><polygon points="608,0 632,24 608,48 584,24" fill="none" stroke="#c9a24b" stroke-width="0.7" opacity="0.18"/><polygon points="608,48 632,72 608,96 584,72" fill="none" stroke="#c9a24b" stroke-width="0.7" opacity="0.18"/><polygon points="608,96 632,120 608,144 584,120" fill="none" stroke="#c9a24b" stroke-width="0.7" opacity="0.18"/><polygon points="608,144 632,168 608,192 584,168" fill="none" stroke="#c9a24b" stroke-width="0.7" opacity="0.18"/><polygon points="608,192 632,216 608,240 584,216" fill="none" stroke="#c9a24b" stroke-width="0.7" opacity="0.18"/><polygon points="608,240 632,264 608,288 584,264" fill="none" stroke="#c9a24b" stroke-width="0.7" opacity="0.18"/><polygon points="608,288 632,312 608,336 584,312" fill="none" stroke="#c9a24b" stroke-width="0.7" opacity="0.18"/><polygon points="608,336 632,360 608,384 584,360" fill="none" stroke="#c9a24b" stroke-width="0.7" opacity="0.18"/><polygon points="608,384 632,408 608,432 584,408" fill="none" stroke="#c9a24b" stroke-width="0.7" opacity="0.18"/><polygon points="608,432 632,456 608,480 584,456" fill="none" stroke="#c9a24b" stroke-width="0.7" opacity="0.18"/><polygon points="608,480 632,504 608,528 584,504" fill="none" stroke="#c9a24b" stroke-width="0.7" opacity="0.18"/><polygon points="608,528 632,552 608,576 584,552" fill="none" stroke="#c9a24b" stroke-width="0.7" opacity="0.18"/><polygon points="608,576 632,600 608,624 584,600" fill="none" stroke="#c9a24b" stroke-width="0.7" opacity="0.18"/><polygon points="608,624 632,648 608,672 584,648" fill="none" stroke="#c9a24b" stroke-width="0.7" opacity="0.18"/><polygon points="608,672 632,696 608,720 584,696" fill="none" stroke="#c9a24b" stroke-width="0.7" opacity="0.18"/><polygon points="608,720 632,744 608,768 584,744" fill="none" stroke="#c9a24b" stroke-width="0.7" opacity="0.18"/><polygon points="608,768 632,792 608,816 584,792" fill="none" stroke="#c9a24b" stroke-width="0.7" opacity="0.18"/><polygon points="608,816 632,840 608,864 584,840" fill="none" stroke="#c9a24b" stroke-width="0.7" opacity="0.18"/><polygon points="608,864 632,888 608,912 584,888" fill="none" stroke="#c9a24b" stroke-width="0.7" opacity="0.18"/><polygon points="608,912 632,936 608,960 584,936" fill="none" stroke="#c9a24b" stroke-width="0.7" opacity="0.18"/><polygon points="608,960 632,984 608,1008 584,984" fill="none" stroke="#c9a24b" stroke-width="0.7" opacity="0.18"/><polygon points="608,1008 632,1032 608,1056 584,1032" fill="none" stroke="#c9a24b" stroke-width="0.7" opacity="0.18"/><polygon points="608,1056 632,1080 608,1104 584,1080" fill="none" stroke="#c9a24b" stroke-width="0.7" opacity="0.18"/><polygon points="656,-48 680,-24 656,0 632,-24" fill="none" stroke="#c9a24b" stroke-width="0.7" opacity="0.18"/><polygon points="656,0 680,24 656,48 632,24" fill="none" stroke="#c9a24b" stroke-width="0.7" opacity="0.18"/><polygon points="656,48 680,72 656,96 632,72" fill="none" stroke="#c9a24b" stroke-width="0.7" opacity="0.18"/><polygon points="656,96 680,120 656,144 632,120" fill="none" stroke="#c9a24b" stroke-width="0.7" opacity="0.18"/><polygon points="656,144 680,168 656,192 632,168" fill="none" stroke="#c9a24b" stroke-width="0.7" opacity="0.18"/><polygon points="656,192 680,216 656,240 632,216" fill="none" stroke="#c9a24b" stroke-width="0.7" opacity="0.18"/><polygon points="656,240 680,264 656,288 632,264" fill="none" stroke="#c9a24b" stroke-width="0.7" opacity="0.18"/><polygon points="656,288 680,312 656,336 632,312" fill="none" stroke="#c9a24b" stroke-width="0.7" opacity="0.18"/><polygon points="656,336 680,360 656,384 632,360" fill="none" stroke="#c9a24b" stroke-width="0.7" opacity="0.18"/><polygon points="656,384 680,408 656,432 632,408" fill="none" stroke="#c9a24b" stroke-width="0.7" opacity="0.18"/><polygon points="656,432 680,456 656,480 632,456" fill="none" stroke="#c9a24b" stroke-width="0.7" opacity="0.18"/><polygon points="656,480 680,504 656,528 632,504" fill="none" stroke="#c9a24b" stroke-width="0.7" opacity="0.18"/><polygon points="656,528 680,552 656,576 632,552" fill="none" stroke="#c9a24b" stroke-width="0.7" opacity="0.18"/><polygon points="656,576 680,600 656,624 632,600" fill="none" stroke="#c9a24b" stroke-width="0.7" opacity="0.18"/><polygon points="656,624 680,648 656,672 632,648" fill="none" stroke="#c9a24b" stroke-width="0.7" opacity="0.18"/><polygon points="656,672 680,696 656,720 632,696" fill="none" stroke="#c9a24b" stroke-width="0.7" opacity="0.18"/><polygon points="656,720 680,744 656,768 632,744" fill="none" stroke="#c9a24b" stroke-width="0.7" opacity="0.18"/><polygon points="656,768 680,792 656,816 632,792" fill="none" stroke="#c9a24b" stroke-width="0.7" opacity="0.18"/><polygon points="656,816 680,840 656,864 632,840" fill="none" stroke="#c9a24b" stroke-width="0.7" opacity="0.18"/><polygon points="656,864 680,888 656,912 632,888" fill="none" stroke="#c9a24b" stroke-width="0.7" opacity="0.18"/><polygon points="656,912 680,936 656,960 632,936" fill="none" stroke="#c9a24b" stroke-width="0.7" opacity="0.18"/><polygon points="656,960 680,984 656,1008 632,984" fill="none" stroke="#c9a24b" stroke-width="0.7" opacity="0.18"/><polygon points="656,1008 680,1032 656,1056 632,1032" fill="none" stroke="#c9a24b" stroke-width="0.7" opacity="0.18"/><polygon points="656,1056 680,1080 656,1104 632,1080" fill="none" stroke="#c9a24b" stroke-width="0.7" opacity="0.18"/><polygon points="704,-48 728,-24 704,0 680,-24" fill="none" stroke="#c9a24b" stroke-width="0.7" opacity="0.18"/><polygon points="704,0 728,24 704,48 680,24" fill="none" stroke="#c9a24b" stroke-width="0.7" opacity="0.18"/><polygon points="704,48 728,72 704,96 680,72" fill="none" stroke="#c9a24b" stroke-width="0.7" opacity="0.18"/><polygon points="704,96 728,120 704,144 680,120" fill="none" stroke="#c9a24b" stroke-width="0.7" opacity="0.18"/><polygon points="704,144 728,168 704,192 680,168" fill="none" stroke="#c9a24b" stroke-width="0.7" opacity="0.18"/><polygon points="704,192 728,216 704,240 680,216" fill="none" stroke="#c9a24b" stroke-width="0.7" opacity="0.18"/><polygon points="704,240 728,264 704,288 680,264" fill="none" stroke="#c9a24b" stroke-width="0.7" opacity="0.18"/><polygon points="704,288 728,312 704,336 680,312" fill="none" stroke="#c9a24b" stroke-width="0.7" opacity="0.18"/><polygon points="704,336 728,360 704,384 680,360" fill="none" stroke="#c9a24b" stroke-width="0.7" opacity="0.18"/><polygon points="704,384 728,408 704,432 680,408" fill="none" stroke="#c9a24b" stroke-width="0.7" opacity="0.18"/><polygon points="704,432 728,456 704,480 680,456" fill="none" stroke="#c9a24b" stroke-width="0.7" opacity="0.18"/><polygon points="704,480 728,504 704,528 680,504" fill="none" stroke="#c9a24b" stroke-width="0.7" opacity="0.18"/><polygon points="704,528 728,552 704,576 680,552" fill="none" stroke="#c9a24b" stroke-width="0.7" opacity="0.18"/><polygon points="704,576 728,600 704,624 680,600" fill="none" stroke="#c9a24b" stroke-width="0.7" opacity="0.18"/><polygon points="704,624 728,648 704,672 680,648" fill="none" stroke="#c9a24b" stroke-width="0.7" opacity="0.18"/><polygon points="704,672 728,696 704,720 680,696" fill="none" stroke="#c9a24b" stroke-width="0.7" opacity="0.18"/><polygon points="704,720 728,744 704,768 680,744" fill="none" stroke="#c9a24b" stroke-width="0.7" opacity="0.18"/><polygon points="704,768 728,792 704,816 680,792" fill="none" stroke="#c9a24b" stroke-width="0.7" opacity="0.18"/><polygon points="704,816 728,840 704,864 680,840" fill="none" stroke="#c9a24b" stroke-width="0.7" opacity="0.18"/><polygon points="704,864 728,888 704,912 680,888" fill="none" stroke="#c9a24b" stroke-width="0.7" opacity="0.18"/><polygon points="704,912 728,936 704,960 680,936" fill="none" stroke="#c9a24b" stroke-width="0.7" opacity="0.18"/><polygon points="704,960 728,984 704,1008 680,984" fill="none" stroke="#c9a24b" stroke-width="0.7" opacity="0.18"/><polygon points="704,1008 728,1032 704,1056 680,1032" fill="none" stroke="#c9a24b" stroke-width="0.7" opacity="0.18"/><polygon points="704,1056 728,1080 704,1104 680,1080" fill="none" stroke="#c9a24b" stroke-width="0.7" opacity="0.18"/><polygon points="752,-48 776,-24 752,0 728,-24" fill="none" stroke="#c9a24b" stroke-width="0.7" opacity="0.18"/><polygon points="752,0 776,24 752,48 728,24" fill="none" stroke="#c9a24b" stroke-width="0.7" opacity="0.18"/><polygon points="752,48 776,72 752,96 728,72" fill="none" stroke="#c9a24b" stroke-width="0.7" opacity="0.18"/><polygon points="752,96 776,120 752,144 728,120" fill="none" stroke="#c9a24b" stroke-width="0.7" opacity="0.18"/><polygon points="752,144 776,168 752,192 728,168" fill="none" stroke="#c9a24b" stroke-width="0.7" opacity="0.18"/><polygon points="752,192 776,216 752,240 728,216" fill="none" stroke="#c9a24b" stroke-width="0.7" opacity="0.18"/><polygon points="752,240 776,264 752,288 728,264" fill="none" stroke="#c9a24b" stroke-width="0.7" opacity="0.18"/><polygon points="752,288 776,312 752,336 728,312" fill="none" stroke="#c9a24b" stroke-width="0.7" opacity="0.18"/><polygon points="752,336 776,360 752,384 728,360" fill="none" stroke="#c9a24b" stroke-width="0.7" opacity="0.18"/><polygon points="752,384 776,408 752,432 728,408" fill="none" stroke="#c9a24b" stroke-width="0.7" opacity="0.18"/><polygon points="752,432 776,456 752,480 728,456" fill="none" stroke="#c9a24b" stroke-width="0.7" opacity="0.18"/><polygon points="752,480 776,504 752,528 728,504" fill="none" stroke="#c9a24b" stroke-width="0.7" opacity="0.18"/><polygon points="752,528 776,552 752,576 728,552" fill="none" stroke="#c9a24b" stroke-width="0.7" opacity="0.18"/><polygon points="752,576 776,600 752,624 728,600" fill="none" stroke="#c9a24b" stroke-width="0.7" opacity="0.18"/><polygon points="752,624 776,648 752,672 728,648" fill="none" stroke="#c9a24b" stroke-width="0.7" opacity="0.18"/><polygon points="752,672 776,696 752,720 728,696" fill="none" stroke="#c9a24b" stroke-width="0.7" opacity="0.18"/><polygon points="752,720 776,744 752,768 728,744" fill="none" stroke="#c9a24b" stroke-width="0.7" opacity="0.18"/><polygon points="752,768 776,792 752,816 728,792" fill="none" stroke="#c9a24b" stroke-width="0.7" opacity="0.18"/><polygon points="752,816 776,840 752,864 728,840" fill="none" stroke="#c9a24b" stroke-width="0.7" opacity="0.18"/><polygon points="752,864 776,888 752,912 728,888" fill="none" stroke="#c9a24b" stroke-width="0.7" opacity="0.18"/><polygon points="752,912 776,936 752,960 728,936" fill="none" stroke="#c9a24b" stroke-width="0.7" opacity="0.18"/><polygon points="752,960 776,984 752,1008 728,984" fill="none" stroke="#c9a24b" stroke-width="0.7" opacity="0.18"/><polygon points="752,1008 776,1032 752,1056 728,1032" fill="none" stroke="#c9a24b" stroke-width="0.7" opacity="0.18"/><polygon points="752,1056 776,1080 752,1104 728,1080" fill="none" stroke="#c9a24b" stroke-width="0.7" opacity="0.18"/>
<rect x="0" y="0" width="680" height="148" fill="rgba(0,0,0,0.52)"/>
<line x1="0" y1="148" x2="680" y2="148" stroke="#e8c977" stroke-width="1.2"/>
<rect x="48" y="100" width="192" height="1.5" fill="#e8c977" opacity="0.5"/><rect x="440" y="100" width="192" height="1.5" fill="#e8c977" opacity="0.5"/>
<text x="343" y="135" text-anchor="middle" font-family="'Arial Black','Impact',sans-serif"
      font-weight="900" font-size="60" fill="rgba(0,0,0,0.45)" letter-spacing="4">SOLITAIRE</text>
<text x="340" y="132" text-anchor="middle" font-family="'Arial Black','Impact',sans-serif"
      font-weight="900" font-size="60" fill="#e8c977" letter-spacing="4">SOLITAIRE</text>
<text x="340" y="660" text-anchor="middle" dominant-baseline="central" font-size="300">🃏</text>
<rect x="0" y="988" width="680" height="32" fill="rgba(0,0,0,0.52)"/>
<line x1="0" y1="988" x2="680" y2="988" stroke="#e8c977" stroke-width="0.8" opacity="0.3"/>
</svg>