<svg xmlns="http://www.w3.org/2000/svg" viewBox="0 0 680 1020" width="400" height="600">
<defs>
  <linearGradient id="bgG" x1="0" y1="0" x2="0" y2="1">
    <stop offset="0%" stop-color="#050618"/>
    <stop offset="40%" stop-color="#0c0a2e"/>
    <stop offset="100%" stop-color="#060414"/>
  </linearGradient>
  <radialGradient id="xAtm" cx="20%" cy="70%" r="55%">
    <stop offset="0%" stop-color="#38bdf8" stop-opacity="0.12"/>
    <stop offset="100%" stop-color="#38bdf8" stop-opacity="0"/>
  </radialGradient>
  <radialGradient id="oAtm" cx="80%" cy="70%" r="55%">
    <stop offset="0%" stop-color="#f87171" stop-opacity="0.11"/>
    <stop offset="100%" stop-color="#f87171" stop-opacity="0"/>
  </radialGradient>
  <radialGradient id="cAtm" cx="50%" cy="60%" r="35%">
    <stop offset="0%" stop-color="#a78bfa" stop-opacity="0.1"/>
    <stop offset="100%" stop-color="#a78bfa" stop-opacity="0"/>
  </radialGradient>
  <filter id="tGlow" x="-30%" y="-80%" width="160%" height="260%">
    <feGaussianBlur in="SourceGraphic" stdDeviation="10" result="blur"/>
    <feMerge><feMergeNode in="blur"/><feMergeNode in="blur"/><feMergeNode in="SourceGraphic"/></feMerge>
  </filter>
  <filter id="subGlow" x="-20%" y="-60%" width="140%" height="220%">
    <feGaussianBlur in="SourceGraphic" stdDeviation="6" result="blur"/>
    <feMerge><feMergeNode in="blur"/><feMergeNode in="SourceGraphic"/></feMerge>
  </filter>
  <filter id="bdGlow" x="-8%" y="-8%" width="116%" height="116%">
    <feGaussianBlur in="SourceGraphic" stdDeviation="10" result="blur"/>
    <feMerge><feMergeNode in="blur"/><feMergeNode in="SourceGraphic"/></feMerge>
  </filter>
  <clipPath id="cvClip"><rect width="680" height="1020"/></clipPath>
</defs>
<g clip-path="url(#cvClip)">

<!-- Background -->
<rect width="680" height="1020" fill="url(#bgG)"/>
<!-- Atmospheric color washes -->
<rect width="680" height="1020" fill="url(#xAtm)"/>
<rect width="680" height="1020" fill="url(#oAtm)"/>
<rect width="680" height="1020" fill="url(#cAtm)"/>

<!-- Stars -->
<circle cx="654" cy="114" r="0.5" fill="white" opacity="0.27"/><circle cx="228" cy="142" r="1.6" fill="white" opacity="0.45"/><circle cx="558" cy="89" r="1.4" fill="white" opacity="0.16"/><circle cx="95" cy="223" r="0.8" fill="white" opacity="0.42"/><circle cx="574" cy="203" r="1.6" fill="white" opacity="0.47"/><circle cx="429" cy="225" r="1.2" fill="white" opacity="0.28"/><circle cx="6" cy="777" r="1.7" fill="white" opacity="0.46"/><circle cx="348" cy="284" r="0.7" fill="white" opacity="0.58"/><circle cx="344" cy="104" r="0.6" fill="white" opacity="0.19"/><circle cx="352" cy="618" r="0.9" fill="white" opacity="0.17"/><circle cx="470" cy="549" r="0.7" fill="white" opacity="0.57"/><circle cx="80" cy="565" r="0.9" fill="white" opacity="0.43"/><circle cx="370" cy="591" r="0.8" fill="white" opacity="0.18"/><circle cx="677" cy="233" r="1.7" fill="white" opacity="0.59"/><circle cx="238" cy="887" r="0.7" fill="white" opacity="0.28"/><circle cx="650" cy="854" r="1.0" fill="white" opacity="0.32"/><circle cx="214" cy="686" r="0.9" fill="white" opacity="0.57"/><circle cx="663" cy="73" r="1.4" fill="white" opacity="0.23"/><circle cx="250" cy="167" r="1.2" fill="white" opacity="0.27"/><circle cx="655" cy="704" r="1.3" fill="white" opacity="0.46"/><circle cx="57" cy="234" r="1.7" fill="white" opacity="0.51"/><circle cx="410" cy="274" r="0.6" fill="white" opacity="0.56"/><circle cx="580" cy="897" r="1.6" fill="white" opacity="0.25"/><circle cx="511" cy="405" r="1.8" fill="white" opacity="0.44"/><circle cx="146" cy="271" r="0.7" fill="white" opacity="0.49"/><circle cx="551" cy="269" r="1.6" fill="white" opacity="0.34"/><circle cx="597" cy="408" r="1.0" fill="white" opacity="0.60"/><circle cx="141" cy="521" r="1.2" fill="white" opacity="0.49"/><circle cx="112" cy="156" r="1.4" fill="white" opacity="0.51"/><circle cx="432" cy="610" r="0.6" fill="white" opacity="0.32"/><circle cx="479" cy="541" r="0.9" fill="white" opacity="0.40"/><circle cx="11" cy="696" r="1.6" fill="white" opacity="0.46"/><circle cx="549" cy="768" r="0.9" fill="white" opacity="0.44"/><circle cx="114" cy="300" r="1.2" fill="white" opacity="0.35"/><circle cx="269" cy="995" r="1.3" fill="white" opacity="0.23"/><circle cx="108" cy="891" r="1.4" fill="white" opacity="0.53"/><circle cx="519" cy="623" r="0.8" fill="white" opacity="0.32"/><circle cx="165" cy="552" r="1.9" fill="white" opacity="0.57"/><circle cx="0" cy="613" r="1.0" fill="white" opacity="0.16"/><circle cx="371" cy="899" r="2.0" fill="white" opacity="0.51"/><circle cx="245" cy="59" r="0.9" fill="white" opacity="0.41"/><circle cx="80" cy="87" r="1.6" fill="white" opacity="0.52"/><circle cx="545" cy="784" r="0.7" fill="white" opacity="0.45"/><circle cx="562" cy="169" r="0.9" fill="white" opacity="0.54"/><circle cx="433" cy="987" r="0.8" fill="white" opacity="0.39"/><circle cx="205" cy="730" r="1.0" fill="white" opacity="0.60"/><circle cx="665" cy="382" r="1.2" fill="white" opacity="0.38"/><circle cx="123" cy="253" r="0.8" fill="white" opacity="0.30"/><circle cx="602" cy="567" r="0.8" fill="white" opacity="0.25"/><circle cx="72" cy="724" r="1.4" fill="white" opacity="0.25"/><circle cx="32" cy="880" r="1.0" fill="white" opacity="0.38"/><circle cx="285" cy="685" r="1.2" fill="white" opacity="0.39"/><circle cx="584" cy="590" r="1.2" fill="white" opacity="0.50"/><circle cx="416" cy="194" r="0.6" fill="white" opacity="0.45"/><circle cx="362" cy="433" r="1.1" fill="white" opacity="0.54"/><circle cx="55" cy="689" r="1.5" fill="white" opacity="0.44"/><circle cx="62" cy="412" r="1.6" fill="white" opacity="0.51"/><circle cx="111" cy="254" r="0.8" fill="white" opacity="0.39"/><circle cx="143" cy="432" r="0.8" fill="white" opacity="0.36"/><circle cx="77" cy="453" r="1.7" fill="white" opacity="0.54"/><circle cx="100" cy="51" r="1.5" fill="white" opacity="0.39"/><circle cx="15" cy="992" r="0.6" fill="white" opacity="0.49"/><circle cx="242" cy="170" r="1.1" fill="white" opacity="0.37"/><circle cx="410" cy="924" r="0.6" fill="white" opacity="0.32"/><circle cx="399" cy="271" r="1.9" fill="white" opacity="0.50"/><circle cx="292" cy="433" r="1.5" fill="white" opacity="0.48"/><circle cx="569" cy="677" r="1.6" fill="white" opacity="0.22"/><circle cx="303" cy="222" r="2.0" fill="white" opacity="0.41"/><circle cx="555" cy="62" r="1.6" fill="white" opacity="0.18"/><circle cx="598" cy="488" r="1.3" fill="white" opacity="0.53"/><circle cx="161" cy="58" r="1.9" fill="white" opacity="0.19"/><circle cx="190" cy="70" r="1.4" fill="white" opacity="0.45"/><circle cx="240" cy="413" r="0.7" fill="white" opacity="0.55"/><circle cx="252" cy="592" r="1.4" fill="white" opacity="0.43"/><circle cx="429" cy="673" r="1.4" fill="white" opacity="0.39"/><circle cx="267" cy="209" r="1.5" fill="white" opacity="0.29"/><circle cx="271" cy="405" r="0.7" fill="white" opacity="0.44"/><circle cx="468" cy="323" r="1.9" fill="white" opacity="0.57"/><circle cx="9" cy="469" r="1.4" fill="white" opacity="0.40"/><circle cx="102" cy="75" r="1.3" fill="white" opacity="0.38"/><circle cx="135" cy="955" r="1.0" fill="white" opacity="0.18"/><circle cx="250" cy="378" r="0.9" fill="white" opacity="0.35"/><circle cx="556" cy="720" r="1.0" fill="white" opacity="0.59"/><circle cx="669" cy="541" r="0.5" fill="white" opacity="0.52"/><circle cx="306" cy="954" r="1.5" fill="white" opacity="0.57"/><circle cx="137" cy="270" r="0.7" fill="white" opacity="0.20"/><circle cx="566" cy="159" r="0.9" fill="white" opacity="0.42"/><circle cx="351" cy="208" r="1.5" fill="white" opacity="0.53"/><circle cx="517" cy="500" r="0.9" fill="white" opacity="0.56"/><circle cx="52" cy="94" r="1.5" fill="white" opacity="0.52"/><circle cx="45" cy="3" r="1.0" fill="white" opacity="0.21"/><circle cx="268" cy="165" r="1.6" fill="white" opacity="0.40"/><circle cx="437" cy="574" r="0.5" fill="white" opacity="0.18"/><circle cx="152" cy="558" r="0.6" fill="white" opacity="0.32"/><circle cx="565" cy="151" r="1.1" fill="white" opacity="0.17"/><circle cx="373" cy="920" r="1.9" fill="white" opacity="0.59"/><circle cx="40" cy="920" r="1.0" fill="white" opacity="0.46"/><circle cx="105" cy="362" r="1.7" fill="white" opacity="0.55"/><circle cx="416" cy="997" r="1.4" fill="white" opacity="0.22"/><circle cx="242" cy="885" r="0.7" fill="white" opacity="0.51"/><circle cx="181" cy="902" r="1.1" fill="white" opacity="0.23"/><circle cx="340" cy="801" r="1.9" fill="white" opacity="0.51"/><circle cx="254" cy="273" r="0.7" fill="white" opacity="0.47"/><circle cx="391" cy="893" r="0.6" fill="white" opacity="0.36"/><circle cx="204" cy="836" r="1.9" fill="white" opacity="0.31"/><circle cx="233" cy="228" r="0.5" fill="white" opacity="0.24"/><circle cx="336" cy="285" r="1.8" fill="white" opacity="0.59"/><circle cx="285" cy="359" r="1.5" fill="white" opacity="0.33"/><circle cx="549" cy="339" r="1.9" fill="white" opacity="0.20"/><circle cx="267" cy="182" r="1.4" fill="white" opacity="0.59"/><circle cx="39" cy="111" r="1.4" fill="white" opacity="0.31"/><circle cx="321" cy="446" r="1.4" fill="white" opacity="0.38"/><circle cx="394" cy="921" r="1.4" fill="white" opacity="0.26"/><circle cx="446" cy="1" r="1.3" fill="white" opacity="0.51"/><circle cx="201" cy="372" r="1.1" fill="white" opacity="0.58"/><circle cx="338" cy="638" r="1.0" fill="white" opacity="0.53"/><circle cx="307" cy="519" r="1.0" fill="white" opacity="0.33"/><circle cx="412" cy="713" r="0.9" fill="white" opacity="0.21"/><circle cx="430" cy="680" r="1.9" fill="white" opacity="0.45"/><circle cx="178" cy="630" r="1.4" fill="white" opacity="0.33"/>

<!-- ── TITLE BLOCK ── -->
<!-- Shadow -->
<text x="342" y="140" text-anchor="middle" font-family="'Arial Black',Impact,sans-serif"
  font-size="82" font-weight="900" fill="rgba(60,0,120,0.7)" letter-spacing="3">ULTIMATE</text>
<!-- Glow layer -->
<text x="340" y="138" text-anchor="middle" font-family="'Arial Black',Impact,sans-serif"
  font-size="82" font-weight="900" fill="#7c3aed" filter="url(#tGlow)" letter-spacing="3">ULTIMATE</text>
<!-- Main title -->
<text x="340" y="138" text-anchor="middle" font-family="'Arial Black',Impact,sans-serif"
  font-size="82" font-weight="900"
  fill="url(#titleGrad)" letter-spacing="3">ULTIMATE</text>

<!-- Subtitle -->
<text x="340" y="207" text-anchor="middle" font-family="'Arial Black',Impact,sans-serif"
  font-size="35" font-weight="700" fill="#5b21b6" filter="url(#subGlow)" letter-spacing="8">TIC · TAC · TOE</text>
<text x="340" y="207" text-anchor="middle" font-family="'Arial Black',Impact,sans-serif"
  font-size="35" font-weight="700" fill="#c4b5fd" letter-spacing="8">TIC · TAC · TOE</text>

<!-- Divider -->
<line x1="40" y1="245" x2="640" y2="245" stroke="rgba(167,139,250,0.35)" stroke-width="1.2"/>
<!-- Tagline -->
<text x="340" y="278" text-anchor="middle" font-family="Arial,sans-serif"
  font-size="13.5" fill="rgba(148,163,184,0.65)" letter-spacing="3.5">STRATEGIC · RECURSIVE · RUTHLESS</text>

<!-- ── BOARD ── -->
<!-- Board cells (filled/won states) -->
<rect x="40" y="310" width="200" height="200" fill="rgba(56,189,248,0.08)"/>
<ellipse cx="140" cy="410" rx="85" ry="85" fill="rgba(56,189,248,0.15)"/>
<line x1="110.7" y1="322" x2="110.7" y2="498" stroke="#38bdf8" stroke-width="1.2" opacity="0.12"/>
<line x1="52" y1="380.7" x2="228" y2="380.7" stroke="#38bdf8" stroke-width="1.2" opacity="0.12"/>
<line x1="169.3" y1="322" x2="169.3" y2="498" stroke="#38bdf8" stroke-width="1.2" opacity="0.12"/>
<line x1="52" y1="439.3" x2="228" y2="439.3" stroke="#38bdf8" stroke-width="1.2" opacity="0.12"/>
<line x1="70" y1="340" x2="210" y2="480" stroke="#38bdf8" stroke-width="26" stroke-linecap="round" opacity="0.9"/>
<line x1="210" y1="340" x2="70" y2="480" stroke="#38bdf8" stroke-width="26" stroke-linecap="round" opacity="0.9"/>
<rect x="240" y="310" width="200" height="200" fill="rgba(255,255,255,0.015)"/>
<line x1="310.7" y1="322" x2="310.7" y2="498" stroke="rgba(167,139,250,0.5)" stroke-width="1.2" opacity="0.35"/>
<line x1="252" y1="380.7" x2="428" y2="380.7" stroke="rgba(167,139,250,0.5)" stroke-width="1.2" opacity="0.35"/>
<line x1="369.3" y1="322" x2="369.3" y2="498" stroke="rgba(167,139,250,0.5)" stroke-width="1.2" opacity="0.35"/>
<line x1="252" y1="439.3" x2="428" y2="439.3" stroke="rgba(167,139,250,0.5)" stroke-width="1.2" opacity="0.35"/>
<rect x="440" y="310" width="200" height="200" fill="rgba(248,113,113,0.07)"/>
<ellipse cx="540" cy="410" rx="85" ry="85" fill="rgba(248,113,113,0.14)"/>
<line x1="510.7" y1="322" x2="510.7" y2="498" stroke="#f87171" stroke-width="1.2" opacity="0.12"/>
<line x1="452" y1="380.7" x2="628" y2="380.7" stroke="#f87171" stroke-width="1.2" opacity="0.12"/>
<line x1="569.3" y1="322" x2="569.3" y2="498" stroke="#f87171" stroke-width="1.2" opacity="0.12"/>
<line x1="452" y1="439.3" x2="628" y2="439.3" stroke="#f87171" stroke-width="1.2" opacity="0.12"/>
<circle cx="540.0" cy="410.0" r="70.0" stroke="#f87171" stroke-width="26" fill="none" opacity="0.9"/>
<rect x="40" y="510" width="200" height="200" fill="rgba(255,255,255,0.015)"/>
<line x1="110.7" y1="522" x2="110.7" y2="698" stroke="rgba(167,139,250,0.5)" stroke-width="1.2" opacity="0.35"/>
<line x1="52" y1="580.7" x2="228" y2="580.7" stroke="rgba(167,139,250,0.5)" stroke-width="1.2" opacity="0.35"/>
<line x1="169.3" y1="522" x2="169.3" y2="698" stroke="rgba(167,139,250,0.5)" stroke-width="1.2" opacity="0.35"/>
<line x1="52" y1="639.3" x2="228" y2="639.3" stroke="rgba(167,139,250,0.5)" stroke-width="1.2" opacity="0.35"/>
<rect x="240" y="510" width="200" height="200" fill="rgba(251,191,36,0.06)"/>
<rect x="240" y="510" width="200" height="200" fill="none" stroke="#fbbf24" stroke-width="2.5" opacity="0.5"/>
<line x1="310.7" y1="522" x2="310.7" y2="698" stroke="#fbbf24" stroke-width="1.2" opacity="0.22"/>
<line x1="252" y1="580.7" x2="428" y2="580.7" stroke="#fbbf24" stroke-width="1.2" opacity="0.22"/>
<line x1="369.3" y1="522" x2="369.3" y2="698" stroke="#fbbf24" stroke-width="1.2" opacity="0.22"/>
<line x1="252" y1="639.3" x2="428" y2="639.3" stroke="#fbbf24" stroke-width="1.2" opacity="0.22"/>
<line x1="260" y1="530" x2="303" y2="573" stroke="#38bdf8" stroke-width="8" stroke-linecap="round" opacity="0.8"/>
<line x1="303" y1="530" x2="260" y2="573" stroke="#38bdf8" stroke-width="8" stroke-linecap="round" opacity="0.8"/>
<circle cx="340" cy="610" r="16" stroke="#f87171" stroke-width="8" fill="none" opacity="0.8"/>
<line x1="377" y1="647" x2="420" y2="690" stroke="#38bdf8" stroke-width="8" stroke-linecap="round" opacity="0.8"/>
<line x1="420" y1="647" x2="377" y2="690" stroke="#38bdf8" stroke-width="8" stroke-linecap="round" opacity="0.8"/>
<rect x="440" y="510" width="200" height="200" fill="rgba(248,113,113,0.07)"/>
<ellipse cx="540" cy="610" rx="85" ry="85" fill="rgba(248,113,113,0.14)"/>
<line x1="510.7" y1="522" x2="510.7" y2="698" stroke="#f87171" stroke-width="1.2" opacity="0.12"/>
<line x1="452" y1="580.7" x2="628" y2="580.7" stroke="#f87171" stroke-width="1.2" opacity="0.12"/>
<line x1="569.3" y1="522" x2="569.3" y2="698" stroke="#f87171" stroke-width="1.2" opacity="0.12"/>
<line x1="452" y1="639.3" x2="628" y2="639.3" stroke="#f87171" stroke-width="1.2" opacity="0.12"/>
<circle cx="540.0" cy="610.0" r="70.0" stroke="#f87171" stroke-width="26" fill="none" opacity="0.9"/>
<rect x="40" y="710" width="200" height="200" fill="rgba(56,189,248,0.08)"/>
<ellipse cx="140" cy="810" rx="85" ry="85" fill="rgba(56,189,248,0.15)"/>
<line x1="110.7" y1="722" x2="110.7" y2="898" stroke="#38bdf8" stroke-width="1.2" opacity="0.12"/>
<line x1="52" y1="780.7" x2="228" y2="780.7" stroke="#38bdf8" stroke-width="1.2" opacity="0.12"/>
<line x1="169.3" y1="722" x2="169.3" y2="898" stroke="#38bdf8" stroke-width="1.2" opacity="0.12"/>
<line x1="52" y1="839.3" x2="228" y2="839.3" stroke="#38bdf8" stroke-width="1.2" opacity="0.12"/>
<line x1="70" y1="740" x2="210" y2="880" stroke="#38bdf8" stroke-width="26" stroke-linecap="round" opacity="0.9"/>
<line x1="210" y1="740" x2="70" y2="880" stroke="#38bdf8" stroke-width="26" stroke-linecap="round" opacity="0.9"/>
<rect x="240" y="710" width="200" height="200" fill="rgba(255,255,255,0.015)"/>
<line x1="310.7" y1="722" x2="310.7" y2="898" stroke="rgba(167,139,250,0.5)" stroke-width="1.2" opacity="0.35"/>
<line x1="252" y1="780.7" x2="428" y2="780.7" stroke="rgba(167,139,250,0.5)" stroke-width="1.2" opacity="0.35"/>
<line x1="369.3" y1="722" x2="369.3" y2="898" stroke="rgba(167,139,250,0.5)" stroke-width="1.2" opacity="0.35"/>
<line x1="252" y1="839.3" x2="428" y2="839.3" stroke="rgba(167,139,250,0.5)" stroke-width="1.2" opacity="0.35"/>
<rect x="440" y="710" width="200" height="200" fill="rgba(255,255,255,0.015)"/>
<line x1="510.7" y1="722" x2="510.7" y2="898" stroke="rgba(167,139,250,0.5)" stroke-width="1.2" opacity="0.35"/>
<line x1="452" y1="780.7" x2="628" y2="780.7" stroke="rgba(167,139,250,0.5)" stroke-width="1.2" opacity="0.35"/>
<line x1="569.3" y1="722" x2="569.3" y2="898" stroke="rgba(167,139,250,0.5)" stroke-width="1.2" opacity="0.35"/>
<line x1="452" y1="839.3" x2="628" y2="839.3" stroke="rgba(167,139,250,0.5)" stroke-width="1.2" opacity="0.35"/>


<!-- Meta board dividers -->
<line x1="40" y1="510" x2="640" y2="510" stroke="rgba(167,139,250,0.55)" stroke-width="5"/>
<line x1="40" y1="710" x2="640" y2="710" stroke="rgba(167,139,250,0.55)" stroke-width="5"/>
<line x1="240" y1="310" x2="240" y2="910" stroke="rgba(167,139,250,0.55)" stroke-width="5"/>
<line x1="440" y1="310" x2="440" y2="910" stroke="rgba(167,139,250,0.55)" stroke-width="5"/>
<!-- Meta board outer border -->
<rect x="40" y="310" width="600" height="600" fill="none" stroke="rgba(167,139,250,0.3)" stroke-width="2.5"/>


<!-- X-wins glow (filter on won boards) -->
<!-- Board 0 glow -->
<rect x="40" y="310" width="200" height="200" fill="none"
  stroke="#38bdf8" stroke-width="3.5" opacity="0.45" filter="url(#bdGlow)"/>
<!-- Board 6 glow -->
<rect x="40" y="710" width="200" height="200" fill="none"
  stroke="#38bdf8" stroke-width="3.5" opacity="0.45" filter="url(#bdGlow)"/>
<!-- Board 2 glow -->
<rect x="440" y="310" width="200" height="200" fill="none"
  stroke="#f87171" stroke-width="3.5" opacity="0.4" filter="url(#bdGlow)"/>
<!-- Board 5 glow -->
<rect x="440" y="510" width="200" height="200" fill="none"
  stroke="#f87171" stroke-width="3.5" opacity="0.4" filter="url(#bdGlow)"/>
<!-- Active board 4 glow -->
<rect x="240" y="510" width="200" height="200" fill="none"
  stroke="#fbbf24" stroke-width="3.5" opacity="0.55" filter="url(#bdGlow)"/>

<!-- ── BOTTOM STRIP ── -->
<rect x="0" y="990" width="680" height="30" fill="rgba(0,0,0,0.45)"/>
<line x1="0" y1="990" x2="680" y2="990" stroke="rgba(167,139,250,0.22)" stroke-width="0.8"/>

</g>
<defs>
  <linearGradient id="titleGrad" x1="0" y1="0" x2="1" y2="0">
    <stop offset="0%"   stop-color="#38bdf8"/>
    <stop offset="50%"  stop-color="#a78bfa"/>
    <stop offset="100%" stop-color="#f87171"/>
  </linearGradient>
</defs>
</svg>