<svg viewBox="0 0 680 1020" width="400" height="600" xmlns="http://www.w3.org/2000/svg">
  <defs>
    <linearGradient id="bg" x1="0" y1="0" x2="0" y2="1">
      <stop offset="0%"   stop-color="#010612"/>
      <stop offset="55%"  stop-color="#05091e"/>
      <stop offset="100%" stop-color="#090320"/>
    </linearGradient>
    <!-- Top vignette to help title legibility -->
    <linearGradient id="topVig" x1="0" y1="0" x2="0" y2="1">
      <stop offset="0%"   stop-color="#010612" stop-opacity="0.85"/>
      <stop offset="100%" stop-color="#010612" stop-opacity="0"/>
    </linearGradient>
    <!-- Bottom vignette fading to dark -->
    <linearGradient id="botVig" x1="0" y1="0" x2="0" y2="1">
      <stop offset="0%"   stop-color="#010612" stop-opacity="0"/>
      <stop offset="55%"  stop-color="#010612" stop-opacity="0.90"/>
      <stop offset="100%" stop-color="#010612" stop-opacity="1"/>
    </linearGradient>
    <!-- Nebula fills -->
    <radialGradient id="neb1" cx="50%" cy="50%" r="50%">
      <stop offset="0%"   stop-color="#3322aa" stop-opacity="0.22"/>
      <stop offset="100%" stop-color="#3322aa" stop-opacity="0"/>
    </radialGradient>
    <radialGradient id="neb2" cx="50%" cy="50%" r="50%">
      <stop offset="0%"   stop-color="#5511cc" stop-opacity="0.15"/>
      <stop offset="100%" stop-color="#5511cc" stop-opacity="0"/>
    </radialGradient>
    <radialGradient id="neb3" cx="50%" cy="50%" r="50%">
      <stop offset="0%"   stop-color="#001566" stop-opacity="0.18"/>
      <stop offset="100%" stop-color="#001566" stop-opacity="0"/>
    </radialGradient>
    <radialGradient id="neb4" cx="50%" cy="50%" r="50%">
      <stop offset="0%"   stop-color="#220066" stop-opacity="0.14"/>
      <stop offset="100%" stop-color="#220066" stop-opacity="0"/>
    </radialGradient>
    <!-- Engine exhaust -->
    <linearGradient id="exhL" x1="0" y1="0" x2="0" y2="1">
      <stop offset="0%"   stop-color="#66ccff" stop-opacity="0.92"/>
      <stop offset="50%"  stop-color="#2277ee" stop-opacity="0.40"/>
      <stop offset="100%" stop-color="#0022cc" stop-opacity="0"/>
    </linearGradient>
    <linearGradient id="exhR" x1="0" y1="0" x2="0" y2="1">
      <stop offset="0%"   stop-color="#66ccff" stop-opacity="0.92"/>
      <stop offset="50%"  stop-color="#2277ee" stop-opacity="0.40"/>
      <stop offset="100%" stop-color="#0022cc" stop-opacity="0"/>
    </linearGradient>
    <!-- Explosion -->
    <radialGradient id="boom" cx="50%" cy="50%" r="50%">
      <stop offset="0%"   stop-color="#ffdd55" stop-opacity="1"/>
      <stop offset="42%"  stop-color="#ff6600" stop-opacity="0.60"/>
      <stop offset="100%" stop-color="#ff1100" stop-opacity="0"/>
    </radialGradient>
    <!-- Ship engine halo -->
    <radialGradient id="engHalo" cx="50%" cy="30%" r="70%">
      <stop offset="0%"   stop-color="#88ddff" stop-opacity="0.85"/>
      <stop offset="45%"  stop-color="#2299ff" stop-opacity="0.45"/>
      <stop offset="100%" stop-color="#0044cc" stop-opacity="0"/>
    </radialGradient>
    <!-- Filters -->
    <filter id="titleGlow" x="-18%" y="-28%" width="136%" height="156%">
      <feGaussianBlur stdDeviation="14" result="blur"/>
      <feMerge><feMergeNode in="blur"/><feMergeNode in="SourceGraphic"/></feMerge>
    </filter>
    <filter id="shipGlow" x="-22%" y="-16%" width="144%" height="132%">
      <feGaussianBlur stdDeviation="12" result="blur"/>
      <feMerge><feMergeNode in="blur"/><feMergeNode in="SourceGraphic"/></feMerge>
    </filter>
    <filter id="enemyGlow" x="-50%" y="-50%" width="200%" height="200%">
      <feGaussianBlur stdDeviation="6" result="blur"/>
      <feMerge><feMergeNode in="blur"/><feMergeNode in="SourceGraphic"/></feMerge>
    </filter>
    <filter id="laserGlow" x="-35%" y="-4%" width="170%" height="108%">
      <feGaussianBlur stdDeviation="4" result="blur"/>
      <feMerge><feMergeNode in="blur"/><feMergeNode in="SourceGraphic"/></feMerge>
    </filter>
    <filter id="boomFilter" x="-45%" y="-45%" width="190%" height="190%">
      <feGaussianBlur stdDeviation="8" result="blur"/>
      <feMerge><feMergeNode in="blur"/><feMergeNode in="SourceGraphic"/></feMerge>
    </filter>
    <filter id="reticleGlow" x="-8%" y="-8%" width="116%" height="116%">
      <feGaussianBlur stdDeviation="2.5" result="blur"/>
      <feMerge><feMergeNode in="blur"/><feMergeNode in="SourceGraphic"/></feMerge>
    </filter>
    <clipPath id="pageClip">
      <rect width="680" height="1020"/>
    </clipPath>
  </defs>

  <g clip-path="url(#pageClip)">

    <!-- ── BACKGROUND ── -->
    <rect width="680" height="1020" fill="url(#bg)"/>

    <!-- Diagonal stripe pattern (very faint) -->
    <g stroke="#3522aa" stroke-width="1" opacity="0.08">
      <line x1="-100" y1="0" x2="780"  y2="1120"/>
      <line x1="-180" y1="0" x2="700"  y2="1120"/>
      <line x1="-260" y1="0" x2="620"  y2="1120"/>
      <line x1="-20"  y1="0" x2="860"  y2="1120"/>
      <line x1="60"   y1="0" x2="940"  y2="1120"/>
      <line x1="140"  y1="0" x2="1020" y2="1120"/>
      <line x1="220"  y1="0" x2="1100" y2="1120"/>
      <line x1="300"  y1="0" x2="1180" y2="1120"/>
    </g>

    <!-- ── NEBULAE ── -->
    <ellipse cx="200" cy="360" rx="310" ry="200" fill="url(#neb1)"/>
    <ellipse cx="540" cy="460" rx="250" ry="170" fill="url(#neb2)"/>
    <ellipse cx="340" cy="530" rx="340" ry="230" fill="url(#neb3)"/>
    <ellipse cx="130" cy="560" rx="210" ry="140" fill="url(#neb4)"/>
    <ellipse cx="560" cy="680" rx="220" ry="150" fill="url(#neb1)" opacity="0.60"/>

    <!-- ── STAR FIELD ── -->
    <g fill="white">
      <circle cx="48"  cy="188" r="1.5" opacity="0.88"/>
      <circle cx="145" cy="228" r="1"   opacity="0.72"/>
      <circle cx="228" cy="195" r="1.9" opacity="0.78"/>
      <circle cx="382" cy="210" r="1.2" opacity="0.68"/>
      <circle cx="492" cy="185" r="1"   opacity="0.88"/>
      <circle cx="575" cy="225" r="1.5" opacity="0.72"/>
      <circle cx="618" cy="200" r="1"   opacity="0.82"/>
      <circle cx="40"  cy="290" r="1.2" opacity="0.62"/>
      <circle cx="558" cy="268" r="1.5" opacity="0.78"/>
      <circle cx="305" cy="248" r="1"   opacity="0.58"/>
      <circle cx="425" cy="278" r="1.3" opacity="0.82"/>
      <circle cx="130" cy="285" r="1"   opacity="0.68"/>
      <circle cx="662" cy="242" r="1.2" opacity="0.72"/>
      <circle cx="18"  cy="342" r="1"   opacity="0.58"/>
      <circle cx="352" cy="322" r="1.4" opacity="0.62"/>
      <circle cx="100" cy="392" r="1"   opacity="0.52"/>
      <circle cx="641" cy="372" r="1.2" opacity="0.82"/>
      <circle cx="318" cy="432" r="1"   opacity="0.62"/>
      <circle cx="418" cy="335" r="1.3" opacity="0.72"/>
      <circle cx="198" cy="315" r="1.1" opacity="0.58"/>
      <circle cx="505" cy="382" r="1"   opacity="0.68"/>
      <circle cx="657" cy="415" r="1.4" opacity="0.52"/>
      <circle cx="20"  cy="355" r="1"   opacity="0.62"/>
      <circle cx="468" cy="305" r="1.2" opacity="0.78"/>
      <circle cx="160" cy="445" r="1"   opacity="0.52"/>
      <circle cx="596" cy="318" r="1.5" opacity="0.62"/>
      <circle cx="75"  cy="488" r="1.5" opacity="0.58"/>
      <circle cx="648" cy="455" r="1"   opacity="0.68"/>
      <circle cx="188" cy="525" r="1.2" opacity="0.48"/>
      <circle cx="498" cy="498" r="1.5" opacity="0.72"/>
      <circle cx="628" cy="545" r="1"   opacity="0.52"/>
      <circle cx="12"  cy="542" r="1.3" opacity="0.58"/>
      <circle cx="288" cy="475" r="1"   opacity="0.52"/>
      <circle cx="548" cy="435" r="1.2" opacity="0.62"/>
      <circle cx="408" cy="515" r="1"   opacity="0.52"/>
      <circle cx="660" cy="432" r="1.4" opacity="0.68"/>
      <circle cx="118" cy="495" r="1"   opacity="0.48"/>
      <circle cx="78"  cy="668" r="1"   opacity="0.38"/>
      <circle cx="592" cy="688" r="1.5" opacity="0.42"/>
      <circle cx="258" cy="705" r="1"   opacity="0.32"/>
      <circle cx="528" cy="628" r="1.2" opacity="0.42"/>
      <circle cx="38"  cy="602" r="1"   opacity="0.42"/>
      <circle cx="642" cy="625" r="1.3" opacity="0.48"/>
      <circle cx="330" cy="752" r="1"   opacity="0.30"/>
      <circle cx="478" cy="715" r="1.2" opacity="0.35"/>
      <!-- Bright accent stars -->
      <circle cx="340" cy="295" r="2.5" opacity="0.26"/>
      <circle cx="85"  cy="455" r="2"   opacity="0.24"/>
      <circle cx="588" cy="520" r="2.2" opacity="0.24"/>
    </g>
    <!-- Blue-tinted stars -->
    <g fill="#88ccff">
      <circle cx="172" cy="218" r="1.2" opacity="0.48"/>
      <circle cx="452" cy="258" r="1"   opacity="0.42"/>
      <circle cx="30"  cy="402" r="1.1" opacity="0.40"/>
      <circle cx="632" cy="352" r="1"   opacity="0.44"/>
      <circle cx="268" cy="395" r="1.2" opacity="0.40"/>
      <circle cx="586" cy="575" r="1"   opacity="0.38"/>
      <circle cx="138" cy="545" r="1.1" opacity="0.38"/>
      <circle cx="345" cy="465" r="1.3" opacity="0.32"/>
      <circle cx="496" cy="332" r="1"   opacity="0.40"/>
    </g>

    <!-- ── TOP VIGNETTE (title legibility) ── -->
    <rect x="0" y="0" width="680" height="230" fill="url(#topVig)"/>

    <!-- ══════ TITLE — floating in space, no panel ══════ -->

    <!-- "VOID" — triple layer: glow, shadow, solid -->
    <text x="340" y="110" text-anchor="middle"
          font-family="'Arial Black', Arial, sans-serif" font-size="100" font-weight="900"
          letter-spacing="8" fill="#88ccff" filter="url(#titleGlow)" opacity="0.52">VOID</text>
    <text x="345" y="115" text-anchor="middle"
          font-family="'Arial Black', Arial, sans-serif" font-size="100" font-weight="900"
          letter-spacing="8" fill="rgba(0,0,0,0.40)">VOID</text>
    <text x="340" y="110" text-anchor="middle"
          font-family="'Arial Black', Arial, sans-serif" font-size="100" font-weight="900"
          letter-spacing="8" fill="#88ccff">VOID</text>

    <!-- "ASSAULT" -->
    <text x="340" y="170" text-anchor="middle"
          font-family="'Arial Black', Arial, sans-serif" font-size="56" font-weight="900"
          letter-spacing="12" fill="#88ccff" filter="url(#titleGlow)" opacity="0.40">ASSAULT</text>
    <text x="344" y="174" text-anchor="middle"
          font-family="'Arial Black', Arial, sans-serif" font-size="56" font-weight="900"
          letter-spacing="12" fill="rgba(0,0,0,0.36)">ASSAULT</text>
    <text x="340" y="170" text-anchor="middle"
          font-family="'Arial Black', Arial, sans-serif" font-size="56" font-weight="900"
          letter-spacing="12" fill="#88ccff">ASSAULT</text>

    <!-- ══════ ENEMIES ══════ -->

    <!-- 1: FLOATER — elite, center, (340, 295) — large -->
    <g transform="translate(340, 295)" filter="url(#enemyGlow)" opacity="0.85">
      <g stroke="rgba(210,100,255,0.85)" stroke-width="2.5" stroke-linecap="round" fill="none">
        <path d="M -25,26 Q -34,44 -25,62"/>
        <path d="M -12,30 Q -16,50 -10,68"/>
        <path d="M   0,32 Q   5,52  2,70"/>
        <path d="M  12,30 Q  17,50 13,68"/>
        <path d="M  25,26 Q  34,44 25,62"/>
      </g>
      <ellipse cx="0" cy="0" rx="40" ry="30" fill="#5c1e99"/>
      <ellipse cx="0" cy="-9" rx="25" ry="16" fill="rgba(210,145,255,0.38)"/>
      <circle  cx="0" cy="0"  r="12" fill="#e040ff"/>
      <circle  cx="0" cy="0"  r="5"  fill="#1a0022"/>
      <!-- Elite label (minimal) -->
      <text x="0" y="-38" text-anchor="middle" font-family="monospace" font-size="10"
            fill="rgba(255,100,100,0.90)" letter-spacing="2">ELITE</text>
      <line x1="-20" y1="-32" x2="20" y2="-32" stroke="rgba(255,100,100,0.45)" stroke-width="0.8"/>
    </g>

    <!-- Targeting reticle on Floater -->
    <g filter="url(#reticleGlow)">
      <circle cx="340" cy="295" r="55" fill="none"
              stroke="rgba(136,204,255,0.65)" stroke-width="1.5" stroke-dasharray="7 5"/>
      <!-- Corner ticks -->
      <g stroke="#88ccff" stroke-width="2" fill="none" opacity="0.82">
        <line x1="287" y1="278" x2="296" y2="278"/>
        <line x1="287" y1="278" x2="287" y2="287"/>
        <line x1="393" y1="278" x2="384" y2="278"/>
        <line x1="393" y1="278" x2="393" y2="287"/>
        <line x1="287" y1="312" x2="296" y2="312"/>
        <line x1="287" y1="312" x2="287" y2="303"/>
        <line x1="393" y1="312" x2="384" y2="312"/>
        <line x1="393" y1="312" x2="393" y2="303"/>
      </g>
      <circle cx="340" cy="295" r="3" fill="#88ccff" opacity="0.85"/>
    </g>

    <!-- 2: CRAWLER — upper left (155, 365) — medium -->
    <g transform="translate(155, 365) rotate(-22)" filter="url(#enemyGlow)" opacity="0.75">
      <g stroke="#cc3344" stroke-width="2.2" stroke-linecap="round">
        <line x1="-7" y1="-4"  x2="-30" y2="-20"/>
        <line x1="-30" y1="-20" x2="-44" y2="-34"/>
        <line x1="-7" y1="0"   x2="-34" y2="0"/>
        <line x1="-34" y1="0"   x2="-49" y2="5"/>
        <line x1="-7" y1="4"   x2="-30" y2="20"/>
        <line x1="-30" y1="20"  x2="-44" y2="34"/>
        <line x1="7" y1="-4"   x2="30" y2="-20"/>
        <line x1="7" y1="4"    x2="30" y2="20"/>
      </g>
      <ellipse cx="0" cy="0"  rx="26" ry="18" fill="#991122"/>
      <ellipse cx="18" cy="0" rx="13" ry="11" fill="#cc2233"/>
      <circle  cx="24" cy="-4" r="4"  fill="#ffee00"/>
      <circle  cx="24" cy="4"  r="4"  fill="#ffee00"/>
      <circle  cx="25" cy="-4" r="1.8" fill="#221100"/>
      <circle  cx="25" cy="4"  r="1.8" fill="#221100"/>
    </g>

    <!-- 3: ZIGGER — upper right (516, 352) — medium -->
    <g transform="translate(516, 352) rotate(-158)" filter="url(#enemyGlow)" opacity="0.72">
      <polygon points="42,0 -24,24 -12,0 -24,-24" fill="#ddcc00"/>
      <polygon points="22,0  -9,12 -4,0  -9,-12"  fill="#ffff55"/>
      <circle cx="11" cy="0" r="7"   fill="#333300"/>
      <circle cx="12" cy="-1" r="2.8" fill="#bbb000"/>
    </g>

    <!-- 4: EYEBALL — right (600, 465) — medium -->
    <g transform="translate(600, 465)" filter="url(#enemyGlow)" opacity="0.65">
      <circle cx="0" cy="0"  r="28" fill="#cccccc"/>
      <circle cx="0" cy="0"  r="28" fill="none" stroke="rgba(180,0,0,0.38)" stroke-width="2"/>
      <circle cx="7" cy="-4" r="14" fill="#aa2222"/>
      <circle cx="7" cy="-4" r="6.5" fill="#110000"/>
      <circle cx="2" cy="-9" r="4"  fill="rgba(255,255,255,0.80)"/>
    </g>

    <!-- 5: Small CRAWLER — far left (96, 258) -->
    <g transform="translate(96, 258) rotate(-12)" filter="url(#enemyGlow)" opacity="0.58">
      <g stroke="#cc3344" stroke-width="1.6" stroke-linecap="round">
        <line x1="-4" y1="-3" x2="-19" y2="-13"/>
        <line x1="-4" y1="0"  x2="-22" y2="0"/>
        <line x1="-4" y1="3"  x2="-19" y2="13"/>
        <line x1="4" y1="-3"  x2="19" y2="-13"/>
        <line x1="4" y1="3"   x2="19" y2="13"/>
      </g>
      <ellipse cx="0" cy="0" rx="15" ry="11" fill="#991122"/>
      <ellipse cx="10" cy="0" rx="8" ry="6"  fill="#cc2233"/>
      <circle cx="15" cy="-3" r="2.8" fill="#ffee00"/>
      <circle cx="15" cy="3"  r="2.8" fill="#ffee00"/>
    </g>

    <!-- 6: Small CRAWLER — upper right (578, 272) -->
    <g transform="translate(578, 272) rotate(15)" filter="url(#enemyGlow)" opacity="0.55">
      <g stroke="#cc3344" stroke-width="1.5" stroke-linecap="round">
        <line x1="-4" y1="-3" x2="-18" y2="-12"/>
        <line x1="-4" y1="0"  x2="-20" y2="0"/>
        <line x1="-4" y1="3"  x2="-18" y2="12"/>
        <line x1="4" y1="-3"  x2="18" y2="-12"/>
        <line x1="4" y1="3"   x2="18" y2="12"/>
      </g>
      <ellipse cx="0" cy="0" rx="14" ry="10" fill="#991122"/>
      <ellipse cx="9" cy="0" rx="7"  ry="6"  fill="#cc2233"/>
      <circle cx="14" cy="-3" r="2.5" fill="#ffee00"/>
      <circle cx="14" cy="3"  r="2.5" fill="#ffee00"/>
    </g>

    <!-- 7: Small ZIGGER — upper center-right (445, 225) -->
    <g transform="translate(445, 225) rotate(-142)" filter="url(#enemyGlow)" opacity="0.55">
      <polygon points="28,0 -16,17 -8,0 -16,-17" fill="#ddcc00"/>
      <polygon points="15,0  -6,9 -3,0  -6,-9"   fill="#ffff55"/>
      <circle cx="8" cy="0" r="5" fill="#333300"/>
    </g>

    <!-- 8: Mini FLOATER — left mid (80, 440) -->
    <g transform="translate(80, 440)" filter="url(#enemyGlow)" opacity="0.52">
      <g stroke="rgba(185,85,255,0.72)" stroke-width="1.5" stroke-linecap="round" fill="none">
        <path d="M -13,15 Q -17,24 -13,33"/>
        <path d="M  -4,17 Q  -6,26  -3,35"/>
        <path d="M   4,17 Q   7,26   5,35"/>
        <path d="M  13,15 Q  18,24  13,33"/>
      </g>
      <ellipse cx="0" cy="0" rx="21" ry="16" fill="#5c1e99"/>
      <circle  cx="0" cy="0" r="7"          fill="#dd44ff"/>
      <circle  cx="0" cy="0" r="2.8"        fill="#1a0022"/>
    </g>

    <!-- Explosion — destroyed enemy (488, 298) -->
    <g transform="translate(488, 298)" filter="url(#boomFilter)" opacity="0.90">
      <circle cx="0" cy="0" r="36" fill="url(#boom)"/>
      <g stroke="#ffaa44" stroke-width="2.5" stroke-linecap="round" opacity="0.85">
        <line x1="0"   y1="-12" x2="0"   y2="-33"/>
        <line x1="11"  y1="-9"  x2="27"  y2="-22"/>
        <line x1="12"  y1="9"   x2="29"  y2="20"/>
        <line x1="0"   y1="12"  x2="0"   y2="33"/>
        <line x1="-11" y1="9"   x2="-29" y2="20"/>
        <line x1="-11" y1="-9"  x2="-29" y2="-22"/>
      </g>
      <circle cx="0" cy="0"  r="12" fill="#ffee88"/>
      <circle cx="0" cy="0"  r="5"  fill="white" opacity="0.92"/>
      <circle cx="25"  cy="-20" r="3"   fill="#ff6600" opacity="0.85"/>
      <circle cx="-20" cy="-24" r="2.2" fill="#ffaa44" opacity="0.75"/>
      <circle cx="30"  cy="11"  r="1.8" fill="#ff8800" opacity="0.80"/>
      <circle cx="-26" cy="17"  r="2.5" fill="#ff6600" opacity="0.68"/>
    </g>

    <!-- ══════ LASER BEAMS ══════ -->

    <!-- Centre beam: ship nose (340,495) → Floater (340,262) -->
    <line x1="340" y1="495" x2="340" y2="258"
          stroke="#44ffcc" stroke-width="6" opacity="0.20" filter="url(#laserGlow)"/>
    <line x1="340" y1="495" x2="340" y2="258"
          stroke="#99ffee" stroke-width="1.8" opacity="0.80"/>
    <line x1="340" y1="495" x2="340" y2="258"
          stroke="white"   stroke-width="0.6" opacity="0.55"/>

    <!-- Left beam: left cannon (227,648) → Crawler (155,365) -->
    <line x1="227" y1="648" x2="155" y2="365"
          stroke="#44ffcc" stroke-width="4.5" opacity="0.18" filter="url(#laserGlow)"/>
    <line x1="227" y1="648" x2="155" y2="365"
          stroke="#99ffee" stroke-width="1.4" opacity="0.70"/>
    <line x1="227" y1="648" x2="155" y2="365"
          stroke="white"   stroke-width="0.5" opacity="0.50"/>

    <!-- Right beam: right cannon (453,648) → Zigger (516,352) -->
    <line x1="453" y1="648" x2="516" y2="352"
          stroke="#44ffcc" stroke-width="4.5" opacity="0.18" filter="url(#laserGlow)"/>
    <line x1="453" y1="648" x2="516" y2="352"
          stroke="#99ffee" stroke-width="1.4" opacity="0.70"/>
    <line x1="453" y1="648" x2="516" y2="352"
          stroke="white"   stroke-width="0.5" opacity="0.50"/>

    <!-- ══════ PLAYER SHIP ══════ -->
    <g filter="url(#shipGlow)">

      <!-- Engine exhaust trails -->
      <polygon points="283,748 318,748 298,878 266,878" fill="url(#exhL)"/>
      <polygon points="362,748 397,748 414,878 382,878" fill="url(#exhR)"/>
      <!-- Inner bright cores -->
      <polygon points="292,750 310,750 298,820 282,820" fill="url(#exhL)" opacity="0.55"/>
      <polygon points="370,750 388,750 402,820 386,820" fill="url(#exhR)" opacity="0.55"/>

      <!-- Engine halo glow -->
      <ellipse cx="300" cy="752" rx="26" ry="18" fill="rgba(68,180,255,0.50)"/>
      <ellipse cx="380" cy="752" rx="26" ry="18" fill="rgba(68,180,255,0.50)"/>
      <ellipse cx="300" cy="752" rx="13" ry="9"  fill="rgba(180,235,255,0.68)"/>
      <ellipse cx="380" cy="752" rx="13" ry="9"  fill="rgba(180,235,255,0.68)"/>

      <!-- Main fuselage -->
      <polygon points="340,497 312,608 294,748 386,748 368,608" fill="#285299"/>
      <!-- Hull highlight centre -->
      <polygon points="340,499 329,622 331,746 349,746 351,622" fill="#3f6ec2"/>
      <!-- Nose tip -->
      <polygon points="340,499 333,528 340,536 347,528"          fill="#5e8ed8"/>

      <!-- Wings -->
      <polygon points="305,620 225,660 250,748 294,748" fill="#1b3a7a"/>
      <polygon points="375,620 455,660 430,748 386,748" fill="#1b3a7a"/>
      <!-- Wing leading-edge bright strip -->
      <polygon points="305,620 225,660 234,670" fill="#2e5aaa"/>
      <polygon points="375,620 455,660 446,670" fill="#2e5aaa"/>
      <!-- Wing underside panel line -->
      <line x1="250" y1="674" x2="294" y2="742" stroke="#22488a" stroke-width="1.5" opacity="0.65"/>
      <line x1="430" y1="674" x2="386" y2="742" stroke="#22488a" stroke-width="1.5" opacity="0.65"/>

      <!-- Cannon barrels -->
      <rect x="222" y="648" width="9" height="26" rx="2.5" fill="#99bbee"/>
      <rect x="449" y="648" width="9" height="26" rx="2.5" fill="#99bbee"/>
      <!-- Cannon tip glow (firing) -->
      <circle cx="226" cy="648" r="6" fill="rgba(100,225,255,0.75)"/>
      <circle cx="453" cy="648" r="6" fill="rgba(100,225,255,0.75)"/>

      <!-- Engine nacelles -->
      <rect x="279" y="740" width="34" height="17" rx="6" fill="#183272"/>
      <rect x="367" y="740" width="34" height="17" rx="6" fill="#183272"/>
      <!-- Nozzle glow rings -->
      <ellipse cx="296" cy="749" rx="10" ry="5.5" fill="#77ccff" opacity="0.60"/>
      <ellipse cx="384" cy="749" rx="10" ry="5.5" fill="#77ccff" opacity="0.60"/>

      <!-- Cockpit canopy -->
      <ellipse cx="340" cy="550" rx="20" ry="14" fill="rgba(175,228,255,0.82)"/>
      <ellipse cx="340" cy="548" rx="13" ry="9"  fill="rgba(218,244,255,0.60)"/>
      <ellipse cx="336" cy="545" rx="5.5" ry="3.5" fill="rgba(255,255,255,0.50)"/>

      <!-- Hull panel lines -->
      <g stroke="#183a78" stroke-width="1.1" opacity="0.70">
        <line x1="326" y1="638" x2="322" y2="745"/>
        <line x1="354" y1="638" x2="358" y2="745"/>
        <line x1="304" y1="670" x2="376" y2="670"/>
      </g>
      <!-- Hardpoints -->
      <rect x="322" y="648" width="5" height="4" rx="1" fill="#1e4a8e"/>
      <rect x="353" y="648" width="5" height="4" rx="1" fill="#1e4a8e"/>

    </g>
    <!-- End ship -->

    <!-- ══════ BOTTOM VIGNETTE + TEXT ══════ -->
    <rect x="0" y="762" width="680" height="258" fill="url(#botVig)"/>

    <!-- Tagline -->
    <text x="340" y="882" text-anchor="middle" font-family="monospace" font-size="13"
          letter-spacing="5" fill="rgba(136,204,255,0.60)">SURVIVE · THE · ENDLESS · VOID</text>

    <!-- Thin separator -->
    <line x1="160" y1="892" x2="520" y2="892" stroke="rgba(136,204,255,0.12)" stroke-width="0.8"/>

    <!-- PICKLE GAME LIBRARY -->
    <text x="340" y="978" text-anchor="middle" font-family="monospace" font-size="11"
          letter-spacing="6" fill="rgba(136,204,255,0.18)">PICKLE GAME LIBRARY</text>
    <line x1="160" y1="985" x2="520" y2="985" stroke="rgba(136,204,255,0.07)" stroke-width="0.7"/>
    <text x="340" y="998" text-anchor="middle" font-family="monospace" font-size="9"
          letter-spacing="3" fill="rgba(136,204,255,0.12)">CLASSIFICATION: UNRESTRICTED</text>

  </g>
</svg>
