<svg width="400" height="600" viewBox="0 0 680 1020" xmlns="http://www.w3.org/2000/svg">
<defs><clipPath id="cvclip"><rect width="680" height="1020"/></clipPath></defs>
<rect width="680" height="1020" fill="#020818"/>
<g><circle cx="28" cy="190" r="3.5" fill="#1565c0" opacity="0.28"/><circle cx="28" cy="234" r="3.5" fill="#1565c0" opacity="0.28"/><circle cx="28" cy="278" r="3.5" fill="#1565c0" opacity="0.28"/><circle cx="28" cy="322" r="3.5" fill="#1565c0" opacity="0.28"/><circle cx="28" cy="366" r="3.5" fill="#1565c0" opacity="0.28"/><circle cx="28" cy="410" r="3.5" fill="#1565c0" opacity="0.28"/><circle cx="28" cy="454" r="3.5" fill="#1565c0" opacity="0.28"/><circle cx="28" cy="498" r="3.5" fill="#1565c0" opacity="0.28"/><circle cx="28" cy="542" r="3.5" fill="#1565c0" opacity="0.28"/><circle cx="28" cy="586" r="3.5" fill="#1565c0" opacity="0.28"/><circle cx="28" cy="630" r="3.5" fill="#1565c0" opacity="0.28"/><circle cx="28" cy="674" r="3.5" fill="#1565c0" opacity="0.28"/><circle cx="28" cy="718" r="3.5" fill="#1565c0" opacity="0.28"/><circle cx="28" cy="762" r="3.5" fill="#1565c0" opacity="0.28"/><circle cx="28" cy="806" r="3.5" fill="#1565c0" opacity="0.28"/><circle cx="28" cy="850" r="3.5" fill="#1565c0" opacity="0.28"/><circle cx="28" cy="894" r="3.5" fill="#1565c0" opacity="0.28"/><circle cx="28" cy="938" r="3.5" fill="#1565c0" opacity="0.28"/><circle cx="28" cy="982" r="3.5" fill="#1565c0" opacity="0.28"/><circle cx="72" cy="190" r="3.5" fill="#1565c0" opacity="0.28"/><circle cx="72" cy="234" r="3.5" fill="#1565c0" opacity="0.28"/><circle cx="72" cy="278" r="3.5" fill="#1565c0" opacity="0.28"/><circle cx="72" cy="322" r="3.5" fill="#1565c0" opacity="0.28"/><circle cx="72" cy="366" r="3.5" fill="#1565c0" opacity="0.28"/><circle cx="72" cy="410" r="3.5" fill="#1565c0" opacity="0.28"/><circle cx="72" cy="454" r="3.5" fill="#1565c0" opacity="0.28"/><circle cx="72" cy="498" r="3.5" fill="#1565c0" opacity="0.28"/><circle cx="72" cy="542" r="3.5" fill="#1565c0" opacity="0.28"/><circle cx="72" cy="586" r="3.5" fill="#1565c0" opacity="0.28"/><circle cx="72" cy="630" r="3.5" fill="#1565c0" opacity="0.28"/><circle cx="72" cy="674" r="3.5" fill="#1565c0" opacity="0.28"/><circle cx="72" cy="718" r="3.5" fill="#1565c0" opacity="0.28"/><circle cx="72" cy="762" r="3.5" fill="#1565c0" opacity="0.28"/><circle cx="72" cy="806" r="3.5" fill="#1565c0" opacity="0.28"/><circle cx="72" cy="850" r="3.5" fill="#1565c0" opacity="0.28"/><circle cx="72" cy="894" r="3.5" fill="#1565c0" opacity="0.28"/><circle cx="72" cy="938" r="3.5" fill="#1565c0" opacity="0.28"/><circle cx="72" cy="982" r="3.5" fill="#1565c0" opacity="0.28"/><circle cx="116" cy="190" r="3.5" fill="#1565c0" opacity="0.28"/><circle cx="116" cy="234" r="3.5" fill="#1565c0" opacity="0.28"/><circle cx="116" cy="278" r="3.5" fill="#1565c0" opacity="0.28"/><circle cx="116" cy="322" r="3.5" fill="#1565c0" opacity="0.28"/><circle cx="116" cy="366" r="3.5" fill="#1565c0" opacity="0.28"/><circle cx="116" cy="410" r="3.5" fill="#1565c0" opacity="0.28"/><circle cx="116" cy="454" r="3.5" fill="#1565c0" opacity="0.28"/><circle cx="116" cy="498" r="3.5" fill="#1565c0" opacity="0.28"/><circle cx="116" cy="542" r="3.5" fill="#1565c0" opacity="0.28"/><circle cx="116" cy="586" r="3.5" fill="#1565c0" opacity="0.28"/><circle cx="116" cy="630" r="3.5" fill="#1565c0" opacity="0.28"/><circle cx="116" cy="674" r="3.5" fill="#1565c0" opacity="0.28"/><circle cx="116" cy="718" r="3.5" fill="#1565c0" opacity="0.28"/><circle cx="116" cy="762" r="3.5" fill="#1565c0" opacity="0.28"/><circle cx="116" cy="806" r="3.5" fill="#1565c0" opacity="0.28"/><circle cx="116" cy="850" r="3.5" fill="#1565c0" opacity="0.28"/><circle cx="116" cy="894" r="3.5" fill="#1565c0" opacity="0.28"/><circle cx="116" cy="938" r="3.5" fill="#1565c0" opacity="0.28"/><circle cx="116" cy="982" r="3.5" fill="#1565c0" opacity="0.28"/><circle cx="160" cy="190" r="3.5" fill="#1565c0" opacity="0.28"/><circle cx="160" cy="234" r="3.5" fill="#1565c0" opacity="0.28"/><circle cx="160" cy="278" r="3.5" fill="#1565c0" opacity="0.28"/><circle cx="160" cy="322" r="3.5" fill="#1565c0" opacity="0.28"/><circle cx="160" cy="366" r="3.5" fill="#1565c0" opacity="0.28"/><circle cx="160" cy="410" r="3.5" fill="#1565c0" opacity="0.28"/><circle cx="160" cy="454" r="3.5" fill="#1565c0" opacity="0.28"/><circle cx="160" cy="498" r="3.5" fill="#1565c0" opacity="0.28"/><circle cx="160" cy="542" r="3.5" fill="#1565c0" opacity="0.28"/><circle cx="160" cy="586" r="3.5" fill="#1565c0" opacity="0.28"/><circle cx="160" cy="630" r="3.5" fill="#1565c0" opacity="0.28"/><circle cx="160" cy="674" r="3.5" fill="#1565c0" opacity="0.28"/><circle cx="160" cy="718" r="3.5" fill="#1565c0" opacity="0.28"/><circle cx="160" cy="762" r="3.5" fill="#1565c0" opacity="0.28"/><circle cx="160" cy="806" r="3.5" fill="#1565c0" opacity="0.28"/><circle cx="160" cy="850" r="3.5" fill="#1565c0" opacity="0.28"/><circle cx="160" cy="894" r="3.5" fill="#1565c0" opacity="0.28"/><circle cx="160" cy="938" r="3.5" fill="#1565c0" opacity="0.28"/><circle cx="160" cy="982" r="3.5" fill="#1565c0" opacity="0.28"/><circle cx="204" cy="190" r="3.5" fill="#1565c0" opacity="0.28"/><circle cx="204" cy="234" r="3.5" fill="#1565c0" opacity="0.28"/><circle cx="204" cy="278" r="3.5" fill="#1565c0" opacity="0.28"/><circle cx="204" cy="322" r="3.5" fill="#1565c0" opacity="0.28"/><circle cx="204" cy="366" r="3.5" fill="#1565c0" opacity="0.28"/><circle cx="204" cy="410" r="3.5" fill="#1565c0" opacity="0.28"/><circle cx="204" cy="454" r="3.5" fill="#1565c0" opacity="0.28"/><circle cx="204" cy="498" r="3.5" fill="#1565c0" opacity="0.28"/><circle cx="204" cy="542" r="3.5" fill="#1565c0" opacity="0.28"/><circle cx="204" cy="586" r="3.5" fill="#1565c0" opacity="0.28"/><circle cx="204" cy="630" r="3.5" fill="#1565c0" opacity="0.28"/><circle cx="204" cy="674" r="3.5" fill="#1565c0" opacity="0.28"/><circle cx="204" cy="718" r="3.5" fill="#1565c0" opacity="0.28"/><circle cx="204" cy="762" r="3.5" fill="#1565c0" opacity="0.28"/><circle cx="204" cy="806" r="3.5" fill="#1565c0" opacity="0.28"/><circle cx="204" cy="850" r="3.5" fill="#1565c0" opacity="0.28"/><circle cx="204" cy="894" r="3.5" fill="#1565c0" opacity="0.28"/><circle cx="204" cy="938" r="3.5" fill="#1565c0" opacity="0.28"/><circle cx="204" cy="982" r="3.5" fill="#1565c0" opacity="0.28"/><circle cx="248" cy="190" r="3.5" fill="#1565c0" opacity="0.28"/><circle cx="248" cy="234" r="3.5" fill="#1565c0" opacity="0.28"/><circle cx="248" cy="278" r="3.5" fill="#1565c0" opacity="0.28"/><circle cx="248" cy="322" r="3.5" fill="#1565c0" opacity="0.28"/><circle cx="248" cy="366" r="3.5" fill="#1565c0" opacity="0.28"/><circle cx="248" cy="410" r="3.5" fill="#1565c0" opacity="0.28"/><circle cx="248" cy="454" r="3.5" fill="#1565c0" opacity="0.28"/><circle cx="248" cy="498" r="3.5" fill="#1565c0" opacity="0.28"/><circle cx="248" cy="542" r="3.5" fill="#1565c0" opacity="0.28"/><circle cx="248" cy="586" r="3.5" fill="#1565c0" opacity="0.28"/><circle cx="248" cy="630" r="3.5" fill="#1565c0" opacity="0.28"/><circle cx="248" cy="674" r="3.5" fill="#1565c0" opacity="0.28"/><circle cx="248" cy="718" r="3.5" fill="#1565c0" opacity="0.28"/><circle cx="248" cy="762" r="3.5" fill="#1565c0" opacity="0.28"/><circle cx="248" cy="806" r="3.5" fill="#1565c0" opacity="0.28"/><circle cx="248" cy="850" r="3.5" fill="#1565c0" opacity="0.28"/><circle cx="248" cy="894" r="3.5" fill="#1565c0" opacity="0.28"/><circle cx="248" cy="938" r="3.5" fill="#1565c0" opacity="0.28"/><circle cx="248" cy="982" r="3.5" fill="#1565c0" opacity="0.28"/><circle cx="292" cy="190" r="3.5" fill="#1565c0" opacity="0.28"/><circle cx="292" cy="234" r="3.5" fill="#1565c0" opacity="0.28"/><circle cx="292" cy="278" r="3.5" fill="#1565c0" opacity="0.28"/><circle cx="292" cy="322" r="3.5" fill="#1565c0" opacity="0.28"/><circle cx="292" cy="366" r="3.5" fill="#1565c0" opacity="0.28"/><circle cx="292" cy="410" r="3.5" fill="#1565c0" opacity="0.28"/><circle cx="292" cy="454" r="3.5" fill="#1565c0" opacity="0.28"/><circle cx="292" cy="498" r="3.5" fill="#1565c0" opacity="0.28"/><circle cx="292" cy="542" r="3.5" fill="#1565c0" opacity="0.28"/><circle cx="292" cy="586" r="3.5" fill="#1565c0" opacity="0.28"/><circle cx="292" cy="630" r="3.5" fill="#1565c0" opacity="0.28"/><circle cx="292" cy="674" r="3.5" fill="#1565c0" opacity="0.28"/><circle cx="292" cy="718" r="3.5" fill="#1565c0" opacity="0.28"/><circle cx="292" cy="762" r="3.5" fill="#1565c0" opacity="0.28"/><circle cx="292" cy="806" r="3.5" fill="#1565c0" opacity="0.28"/><circle cx="292" cy="850" r="3.5" fill="#1565c0" opacity="0.28"/><circle cx="292" cy="894" r="3.5" fill="#1565c0" opacity="0.28"/><circle cx="292" cy="938" r="3.5" fill="#1565c0" opacity="0.28"/><circle cx="292" cy="982" r="3.5" fill="#1565c0" opacity="0.28"/><circle cx="336" cy="190" r="3.5" fill="#1565c0" opacity="0.28"/><circle cx="336" cy="234" r="3.5" fill="#1565c0" opacity="0.28"/><circle cx="336" cy="278" r="3.5" fill="#1565c0" opacity="0.28"/><circle cx="336" cy="322" r="3.5" fill="#1565c0" opacity="0.28"/><circle cx="336" cy="366" r="3.5" fill="#1565c0" opacity="0.28"/><circle cx="336" cy="410" r="3.5" fill="#1565c0" opacity="0.28"/><circle cx="336" cy="454" r="3.5" fill="#1565c0" opacity="0.28"/><circle cx="336" cy="498" r="3.5" fill="#1565c0" opacity="0.28"/><circle cx="336" cy="542" r="3.5" fill="#1565c0" opacity="0.28"/><circle cx="336" cy="586" r="3.5" fill="#1565c0" opacity="0.28"/><circle cx="336" cy="630" r="3.5" fill="#1565c0" opacity="0.28"/><circle cx="336" cy="674" r="3.5" fill="#1565c0" opacity="0.28"/><circle cx="336" cy="718" r="3.5" fill="#1565c0" opacity="0.28"/><circle cx="336" cy="762" r="3.5" fill="#1565c0" opacity="0.28"/><circle cx="336" cy="806" r="3.5" fill="#1565c0" opacity="0.28"/><circle cx="336" cy="850" r="3.5" fill="#1565c0" opacity="0.28"/><circle cx="336" cy="894" r="3.5" fill="#1565c0" opacity="0.28"/><circle cx="336" cy="938" r="3.5" fill="#1565c0" opacity="0.28"/><circle cx="336" cy="982" r="3.5" fill="#1565c0" opacity="0.28"/><circle cx="380" cy="190" r="3.5" fill="#1565c0" opacity="0.28"/><circle cx="380" cy="234" r="3.5" fill="#1565c0" opacity="0.28"/><circle cx="380" cy="278" r="3.5" fill="#1565c0" opacity="0.28"/><circle cx="380" cy="322" r="3.5" fill="#1565c0" opacity="0.28"/><circle cx="380" cy="366" r="3.5" fill="#1565c0" opacity="0.28"/><circle cx="380" cy="410" r="3.5" fill="#1565c0" opacity="0.28"/><circle cx="380" cy="454" r="3.5" fill="#1565c0" opacity="0.28"/><circle cx="380" cy="498" r="3.5" fill="#1565c0" opacity="0.28"/><circle cx="380" cy="542" r="3.5" fill="#1565c0" opacity="0.28"/><circle cx="380" cy="586" r="3.5" fill="#1565c0" opacity="0.28"/><circle cx="380" cy="630" r="3.5" fill="#1565c0" opacity="0.28"/><circle cx="380" cy="674" r="3.5" fill="#1565c0" opacity="0.28"/><circle cx="380" cy="718" r="3.5" fill="#1565c0" opacity="0.28"/><circle cx="380" cy="762" r="3.5" fill="#1565c0" opacity="0.28"/><circle cx="380" cy="806" r="3.5" fill="#1565c0" opacity="0.28"/><circle cx="380" cy="850" r="3.5" fill="#1565c0" opacity="0.28"/><circle cx="380" cy="894" r="3.5" fill="#1565c0" opacity="0.28"/><circle cx="380" cy="938" r="3.5" fill="#1565c0" opacity="0.28"/><circle cx="380" cy="982" r="3.5" fill="#1565c0" opacity="0.28"/><circle cx="424" cy="190" r="3.5" fill="#1565c0" opacity="0.28"/><circle cx="424" cy="234" r="3.5" fill="#1565c0" opacity="0.28"/><circle cx="424" cy="278" r="3.5" fill="#1565c0" opacity="0.28"/><circle cx="424" cy="322" r="3.5" fill="#1565c0" opacity="0.28"/><circle cx="424" cy="366" r="3.5" fill="#1565c0" opacity="0.28"/><circle cx="424" cy="410" r="3.5" fill="#1565c0" opacity="0.28"/><circle cx="424" cy="454" r="3.5" fill="#1565c0" opacity="0.28"/><circle cx="424" cy="498" r="3.5" fill="#1565c0" opacity="0.28"/><circle cx="424" cy="542" r="3.5" fill="#1565c0" opacity="0.28"/><circle cx="424" cy="586" r="3.5" fill="#1565c0" opacity="0.28"/><circle cx="424" cy="630" r="3.5" fill="#1565c0" opacity="0.28"/><circle cx="424" cy="674" r="3.5" fill="#1565c0" opacity="0.28"/><circle cx="424" cy="718" r="3.5" fill="#1565c0" opacity="0.28"/><circle cx="424" cy="762" r="3.5" fill="#1565c0" opacity="0.28"/><circle cx="424" cy="806" r="3.5" fill="#1565c0" opacity="0.28"/><circle cx="424" cy="850" r="3.5" fill="#1565c0" opacity="0.28"/><circle cx="424" cy="894" r="3.5" fill="#1565c0" opacity="0.28"/><circle cx="424" cy="938" r="3.5" fill="#1565c0" opacity="0.28"/><circle cx="424" cy="982" r="3.5" fill="#1565c0" opacity="0.28"/><circle cx="468" cy="190" r="3.5" fill="#1565c0" opacity="0.28"/><circle cx="468" cy="234" r="3.5" fill="#1565c0" opacity="0.28"/><circle cx="468" cy="278" r="3.5" fill="#1565c0" opacity="0.28"/><circle cx="468" cy="322" r="3.5" fill="#1565c0" opacity="0.28"/><circle cx="468" cy="366" r="3.5" fill="#1565c0" opacity="0.28"/><circle cx="468" cy="410" r="3.5" fill="#1565c0" opacity="0.28"/><circle cx="468" cy="454" r="3.5" fill="#1565c0" opacity="0.28"/><circle cx="468" cy="498" r="3.5" fill="#1565c0" opacity="0.28"/><circle cx="468" cy="542" r="3.5" fill="#1565c0" opacity="0.28"/><circle cx="468" cy="586" r="3.5" fill="#1565c0" opacity="0.28"/><circle cx="468" cy="630" r="3.5" fill="#1565c0" opacity="0.28"/><circle cx="468" cy="674" r="3.5" fill="#1565c0" opacity="0.28"/><circle cx="468" cy="718" r="3.5" fill="#1565c0" opacity="0.28"/><circle cx="468" cy="762" r="3.5" fill="#1565c0" opacity="0.28"/><circle cx="468" cy="806" r="3.5" fill="#1565c0" opacity="0.28"/><circle cx="468" cy="850" r="3.5" fill="#1565c0" opacity="0.28"/><circle cx="468" cy="894" r="3.5" fill="#1565c0" opacity="0.28"/><circle cx="468" cy="938" r="3.5" fill="#1565c0" opacity="0.28"/><circle cx="468" cy="982" r="3.5" fill="#1565c0" opacity="0.28"/><circle cx="512" cy="190" r="3.5" fill="#1565c0" opacity="0.28"/><circle cx="512" cy="234" r="3.5" fill="#1565c0" opacity="0.28"/><circle cx="512" cy="278" r="3.5" fill="#1565c0" opacity="0.28"/><circle cx="512" cy="322" r="3.5" fill="#1565c0" opacity="0.28"/><circle cx="512" cy="366" r="3.5" fill="#1565c0" opacity="0.28"/><circle cx="512" cy="410" r="3.5" fill="#1565c0" opacity="0.28"/><circle cx="512" cy="454" r="3.5" fill="#1565c0" opacity="0.28"/><circle cx="512" cy="498" r="3.5" fill="#1565c0" opacity="0.28"/><circle cx="512" cy="542" r="3.5" fill="#1565c0" opacity="0.28"/><circle cx="512" cy="586" r="3.5" fill="#1565c0" opacity="0.28"/><circle cx="512" cy="630" r="3.5" fill="#1565c0" opacity="0.28"/><circle cx="512" cy="674" r="3.5" fill="#1565c0" opacity="0.28"/><circle cx="512" cy="718" r="3.5" fill="#1565c0" opacity="0.28"/><circle cx="512" cy="762" r="3.5" fill="#1565c0" opacity="0.28"/><circle cx="512" cy="806" r="3.5" fill="#1565c0" opacity="0.28"/><circle cx="512" cy="850" r="3.5" fill="#1565c0" opacity="0.28"/><circle cx="512" cy="894" r="3.5" fill="#1565c0" opacity="0.28"/><circle cx="512" cy="938" r="3.5" fill="#1565c0" opacity="0.28"/><circle cx="512" cy="982" r="3.5" fill="#1565c0" opacity="0.28"/><circle cx="556" cy="190" r="3.5" fill="#1565c0" opacity="0.28"/><circle cx="556" cy="234" r="3.5" fill="#1565c0" opacity="0.28"/><circle cx="556" cy="278" r="3.5" fill="#1565c0" opacity="0.28"/><circle cx="556" cy="322" r="3.5" fill="#1565c0" opacity="0.28"/><circle cx="556" cy="366" r="3.5" fill="#1565c0" opacity="0.28"/><circle cx="556" cy="410" r="3.5" fill="#1565c0" opacity="0.28"/><circle cx="556" cy="454" r="3.5" fill="#1565c0" opacity="0.28"/><circle cx="556" cy="498" r="3.5" fill="#1565c0" opacity="0.28"/><circle cx="556" cy="542" r="3.5" fill="#1565c0" opacity="0.28"/><circle cx="556" cy="586" r="3.5" fill="#1565c0" opacity="0.28"/><circle cx="556" cy="630" r="3.5" fill="#1565c0" opacity="0.28"/><circle cx="556" cy="674" r="3.5" fill="#1565c0" opacity="0.28"/><circle cx="556" cy="718" r="3.5" fill="#1565c0" opacity="0.28"/><circle cx="556" cy="762" r="3.5" fill="#1565c0" opacity="0.28"/><circle cx="556" cy="806" r="3.5" fill="#1565c0" opacity="0.28"/><circle cx="556" cy="850" r="3.5" fill="#1565c0" opacity="0.28"/><circle cx="556" cy="894" r="3.5" fill="#1565c0" opacity="0.28"/><circle cx="556" cy="938" r="3.5" fill="#1565c0" opacity="0.28"/><circle cx="556" cy="982" r="3.5" fill="#1565c0" opacity="0.28"/><circle cx="600" cy="190" r="3.5" fill="#1565c0" opacity="0.28"/><circle cx="600" cy="234" r="3.5" fill="#1565c0" opacity="0.28"/><circle cx="600" cy="278" r="3.5" fill="#1565c0" opacity="0.28"/><circle cx="600" cy="322" r="3.5" fill="#1565c0" opacity="0.28"/><circle cx="600" cy="366" r="3.5" fill="#1565c0" opacity="0.28"/><circle cx="600" cy="410" r="3.5" fill="#1565c0" opacity="0.28"/><circle cx="600" cy="454" r="3.5" fill="#1565c0" opacity="0.28"/><circle cx="600" cy="498" r="3.5" fill="#1565c0" opacity="0.28"/><circle cx="600" cy="542" r="3.5" fill="#1565c0" opacity="0.28"/><circle cx="600" cy="586" r="3.5" fill="#1565c0" opacity="0.28"/><circle cx="600" cy="630" r="3.5" fill="#1565c0" opacity="0.28"/><circle cx="600" cy="674" r="3.5" fill="#1565c0" opacity="0.28"/><circle cx="600" cy="718" r="3.5" fill="#1565c0" opacity="0.28"/><circle cx="600" cy="762" r="3.5" fill="#1565c0" opacity="0.28"/><circle cx="600" cy="806" r="3.5" fill="#1565c0" opacity="0.28"/><circle cx="600" cy="850" r="3.5" fill="#1565c0" opacity="0.28"/><circle cx="600" cy="894" r="3.5" fill="#1565c0" opacity="0.28"/><circle cx="600" cy="938" r="3.5" fill="#1565c0" opacity="0.28"/><circle cx="600" cy="982" r="3.5" fill="#1565c0" opacity="0.28"/><circle cx="644" cy="190" r="3.5" fill="#1565c0" opacity="0.28"/><circle cx="644" cy="234" r="3.5" fill="#1565c0" opacity="0.28"/><circle cx="644" cy="278" r="3.5" fill="#1565c0" opacity="0.28"/><circle cx="644" cy="322" r="3.5" fill="#1565c0" opacity="0.28"/><circle cx="644" cy="366" r="3.5" fill="#1565c0" opacity="0.28"/><circle cx="644" cy="410" r="3.5" fill="#1565c0" opacity="0.28"/><circle cx="644" cy="454" r="3.5" fill="#1565c0" opacity="0.28"/><circle cx="644" cy="498" r="3.5" fill="#1565c0" opacity="0.28"/><circle cx="644" cy="542" r="3.5" fill="#1565c0" opacity="0.28"/><circle cx="644" cy="586" r="3.5" fill="#1565c0" opacity="0.28"/><circle cx="644" cy="630" r="3.5" fill="#1565c0" opacity="0.28"/><circle cx="644" cy="674" r="3.5" fill="#1565c0" opacity="0.28"/><circle cx="644" cy="718" r="3.5" fill="#1565c0" opacity="0.28"/><circle cx="644" cy="762" r="3.5" fill="#1565c0" opacity="0.28"/><circle cx="644" cy="806" r="3.5" fill="#1565c0" opacity="0.28"/><circle cx="644" cy="850" r="3.5" fill="#1565c0" opacity="0.28"/><circle cx="644" cy="894" r="3.5" fill="#1565c0" opacity="0.28"/><circle cx="644" cy="938" r="3.5" fill="#1565c0" opacity="0.28"/><circle cx="644" cy="982" r="3.5" fill="#1565c0" opacity="0.28"/></g>
<rect x="0" y="0" width="680" height="148" fill="rgba(0,0,0,0.52)"/>
<line x1="0" y1="148" x2="680" y2="148" stroke="#40c4ff" stroke-width="1.2"/>
<rect x="48" y="100" width="202" height="1.5" fill="#40c4ff" opacity="0.5"/><rect x="430" y="100" width="202" height="1.5" fill="#40c4ff" opacity="0.5"/>
<text x="343" y="135" text-anchor="middle" font-family="'Arial Black','Impact',sans-serif" font-weight="900" font-size="54" fill="rgba(0,0,0,0.45)" letter-spacing="4">VOID ASSAULT</text>
<text x="340" y="132" text-anchor="middle" font-family="'Arial Black','Impact',sans-serif" font-weight="900" font-size="54" fill="#40c4ff" letter-spacing="4">VOID ASSAULT</text>
<text x="340" y="660" text-anchor="middle" dominant-baseline="central" font-size="300">🚀</text>
<rect x="0" y="988" width="680" height="32" fill="rgba(0,0,0,0.52)"/>
<line x1="0" y1="988" x2="680" y2="988" stroke="#40c4ff" stroke-width="0.8" opacity="0.3"/>
</svg>